<?xml version="1.0" encoding="UTF-8"?>
<!DOCTYPE svg PUBLIC "-//W3C//DTD SVG 1.1//EN" "http://www.w3.org/Graphics/SVG/1.1/DTD/svg11.dtd">
<!-- Creator: CorelDRAW X7 -->
<svg xmlns="http://www.w3.org/2000/svg" xml:space="preserve" width="59.2359mm" height="67.1911mm" version="1.1" shape-rendering="geometricPrecision" text-rendering="geometricPrecision" image-rendering="optimizeQuality" fill-rule="evenodd" clip-rule="evenodd"
viewBox="0 0 1439 1632"
 xmlns:xlink="http://www.w3.org/1999/xlink">
 <defs>
    <clipPath id="id0">
     <path d="M0 0l1439 0 0 1632 -1439 0 0 -1632z"/>
    </clipPath>
    <clipPath id="id1">
     <path d="M133 165l1174 0 0 1172 -1174 0 0 -1172z"/>
    </clipPath>
    <clipPath id="id2">
     <path d="M195 226l1050 0 0 1050 -1050 0 0 -1050z"/>
    </clipPath>
    <clipPath id="id3">
     <path d="M473 517l658 0 0 459 -658 0 0 -459z"/>
    </clipPath>
    <clipPath id="id4">
     <path d="M675 811l339 0 0 340 -339 0 0 -340z"/>
    </clipPath>
    <clipPath id="id5">
     <path d="M269 477l245 0 0 351 -245 0 0 -351z"/>
    </clipPath>
    <clipPath id="id6">
     <path d="M972 491l209 0 0 292 -209 0 0 -292z"/>
    </clipPath>
    <clipPath id="id7">
     <path d="M319 493l446 0 0 485 -446 0 0 -485z"/>
    </clipPath>
    <clipPath id="id8">
     <path d="M616 985l143 0 0 145 -143 0 0 -145z"/>
    </clipPath>
    <clipPath id="id9">
     <path d="M552 953l128 0 0 127 -128 0 0 -127z"/>
    </clipPath>
    <clipPath id="id10">
     <path d="M705 1046l107 0 0 107 -107 0 0 -107z"/>
    </clipPath>
    <clipPath id="id11">
     <path d="M498 930l89 0 0 91 -89 0 0 -91z"/>
    </clipPath>
 </defs>
 <g id="圖層_x0020_1">
  <metadata id="CorelCorpID_0Corel-Layer"/>
  <g id="_794582128">
   <g clip-path="url(#id0)">
    <image x="0" y="0" width="1439" height="1632" xlink:href="留言1星_Images\留言1星_ImgID1.png"/>
   </g>
  </g>
  <path fill="#FDD100" d="M464 152l-22 7 -20 9c-2,3 -22,15 -26,19 0,3 1,2 -2,1l-29 35c-3,8 0,5 -7,9 0,6 -1,6 -5,12 -1,1 -4,6 -4,6 -3,3 -1,2 -4,3 -3,7 -1,3 -5,5 -2,8 -11,16 -17,18 -2,3 -1,1 -4,5 -3,3 -3,2 -5,4 -4,3 -7,6 -12,8l-6 4c-7,4 -14,8 -22,9 -6,8 -23,13 -31,19 -6,3 -9,6 -14,10 -29,21 -45,71 -51,78l-2 12c-2,22 -3,49 -8,70 -5,15 -16,47 -27,52 -1,7 -5,9 -9,16 -4,5 -7,9 -11,14 -6,9 -12,25 -17,32 -4,22 -12,35 -10,67 2,36 12,43 16,63 3,3 9,20 10,26 17,21 6,79 2,106 -6,46 7,65 20,101 4,1 8,10 9,15 7,3 8,6 11,12 5,4 15,10 17,15 9,6 11,6 17,15 7,2 8,3 11,10 10,6 10,6 16,17 3,1 2,1 5,5 2,3 2,4 4,6 4,6 4,7 7,13 9,10 21,51 25,66l3 4c-1,7 -15,31 -18,33 -3,7 -5,13 -11,17 -1,5 0,7 -6,11l-41 73c-6,9 -35,65 -44,71 0,4 2,4 -3,6l-14 29 202 0c3,10 12,21 18,30 3,4 8,11 9,16 5,3 57,83 69,102l1 0c4,-10 12,-20 17,-30 5,-10 12,-21 18,-29 1,-7 7,-14 12,-22 4,-8 8,-14 13,-22 5,-9 22,-41 28,-46 2,-8 11,-22 16,-31 6,-10 12,-19 17,-30l24 8c29,2 45,6 75,-3 7,-1 10,-3 17,-3 23,-18 82,-9 108,-1 44,13 65,14 110,1l9 14c4,9 6,8 8,17l0 0c7,5 14,20 17,28 5,4 11,16 15,24 8,14 19,32 28,48 4,7 9,16 14,24 4,7 11,17 13,24 5,8 14,18 15,28 7,-2 1,1 6,-4 1,0 3,-3 4,-4l89 -138 157 -1c6,0 46,2 45,-1 -2,-4 -3,-7 -6,-12 -4,-7 -5,-5 -6,-13 -6,-4 -23,-36 -28,-45 -9,-16 -19,-31 -27,-47 -2,-3 -7,-10 -9,-15 -3,-4 -8,-12 -11,-20 -3,-1 -5,-6 -7,-11 -3,-4 -5,-8 -8,-14l-4 -6c-7,-10 -27,-45 -29,-53l7 -7 9 -28c5,-12 8,-24 14,-36 15,-32 42,-54 69,-76 37,-29 56,-90 48,-143 -16,-103 11,-101 26,-160 6,-25 2,-65 -5,-88 -13,-41 -31,-47 -35,-63 -7,-2 -3,-1 -7,-6 -2,-4 -2,-4 -4,-8 -16,-25 -22,-49 -25,-85 -2,-18 -2,-30 -8,-46 -5,-15 -11,-25 -17,-37l-11 -15c-1,-1 0,0 -3,-2 0,-1 -1,-2 -1,-2l-13 -15c-5,-2 -10,-7 -15,-11 -46,-25 -78,-35 -104,-70 -23,-32 -25,-48 -57,-73 -64,-51 -119,-23 -177,-39 -27,-7 -38,-16 -59,-27 -45,-24 -37,-12 -64,-22l-35 0c-13,5 -30,3 -55,18 -96,55 -89,28 -183,40z"/>
  <g id="_794581456">
   <g clip-path="url(#id1)">
    <image x="133" y="165" width="1173" height="1172" xlink:href="留言1星_Images\留言1星_ImgID2.png"/>
   </g>
  </g>
  <path fill="#EEEEEE" d="M676 243c-66,4 -140,27 -196,57 -36,20 -66,40 -94,65l-32 32c-8,7 -10,7 -16,16l-28 34c-73,103 -110,215 -98,348 9,107 48,193 108,272 4,6 9,13 14,17 23,23 15,19 49,49l34 28c43,29 71,48 125,67 69,26 145,38 221,31 57,-6 102,-17 152,-37 39,-16 89,-45 121,-71l34 -30c7,-6 11,-9 16,-15l44 -52c71,-98 110,-221 98,-346 -10,-108 -45,-189 -108,-273l-29 -35c-20,-16 -11,-14 -33,-31 -4,-3 -4,-3 -7,-7l-27 -21c-102,-75 -217,-107 -348,-98z"/>
  <g id="_366175752">
   <g clip-path="url(#id2)">
    <image x="195" y="226" width="1050" height="1050" xlink:href="留言1星_Images\留言1星_ImgID3.png"/>
   </g>
  </g>
  <path fill="#F7A30A" d="M688 296c-95,4 -179,41 -249,94 -120,92 -184,239 -175,394 2,35 9,64 18,96 14,53 50,118 84,159 3,4 3,4 6,7 2,3 4,6 6,9l21 21c7,6 9,7 16,15l31 25c117,85 260,115 402,73 62,-18 120,-50 167,-91l45 -41 48 -66c50,-84 74,-171 67,-273 -5,-84 -31,-149 -70,-213 -4,-6 -9,-13 -12,-17 -4,-6 -8,-12 -12,-17l-40 -45c-100,-93 -207,-138 -353,-130z"/>
  <g id="_366177648">
   <g clip-path="url(#id3)">
    <image x="473" y="517" width="658" height="459" xlink:href="留言1星_Images\留言1星_ImgID4.png"/>
   </g>
  </g>
  <path fill="#ECF6F3" d="M958 946c75,-45 77,-84 126,-154 5,-9 13,-16 17,-25l-124 -214c-29,11 -37,21 -76,18 -44,-3 -113,-37 -167,-18 -32,11 -80,61 -108,84l-38 33c-6,6 -9,7 -15,12l-51 46c-9,7 -18,11 -19,28 -1,26 24,47 52,29 11,-6 20,-10 31,-17 21,-12 42,-22 63,-34 11,-6 53,-33 64,-27l147 142c20,20 80,87 98,97z"/>
  <g id="_366155856">
   <g clip-path="url(#id4)">
    <image x="675" y="811" width="339" height="341" xlink:href="留言1星_Images\留言1星_ImgID5.png"/>
   </g>
  </g>
  <path fill="#ECF6F3" d="M754 856c8,13 116,119 137,139 9,9 46,35 25,57 -21,21 -47,-16 -55,-24 -21,-21 -128,-130 -140,-139 -8,4 -6,4 -13,10 -4,4 -7,7 -11,11 6,13 89,93 101,104 30,30 75,61 55,85 -14,17 -34,1 -38,-2 -2,13 -5,12 -9,20 20,21 76,18 75,-40 22,6 37,5 51,-10 20,-20 9,-28 11,-51 44,1 56,-30 46,-68 -28,14 -14,8 -20,30 -3,13 -19,21 -33,12 -16,-10 -140,-147 -161,-157 -7,6 -17,14 -21,23z"/>
  <g id="_366158880">
   <g clip-path="url(#id5)">
    <image x="269" y="477" width="245" height="350" xlink:href="留言1星_Images\留言1星_ImgID6.png"/>
   </g>
  </g>
  <path fill="#ECF6F3" d="M452 494c-10,5 -21,28 -28,39 -8,15 -15,27 -24,42l-98 170c-6,10 -22,32 -15,45 4,8 31,26 45,21 11,-4 93,-155 100,-167 17,-29 33,-56 50,-85 7,-13 22,-30 14,-45 -4,-7 -32,-25 -44,-20z"/>
  <g id="_366162960">
   <g clip-path="url(#id6)">
    <image x="972" y="491" width="210" height="292" xlink:href="留言1星_Images\留言1星_ImgID7.png"/>
   </g>
  </g>
  <path fill="#ECF6F3" d="M1021 506c-12,3 -31,13 -35,23 -4,13 9,28 14,38l103 178c7,12 13,29 33,23 10,-4 29,-14 31,-24 4,-15 -46,-94 -55,-110l-62 -107c-7,-11 -13,-26 -29,-21z"/>
  <g id="_366166392">
   <g clip-path="url(#id7)">
    <image x="319" y="493" width="446" height="485" xlink:href="留言1星_Images\留言1星_ImgID8.png"/>
   </g>
  </g>
  <path fill="#ECF6F3" d="M510 530c-11,20 -158,270 -162,285 8,5 15,10 21,16l101 84c5,3 6,5 10,8l34 26c3,-4 3,-3 6,-7 1,-1 2,-2 3,-4 3,-5 1,1 3,-5 -25,-26 -131,-100 -150,-124 7,-17 25,-44 35,-62l107 -186c55,15 56,10 110,-4 52,-13 81,-11 84,-12 1,0 24,-10 24,-10 -36,-35 -135,15 -173,14 -23,-1 -37,-12 -53,-19z"/>
  <g id="_366173016">
   <g clip-path="url(#id8)">
    <image x="616" y="985" width="144" height="144" xlink:href="留言1星_Images\留言1星_ImgID9.png"/>
   </g>
  </g>
  <path fill="#ECF6F3" d="M703 998c-19,9 -50,44 -65,60 -31,33 -1,74 35,59 13,-5 24,-19 33,-28l23 -24c5,-6 2,-3 8,-8 31,-27 2,-75 -34,-59z"/>
  <g id="_297017264">
   <g clip-path="url(#id9)">
    <image x="552" y="953" width="128" height="127" xlink:href="留言1星_Images\留言1星_ImgID10.png"/>
   </g>
  </g>
  <path fill="#ECF6F3" d="M626 963c-11,4 -52,45 -58,54 -21,27 5,63 37,53 13,-4 49,-44 58,-53 23,-26 -3,-65 -37,-54z"/>
  <g id="_297020408">
   <g clip-path="url(#id10)">
    <image x="705" y="1046" width="107" height="107" xlink:href="留言1星_Images\留言1星_ImgID11.png"/>
   </g>
  </g>
  <path fill="#ECF6F3" d="M758 1056c-14,6 -42,30 -45,48 -6,29 19,51 47,39 11,-5 41,-34 44,-48 5,-28 -20,-50 -46,-39z"/>
  <g id="_297024944">
   <g clip-path="url(#id11)">
    <image x="498" y="930" width="89.0359" height="90.9936" xlink:href="留言1星_Images\留言1星_ImgID12.png"/>
   </g>
  </g>
  <path fill="#ECF6F3" d="M536 939c-12,5 -34,26 -32,46 2,21 24,37 47,28 50,-19 34,-93 -15,-74z"/>
 </g>
</svg>
