<?xml version="1.0" encoding="UTF-8"?>
<!DOCTYPE svg PUBLIC "-//W3C//DTD SVG 1.1//EN" "http://www.w3.org/Graphics/SVG/1.1/DTD/svg11.dtd">
<!-- Creator: CorelDRAW X7 -->
<svg xmlns="http://www.w3.org/2000/svg" xml:space="preserve" width="59.2361mm" height="67.1911mm" version="1.1" shape-rendering="geometricPrecision" text-rendering="geometricPrecision" image-rendering="optimizeQuality" fill-rule="evenodd" clip-rule="evenodd"
viewBox="0 0 4415 5008"
 xmlns:xlink="http://www.w3.org/1999/xlink">
 <defs>
    <clipPath id="id0">
     <path d="M0 0l4415 0 0 5008 -4415 0 0 -5008z"/>
    </clipPath>
    <clipPath id="id1">
     <path d="M409 506l3600 0 0 3597 -3600 0 0 -3597z"/>
    </clipPath>
    <clipPath id="id2">
     <path d="M599 694l3221 0 0 3222 -3221 0 0 -3222z"/>
    </clipPath>
    <clipPath id="id3">
     <path d="M1452 1588l2018 0 0 1408 -2018 0 0 -1408z"/>
    </clipPath>
    <clipPath id="id4">
     <path d="M2072 2487l1040 0 0 1045 -1040 0 0 -1045z"/>
    </clipPath>
    <clipPath id="id5">
     <path d="M825 1464l753 0 0 1076 -753 0 0 -1076z"/>
    </clipPath>
    <clipPath id="id6">
     <path d="M2982 1507l643 0 0 895 -643 0 0 -895z"/>
    </clipPath>
    <clipPath id="id7">
     <path d="M979 1514l1367 0 0 1487 -1367 0 0 -1487z"/>
    </clipPath>
    <clipPath id="id8">
     <path d="M1889 3024l441 0 0 442 -441 0 0 -442z"/>
    </clipPath>
    <clipPath id="id9">
     <path d="M1693 2924l393 0 0 391 -393 0 0 -391z"/>
    </clipPath>
    <clipPath id="id10">
     <path d="M2163 3210l327 0 0 329 -327 0 0 -329z"/>
    </clipPath>
    <clipPath id="id11">
     <path d="M1529 2855l273 0 0 279 -273 0 0 -279z"/>
    </clipPath>
 </defs>
 <g id="圖層_x0020_1">
  <metadata id="CorelCorpID_0Corel-Layer"/>
  <g id="_617769416">
   <g clip-path="url(#id0)">
    <image x="0" y="0" width="4415" height="5008" xlink:href="留言1星-無彩_Images\留言1星-無彩_ImgID1.png"/>
   </g>
  </g>
  <path fill="#332C2B" d="M1423 465l-68 23 -61 28c-4,8 -66,46 -79,57 2,10 3,8 -5,5l-90 106c-8,25 0,17 -20,28 -3,18 -5,19 -18,37 -1,2 -12,17 -12,17 -8,10 -3,7 -10,9 -11,22 -5,11 -16,17 -6,24 -33,48 -53,54 -7,10 -2,4 -12,15 -9,9 -8,8 -16,15 -12,9 -22,17 -37,22l-19 14c-20,12 -43,24 -65,26 -21,24 -72,41 -97,58 -17,11 -26,21 -42,33 -91,64 -139,215 -157,239l-6 37c-6,66 -8,148 -26,213 -13,48 -48,145 -80,161 -4,22 -16,28 -30,49 -12,16 -20,26 -32,43 -19,26 -36,75 -53,97 -13,68 -36,109 -30,208 7,109 35,131 48,191 10,9 29,62 30,79 52,67 20,244 8,328 -18,140 22,197 62,308 12,5 25,32 27,46 21,9 25,20 33,38 15,11 47,29 51,46 30,17 35,17 54,46 21,4 25,9 33,30 32,18 32,20 49,53 9,3 6,3 15,14 6,9 8,13 12,19 12,17 14,22 23,40 28,31 63,157 77,204l10 12c-5,19 -48,94 -58,99 -9,23 -13,40 -33,54 -2,16 0,19 -17,32l-127 224c-19,30 -108,202 -134,219 -1,13 4,14 -9,20l-45 88 621 1c9,28 37,62 54,91 11,10 25,32 27,48 18,11 175,256 214,314l2 0c14,-32 36,-62 53,-92 16,-30 35,-64 54,-89 5,-22 23,-44 36,-67 15,-25 25,-43 41,-70 15,-25 67,-125 86,-138 5,-27 36,-70 51,-95 18,-31 37,-61 50,-92l75 22c90,6 138,19 228,-7 23,-6 31,-12 55,-11 69,-54 251,-28 330,-4 136,40 201,43 337,5l27 43c15,26 18,24 27,53l-2 -1c21,15 43,60 53,86 16,13 33,49 45,74 25,43 59,96 87,146 13,23 29,48 43,74 11,21 33,51 41,74 15,25 43,55 45,87 22,-7 4,1 19,-12 3,-3 8,-11 11,-15l274 -423 482 -1c19,0 140,4 138,-6 -5,-12 -11,-20 -19,-35 -13,-21 -14,-17 -17,-39 -18,-13 -72,-112 -88,-140 -27,-47 -59,-94 -82,-143 -7,-9 -21,-33 -27,-46 -10,-13 -24,-38 -34,-63 -9,-3 -15,-18 -23,-32 -8,-15 -15,-26 -23,-43l-14 -19c-20,-32 -83,-139 -88,-161l21 -23 28 -88c16,-34 24,-71 43,-109 47,-97 128,-166 211,-232 115,-90 174,-276 149,-441 -49,-315 34,-309 79,-491 18,-75 7,-200 -15,-269 -41,-126 -95,-145 -108,-192 -20,-9 -8,-3 -20,-20 -7,-11 -8,-11 -15,-23 -49,-79 -66,-152 -75,-263 -5,-53 -8,-92 -24,-141 -16,-46 -35,-75 -53,-113l-33 -44c-5,-4 -2,-2 -9,-9 -1,-1 -4,-5 -5,-6l-37 -46c-16,-4 -33,-22 -47,-32 -142,-78 -239,-108 -319,-217 -71,-98 -78,-144 -177,-223 -195,-157 -363,-70 -542,-118 -84,-22 -117,-49 -181,-83 -139,-74 -114,-39 -197,-69l-108 0c-39,16 -90,10 -168,56 -294,169 -272,86 -562,121z"/>
  <g id="_617769296">
   <g clip-path="url(#id1)">
    <image x="409" y="506" width="3601" height="3597" xlink:href="留言1星-無彩_Images\留言1星-無彩_ImgID2.png"/>
   </g>
  </g>
  <path fill="#EEEEEE" d="M2075 745c-203,13 -429,83 -603,176 -111,59 -202,124 -286,200l-100 97c-23,23 -29,20 -50,49l-86 105c-222,315 -335,661 -301,1067 28,329 150,593 332,835 15,20 30,39 45,54 69,69 45,57 148,147l104 87c133,91 219,147 384,208 213,77 445,114 680,93 176,-17 311,-51 467,-114 119,-49 271,-136 369,-217l106 -91c20,-18 32,-29 50,-49l132 -157c221,-300 339,-680 302,-1064 -31,-331 -137,-579 -330,-836l-91 -107c-62,-50 -33,-43 -101,-96 -11,-9 -11,-10 -22,-21l-83 -65c-313,-231 -665,-327 -1066,-301z"/>
  <g id="_617769992">
   <g clip-path="url(#id2)">
    <image x="599" y="694" width="3222" height="3222" xlink:href="留言1星-無彩_Images\留言1星-無彩_ImgID3.png"/>
   </g>
  </g>
  <path fill="#757475" d="M2111 907c-290,15 -550,126 -763,290 -368,284 -565,733 -537,1210 7,105 27,194 53,293 43,164 155,361 258,488 10,13 11,11 20,23 7,9 12,18 19,25l64 65c20,18 26,24 47,45l95 78c360,262 799,352 1237,224 189,-55 366,-152 511,-277l136 -129 151 -201c150,-259 226,-524 205,-838 -18,-256 -97,-457 -217,-654 -10,-17 -25,-38 -35,-51 -14,-20 -26,-38 -39,-54l-121 -138c-307,-283 -635,-422 -1084,-399z"/>
  <g id="_617769944">
   <g clip-path="url(#id3)">
    <image x="1452" y="1588" width="2018" height="1408" xlink:href="留言1星-無彩_Images\留言1星-無彩_ImgID4.png"/>
   </g>
  </g>
  <path fill="#ECF6F3" d="M2941 2904c228,-140 236,-259 384,-475 18,-26 40,-47 53,-77l-379 -656c-89,34 -116,65 -235,56 -134,-9 -346,-112 -512,-55 -98,33 -246,186 -331,259l-117 101c-17,17 -27,21 -45,36l-157 142c-27,21 -55,33 -58,86 -5,79 72,142 160,89 33,-20 59,-33 93,-52 65,-37 130,-68 194,-105 34,-20 164,-101 195,-85l453 438c60,59 246,266 302,298z"/>
  <g id="_617770424">
   <g clip-path="url(#id4)">
    <image x="2072" y="2487" width="1040" height="1045" xlink:href="留言1星-無彩_Images\留言1星-無彩_ImgID5.png"/>
   </g>
  </g>
  <path fill="#ECF6F3" d="M2314 2627c23,41 357,364 419,426 28,28 143,109 79,174 -64,67 -146,-49 -171,-74 -62,-62 -391,-398 -428,-424 -24,11 -20,10 -39,30 -14,13 -23,23 -34,35 17,38 273,283 308,318 93,92 230,188 169,260 -44,53 -104,2 -118,-5 -6,41 -13,35 -26,61 62,65 233,54 229,-122 68,17 113,14 158,-31 61,-62 29,-86 35,-157 135,3 169,-92 139,-210 -85,44 -43,26 -59,94 -10,40 -59,63 -104,35 -48,-30 -429,-449 -491,-482 -24,20 -53,45 -66,72z"/>
  <g id="_617771384">
   <g clip-path="url(#id5)">
    <image x="825" y="1464" width="753" height="1075" xlink:href="留言1星-無彩_Images\留言1星-無彩_ImgID6.png"/>
   </g>
  </g>
  <path fill="#ECF6F3" d="M1388 1516c-33,14 -67,85 -86,120 -26,47 -47,82 -74,128l-302 523c-19,31 -68,96 -46,136 13,25 94,81 140,64 32,-11 285,-474 307,-511 51,-90 101,-172 151,-261 22,-39 68,-93 45,-137 -12,-21 -98,-78 -135,-62z"/>
  <g id="_617771720">
   <g clip-path="url(#id6)">
    <image x="2982" y="1507" width="643" height="895" xlink:href="留言1星-無彩_Images\留言1星-無彩_ImgID7.png"/>
   </g>
  </g>
  <path fill="#ECF6F3" d="M3132 1552c-35,11 -94,40 -105,70 -14,40 25,88 42,117l317 548c20,37 40,89 99,69 32,-10 90,-43 98,-73 11,-47 -144,-290 -172,-337l-189 -328c-21,-35 -40,-82 -90,-66z"/>
  <g id="_617772248">
   <g clip-path="url(#id7)">
    <image x="979" y="1514" width="1367" height="1488" xlink:href="留言1星-無彩_Images\留言1星-無彩_ImgID8.png"/>
   </g>
  </g>
  <path fill="#ECF6F3" d="M1566 1626c-36,62 -487,829 -498,876 25,13 45,29 65,49l310 256c14,11 17,16 29,27l104 78c9,-12 9,-10 19,-21 4,-5 6,-7 10,-13 10,-15 2,3 9,-16 -75,-78 -401,-305 -459,-380 21,-53 75,-134 108,-190l326 -572c170,47 173,31 337,-10 159,-40 249,-36 260,-38 1,-1 71,-31 71,-32 -108,-106 -413,47 -530,44 -70,-2 -112,-37 -161,-58z"/>
  <g id="_617772416">
   <g clip-path="url(#id8)">
    <image x="1889" y="3024" width="441" height="442" xlink:href="留言1星-無彩_Images\留言1星-無彩_ImgID9.png"/>
   </g>
  </g>
  <path fill="#ECF6F3" d="M2158 3063c-58,27 -155,135 -201,183 -95,101 -1,228 109,182 38,-16 72,-58 100,-86l71 -75c16,-19 8,-8 25,-23 94,-83 5,-231 -104,-181z"/>
  <g id="_617773208">
   <g clip-path="url(#id9)">
    <image x="1693" y="2924" width="393" height="391" xlink:href="留言1星-無彩_Images\留言1星-無彩_ImgID10.png"/>
   </g>
  </g>
  <path fill="#ECF6F3" d="M1920 2955c-33,11 -158,139 -178,165 -64,83 15,195 116,164 37,-12 150,-135 176,-164 71,-79 -10,-199 -114,-165z"/>
  <g id="_617773064">
   <g clip-path="url(#id10)">
    <image x="2163" y="3210" width="327" height="329" xlink:href="留言1星-無彩_Images\留言1星-無彩_ImgID11.png"/>
   </g>
  </g>
  <path fill="#ECF6F3" d="M2326 3240c-44,18 -129,93 -139,148 -17,88 60,156 145,120 35,-15 126,-105 135,-149 17,-85 -62,-152 -141,-119z"/>
  <g id="_617774072">
   <g clip-path="url(#id11)">
    <image x="1529" y="2855" width="273" height="279" xlink:href="留言1星-無彩_Images\留言1星-無彩_ImgID12.png"/>
   </g>
  </g>
  <path fill="#ECF6F3" d="M1644 2882c-37,14 -103,80 -97,142 6,62 72,112 144,85 153,-58 105,-285 -47,-227z"/>
 </g>
</svg>
