<?xml version="1.0" encoding="UTF-8"?>
<!DOCTYPE svg PUBLIC "-//W3C//DTD SVG 1.1//EN" "http://www.w3.org/Graphics/SVG/1.1/DTD/svg11.dtd">
<!-- Creator: CorelDRAW X7 -->
<svg xmlns="http://www.w3.org/2000/svg" xml:space="preserve" width="49.7177mm" height="51.9195mm" version="1.1" style="shape-rendering:geometricPrecision; text-rendering:geometricPrecision; image-rendering:optimizeQuality; fill-rule:evenodd; clip-rule:evenodd"
viewBox="0 0 460 480"
 xmlns:xlink="http://www.w3.org/1999/xlink">
 <defs>
  <style type="text/css">
   <![CDATA[
    .str0 {stroke:#ECF6F3;stroke-width:2.31075}
    .fil2 {fill:none}
    .fil3 {fill:#FEFEFE}
    .fil1 {fill:#69C7C1}
    .fil0 {fill:#B8DBD6}
    .fil4 {fill:#FEFEFE;fill-rule:nonzero}
   ]]>
  </style>
   <clipPath id="id0">
    <path d="M11 11l449 0 0 469 -449 0 0 -469z"/>
   </clipPath>
    <clipPath id="id1">
     <path d="M130 53l210 0 0 312 -210 0 0 -312z"/>
    </clipPath>
 </defs>
 <g id="圖層_x0020_1">
  <metadata id="CorelCorpID_0Corel-Layer"/>
  <g style="clip-path:url(#id0)">
   <image x="11" y="11" width="449" height="469" xlink:href="home_button2_Images\home_button2_ImgID1.png"/>
  </g>
  <path class="fil0" d="M76 0l308 0c41,0 76,34 76,76l0 328c0,42 -35,76 -76,76l-308 0c-42,0 -76,-34 -76,-76l0 -328c0,-42 34,-76 76,-76z"/>
  <path class="fil1" d="M460 334l0 70c0,42 -35,76 -76,76l-308 0c-42,0 -76,-34 -76,-76l0 -70c0,16 13,28 28,28l403 0c16,0 29,-12 29,-28z"/>
  <rect class="fil2 str0" x="23" y="24" width="414" height="432" rx="68" ry="69"/>
  <g id="_2173992259536">
   <g style="clip-path:url(#id1)">
    <image x="130" y="53" width="210" height="312" xlink:href="home_button2_Images\home_button2_ImgID2.png"/>
   </g>
  </g>
  <g id="_2173992261296">
   <path class="fil3" d="M201 209c-10,31 -7,56 -17,73 -6,9 -16,17 -22,24 -4,6 -18,18 -14,31 1,5 7,10 14,8 6,-2 30,-27 35,-34 18,-21 26,-25 28,-64 5,3 24,20 27,23 20,25 16,55 24,74 6,12 18,4 19,-18 0,-15 0,-32 -3,-46 -7,-24 -35,-36 -40,-58 -2,-10 4,-33 10,-38 5,11 12,16 22,21 17,9 22,7 33,10l0 120c0,6 -2,13 3,15 5,-3 4,-8 4,-14l0 -122c8,-3 5,-12 0,-16 -7,-6 -29,-5 -45,-31 -10,-18 -7,-31 -41,-37 -12,-2 -13,-2 -19,6 -9,-4 -21,-12 -34,-12 -28,-1 -9,41 -9,50 0,7 -11,18 8,35 7,6 11,1 17,0z"/>
   <path class="fil3" d="M246 66c-39,11 -23,69 15,60 15,-4 28,-18 23,-38 -4,-14 -19,-27 -38,-22z"/>
  </g>
  <path class="fil4" d="M168 386l6 0 0 -6 6 0 0 6 8 0 0 -6 6 0 0 6 7 0 0 5 -7 0 0 7 7 0 0 5 -35 0 0 -5 8 0 0 -7 -6 0 0 -5zm12 12l8 0 0 -7 -8 0 0 7zm6 46l-1 -6 5 0c1,0 2,-1 2,-3l0 -4 -16 0 0 13 -6 0 0 -37 28 0 0 30c0,2 -1,4 -2,5 -1,1 -2,2 -4,2l-6 0zm-10 -18l16 0 0 -5 -16 0 0 5zm0 -10l16 0 0 -4 -16 0 0 4zm32 -36l6 1c0,3 -1,7 -2,10l19 0 0 6 -4 0c0,11 -2,21 -6,28 -1,1 -1,2 -1,3 0,0 0,1 0,1 3,3 7,6 11,9l-3 6c-5,-3 -9,-7 -12,-11 0,0 0,0 0,0 -3,4 -7,8 -12,11l-4 -6c5,-3 9,-7 12,-11 -1,-2 -2,-5 -3,-8 -1,-3 -2,-7 -3,-11 0,2 -1,4 -2,6l-5 -6c3,-4 4,-8 6,-13 1,-4 2,-9 3,-15zm3 18c0,8 2,15 3,20 1,1 1,2 2,3 3,-6 4,-14 5,-24l-10 0c0,0 0,0 0,1z"/>
  <path id="1" class="fil4" d="M273 380l7 0 0 7 21 0 0 7 -21 0 0 8 26 0 0 6 -26 0 0 16c0,3 -1,4 -2,6 -1,1 -3,1 -6,1l-7 0 -2 -7c3,0 5,0 7,0 2,0 3,0 3,-1l0 -15 -31 0 0 -6 11 0 0 -17 7 0 0 17 13 0 0 -22zm-15 30l5 4c-4,6 -10,11 -17,15l-4 -5c6,-4 11,-9 16,-14zm39 2l6 3c-5,10 -12,17 -21,22 -9,4 -20,7 -32,7l-3 -7c14,0 24,-2 32,-6 7,-4 13,-10 18,-19z"/>
 </g>
</svg>
