<?xml version="1.0" encoding="UTF-8"?>
<!DOCTYPE svg PUBLIC "-//W3C//DTD SVG 1.1//EN" "http://www.w3.org/Graphics/SVG/1.1/DTD/svg11.dtd">
<!-- Creator: CorelDRAW X7 -->
<svg xmlns="http://www.w3.org/2000/svg" xml:space="preserve" width="35.169mm" height="26.6732mm" version="1.1" style="shape-rendering:geometricPrecision; text-rendering:geometricPrecision; image-rendering:optimizeQuality; fill-rule:evenodd; clip-rule:evenodd"
viewBox="0 0 298 226"
 xmlns:xlink="http://www.w3.org/1999/xlink">
 <defs>
  <style type="text/css">
   <![CDATA[
    .str2 {stroke:#332C2B;stroke-width:1.69228}
    .str1 {stroke:#61913D;stroke-width:1.69228}
    .str3 {stroke:#332C2B;stroke-width:0.846139}
    .str0 {stroke:#FDD100;stroke-width:0.644758}
    .fil7 {fill:none}
    .fil13 {fill:#FEFEFE}
    .fil12 {fill:#332C2B}
    .fil10 {fill:#FDD100}
    .fil28 {fill:#C6A770}
    .fil25 {fill:#050502}
    .fil26 {fill:#502F05}
    .fil18 {fill:#765811}
    .fil5 {fill:#89743A}
    .fil4 {fill:#917D42}
    .fil2 {fill:#937F44}
    .fil1 {fill:#948045}
    .fil6 {fill:#958047}
    .fil9 {fill:#ADB8A5}
    .fil21 {fill:#B99757}
    .fil14 {fill:#C7A770}
    .fil15 {fill:#E9D4A3}
    .fil8 {fill:#EBF5E3}
    .fil22 {fill:#ED927E}
    .fil20 {fill:#EEAB97}
    .fil16 {fill:#EECC49}
    .fil23 {fill:#F09D25}
    .fil27 {fill:#F1B33B}
    .fil17 {fill:#F1E7D1}
    .fil24 {fill:#F6C1AE}
    .fil19 {fill:#F92F0B}
    .fil11 {fill:#61913D}
    .fil3 {fill:#877514}
    .fil0 {fill:#70590F}
   ]]>
  </style>
   <clipPath id="id0">
    <path d="M97 188c-1,0 9,10 27,14 8,2 25,2 33,2 8,-1 16,-9 21,-12 11,-7 22,-11 28,-19 19,-27 21,-51 20,-51l-45 -38 -83 0 -43 27 25 68 17 9z"/>
   </clipPath>
 </defs>
 <g id="圖層_x0020_1">
  <metadata id="CorelCorpID_0Corel-Layer"/>
  <path class="fil0" d="M35 71l0 105 0 2c2,0 2,1 1,-2l0 0 0 -29 0 -1c1,-4 1,-24 0,-27l0 -3c1,-4 0,-21 0,-27l1 -2c12,0 80,-1 86,1 3,0 7,-2 10,-3 4,-2 8,-3 13,-3 12,-1 16,4 23,5 3,1 17,0 21,0l68 0c2,10 0,22 1,32 -1,2 -1,22 -1,23 1,5 0,2 2,4l0 -75 -116 -47 -109 47z"/>
  <path class="fil1" d="M196 146c10,0 57,-1 63,1 0,0 -1,0 -2,0l-62 1c-4,6 -2,18 -2,26 0,0 2,0 2,0 7,2 45,0 58,1 2,0 3,-1 4,0l1 3 1 1 1 -1 0 -8 0 -8 0 -16c-2,-2 -1,1 -2,-4 0,-1 0,-21 1,-23 -4,2 -52,0 -63,1l0 26z"/>
  <path class="fil2" d="M191 122c2,2 1,19 1,23 1,1 0,0 2,1 0,0 1,0 2,0l0 -26c11,-1 59,1 63,-1 -1,-10 1,-22 -1,-32l-68 0c-4,0 -18,1 -21,0l4 3c2,1 3,2 4,3 8,7 13,18 14,29z"/>
  <path class="fil1" d="M36 116l69 0c2,-6 3,-10 7,-15 1,-3 4,-5 5,-7 3,-2 5,-2 6,-6 -6,-2 -74,-1 -86,-1l-1 2c0,6 1,23 0,27z"/>
  <path class="fil0" d="M35 178l0 1 0 5 -1 21 69 0 1 -28c-5,-1 -27,0 -34,0 -8,0 -28,1 -34,-1 1,3 1,2 -1,2z"/>
  <path class="fil1" d="M36 176c6,-2 61,-2 68,0l-1 -29c-13,2 -52,-1 -67,0l0 29z"/>
  <path class="fil3" d="M192 201l1 4 66 -1 0 -25 -1 -1 -61 1c0,0 0,0 -1,0 0,0 0,0 0,0 -1,0 -1,0 -1,0 0,1 0,1 0,1l0 24c-2,-4 -3,-3 -3,-3z"/>
  <path class="fil1" d="M44 146l53 0c0,-15 -3,-18 -2,-27l-50 0c-1,0 -1,0 -1,1 0,0 0,0 0,0 -1,3 0,0 0,2l0 24z"/>
  <path class="fil4" d="M192 201c0,0 1,-1 3,3l0 -24c0,0 0,0 0,-1 0,0 0,0 1,0 0,0 0,0 0,0 1,0 1,0 1,0l61 -1 -1 -3c-1,-1 -2,0 -4,0 -13,-1 -51,1 -58,-1 0,0 -2,0 -2,0 0,-8 -2,-20 2,-26 -4,0 -3,-1 -4,5 0,10 2,18 1,28l0 20z"/>
  <path class="fil4" d="M41 146l3 0 0 -24c0,-2 -1,1 0,-2 0,0 0,0 0,0 0,-1 0,-1 1,-1l50 0c-1,9 2,12 2,27l0 0c0,-22 4,-10 3,-20 -1,-3 -1,-4 0,-7l4 -1 1 -2 -69 0 0 3 4 0c3,7 1,20 1,27z"/>
  <path class="fil5" d="M191 205c3,1 62,1 69,0l0 -27 -1 1 0 25 -66 1 -1 -4 0 -20c1,-10 -1,-18 -1,-28 1,-6 0,-5 4,-5l62 -1c1,0 2,0 2,0 -6,-2 -53,-1 -63,-1 -1,0 -2,0 -2,0 -2,-1 -1,0 -2,-1 0,-4 1,-21 -1,-23l0 83z"/>
  <path class="fil5" d="M97 146l0 0 -53 0 -3 0 -5 0 0 1c15,-1 54,2 67,0l1 29c-7,-2 -62,-2 -68,0l0 0c6,2 26,1 34,1 7,0 29,-1 34,0l0 -56c-2,3 0,21 0,25l-7 0z"/>
  <path class="fil6" d="M36 146l5 0c0,-7 2,-20 -1,-27l-4 0c1,3 1,23 0,27z"/>
  <path class="fil7" d="M293 63l-3 10c2,0 2,1 2,-1 0,1 0,1 0,1 1,-1 1,-1 1,-1 1,0 1,0 1,0 0,1 1,3 4,3 -1,-1 -2,-3 -3,-5 -1,-2 0,2 -1,-3 0,-2 0,-2 1,-4"/>
  <path class="fil8" d="M272 137c3,0 2,0 3,2 1,1 1,2 2,4 1,0 1,0 2,1l1 2c0,0 0,0 1,0l0 -4c-1,-1 -1,-1 -2,-2 -2,-2 1,1 -1,-1 -5,-4 0,-3 -7,-5 0,7 -1,1 1,3z"/>
  <path class="fil9" d="M274 140l1 -1c-1,-2 0,-2 -3,-2 1,0 0,1 1,1 1,2 1,1 1,2z"/>
  <path class="fil10 str0" d="M121 79c-2,4 -4,4 -7,7 -2,1 -4,4 -6,7 -4,6 -5,10 -8,17l0 2 -1 4 0 62 0 30 97 0 0 -92c-1,-12 -7,-24 -16,-31 -1,-2 -2,-2 -4,-4l-4 -3c-9,-1 -13,-7 -26,-6 -5,0 -10,1 -14,3 -4,1 -8,4 -11,4z"/>
  <rect class="fil11 str1" x="19" y="201" width="254.796" height="11.0956"/>
  <rect class="fil11 str1" x="12" y="214" width="268.666" height="11.0956"/>
  <polyline class="fil7 str2" points="144,23 10,81 6,71 144,11 "/>
  <polygon class="fil12 str2" points="144,1 144,23 10,81 1,63 "/>
  <polygon class="fil12 str2" points="144,1 144,23 277,81 286,63 "/>
  <circle class="fil13" cx="114" cy="42" r="2"/>
  <circle class="fil13" cx="108" cy="55" r="2"/>
  <circle class="fil13" cx="94" cy="65" r="2"/>
  <circle class="fil13" cx="79" cy="67" r="2"/>
  <circle class="fil13" cx="66" cy="62" r="2"/>
  <circle class="fil13" cx="83" cy="56" r="2"/>
  <circle class="fil13" cx="66" cy="72" r="2"/>
  <circle class="fil13" cx="50" cy="71" r="2"/>
  <circle class="fil13" cx="39" cy="80" r="2"/>
  <circle class="fil13" cx="167" cy="42" r="2"/>
  <circle class="fil13" cx="173" cy="55" r="2"/>
  <circle class="fil13" cx="186" cy="65" r="2"/>
  <circle class="fil13" cx="201" cy="67" r="2"/>
  <circle class="fil13" cx="215" cy="62" r="2"/>
  <circle class="fil13" cx="198" cy="56" r="2"/>
  <circle class="fil13" cx="215" cy="72" r="2"/>
  <circle class="fil13" cx="231" cy="71" r="2"/>
  <circle class="fil13" cx="241" cy="80" r="2"/>
  <g>
  </g>
  <g style="clip-path:url(#id0)">
   <g>
    <path class="fil14" d="M130 207l-3 -1c-1,1 -4,5 -5,6 -1,2 -1,4 -1,6 0,2 0,0 1,1l4 2 0 1 -2 -2c-5,2 -3,14 -2,17 2,1 6,0 8,0 1,0 5,-2 5,-2 1,-2 -1,-19 0,-19 1,0 1,11 1,13 1,7 2,7 -3,11 1,1 16,0 19,-1 -1,-1 0,-14 1,-14l0 6 6 -1 -1 -6 0 0c3,0 2,14 2,16 3,1 16,0 16,-2 -1,-5 0,-7 0,-12 0,-2 -2,-10 -2,-10 2,2 3,9 3,11 0,3 0,5 0,7 0,4 1,3 2,5 3,0 8,-1 9,-3 1,-2 3,-2 3,-5 3,-8 -3,-12 -10,-12 2,-1 4,-1 5,-1 3,1 3,2 5,3l1 -12c1,-2 1,0 2,-3 0,-2 -2,-2 -1,-3 0,-1 2,0 0,-2 -1,-1 -2,-1 -2,-2l2 -1c0,-2 -2,-4 -3,-4 -3,2 -9,5 -14,7 -6,3 -11,2 -16,4 -2,6 1,6 1,7 0,1 0,3 -2,4 -2,-2 0,-5 0,-7l-4 3 1 4 -1 3c-1,0 -2,-2 -2,-3 0,-2 1,0 1,-4l-4 -1c0,2 1,4 -1,6 -1,-1 -1,-2 -1,-3 0,-3 1,0 1,-3 0,0 -1,-4 -1,-6l-18 2z"/>
    <path class="fil15" d="M119 195c2,4 5,5 9,6 7,1 20,1 27,0 9,-2 13,-4 21,-8 7,-3 13,-7 12,-17 3,-30 -7,-31 -40,-27 -3,0 -5,1 -8,2 -1,0 -2,0 -4,1 -28,11 -34,16 -17,43z"/>
    <path class="fil14" d="M111 148c2,-1 6,2 3,3 -1,1 -2,1 -2,1 -1,1 -1,2 -2,3 -3,1 -3,-3 -2,-5 2,-1 1,-2 3,-2zm68 -8c1,-1 5,0 6,1 3,3 1,5 0,5 -4,1 -4,-2 -6,-2 -1,0 -3,0 -2,-2 0,-1 1,-2 2,-2zm-73 33c-1,5 9,20 12,24l2 1c-2,-3 -5,-8 -7,-12 -1,-1 -2,-1 -3,-2 0,-3 1,-2 1,-4 0,-1 0,-3 1,-5 0,-1 -2,-4 -3,-7 -2,-13 12,-21 21,-17 5,2 2,2 6,0 3,-1 5,-2 7,-2 6,-1 13,-2 18,-1 6,2 2,2 7,0 7,-4 16,-2 20,5 1,2 2,5 2,8 1,4 -1,7 -1,8 2,0 4,-1 5,2 0,3 -3,4 -5,5 1,5 0,5 -2,10 5,-1 9,-6 11,-9 0,-1 1,-3 0,-5 -1,0 -2,0 -3,0 2,-1 2,-2 2,-3 -1,0 -4,-1 -5,-2 0,-2 3,-14 0,-25 0,-1 -2,-6 -2,-7l4 2c0,-2 -1,-2 -1,-3 0,0 0,-1 0,-1 0,-2 -1,0 -4,0 -2,-3 -1,-4 -3,-7 -1,-2 -3,-5 -5,-6 -10,3 -14,13 -35,16 -1,2 -3,6 -5,5l0 -3c-7,1 -13,3 -20,4 -3,0 -6,0 -10,1 -3,1 -9,0 -10,0 -2,3 1,5 0,8l-3 0 0 3 2 -1c1,0 3,8 5,10 1,2 2,4 3,5 0,2 0,4 -2,5z"/>
    <path class="fil14" d="M229 180c-5,3 -6,8 -8,14 -1,1 -1,3 -2,5 -1,4 -5,10 -8,13 -2,3 -9,5 -13,7 0,1 -1,2 -1,3l-1 3c0,2 0,1 1,1 9,-6 22,-8 30,-14 3,-2 8,-12 9,-15 1,-2 -1,-5 0,-10 2,-4 4,-5 5,-7 2,-5 2,-16 0,-21 -3,-4 -7,-12 -12,-8 -5,4 -9,10 -9,16 0,2 3,6 4,8 2,3 7,3 7,4l-2 1z"/>
    <path class="fil16" d="M141 112c-2,-1 -4,-4 -5,-6 -1,-3 -1,-5 -1,-8 -12,3 -10,19 -7,18 -1,2 -6,-2 -8,-5 -1,-3 -1,-3 -1,-4 -3,0 -5,3 -6,5 0,4 1,8 3,11 2,4 6,6 8,9l-1 0c5,1 14,-1 17,-2 2,1 5,3 6,5 2,-2 2,-7 3,-9 1,-4 3,-3 6,-5 6,-3 7,-11 5,-16 -2,-6 -8,-11 -14,-8 -8,5 -6,13 -3,15l-2 0z"/>
    <path class="fil14" d="M245 198c-1,0 -6,7 -7,7 -1,2 -5,5 -7,6 -8,5 -14,6 -22,10 0,1 -4,3 -5,5 -1,1 -2,2 1,1 5,-1 9,-1 14,-1 6,-1 7,-2 11,-5 10,-7 21,-20 21,-32 1,-15 -12,-9 -14,0 -2,11 9,6 8,9z"/>
    <path class="fil14" d="M191 117c-3,2 -2,0 -2,-1 -1,0 -2,2 -3,2 -2,2 -3,1 -4,1 1,2 3,3 4,6 2,2 2,3 3,6 11,-5 22,-5 21,-20 -2,1 -5,4 -9,5 -2,0 -4,0 -6,1 0,0 -1,1 -2,1 -2,1 -1,0 -2,-1z"/>
    <path class="fil16" d="M233 149c0,0 5,4 6,5 8,10 3,22 3,26 1,0 5,-2 5,-2 1,-1 2,-4 3,-5 1,-5 1,-9 1,-14 -1,-6 -1,-6 -6,-9 -2,-1 -10,-3 -12,-1z"/>
    <path class="fil16" d="M226 225c10,0 19,-11 24,-18 4,-5 6,-9 8,-15 2,-7 -2,-12 -9,-12 2,2 3,2 3,6 1,8 -3,15 -7,21 -5,8 -13,13 -19,18z"/>
    <path class="fil17" d="M112 166c-2,-40 2,39 0,0zm22 -12c-3,-3 -9,-4 -12,-3 -3,1 -7,3 -9,6 -2,2 -3,8 -3,11 1,2 2,4 2,5 10,15 38,1 22,-19z"/>
    <path class="fil14" d="M78 152c3,-4 7,-7 11,-8 1,-1 4,-2 5,-2 0,-4 0,-8 2,-12 1,-1 2,-2 2,-3l-8 3c1,1 3,1 3,3l-3 0c0,1 1,2 1,3l-21 9c-1,2 5,7 8,7z"/>
    <path class="fil17" d="M177 174c-40,5 40,-6 0,0zm-15 -20c-7,12 8,28 22,19 3,-3 5,-6 6,-10 0,-3 -2,-8 -4,-11 -6,-8 -19,-7 -24,2z"/>
    <path class="fil16" d="M220 162c0,1 -6,-1 -5,4 2,6 2,7 1,13 -3,11 -1,13 -2,21 0,1 0,6 0,7 2,-1 4,-11 4,-13 1,-3 0,-5 1,-8 0,-3 1,-5 1,-8 1,-6 -1,-9 -1,-14 1,-4 1,-5 -2,-6 -2,-1 4,3 3,4z"/>
    <path class="fil18" d="M98 127c0,1 -1,2 -2,3 -2,4 -2,8 -2,12 -1,0 -4,1 -5,2 -4,1 -8,4 -11,8l5 2c0,-1 1,-2 3,-3 1,-1 3,-1 4,-2 5,-2 3,-2 9,-2l1 -4 -3 0c-2,-2 -1,-6 1,-7 4,-2 0,-3 5,-4 0,-4 2,-6 3,-9l-8 4z"/>
    <path class="fil18" d="M135 235c0,0 -4,2 -5,2 -2,0 -6,1 -8,0 -1,-3 -3,-15 2,-17 -3,-1 -6,0 -8,1 -2,2 -3,5 -3,8 0,3 3,4 4,6 3,3 -3,1 -5,3 2,1 1,0 3,2 1,1 0,-1 1,2l3 0c1,-2 1,-2 4,-2 3,-1 3,1 5,1 1,0 0,-1 2,-2 2,0 7,-1 5,-4z"/>
    <path class="fil16" d="M158 201l2 4c5,0 12,-3 17,-5 4,-2 9,-3 11,-6 3,-3 1,-3 0,-3 -1,-5 -4,-2 -7,0 -8,5 -13,7 -23,10z"/>
    <path class="fil14" d="M248 179l6 1c4,-5 5,-8 4,-14 -1,-4 -4,-10 -7,-12 1,8 2,11 -1,19 0,2 -1,4 -2,6z"/>
    <path class="fil16" d="M140 135c1,-1 1,-4 -2,-3 -9,3 -18,5 -27,5 -4,-1 -9,-2 -13,0 -8,7 38,0 42,-2z"/>
    <path class="fil16" d="M148 202c-2,-1 -18,1 -27,-2 -1,-1 -3,-2 -4,-1 0,0 -1,2 -1,3 0,3 14,4 16,4 3,-1 12,-1 16,-1 0,0 0,0 0,0 1,-1 0,-2 0,-3z"/>
    <path class="fil14" d="M234 224c7,-1 13,-6 17,-12 3,-3 5,-5 7,-9 1,-3 3,-10 1,-13 0,1 -3,12 -10,20 -2,2 -4,5 -7,8 -2,2 -6,4 -8,6z"/>
    <path class="fil16" d="M149 132c2,0 14,-5 17,-6 2,-1 14,-8 12,-11 -2,-2 -6,2 -7,3 -2,2 -13,8 -16,9 -2,1 -6,2 -6,5z"/>
    <path class="fil19" d="M147 136c2,0 18,-5 20,-6 3,-2 14,-9 14,-13 -1,-2 -5,3 -8,5 -7,4 -8,5 -17,9 -2,0 -10,2 -9,5z"/>
    <path class="fil18" d="M122 219c-1,-1 -1,0 -1,-1 0,-2 0,-4 1,-6 1,-1 4,-5 5,-6l-11 -2 -2 2c2,1 3,-1 1,2 0,1 -1,3 -1,4l2 1c0,6 1,1 2,4 0,0 0,1 0,2l4 0z"/>
    <path class="fil19" d="M140 131c-1,-1 -13,5 -20,1 -7,-4 -1,-2 -8,0 -4,1 -13,0 -11,3 0,0 2,0 3,0 8,1 8,1 17,0 2,0 18,-2 19,-4z"/>
    <path class="fil18" d="M118 197c-3,-4 -13,-19 -12,-24l-4 1c2,2 4,2 1,3l0 3c1,0 2,1 3,1 1,3 0,4 4,10 2,3 4,4 8,6z"/>
    <path class="fil19" d="M97 140c-1,6 43,-2 44,-3 2,-3 -8,0 -9,0 -11,2 -9,3 -22,4 -9,0 -11,-1 -13,-1z"/>
    <polygon class="fil18" points="153,231 152,242 159,243 159,242 159,230 "/>
    <path class="fil18" d="M219 199c1,-1 1,-4 2,-5 1,-4 6,-13 8,-14l-6 -3c-6,7 -3,14 -4,22z"/>
    <path class="fil18" d="M103 131c3,1 11,0 13,-2 -4,-4 -3,-4 -5,-10 -2,2 -7,9 -8,12z"/>
    <path class="fil20" d="M84 154c2,3 9,1 13,1 -2,-3 -1,-2 -1,-5l4 0 0 -2c-5,-1 -5,0 -9,2 -4,2 -4,1 -7,4z"/>
    <path class="fil18" d="M179 239c1,1 1,3 0,4 8,1 9,-5 15,0 1,-4 1,-2 2,-3 0,-5 -8,-1 -8,-4 -1,2 -6,3 -9,3z"/>
    <path class="fil19" d="M150 129c7,-3 19,-10 25,-15 -3,-3 -7,3 -13,6 -1,2 -5,3 -7,3 -4,2 -5,0 -5,6z"/>
    <path class="fil18" d="M133 240c-2,0 -4,0 -4,2 3,2 3,-3 7,2l5 0c2,0 2,-2 5,-2 2,0 4,4 5,2l1 -5c-3,1 -18,2 -19,1z"/>
    <path class="fil21" d="M158 121c4,-1 7,-2 10,-5 2,-2 6,-2 0,-4 -2,-1 -4,-2 -6,-2 -1,6 -2,7 -4,11z"/>
    <path class="fil22" d="M191 132c1,0 2,-1 3,0l-1 2c2,3 2,3 -1,3l0 2c5,-1 10,-9 12,-13 -2,1 -4,2 -7,3 -2,0 -4,1 -6,3z"/>
    <path class="fil18" d="M160 240c1,4 1,4 5,5 5,-6 8,-2 10,-2 1,0 0,-1 1,-2 1,-1 2,0 3,0l-3 -3c0,2 -13,3 -16,2z"/>
    <path class="fil23" d="M124 132c-5,-7 -10,-10 -11,-20 -1,2 0,6 0,7 -1,7 5,12 11,13z"/>
    <path class="fil18" d="M204 197c1,-3 2,-9 4,-12 4,-5 5,-1 -3,-4 -2,1 -3,5 -3,7l2 9z"/>
    <path class="fil23" d="M119 107c0,2 0,3 1,4 2,3 6,8 9,5 -4,-4 -4,-1 -3,-9 -1,-1 -4,-1 -7,0z"/>
    <path class="fil23" d="M135 99c0,2 0,4 1,7 1,2 3,5 5,6 0,-3 -3,-4 -1,-9 1,-1 1,-2 1,-3 -1,-2 -5,-3 -6,-1z"/>
    <path class="fil15" d="M152 203c5,-1 6,4 3,6 -1,0 -3,0 -4,-2 0,-1 0,-3 1,-4zm5 -2c-1,0 -7,1 -7,1 -2,2 -2,7 1,8 7,2 10,-4 6,-9z"/>
    <path class="fil18" d="M200 217c-1,-2 2,-7 3,-9 -1,1 -2,2 -3,3 -1,1 -3,2 -4,3 -2,2 -4,4 -4,8 2,-3 5,-4 8,-5z"/>
    <path class="fil18" d="M231 211c2,-1 6,-4 7,-6 1,0 6,-7 7,-7 -2,0 -3,0 -5,0 -1,3 -2,5 -4,7 -1,3 -4,4 -5,6z"/>
    <path class="fil18" d="M209 221c-3,1 -9,4 -12,7 -1,0 -1,0 -2,1 -1,1 -1,1 -2,2 2,-1 4,-2 5,-3 2,0 4,0 5,-1 3,-1 5,-3 6,-6z"/>
    <path class="fil23" d="M146 135c-2,-2 -3,-4 -6,-6 2,5 2,6 2,11 1,0 3,-3 4,-5z"/>
    <path class="fil24" d="M121 181c-2,-2 -10,0 -10,2 1,3 9,1 10,-2z"/>
    <path class="fil18" d="M197 226c-1,-1 1,-6 1,-7 -1,0 -4,2 -5,3 -1,2 0,1 0,3 0,2 0,3 0,4l4 -3z"/>
    <path class="fil16" d="M230 210c1,0 5,-4 5,-5 1,-2 4,-6 4,-8l-2 -1c-3,11 -5,10 -7,14z"/>
    <path class="fil25" d="M178 143c0,-3 2,-2 4,-2 6,1 3,6 0,4 -2,-2 -1,-2 -4,-2zm1 -3c-1,0 -2,1 -2,2 -1,2 1,2 2,2 2,0 2,3 6,2 1,0 3,-2 0,-5 -1,-1 -5,-2 -6,-1z"/>
    <path class="fil24" d="M190 170c-2,0 -8,6 -2,5 5,-1 7,-6 2,-5z"/>
    <path class="fil26" d="M178 143c3,0 2,0 4,2 3,2 6,-3 0,-4 -2,0 -4,-1 -4,2z"/>
    <path class="fil25" d="M109 154c-2,-2 2,-7 4,-5 1,0 2,1 1,1 0,1 -2,1 -2,1 -2,1 -1,3 -3,3zm-1 -4c-1,2 -1,6 2,5 1,-1 1,-2 2,-3 0,0 1,0 2,-1 4,-2 -3,-7 -6,-1z"/>
    <path class="fil25" d="M155 207c-1,2 -4,1 -3,-2 1,-2 5,-1 3,2zm-3 -4c-1,1 -1,3 -1,4 1,2 3,2 4,2 3,-2 2,-7 -3,-6z"/>
    <path class="fil26" d="M109 154c2,0 1,-2 3,-3 0,0 2,0 2,-1 1,0 0,-1 -1,-1 -2,-2 -6,3 -4,5z"/>
    <path class="fil27" d="M155 207c2,-3 -2,-4 -3,-2 -1,3 2,4 3,2z"/>
    <path class="fil12" d="M120 242c1,0 7,0 7,0 0,0 0,0 0,0 0,0 0,0 0,0 0,0 0,0 0,0 0,0 0,0 0,-1 -2,-1 -3,-1 -5,0 -2,1 -1,0 -2,1z"/>
    <path class="fil12" d="M115 241c0,0 0,0 0,0 -1,-1 -2,-2 -4,-1 1,1 3,2 4,1z"/>
    <path class="fil25" d="M120 242c1,-1 0,0 2,-1 2,-1 3,-1 5,0 0,1 0,1 0,1 0,0 0,0 0,0 0,0 0,0 0,0 0,0 0,0 0,0 0,0 -6,0 -7,0zm-9 -2c2,-1 3,0 4,1 0,0 0,0 0,0 -1,1 -3,0 -4,-1zm46 -39c4,5 1,11 -6,9 -3,-1 -3,-6 -1,-8 0,0 6,-1 7,-1zm-9 1c0,1 0,2 0,3 0,0 0,0 0,0 -5,0 -13,0 -16,1 -2,0 -16,-1 -16,-4 0,-1 1,-3 1,-3 1,-1 3,0 4,1 9,3 25,2 27,2zm40 34c0,3 8,-1 8,4 -1,1 -1,-1 -2,3 -6,-5 -7,1 -15,0 1,-1 1,-3 0,-4 -1,-2 -2,-1 -2,-5 0,-2 0,-4 0,-7 0,-2 -1,-9 -3,-11 0,0 2,8 2,10 0,5 -1,7 0,12l3 3c-1,0 -2,-1 -3,0 -1,1 0,2 -1,2 -2,0 -5,-4 -10,2 -4,-1 -4,-1 -5,-5 0,-2 1,-16 -2,-16l0 0 1 6 0 12 0 1 -7 -1 1 -11 0 -6c-1,0 -2,13 -1,14l-1 5c-1,2 -3,-2 -5,-2 -3,0 -3,2 -5,2l-5 0c-4,-5 -4,0 -7,-2 0,-2 2,-2 4,-2 5,-4 4,-4 3,-11 0,-2 0,-13 -1,-13 -1,0 1,17 0,19 0,3 -3,4 -5,4 -2,1 -1,2 -2,2 -2,0 -2,-2 -5,-1 -3,0 -3,0 -4,2l-3 0c-1,-3 0,-1 -1,-2 -2,-2 -1,-1 -3,-2 2,-2 8,0 5,-3 -1,-2 -4,-3 -4,-6 0,-3 1,-6 3,-8 2,-1 5,-2 8,-1l2 2 0 -1 -4 -2 -4 0c0,-1 0,-2 0,-2 -1,-3 -2,2 -2,-4l-2 -1c0,-1 1,-3 1,-4 2,-3 1,-1 -1,-2 1,-1 1,-2 2,-2 4,2 9,2 14,3 6,-1 12,-1 18,-2 0,2 1,6 1,6 0,3 -1,0 -1,3 0,1 0,2 1,3 2,-2 1,-4 1,-6 1,1 2,1 4,1 -1,4 -1,2 -1,4 0,1 1,3 3,3 1,-2 0,-4 -1,-7 2,-1 3,-1 4,-3 0,2 -2,5 0,7 2,-1 2,-3 2,-4 0,-1 -3,-1 -1,-7 7,-1 10,-1 16,-4 5,-2 10,-4 14,-7 1,0 3,2 3,4l-3 1c1,1 2,1 3,2 2,2 0,1 -1,2 0,2 3,1 0,6 -1,4 -2,8 -1,12 -2,-1 -2,-2 -5,-3 -1,0 -4,0 -5,1 5,0 13,4 10,12 0,3 -2,3 -3,5zm42 -26c2,-4 4,-3 7,-14l2 1c0,2 -3,6 -4,8 0,1 -4,5 -5,5zm4 14c2,-2 6,-4 8,-6 3,-3 5,-6 7,-8 7,-8 10,-19 10,-20 2,3 0,10 -1,13 -2,4 -4,6 -7,9 -4,6 -10,11 -17,12zm-76 -23c10,-3 15,-5 23,-10 3,-2 6,-5 7,0 1,0 3,0 0,3 -1,2 -8,5 -11,6 -5,2 -12,4 -17,4 0,-1 -1,-2 -2,-3zm-37 -20c-1,3 -9,5 -10,2 0,-2 8,-4 10,-2zm84 46c-2,1 -5,1 -7,1 -1,1 -3,2 -5,3 1,-1 1,-1 2,-2 1,-1 1,-1 2,-1 3,-3 9,-6 12,-7 8,-4 14,-5 22,-10 1,-2 4,-3 5,-6 2,-2 3,-4 4,-7 2,0 3,0 5,0 1,-3 -10,2 -8,-9 2,-9 15,-15 14,0 0,12 -11,25 -21,32 -4,3 -5,4 -11,5 -5,0 -9,0 -14,1zm21 -2c6,-5 14,-10 19,-18 4,-6 8,-13 7,-21 0,-4 -1,-4 -3,-6 7,0 11,5 9,12 -2,6 -4,10 -8,15 -5,7 -14,18 -24,18zm-26 -8c-3,1 -6,2 -8,5 0,-4 2,-6 4,-8 1,-1 3,-2 4,-3 1,-1 2,-2 3,-3 1,-3 2,-6 2,-10 12,0 39,-42 8,-8 0,5 2,15 -1,19 -1,3 -9,7 -12,8zm-10 -47c5,-1 3,4 -2,5 -6,1 0,-5 2,-5zm-2 6c1,10 -5,14 -12,17 -8,4 -12,6 -21,8 -7,1 -20,1 -27,0 -4,-1 -6,-3 -9,-6 -1,-2 -4,-8 -5,-9 3,-1 5,-1 7,-2 5,-6 -5,-5 -9,-4 0,-2 1,-5 0,-7 0,-1 -1,-3 -2,-5 0,-3 1,-9 3,-11 2,-3 6,-5 9,-6 3,-1 9,0 11,3 1,0 2,-1 3,-2 2,-1 3,-1 4,-1 3,-1 5,-2 8,-2 12,-2 14,2 18,2 0,-4 14,-7 20,1 2,3 4,8 4,11 -1,2 -2,4 -2,6 -5,3 -8,8 0,7zm9 50l-4 3c0,-1 0,-2 0,-4 0,-2 -1,-1 0,-3 1,-1 4,-3 5,-3 4,-2 11,-4 13,-7 3,-3 7,-9 8,-13 1,-8 -2,-15 4,-22l6 3 2 -1c0,0 -24,-12 -2,-28 5,-4 9,4 12,8 2,5 2,16 0,21 -1,2 -3,3 -5,7 -1,5 1,8 0,10 -1,3 -6,13 -9,15 -8,6 -21,8 -30,14zm-113 -72c3,-3 3,-2 7,-4 4,-2 4,-3 9,-2l0 2 -4 0c0,3 -1,2 1,5 -4,0 -11,2 -13,-1zm134 40c0,2 -2,12 -4,13 0,-1 0,-6 0,-7 1,-14 13,-76 6,-22 0,3 -1,5 -1,8 -1,3 0,5 -1,8zm30 -15c1,-2 2,-4 2,-6 3,-8 2,-11 1,-19 3,2 6,8 7,12 1,6 0,9 -4,14l-6 -1zm-15 -30c2,-2 10,0 12,1 5,3 5,3 6,9 0,5 0,9 -1,14 -1,1 -2,4 -3,5 0,0 -4,2 -5,2 0,-4 5,-16 -3,-26 -1,-1 -6,-5 -6,-5zm-136 -9c2,0 10,1 13,1 13,-1 11,-2 22,-4 1,0 11,-3 9,0 -1,1 -45,9 -44,3zm43 -5c-4,1 -50,9 -42,2 4,-2 9,-1 13,0 9,0 18,-2 27,-5 3,-1 3,2 2,3zm0 -4c-1,2 -17,4 -19,4 -9,1 -9,1 -17,0 -1,0 -3,0 -3,0 -2,-3 7,-2 11,-3 7,-2 1,-4 8,0 7,4 19,-2 20,-1zm-37 0c1,-3 6,-10 8,-12 2,5 1,6 5,10 -2,2 -10,3 -13,2zm15 66c-4,-2 -6,-3 -8,-6 -4,-6 -3,-7 -4,-10 -1,0 -2,-1 -3,-1 1,0 1,-1 2,-1 -1,-1 -2,-1 -2,-2 3,-1 1,-1 0,-3l3 -1c2,-1 2,-3 2,-5 -1,-1 -2,-3 -3,-5 -2,-2 -4,-10 -5,-10l-2 1 0 -3 3 0c1,-3 -2,-5 0,-8 1,0 7,1 10,0 4,-1 7,-1 10,-1 7,-1 13,-3 20,-4l0 3c2,1 4,-3 5,-5 5,0 15,-3 20,-6 5,-2 14,-8 15,-10 2,1 4,4 5,6 2,3 1,4 3,7l4 0c0,0 0,1 -1,1 0,0 1,1 1,2l-3 -1c0,1 2,6 2,7 3,11 0,23 0,25 1,1 4,2 5,2 0,1 -1,2 -2,3 1,0 2,0 3,0 1,2 -1,6 -2,7 -2,3 -6,6 -9,7 2,-4 3,-5 2,-10 2,-1 5,-2 5,-5 -1,-3 -3,-2 -5,-2 0,-1 2,-4 1,-8 0,-3 -1,-6 -2,-8 -4,-7 -13,-9 -20,-5 -5,2 -1,2 -7,0 -5,-1 -12,0 -18,1 -2,0 -4,1 -7,2 -4,2 -1,2 -6,0 -9,-4 -23,4 -21,17 1,3 3,6 3,7 -1,2 -1,4 -1,5 0,2 -2,2 -1,4 1,1 2,1 3,2 2,4 5,9 7,12l-2 -1zm-40 -45c-3,0 -9,-5 -8,-7l21 -9c0,-1 -1,-2 -1,-3l3 0c0,-2 -2,-2 -3,-3l8 -3 8 -4c-1,3 -3,5 -3,9 -5,1 -1,2 -5,4 -2,1 -3,5 -1,7l3 0 -1 4c-6,0 -4,0 -9,2 -1,1 -3,1 -4,2 -2,1 -3,2 -3,3l-5 -2zm113 -20c2,-2 4,-3 6,-3 3,0 5,-2 7,-3 -2,4 -7,12 -12,13l0 -2c2,0 3,1 3,0 0,-1 -1,-2 -2,-3l1 -2c-1,-1 -2,0 -3,0zm-44 3c0,-3 7,-3 9,-4 9,-4 10,-5 17,-9 3,-2 7,-7 8,-5 -1,7 -28,19 -34,18zm2 -3c0,-3 4,-4 6,-5 3,-1 14,-7 16,-9 1,-1 5,-5 7,-3 2,3 -10,10 -12,11 -3,1 -15,6 -17,6zm1 -3c0,-6 1,-4 5,-6 2,0 6,-1 7,-3 6,-3 10,-9 13,-6 -6,5 -18,12 -25,15zm41 -12c1,1 0,2 2,1 1,0 2,-1 2,-1 2,-1 4,-1 6,-1 4,-1 7,-4 9,-5 1,15 -10,15 -21,20 -1,-3 -1,-4 -3,-6 -1,-3 -3,-4 -4,-6 1,0 2,1 4,-1 1,0 2,-2 3,-2 0,1 -1,3 2,1zm-33 4c3,-4 3,-8 4,-11 2,0 4,1 6,2 1,0 2,1 2,1 0,2 -10,8 -12,8zm-15 -9c-3,-2 -5,-10 3,-15 6,-3 12,2 14,8 2,5 1,13 -5,16 -3,2 -5,1 -6,5 -1,4 -3,12 -7,14 0,-5 0,-6 -2,-11 -4,1 -24,10 -27,-10 -1,-15 12,-12 13,-12 -1,2 -1,4 -1,6 1,0 2,3 2,3 2,1 2,1 1,0 -7,-8 7,-23 13,-16 -2,3 -4,11 2,12zm50 28c2,-2 3,-1 5,-4 6,-5 5,-9 8,-11 3,-3 6,-8 6,-13 -1,-3 -4,0 -6,1 -5,2 -9,1 -13,4l0 -2 -3 1 0 -2c-2,-1 -3,3 -6,4 -3,1 -1,0 -2,-1 0,-1 -2,-2 -3,-3 -4,-2 -6,-1 -9,-2 -1,-1 -2,-2 -3,-2 -1,-1 -4,-1 -4,-1 -2,-1 -1,-10 -9,-13 -3,-1 -6,-1 -8,1 -6,3 -2,2 -7,0 -6,-2 -10,5 -13,8 -1,2 -9,-2 -13,6 -2,4 -1,6 -3,8 -3,2 -10,7 -13,8 -2,0 -7,2 -8,2 0,2 1,2 2,3 -1,0 -2,0 -2,1 0,1 0,2 1,2l-21 9c-1,3 2,5 4,7 2,1 5,3 8,4 2,0 4,3 10,2 2,0 7,-1 9,-2 0,1 1,3 1,4 1,2 2,3 2,4 2,3 5,5 3,8 -2,2 -3,2 -5,3 1,1 3,2 1,3 0,1 0,1 0,2 1,1 -2,0 2,3 2,1 0,2 4,8 4,6 6,7 8,8 0,1 -2,2 -1,5 0,2 -3,2 -1,4 1,1 -1,3 -1,5 0,2 1,1 2,2 1,0 1,3 2,5 -1,1 -2,2 -3,3 -2,1 -2,3 -2,5 -1,5 0,6 4,9 -2,0 -6,0 -6,4 1,3 7,3 10,3 2,0 4,0 6,0 4,0 2,1 5,2 3,0 9,0 12,0 1,0 4,0 5,0 4,0 2,0 5,-1 2,0 3,0 6,0 1,0 2,1 5,2 0,0 10,-1 11,-1 5,-2 17,0 21,-2 1,-1 2,-4 0,-5 -2,-3 -3,-2 -6,-2 7,-13 38,-6 51,-13 7,-4 13,-11 17,-18 4,-7 5,-19 -3,-25 4,-5 6,-9 3,-17 -3,-9 -16,-19 -26,-15 2,15 16,31 -17,34 -1,12 -7,19 -15,28 -1,1 -7,6 -7,6 0,-2 0,-5 1,-7 1,-1 1,-4 0,-5 2,-3 0,-3 -2,-5 4,-2 1,-3 -1,-5 -2,-2 1,-2 -2,-4 0,0 -1,-2 -2,-3 3,-1 14,-8 12,-17 0,1 -1,1 -2,1 0,-1 1,-2 1,-3 -2,0 -4,-1 -5,-2 0,-5 1,-9 1,-14 0,-5 0,-8 -1,-12z"/>
    <path class="fil12 str2" d="M145 188c5,1 12,0 17,-3 -5,4 -11,4 -17,3z"/>
    <path class="fil12" d="M171 161c1,-2 3,-2 5,-2 7,2 4,6 0,4 -2,-1 -1,-2 -5,-2zm1 -3c-1,1 -2,1 -2,2 -1,2 1,2 3,2 2,0 3,3 6,2 2,0 4,-2 1,-4 -2,-1 -6,-2 -8,-2z"/>
    <path class="fil12" d="M171 161c4,0 3,1 5,2 4,2 7,-2 0,-4 -2,0 -4,0 -5,2z"/>
    <path class="fil12" d="M129 164c-1,-2 -3,-1 -5,-1 -7,3 -3,7 0,4 3,-2 1,-2 5,-3zm-2 -2c2,0 2,0 3,1 1,2 -1,2 -2,2 -2,1 -3,4 -6,4 -2,0 -5,-2 -2,-5 1,-1 5,-3 7,-2z"/>
    <path class="fil12" d="M129 164c-4,1 -2,1 -5,3 -3,3 -7,-1 0,-4 2,0 4,-1 5,1z"/>
   </g>
  </g>
  <path class="fil7" d="M97 188c-1,0 9,10 27,14 8,2 25,2 33,2 8,-1 16,-9 21,-12 11,-7 22,-11 28,-19 19,-27 21,-51 20,-51l-45 -38 -83 0 -43 27 25 68 17 9z"/>
  <ellipse class="fil28 str3" cx="121" cy="201" rx="18" ry="8"/>
  <ellipse class="fil28 str3" cx="181" cy="197" rx="18" ry="8"/>
 </g>
</svg>
