<?xml version="1.0" encoding="UTF-8"?>
<!DOCTYPE svg PUBLIC "-//W3C//DTD SVG 1.1//EN" "http://www.w3.org/Graphics/SVG/1.1/DTD/svg11.dtd">
<!-- Creator: CorelDRAW X7 -->
<svg xmlns="http://www.w3.org/2000/svg" xml:space="preserve" width="68.7581mm" height="60.7032mm" version="1.1" shape-rendering="geometricPrecision" text-rendering="geometricPrecision" image-rendering="optimizeQuality" fill-rule="evenodd" clip-rule="evenodd"
viewBox="0 0 1856 1638"
 xmlns:xlink="http://www.w3.org/1999/xlink">
 <defs>
    <clipPath id="id0">
     <path d="M0 0l1856 0 0 1638 -1856 0 0 -1638z"/>
    </clipPath>
 </defs>
 <g id="圖層_x0020_1">
  <metadata id="CorelCorpID_0Corel-Layer"/>
  <g id="_794560504">
   <g clip-path="url(#id0)">
    <image x="0" y="0" width="1856" height="1638" xlink:href="升等1星_Images\升等1星_ImgID1.png"/>
   </g>
  </g>
  <g id="_794560672">
   <path fill="#F28000" d="M870 110c-98,11 -164,34 -243,76 -40,21 -81,51 -113,80 -151,140 -231,324 -209,538 15,149 79,273 175,376 28,30 94,81 134,104 34,19 69,36 108,50 206,76 445,30 611,-107 84,-69 159,-169 195,-278 61,-179 46,-351 -43,-516 -53,-100 -138,-183 -233,-240 -111,-65 -249,-97 -382,-83z"/>
   <path fill="#FCFCFC" d="M898 154c-311,15 -571,292 -549,625 12,180 105,317 194,394l39 33c40,31 92,60 141,78 390,151 820,-149 794,-584 -5,-81 -30,-165 -63,-228 -18,-35 -37,-62 -57,-89 -55,-76 -154,-151 -251,-189 -76,-30 -159,-44 -248,-40z"/>
   <path fill="#F7A30A" d="M881 231c-264,26 -487,264 -455,562 27,263 264,483 562,453 262,-27 484,-265 452,-562 -27,-263 -264,-483 -559,-453z"/>
   <path fill="#FCFCFC" d="M895 256c-99,7 -233,62 -293,131 -11,12 -18,17 -31,30 -31,29 -77,111 -91,151 -123,348 146,678 492,653 253,-19 467,-246 443,-523 -5,-68 -27,-137 -55,-188 -88,-162 -262,-268 -465,-254z"/>
   <path fill="#FDD100" d="M1622 1070c1,-38 -11,-58 -38,-68 -12,20 -6,56 8,72 7,7 7,7 14,10l16 9c24,12 50,-5 64,-23 25,-31 4,-27 3,-27 -32,-10 -54,19 -67,27z"/>
   <path fill="#FDD100" d="M1639 486c-20,-12 -39,-40 -74,-19 6,23 29,41 53,44 13,2 13,1 26,-5 1,0 2,0 3,-1 19,-7 25,-10 33,-32 4,-14 5,-31 1,-45l-8 -14c-24,13 -34,36 -34,72z"/>
   <path fill="#FDD100" d="M1742 865c-42,3 -53,17 -69,43 -5,-11 -14,-58 -53,-58 -13,66 59,100 96,68 16,-13 21,-30 26,-53z"/>
   <path fill="#FDD100" d="M263 539c-37,-9 -54,7 -70,28 -14,-30 -11,-63 -47,-66 -4,25 -6,38 5,61 13,26 15,20 37,25 25,6 24,9 49,-7 10,-6 25,-25 26,-41z"/>
   <path fill="#FDD100" d="M270 1145c-29,-21 -39,-26 -78,-16 13,39 56,56 82,38 1,0 3,-3 4,-3 13,-8 20,-3 29,-33 7,-26 2,-35 -3,-58 -28,14 -37,30 -34,72z"/>
   <path fill="#FDD100" d="M1341 1446c-10,-27 -36,-30 -74,-34 22,-25 32,-37 19,-75 -35,16 -54,45 -37,83 7,15 3,24 30,33 20,7 46,4 62,-7z"/>
   <path fill="#FDD100" d="M440 1332c-35,-9 -64,-5 -81,18 25,14 44,24 75,14 24,-8 12,-7 22,-21l8 -10c11,-16 5,-42 -6,-59 -7,-12 -6,-13 -18,-19 -25,26 -13,53 0,77z"/>
   <path fill="#FDD100" d="M1724 956c-41,-1 -49,10 -71,32l-13 -38c-8,-12 -18,-19 -37,-24 -1,29 -2,38 11,61 5,9 5,13 15,18 6,3 7,2 11,2 7,2 5,1 11,4 37,16 67,-22 73,-55z"/>
   <path fill="#FDD100" d="M1422 1403c-18,-28 -37,-28 -79,-27 25,-19 20,-47 13,-76 -27,13 -50,48 -35,78l3 4c1,1 2,2 2,3 4,8 1,27 45,31 20,1 38,-5 51,-13z"/>
   <path fill="#FDD100" d="M374 1279c-45,-13 -44,-8 -82,4 7,15 21,24 40,28 37,8 44,-5 58,-19 0,-1 1,-1 2,-2 9,-9 14,-14 13,-38 -1,-21 -9,-37 -22,-48 -24,17 -23,46 -9,75z"/>
   <path fill="#FDD100" d="M589 1413c-39,0 -59,6 -74,33 16,10 36,14 57,8 38,-10 52,-55 34,-85 -9,-15 -21,-26 -36,-31 -13,39 2,55 19,75z"/>
   <path fill="#FDD100" d="M234 692c-47,2 -48,21 -62,39l-5 5c-7,-32 -25,-48 -57,-56 2,58 18,77 62,77 38,1 57,-27 62,-65z"/>
   <path fill="#FDD100" d="M841 1470c-26,17 -52,21 -56,60 43,1 78,-11 76,-57 0,-1 4,-12 0,-23 -7,-19 -35,-41 -63,-42 -4,34 18,54 43,62z"/>
   <path fill="#FDD100" d="M753 1460c-35,9 -57,16 -65,51 136,11 85,-125 30,-119 -7,42 12,50 35,68z"/>
   <path fill="#FDD100" d="M1604 408c-12,-16 -48,-26 -74,-12 6,24 37,40 59,40 31,0 83,-43 44,-104l-14 12c-16,19 -13,41 -15,64z"/>
   <path fill="#FDD100" d="M1563 1288c-20,-23 -49,-18 -80,-9 13,-36 11,-48 -6,-76 -25,14 -31,51 -24,71 3,10 3,7 6,10l6 6c6,7 8,28 54,22 19,-2 34,-12 44,-24z"/>
   <path fill="#FDD100" d="M244 615c-43,-4 -49,11 -67,36 -7,-11 -13,-55 -54,-62 -4,41 6,79 50,83l13 2c9,0 3,2 13,-1 20,-6 44,-35 45,-58z"/>
   <path fill="#FDD100" d="M1686 735c-16,-24 -23,-45 -65,-42 9,70 81,86 111,43 10,-14 12,-33 13,-54 -38,0 -44,31 -59,53z"/>
   <path fill="#FDD100" d="M1187 1438c20,-12 33,-33 28,-68 -18,-1 -60,30 -51,66 3,12 1,0 3,8 6,21 12,46 62,45 56,-2 11,-37 -23,-45l-19 -6z"/>
   <path fill="#FDD100" d="M1678 652c-14,-22 -28,-44 -67,-37 1,25 29,58 54,59l7 -1c2,0 3,0 4,0 1,0 2,-1 3,-1 44,-5 57,-32 53,-81 -16,-2 -30,10 -36,20 -7,11 -11,27 -18,41z"/>
   <path fill="#FDD100" d="M1066 1531c-4,-34 -21,-48 -52,-56 28,-24 43,-16 49,-67 -58,5 -73,30 -69,70l1 15c6,20 38,39 71,38z"/>
   <path fill="#FDD100" d="M182 908c-17,-27 -23,-41 -68,-43 7,41 29,74 70,63l5 -2c9,-1 15,4 34,-20 11,-15 16,-33 12,-57 -39,6 -38,29 -53,59z"/>
   <path fill="#FDD100" d="M669 1441c-27,4 -41,5 -60,26 -11,11 -13,7 -6,15 4,4 67,29 87,-40 3,-9 9,-19 -7,-45 -9,-14 -21,-23 -42,-30 -3,39 4,54 28,74z"/>
   <path fill="#FDD100" d="M201 990c-13,-22 -33,-36 -71,-34 9,36 38,71 76,54 18,-7 56,-15 45,-83 -37,0 -45,54 -50,63z"/>
   <path fill="#FDD100" d="M1749 773c-39,5 -51,19 -64,50 -18,-30 -17,-47 -61,-52 1,54 26,66 60,72 42,7 59,-26 65,-70z"/>
   <path fill="#FDD100" d="M290 467c-19,-10 -38,-9 -56,5l-18 13c0,-38 -11,-57 -35,-71 -15,24 -10,62 5,80 12,14 21,10 23,10 8,3 8,7 20,8 26,2 53,-21 61,-45z"/>
   <path fill="#FDD100" d="M1563 336c-18,-11 -34,-21 -58,-14 -11,4 -15,9 -18,12 8,11 21,23 41,28 31,8 35,-2 49,-11 24,-17 30,-43 19,-73 -8,-22 -14,-20 -17,-23 -18,32 -20,34 -16,81z"/>
   <path fill="#FDD100" d="M1662 568c-14,-22 -29,-35 -68,-30 -2,24 25,49 49,53l24 -3c0,0 2,-1 2,-1 21,-4 28,-9 37,-30 8,-17 10,-42 0,-57 -38,15 -30,34 -44,68z"/>
   <path fill="#FDD100" d="M368 334c-2,-3 -2,-3 -7,-6 -28,-17 -49,-2 -69,6 6,-36 4,-62 -23,-78 -20,57 -25,70 16,99 4,3 1,3 10,7 23,9 60,-4 73,-28z"/>
   <path fill="#FDD100" d="M512 1377c-43,-5 -53,4 -78,18 13,29 78,30 94,-7 7,-18 16,-23 7,-50 -6,-20 -16,-32 -35,-38 -14,45 -6,46 12,77z"/>
   <path fill="#FDD100" d="M326 395c-33,-11 -58,-6 -75,14 0,-51 -3,-51 -29,-77 -15,22 -26,71 17,93l23 11c9,1 22,-3 31,-6 19,-8 28,-17 33,-35z"/>
   <path fill="#FDD100" d="M1496 1349c-15,-27 -54,-21 -80,-17 19,-34 17,-40 4,-78 -26,14 -47,54 -24,84 15,19 17,30 51,30 19,0 36,-7 49,-19z"/>
   <path fill="#FDD100" d="M1167 1510c-6,-36 -35,-36 -64,-51 23,-13 39,-31 35,-69 -31,5 -61,32 -55,70l1 6c1,13 -4,20 21,35 20,13 37,12 62,9z"/>
   <path fill="#FDD100" d="M316 1215c-34,-7 -27,-26 -79,-7 10,25 55,56 85,27l11 -8c9,-7 11,-7 16,-22 7,-23 3,-48 -10,-64 -9,5 -2,0 -8,6 -20,17 -22,43 -15,68z"/>
   <path fill="#FDD100" d="M172 823c-19,-28 -22,-45 -65,-50 2,21 6,39 19,53 22,23 29,18 53,16 34,-2 51,-38 52,-71 -36,4 -48,21 -59,52z"/>
   <path fill="#FDD100" d="M233 1070c-17,-14 -36,-34 -72,-26l6 24c12,17 36,32 57,29 22,-4 1,-3 20,-11 41,-18 37,-70 26,-84 -26,13 -37,29 -37,68z"/>
   <path fill="#FDD100" d="M1617 1211c-25,-21 -52,-9 -77,4 4,-37 4,-55 -24,-73 -17,25 -16,60 -4,77l18 14c38,31 77,0 87,-22z"/>
   <path fill="#FDD100" d="M1661 1131c-30,-16 -59,2 -76,14 3,-39 -6,-62 -34,-72 -10,46 -12,68 23,89 1,0 2,1 3,1 42,28 77,-8 84,-32z"/>
   <path fill="#F7A30A" stroke="#F7A30A" stroke-width="5.39721" d="M933 235c278,0 503,226 503,504 0,278 -225,503 -503,503 -278,0 -504,-225 -504,-503 0,-278 226,-504 504,-504z"/>
   <polygon fill="#FDD100" stroke="#FEFEFE" stroke-width="2.05634" points="933,361 1017,623 1292,622 1069,783 1155,1044 933,882 711,1044 796,783 574,622 848,623 "/>
  </g>
 </g>
</svg>
