<?xml version="1.0" encoding="UTF-8"?>
<!DOCTYPE svg PUBLIC "-//W3C//DTD SVG 1.1//EN" "http://www.w3.org/Graphics/SVG/1.1/DTD/svg11.dtd">
<!-- Creator: CorelDRAW X7 -->
<svg xmlns="http://www.w3.org/2000/svg" xml:space="preserve" width="68.7581mm" height="60.7029mm" version="1.1" shape-rendering="geometricPrecision" text-rendering="geometricPrecision" image-rendering="optimizeQuality" fill-rule="evenodd" clip-rule="evenodd"
viewBox="0 0 1864 1646"
 xmlns:xlink="http://www.w3.org/1999/xlink">
 <defs>
    <clipPath id="id0">
     <path d="M0 0l1864 0 0 1646 -1864 0 0 -1646z"/>
    </clipPath>
 </defs>
 <g id="圖層_x0020_1">
  <metadata id="CorelCorpID_0Corel-Layer"/>
  <g id="_622260824">
   <g clip-path="url(#id0)">
    <image x="0" y="0" width="1864" height="1646" xlink:href="升等3星_Images\升等3星_ImgID1.png"/>
   </g>
  </g>
  <g id="_622260488">
   <path fill="#F28000" d="M875 111c-100,11 -166,34 -245,75 -40,22 -82,52 -113,81 -152,141 -233,326 -211,541 15,149 80,274 176,377 29,31 95,82 135,105 34,19 69,36 108,50 208,76 447,30 614,-107 85,-70 160,-170 197,-280 60,-179 45,-352 -44,-518 -53,-100 -139,-184 -235,-241 -111,-66 -249,-98 -382,-83z"/>
   <path fill="#FCFCFC" d="M902 155c-313,15 -573,293 -551,627 12,181 105,319 195,396l39 34c40,31 92,60 141,78 392,152 824,-150 798,-587 -5,-81 -30,-166 -63,-229 -19,-35 -37,-62 -57,-89 -56,-77 -155,-152 -253,-190 -76,-31 -160,-44 -249,-40z"/>
   <path fill="#F7A30A" d="M885 232c-265,27 -489,265 -457,565 27,264 265,485 565,455 262,-27 485,-267 454,-565 -28,-264 -265,-485 -562,-455z"/>
   <path fill="#FCFCFC" d="M899 257c-100,7 -234,62 -294,131 -11,13 -18,18 -31,31 -32,30 -78,111 -92,152 -123,349 147,681 495,656 254,-19 468,-247 445,-526 -6,-68 -28,-137 -56,-189 -88,-163 -263,-269 -467,-255z"/>
   <path fill="#FDD100" d="M1629 1075c2,-39 -11,-58 -37,-68 -13,20 -6,56 8,72 6,7 7,7 14,10l16 9c24,12 50,-5 64,-23 25,-31 4,-27 3,-27 -32,-10 -54,19 -68,27z"/>
   <path fill="#FDD100" d="M1647 488c-20,-12 -40,-40 -75,-19 6,23 29,42 53,45 14,2 13,0 27,-5 1,-1 2,-1 3,-1 19,-8 25,-10 32,-33 5,-14 6,-31 2,-45l-8 -14c-25,13 -34,36 -34,72z"/>
   <path fill="#FDD100" d="M1750 869c-42,3 -54,17 -69,43 -5,-11 -14,-58 -54,-58 -13,66 59,100 97,69 17,-14 21,-31 26,-54z"/>
   <path fill="#FDD100" d="M264 541c-37,-8 -54,8 -70,28 -14,-30 -11,-63 -47,-66 -5,26 -7,39 4,61 14,26 16,21 38,26 25,5 23,8 49,-7 10,-7 25,-26 26,-42z"/>
   <path fill="#FDD100" d="M272 1150c-30,-21 -40,-25 -79,-16 13,39 56,56 82,39 1,-1 3,-3 5,-4 12,-8 20,-2 28,-33 8,-26 2,-35 -2,-58 -29,14 -38,31 -34,72z"/>
   <path fill="#FDD100" d="M1347 1453c-10,-28 -36,-31 -74,-34 23,-26 32,-38 19,-75 -35,16 -54,45 -37,82 7,15 3,24 30,33 21,7 46,5 62,-6z"/>
   <path fill="#FDD100" d="M442 1338c-35,-9 -64,-5 -81,18 25,14 44,25 75,14 24,-8 12,-7 22,-21l8 -9c11,-17 5,-43 -6,-60 -7,-12 -6,-13 -18,-19 -25,26 -13,53 0,77z"/>
   <path fill="#FDD100" d="M1732 960c-42,-1 -49,11 -71,33l-13 -39c-8,-12 -18,-18 -37,-24 -1,30 -3,38 11,62 5,9 5,13 15,18 6,3 6,1 11,2 7,2 4,1 11,4 36,16 67,-22 73,-56z"/>
   <path fill="#FDD100" d="M1429 1409c-19,-28 -37,-27 -79,-27 25,-18 19,-47 12,-76 -27,13 -50,48 -35,78l4 5c0,1 1,2 1,2 4,8 1,28 45,31 20,2 38,-5 52,-13z"/>
   <path fill="#FDD100" d="M376 1285c-46,-13 -44,-8 -83,4 7,15 21,25 40,28 37,8 45,-5 59,-19 0,-1 1,-1 2,-2 9,-9 14,-14 13,-38 -1,-21 -9,-37 -22,-48 -24,16 -24,46 -9,75z"/>
   <path fill="#FDD100" d="M592 1420c-40,0 -60,6 -75,33 16,10 37,13 58,8 38,-10 52,-55 34,-86 -9,-15 -22,-26 -37,-31 -13,39 2,55 20,76z"/>
   <path fill="#FDD100" d="M235 695c-47,2 -48,21 -63,39l-4 6c-8,-33 -25,-49 -58,-57 3,59 19,77 63,78 38,0 57,-27 62,-66z"/>
   <path fill="#FDD100" d="M845 1477c-26,17 -52,21 -57,60 43,1 79,-11 77,-57 0,-1 4,-12 0,-23 -7,-20 -35,-42 -64,-43 -3,34 19,55 44,63z"/>
   <path fill="#FDD100" d="M757 1467c-36,9 -58,16 -65,51 136,12 85,-125 29,-120 -6,43 12,51 36,69z"/>
   <path fill="#FDD100" d="M1611 410c-11,-17 -47,-26 -74,-12 6,24 37,40 59,40 32,0 84,-43 45,-104l-15 11c-16,20 -12,42 -15,65z"/>
   <path fill="#FDD100" d="M1570 1294c-20,-23 -49,-18 -81,-9 14,-36 12,-48 -5,-76 -26,14 -31,51 -24,71 3,10 3,7 6,10l6 6c6,7 7,28 54,22 19,-2 34,-11 44,-24z"/>
   <path fill="#FDD100" d="M245 617c-43,-3 -50,12 -67,37 -7,-11 -13,-55 -54,-63 -4,42 5,80 50,84l12 2c10,0 3,2 14,-1 20,-6 44,-35 45,-59z"/>
   <path fill="#FDD100" d="M1693 738c-16,-24 -22,-45 -64,-42 9,70 81,86 111,43 10,-14 12,-33 13,-54 -38,0 -44,31 -60,53z"/>
   <path fill="#FDD100" d="M1192 1444c21,-11 33,-32 28,-67 -18,-2 -60,30 -50,66 3,12 0,0 3,8 6,21 12,46 61,45 57,-2 12,-37 -22,-45l-20 -7z"/>
   <path fill="#FDD100" d="M1686 655c-14,-22 -29,-44 -67,-37 1,25 29,59 54,59l7 0c1,-1 2,-1 4,-1 1,0 2,0 3,-1 44,-5 57,-32 53,-81 -16,-2 -31,10 -37,20 -7,11 -10,27 -17,41z"/>
   <path fill="#FDD100" d="M1071 1538c-4,-34 -21,-48 -53,-56 29,-25 44,-16 50,-67 -59,5 -73,29 -69,70l1 15c6,20 38,39 71,38z"/>
   <path fill="#FDD100" d="M183 912c-18,-27 -24,-41 -69,-43 7,41 30,74 71,63l5 -1c8,-2 15,4 34,-21 11,-15 17,-33 13,-57 -40,6 -39,29 -54,59z"/>
   <path fill="#FDD100" d="M672 1447c-27,5 -42,6 -60,26 -11,12 -13,8 -6,16 4,4 68,29 88,-40 2,-9 9,-19 -8,-45 -9,-15 -21,-24 -42,-30 -3,39 4,53 28,73z"/>
   <path fill="#FDD100" d="M201 995c-12,-22 -32,-36 -70,-35 8,37 38,72 76,55 18,-8 56,-16 45,-83 -37,-1 -45,54 -51,63z"/>
   <path fill="#FDD100" d="M1757 776c-39,6 -51,20 -64,51 -18,-31 -18,-48 -61,-53 1,55 26,67 59,73 43,7 60,-26 66,-71z"/>
   <path fill="#FDD100" d="M292 469c-20,-10 -39,-9 -56,5l-19 14c0,-39 -11,-58 -35,-72 -15,24 -11,62 5,80 12,14 21,10 23,10 8,3 8,8 20,8 26,2 53,-20 62,-45z"/>
   <path fill="#FDD100" d="M1570 337c-17,-10 -34,-20 -58,-13 -11,3 -15,8 -18,11 8,12 21,24 41,29 31,8 35,-3 49,-12 25,-16 31,-42 19,-73 -8,-21 -13,-20 -17,-22 -18,31 -20,34 -16,80z"/>
   <path fill="#FDD100" d="M1670 570c-14,-22 -29,-35 -69,-30 -2,25 26,49 50,54l24 -3c0,-1 1,-1 2,-1 21,-4 28,-9 37,-31 8,-17 10,-41 0,-57 -38,15 -30,35 -44,68z"/>
   <path fill="#FDD100" d="M370 335c-2,-2 -3,-3 -7,-6 -28,-17 -50,-1 -70,7 6,-37 5,-63 -22,-79 -21,58 -26,71 15,100 4,3 1,3 10,7 23,9 61,-5 74,-29z"/>
   <path fill="#FDD100" d="M515 1383c-44,-5 -54,4 -79,19 13,28 78,30 94,-7 8,-18 16,-24 8,-50 -7,-21 -17,-33 -35,-39 -15,45 -7,46 12,77z"/>
   <path fill="#FDD100" d="M327 397c-33,-11 -57,-6 -75,14 0,-51 -3,-52 -28,-78 -16,22 -27,72 16,94l23 11c10,1 23,-3 31,-6 19,-8 28,-17 33,-35z"/>
   <path fill="#FDD100" d="M1503 1355c-16,-27 -55,-21 -81,-17 19,-34 17,-40 4,-78 -26,14 -46,54 -23,85 14,18 17,30 51,29 19,0 36,-7 49,-19z"/>
   <path fill="#FDD100" d="M1173 1517c-7,-36 -35,-36 -65,-52 23,-12 40,-30 36,-68 -32,4 -62,31 -55,70l0 5c1,14 -4,21 21,36 20,13 37,13 63,9z"/>
   <path fill="#FDD100" d="M317 1220c-34,-7 -27,-26 -79,-6 10,24 55,56 86,27l11 -9c9,-6 11,-6 15,-21 8,-24 4,-49 -10,-64 -8,5 -1,-1 -8,5 -20,17 -22,44 -15,68z"/>
   <path fill="#FDD100" d="M173 827c-19,-28 -22,-45 -66,-51 3,22 7,40 19,54 23,23 30,18 54,16 34,-2 51,-38 52,-72 -36,5 -48,21 -59,53z"/>
   <path fill="#FDD100" d="M234 1075c-17,-14 -36,-34 -73,-26l6 24c12,17 37,32 58,29 22,-4 1,-3 20,-11 42,-18 37,-70 26,-84 -26,13 -37,29 -37,68z"/>
   <path fill="#FDD100" d="M1625 1217c-25,-22 -52,-9 -78,4 5,-38 4,-56 -24,-74 -17,25 -16,61 -4,78l18 14c38,31 78,0 88,-22z"/>
   <path fill="#FDD100" d="M1669 1136c-30,-16 -59,2 -77,15 3,-39 -5,-63 -34,-73 -10,47 -12,68 23,89 1,1 2,1 3,2 42,27 78,-9 85,-33z"/>
   <path fill="#F7A30A" stroke="#F7A30A" stroke-width="5.42243" d="M937 236c280,0 506,227 506,506 0,280 -226,506 -506,506 -279,0 -506,-226 -506,-506 0,-279 227,-506 506,-506z"/>
   <polygon fill="#FDD100" stroke="#FEFEFE" stroke-width="2.06594" points="937,363 1022,625 1298,625 1074,787 1160,1049 937,886 714,1049 800,787 576,625 852,625 "/>
   <polygon fill="#FDD100" stroke="#FEFEFE" stroke-width="2.06594" points="1296,682 1343,826 1494,826 1371,914 1418,1058 1296,969 1174,1058 1221,914 1099,826 1250,826 "/>
   <polygon fill="#FDD100" stroke="#FEFEFE" stroke-width="2.06594" points="583,682 629,826 780,826 658,914 705,1058 583,969 461,1058 508,914 386,826 537,826 "/>
  </g>
 </g>
</svg>
