<?xml version="1.0" encoding="UTF-8"?>
<!DOCTYPE svg PUBLIC "-//W3C//DTD SVG 1.1//EN" "http://www.w3.org/Graphics/SVG/1.1/DTD/svg11.dtd">
<!-- Creator: CorelDRAW X7 -->
<svg xmlns="http://www.w3.org/2000/svg" xml:space="preserve" width="68.7581mm" height="60.7029mm" version="1.1" shape-rendering="geometricPrecision" text-rendering="geometricPrecision" image-rendering="optimizeQuality" fill-rule="evenodd" clip-rule="evenodd"
viewBox="0 0 5360 4732"
 xmlns:xlink="http://www.w3.org/1999/xlink">
 <defs>
    <clipPath id="id0">
     <path d="M0 0l5360 0 0 4732 -5360 0 0 -4732z"/>
    </clipPath>
 </defs>
 <g id="圖層_x0020_1">
  <metadata id="CorelCorpID_0Corel-Layer"/>
  <g id="_793429712">
   <g clip-path="url(#id0)">
    <image x="0" y="0" width="5360" height="4732" xlink:href="升等3星-無彩_Images\升等3星-無彩_ImgID1.png"/>
   </g>
  </g>
  <g id="_793429472">
   <path fill="#757475" d="M2515 319c-286,31 -475,98 -702,217 -117,61 -237,149 -328,233 -437,404 -668,936 -604,1555 43,429 229,787 505,1084 82,88 273,234 388,301 98,56 200,104 311,145 597,218 1285,86 1766,-309 243,-200 458,-488 564,-803 174,-517 132,-1014 -124,-1492 -154,-287 -399,-529 -675,-692 -320,-189 -718,-281 -1101,-239z"/>
   <path fill="#FCFCFC" d="M2595 446c-900,42 -1650,843 -1586,1804 35,519 301,915 560,1138l113 97c115,89 265,171 405,226 1129,434 2370,-433 2294,-1689 -14,-233 -85,-476 -181,-658 -53,-102 -106,-178 -163,-257 -160,-221 -446,-436 -726,-547 -220,-87 -460,-125 -716,-114z"/>
   <path fill="#F7A30A" d="M2545 666c-763,78 -1406,763 -1315,1626 79,760 763,1395 1624,1307 756,-77 1397,-766 1307,-1623 -80,-760 -763,-1396 -1616,-1310z"/>
   <path fill="#FCFCFC" d="M2585 740c-287,19 -671,177 -846,377 -32,36 -51,51 -89,87 -91,86 -223,321 -264,437 -355,1006 422,1959 1422,1886 731,-54 1348,-709 1281,-1512 -16,-196 -80,-394 -161,-543 -254,-467 -756,-773 -1343,-732z"/>
   <path fill="#332C2B" d="M4685 3091c5,-111 -31,-168 -108,-196 -36,57 -17,162 23,208 18,21 20,19 40,29l46 25c69,35 143,-14 185,-65 72,-90 11,-78 8,-79 -91,-29 -156,56 -194,78z"/>
   <path fill="#332C2B" d="M4735 1405c-58,-36 -114,-116 -215,-55 18,65 85,118 153,127 40,6 38,1 76,-14 3,-1 6,-2 9,-3 55,-22 73,-29 94,-93 14,-40 16,-91 4,-131l-22 -41c-71,39 -99,105 -99,210z"/>
   <path fill="#332C2B" d="M5031 2498c-119,9 -153,51 -198,124 -14,-30 -39,-167 -154,-166 -37,190 170,288 279,197 47,-39 61,-88 73,-155z"/>
   <path fill="#332C2B" d="M759 1557c-107,-26 -156,21 -202,80 -40,-86 -31,-182 -135,-191 -13,74 -19,113 14,177 37,75 43,59 107,73 73,16 68,24 141,-21 30,-18 74,-72 75,-118z"/>
   <path fill="#332C2B" d="M781 3307c-85,-60 -113,-73 -226,-46 38,112 160,161 235,111 3,-2 11,-8 14,-10 37,-23 57,-7 82,-94 22,-77 6,-102 -7,-170 -83,41 -107,90 -98,209z"/>
   <path fill="#332C2B" d="M3874 4178c-28,-80 -103,-89 -215,-98 66,-73 93,-109 55,-217 -100,47 -155,130 -106,239 20,43 10,69 87,94 59,20 132,14 179,-18z"/>
   <path fill="#332C2B" d="M1270 3849c-101,-27 -184,-16 -232,51 71,40 127,70 217,40 68,-24 34,-21 62,-61l24 -27c30,-48 13,-122 -17,-171 -22,-35 -20,-37 -54,-54 -71,73 -36,152 0,222z"/>
   <path fill="#332C2B" d="M4981 2761c-120,-2 -142,31 -205,94l-39 -111c-21,-35 -51,-54 -106,-69 -3,84 -6,109 32,178 15,26 15,36 44,50 17,9 18,5 30,8 22,4 14,2 33,11 105,46 194,-64 211,-161z"/>
   <path fill="#332C2B" d="M4108 4053c-53,-81 -106,-80 -227,-79 71,-53 56,-136 35,-219 -77,38 -142,139 -99,224l9 15c2,2 3,5 5,7 11,23 2,78 130,89 56,5 108,-15 147,-37z"/>
   <path fill="#332C2B" d="M1080 3696c-131,-39 -127,-23 -238,9 22,45 61,72 116,83 107,22 128,-15 168,-56 2,-2 5,-4 6,-6 27,-26 42,-38 39,-109 -3,-60 -28,-107 -64,-137 -69,47 -68,132 -27,216z"/>
   <path fill="#332C2B" d="M1701 4082c-113,1 -170,18 -213,96 46,29 104,38 165,22 109,-28 149,-157 98,-246 -25,-44 -62,-74 -105,-90 -37,114 5,160 55,218z"/>
   <path fill="#332C2B" d="M675 1999c-136,6 -137,60 -179,112l-14 16c-21,-95 -71,-141 -165,-163 7,168 53,223 180,224 109,1 164,-78 178,-189z"/>
   <path fill="#332C2B" d="M2430 4247c-76,50 -151,61 -163,173 124,3 225,-31 220,-164 0,-4 12,-36 0,-67 -20,-56 -100,-119 -182,-122 -10,98 53,156 125,180z"/>
   <path fill="#332C2B" d="M2176 4218c-102,27 -166,45 -187,146 391,34 245,-359 84,-343 -18,121 35,146 103,197z"/>
   <path fill="#332C2B" d="M4633 1180c-33,-49 -137,-76 -214,-35 19,67 108,114 170,114 92,0 241,-124 128,-299l-41 33c-45,55 -36,120 -43,187z"/>
   <path fill="#332C2B" d="M4516 3722c-59,-66 -141,-54 -233,-26 38,-106 32,-140 -16,-220 -73,41 -89,146 -69,205 9,29 8,19 17,29l18 17c17,19 21,81 155,64 54,-8 98,-34 128,-69z"/>
   <path fill="#332C2B" d="M705 1776c-124,-12 -143,32 -194,105 -19,-32 -38,-160 -154,-181 -12,121 15,228 142,241l37 5c27,2 9,6 40,-3 56,-16 126,-99 129,-167z"/>
   <path fill="#332C2B" d="M4869 2123c-46,-70 -64,-130 -185,-121 25,202 233,247 319,124 29,-41 36,-96 38,-157 -110,2 -127,90 -172,154z"/>
   <path fill="#332C2B" d="M3429 4153c59,-32 94,-93 80,-195 -52,-3 -173,87 -146,192 9,34 2,0 9,23 18,59 34,132 178,128 162,-5 33,-106 -65,-130l-56 -18z"/>
   <path fill="#332C2B" d="M4849 1884c-41,-65 -83,-127 -194,-106 2,71 83,167 156,169l20 -2c4,0 7,-1 10,-1 3,-1 7,-2 10,-2 128,-15 163,-94 152,-235 -45,-4 -87,29 -105,57 -20,34 -31,80 -49,120z"/>
   <path fill="#332C2B" d="M3080 4424c-12,-99 -61,-140 -152,-164 82,-69 125,-45 143,-192 -169,15 -210,85 -199,202l3 43c17,58 109,113 205,111z"/>
   <path fill="#332C2B" d="M525 2622c-50,-78 -67,-116 -197,-123 21,119 85,213 203,181l15 -4c25,-5 45,11 98,-60 31,-42 48,-95 36,-162 -114,17 -110,82 -155,168z"/>
   <path fill="#332C2B" d="M1933 4162c-80,13 -120,17 -173,75 -32,34 -37,22 -18,43 13,13 195,84 253,-114 7,-26 26,-55 -22,-130 -27,-41 -60,-67 -122,-86 -8,113 11,154 82,212z"/>
   <path fill="#332C2B" d="M579 2860c-36,-63 -92,-103 -203,-98 24,105 109,205 219,157 52,-23 161,-45 129,-240 -105,-1 -130,156 -145,181z"/>
   <path fill="#332C2B" d="M5052 2232c-111,16 -146,57 -185,146 -51,-89 -50,-137 -174,-151 3,157 75,192 171,209 122,20 170,-76 188,-204z"/>
   <path fill="#332C2B" d="M839 1350c-57,-31 -110,-26 -162,13l-54 39c1,-110 -31,-165 -101,-207 -42,71 -29,180 16,232 35,39 61,28 66,29 24,8 24,21 58,23 74,4 152,-60 177,-129z"/>
   <path fill="#332C2B" d="M4515 969c-50,-29 -98,-58 -168,-38 -32,10 -43,25 -51,33 22,34 59,68 118,83 90,21 101,-8 141,-34 71,-47 88,-122 55,-210 -23,-62 -39,-58 -50,-65 -51,91 -56,98 -45,231z"/>
   <path fill="#332C2B" d="M4801 1640c-39,-63 -82,-100 -197,-86 -5,71 74,141 142,153l69 -9c2,0 5,-1 7,-2 60,-12 81,-27 108,-88 21,-49 27,-120 -2,-164 -110,44 -85,100 -127,196z"/>
   <path fill="#332C2B" d="M1064 964c-7,-7 -8,-9 -21,-17 -81,-49 -142,-5 -199,18 15,-104 12,-180 -66,-226 -60,165 -73,204 44,286 12,9 4,10 31,20 65,26 174,-11 211,-81z"/>
   <path fill="#332C2B" d="M1480 3977c-124,-14 -155,12 -228,54 39,82 226,87 272,-20 23,-53 47,-68 22,-145 -18,-58 -47,-94 -101,-110 -42,128 -18,133 35,221z"/>
   <path fill="#332C2B" d="M941 1142c-95,-31 -166,-18 -217,39 1,-146 -8,-148 -81,-223 -45,64 -78,205 48,271l65 29c28,3 65,-6 90,-17 55,-23 81,-47 95,-99z"/>
   <path fill="#332C2B" d="M4321 3897c-44,-79 -156,-61 -231,-50 54,-99 49,-115 11,-224 -75,41 -133,155 -67,244 41,53 49,86 146,85 56,-1 104,-21 141,-55z"/>
   <path fill="#332C2B" d="M3372 4363c-18,-104 -101,-104 -185,-149 67,-36 113,-89 102,-197 -92,13 -178,90 -159,201l2 16c3,38 -11,58 59,103 60,37 108,35 181,26z"/>
   <path fill="#332C2B" d="M913 3509c-98,-20 -79,-75 -227,-20 27,72 157,164 246,80l31 -26c25,-18 32,-17 45,-61 20,-68 9,-140 -30,-185 -25,14 -4,0 -23,16 -57,49 -62,126 -42,196z"/>
   <path fill="#332C2B" d="M497 2377c-54,-80 -64,-129 -188,-145 6,62 18,115 54,153 65,69 85,52 154,48 97,-6 148,-109 150,-207 -104,14 -139,61 -170,151z"/>
   <path fill="#332C2B" d="M674 3090c-51,-40 -104,-98 -210,-73l17 67c35,49 106,95 167,84 63,-11 3,-9 56,-32 120,-52 108,-201 75,-242 -74,38 -106,85 -105,196z"/>
   <path fill="#332C2B" d="M4672 3500c-71,-63 -150,-27 -224,11 13,-108 13,-160 -69,-213 -49,72 -46,175 -10,223l52 42c108,89 222,-1 251,-63z"/>
   <path fill="#332C2B" d="M4799 3266c-86,-45 -170,7 -220,43 8,-113 -16,-180 -98,-209 -28,134 -34,196 66,256 3,2 6,4 8,5 121,78 224,-25 244,-95z"/>
   <path fill="#757475" d="M2695 679c803,0 1455,652 1455,1455 0,804 -652,1455 -1455,1455 -804,0 -1455,-651 -1455,-1455 0,-803 651,-1455 1455,-1455z"/>
   <polygon fill="#FEFEFE" stroke="#FEFEFE" stroke-width="5.94058" points="2695,1043 2939,1799 3732,1797 3089,2262 3336,3017 2695,2549 2053,3017 2300,2262 1657,1797 2451,1799 "/>
   <polygon fill="#FEFEFE" stroke="#FEFEFE" stroke-width="5.94058" points="3727,1961 3861,2375 4295,2374 3943,2629 4078,3041 3727,2785 3377,3041 3512,2629 3160,2374 3594,2375 "/>
   <polygon fill="#FEFEFE" stroke="#FEFEFE" stroke-width="5.94058" points="1676,1961 1810,2375 2244,2374 1892,2629 2027,3041 1676,2785 1325,3041 1460,2629 1109,2374 1543,2375 "/>
  </g>
 </g>
</svg>
