<?xml version="1.0" encoding="UTF-8"?>
<!DOCTYPE svg PUBLIC "-//W3C//DTD SVG 1.1//EN" "http://www.w3.org/Graphics/SVG/1.1/DTD/svg11.dtd">
<!-- Creator: CorelDRAW X7 -->
<svg xmlns="http://www.w3.org/2000/svg" xml:space="preserve" width="68.7581mm" height="60.7032mm" version="1.1" shape-rendering="geometricPrecision" text-rendering="geometricPrecision" image-rendering="optimizeQuality" fill-rule="evenodd" clip-rule="evenodd"
viewBox="0 0 4997 4411"
 xmlns:xlink="http://www.w3.org/1999/xlink">
 <defs>
    <clipPath id="id0">
     <path d="M0 0l4997 0 0 4411 -4997 0 0 -4411z"/>
    </clipPath>
 </defs>
 <g id="圖層_x0020_1">
  <metadata id="CorelCorpID_0Corel-Layer"/>
  <g id="_617771048">
   <g clip-path="url(#id0)">
    <image x="0" y="0" width="4997" height="4411" xlink:href="升等1星-無彩_Images\升等1星-無彩_ImgID1.png"/>
   </g>
  </g>
  <g id="_617770688">
   <path fill="#757475" d="M2344 297c-266,29 -442,92 -654,203 -109,57 -221,139 -305,217 -408,377 -623,872 -564,1449 41,400 214,734 471,1010 77,83 255,219 362,281 91,53 186,97 290,135 555,204 1198,80 1646,-288 226,-186 426,-454 526,-749 162,-481 122,-945 -116,-1390 -144,-268 -373,-493 -630,-645 -298,-176 -669,-262 -1026,-223z"/>
   <path fill="#FCFCFC" d="M2418 416c-838,39 -1537,786 -1478,1681 33,484 282,853 522,1061l106 91c107,83 247,159 378,210 1052,405 2208,-403 2138,-1574 -13,-217 -80,-444 -169,-614 -49,-94 -99,-166 -152,-239 -149,-206 -416,-407 -677,-510 -205,-82 -429,-117 -668,-106z"/>
   <path fill="#F7A30A" d="M2372 621c-711,72 -1310,711 -1226,1516 74,707 712,1300 1515,1218 704,-72 1302,-715 1218,-1513 -75,-708 -712,-1301 -1507,-1221z"/>
   <path fill="#FCFCFC" d="M2409 689c-267,19 -625,166 -788,352 -30,34 -48,48 -83,81 -84,80 -208,300 -246,407 -331,938 394,1827 1326,1759 681,-50 1256,-661 1193,-1410 -15,-182 -74,-367 -149,-505 -238,-436 -705,-721 -1253,-684z"/>
   <path fill="#474443" d="M4367 2881c4,-103 -29,-156 -101,-183 -34,54 -16,151 22,194 17,20 19,18 37,28l43 23c64,32 134,-13 172,-61 68,-84 11,-72 7,-73 -84,-27 -144,52 -180,72z"/>
   <path fill="#474443" d="M4414 1309c-54,-32 -107,-108 -201,-51 17,61 79,110 143,119 37,5 36,1 71,-13 2,-1 5,-2 8,-3 51,-20 68,-27 88,-87 12,-37 15,-84 3,-122l-20 -38c-66,36 -92,98 -92,195z"/>
   <path fill="#474443" d="M4690 2329c-112,8 -143,47 -185,115 -13,-28 -37,-156 -144,-155 -34,178 159,269 260,184 44,-37 57,-82 69,-144z"/>
   <path fill="#474443" d="M708 1451c-100,-23 -146,20 -188,75 -38,-80 -30,-170 -127,-178 -12,69 -17,105 13,165 35,70 40,55 100,68 68,15 64,23 132,-19 28,-17 68,-68 70,-111z"/>
   <path fill="#474443" d="M728 3083c-79,-56 -106,-69 -210,-44 34,105 149,151 219,104 2,-2 9,-8 12,-9 35,-22 54,-7 77,-88 21,-71 5,-95 -7,-158 -77,38 -99,83 -91,195z"/>
   <path fill="#474443" d="M3611 3894c-26,-74 -96,-82 -200,-91 61,-68 86,-101 51,-202 -93,43 -145,121 -99,222 19,41 9,65 81,89 55,18 124,12 167,-18z"/>
   <path fill="#474443" d="M1184 3587c-94,-25 -172,-14 -216,49 65,37 118,65 202,36 63,-22 32,-19 58,-56l22 -25c28,-46 12,-114 -16,-160 -20,-33 -18,-35 -50,-50 -66,68 -34,142 0,206z"/>
   <path fill="#474443" d="M4643 2574c-112,-2 -132,28 -191,87l-36 -103c-20,-33 -48,-50 -99,-64 -3,78 -6,101 30,165 13,24 14,34 40,47 16,8 17,4 29,7 20,4 13,2 31,10 97,44 180,-59 196,-149z"/>
   <path fill="#474443" d="M3829 3778c-49,-76 -99,-75 -211,-74 66,-49 52,-126 33,-204 -73,36 -133,130 -93,209l9 14c1,2 2,4 4,7 11,21 2,72 121,82 53,5 101,-13 137,-34z"/>
   <path fill="#474443" d="M1007 3445c-122,-37 -118,-22 -222,9 20,42 57,67 108,77 100,20 119,-14 157,-52 1,-2 4,-4 6,-6 24,-24 38,-36 35,-102 -2,-55 -25,-99 -59,-128 -64,44 -64,124 -25,202z"/>
   <path fill="#474443" d="M1586 3805c-106,1 -159,17 -199,89 43,27 97,36 154,21 101,-26 139,-147 91,-230 -23,-40 -57,-68 -98,-83 -35,106 5,148 52,203z"/>
   <path fill="#474443" d="M629 1863c-126,6 -127,56 -167,105l-13 14c-19,-88 -66,-131 -154,-152 7,158 50,208 168,209 102,1 153,-72 166,-176z"/>
   <path fill="#474443" d="M2265 3958c-71,47 -140,57 -152,162 115,3 210,-29 205,-153 0,-3 11,-34 1,-62 -19,-52 -94,-111 -171,-114 -9,91 50,145 117,167z"/>
   <path fill="#474443" d="M2029 3932c-96,25 -155,42 -175,136 365,32 228,-335 78,-320 -16,113 33,136 97,184z"/>
   <path fill="#474443" d="M4318 1100c-30,-46 -127,-71 -199,-33 17,63 101,106 159,107 85,0 224,-116 119,-279l-38 31c-43,51 -34,111 -41,174z"/>
   <path fill="#474443" d="M4209 3469c-54,-61 -131,-50 -217,-24 36,-98 30,-130 -15,-205 -68,38 -82,136 -64,191 9,27 8,17 16,27l17 16c15,17 19,76 145,59 50,-6 91,-31 118,-64z"/>
   <path fill="#474443" d="M657 1655c-116,-11 -133,31 -181,99 -17,-31 -35,-149 -144,-169 -11,112 15,213 133,224l35 5c25,2 8,5 37,-3 52,-14 117,-92 120,-156z"/>
   <path fill="#474443" d="M4539 1978c-43,-64 -60,-120 -173,-112 24,188 217,231 297,116 27,-39 34,-90 36,-146 -103,1 -118,84 -160,142z"/>
   <path fill="#474443" d="M3196 3871c55,-30 88,-87 75,-181 -48,-3 -161,80 -136,178 8,32 2,0 8,21 17,56 32,124 166,120 151,-5 31,-98 -61,-121l-52 -17z"/>
   <path fill="#474443" d="M4520 1756c-38,-60 -78,-118 -181,-99 2,67 77,156 145,158l20 -2c3,0 6,-1 9,-1 3,-1 5,-1 8,-2 120,-14 153,-88 142,-219 -42,-4 -81,27 -97,54 -19,31 -29,74 -46,111z"/>
   <path fill="#474443" d="M2871 4123c-12,-91 -57,-130 -141,-152 75,-65 116,-42 133,-179 -158,14 -196,80 -186,188l3 40c16,54 101,106 191,103z"/>
   <path fill="#474443" d="M490 2444c-47,-72 -63,-108 -184,-115 19,111 79,199 189,169l14 -4c23,-4 41,11 91,-56 29,-38 45,-88 34,-151 -107,16 -103,77 -144,157z"/>
   <path fill="#474443" d="M1802 3880c-74,12 -112,15 -162,69 -29,32 -34,21 -17,41 13,11 182,78 236,-107 7,-24 24,-51 -20,-121 -25,-38 -56,-63 -113,-80 -8,105 10,144 76,198z"/>
   <path fill="#474443" d="M540 2666c-34,-59 -86,-96 -189,-92 22,98 101,192 203,147 49,-21 151,-42 121,-224 -98,-1 -121,146 -135,169z"/>
   <path fill="#474443" d="M4709 2080c-103,15 -136,53 -173,136 -47,-82 -46,-127 -162,-140 3,146 70,179 159,194 114,20 160,-70 176,-190z"/>
   <path fill="#474443" d="M782 1258c-53,-28 -103,-24 -151,13l-50 36c0,-103 -29,-154 -94,-193 -40,66 -27,168 15,216 32,37 56,26 61,27 22,8 22,19 54,21 69,5 142,-55 165,-120z"/>
   <path fill="#474443" d="M4208 904c-46,-28 -90,-55 -156,-36 -30,9 -40,23 -48,31 21,31 56,63 110,76 85,21 95,-6 132,-31 66,-44 82,-114 52,-195 -22,-59 -37,-55 -47,-61 -48,85 -53,91 -43,216z"/>
   <path fill="#474443" d="M4475 1529c-37,-59 -77,-94 -184,-81 -4,66 70,132 133,143l64 -8c2,-1 5,-1 7,-2 56,-11 75,-25 100,-82 20,-46 25,-112 -2,-153 -102,41 -79,93 -118,183z"/>
   <path fill="#474443" d="M992 899c-7,-7 -7,-9 -20,-16 -75,-46 -132,-5 -186,17 15,-97 12,-168 -61,-211 -56,154 -68,190 41,267 12,8 4,9 29,19 61,23 162,-11 197,-76z"/>
   <path fill="#474443" d="M1380 3707c-116,-13 -145,12 -213,50 37,77 211,82 254,-18 21,-49 44,-63 20,-135 -17,-54 -43,-88 -94,-103 -40,120 -17,124 33,206z"/>
   <path fill="#474443" d="M877 1065c-89,-30 -154,-18 -202,36 1,-136 -8,-138 -76,-208 -42,59 -72,191 45,253l61 27c26,3 60,-6 83,-16 52,-22 76,-44 89,-92z"/>
   <path fill="#474443" d="M4027 3633c-40,-74 -145,-57 -215,-47 51,-92 46,-108 11,-209 -70,38 -125,145 -63,227 38,50 46,81 136,80 53,-1 97,-20 131,-51z"/>
   <path fill="#474443" d="M3144 4067c-18,-97 -95,-97 -174,-139 63,-34 106,-83 96,-184 -86,12 -166,84 -148,188l1 14c3,36 -10,55 56,97 55,34 100,33 169,24z"/>
   <path fill="#474443" d="M851 3270c-91,-18 -74,-69 -212,-17 25,66 147,152 229,74l30 -24c23,-18 29,-17 41,-57 20,-64 9,-131 -27,-173 -23,13 -4,0 -21,15 -54,46 -59,118 -40,182z"/>
   <path fill="#474443" d="M463 2216c-50,-75 -59,-121 -175,-135 6,57 17,106 50,142 61,64 79,49 144,45 90,-5 138,-102 140,-193 -97,13 -130,57 -159,141z"/>
   <path fill="#474443" d="M628 2881c-47,-38 -97,-92 -196,-69l17 63c32,45 99,88 155,78 59,-10 3,-8 52,-30 113,-48 101,-188 71,-225 -70,35 -100,78 -99,183z"/>
   <path fill="#474443" d="M4355 3262c-67,-58 -140,-25 -209,10 12,-100 12,-149 -65,-197 -45,66 -42,163 -9,207l49 39c100,83 207,-1 234,-59z"/>
   <path fill="#474443" d="M4473 3044c-80,-42 -159,6 -205,40 7,-105 -15,-167 -91,-194 -27,124 -32,183 62,239 2,1 5,2 7,4 113,73 208,-23 227,-89z"/>
   <path fill="#757475" d="M2512 633c749,0 1356,607 1356,1356 0,749 -607,1356 -1356,1356 -749,0 -1356,-607 -1356,-1356 0,-749 607,-1356 1356,-1356z"/>
   <polygon fill="#FEFEFE" stroke="#FEFEFE" stroke-width="5.53733" points="2512,972 2739,1676 3479,1675 2880,2109 3110,2812 2512,2376 1914,2812 2144,2109 1545,1675 2285,1676 "/>
  </g>
 </g>
</svg>
