<?xml version="1.0" encoding="UTF-8"?>
<!DOCTYPE svg PUBLIC "-//W3C//DTD SVG 1.1//EN" "http://www.w3.org/Graphics/SVG/1.1/DTD/svg11.dtd">
<!-- Creator: CorelDRAW X7 -->
<svg xmlns="http://www.w3.org/2000/svg" xml:space="preserve" width="72.9404mm" height="67.5546mm" version="1.1" shape-rendering="geometricPrecision" text-rendering="geometricPrecision" image-rendering="optimizeQuality" fill-rule="evenodd" clip-rule="evenodd"
viewBox="0 0 5783 5356"
 xmlns:xlink="http://www.w3.org/1999/xlink">
 <defs>
    <clipPath id="id0">
     <path d="M0 0l5783 0 0 5356 -5783 0 0 -5356z"/>
    </clipPath>
 </defs>
 <g id="圖層_x0020_1">
  <metadata id="CorelCorpID_0Corel-Layer"/>
  <g id="_794581480">
   <g clip-path="url(#id0)">
    <image x="0" y="0" width="5783" height="5356" xlink:href="發文1星-無彩_Images\發文1星-無彩_ImgID1.png"/>
   </g>
  </g>
  <g id="_794581816">
   <path fill="#DCDDDD" d="M2902 1282c775,0 1404,629 1404,1405 0,775 -629,1404 -1404,1404 -776,0 -1405,-629 -1405,-1404 0,-776 629,-1405 1405,-1405z"/>
   <path fill="#332C2B" d="M1362 3567l0 327 -1013 0 183 265c14,19 18,28 32,47 15,23 21,27 34,46 -28,41 -239,330 -249,367l1142 0 0 -129 2801 0 0 129 1142 0c-10,-37 -220,-325 -249,-367l249 -358 -1003 0 0 -357 -3039 0c-23,0 -30,7 -30,30z"/>
   <path fill="#757475" d="M2296 786l-213 -95c-100,-41 -282,-171 -380,-30 -29,43 -93,428 -93,493l-357 -21c-84,0 -104,-7 -163,27 -130,76 -53,239 -26,351 10,38 16,73 26,113 11,45 24,76 24,125l-419 158c-176,107 -13,284 50,370l150 207c-42,28 -196,190 -251,236 -45,37 -120,87 -114,180 7,102 104,146 196,201 42,24 79,49 123,75 36,22 88,63 126,73 -25,47 -199,415 -199,447 0,33 14,99 50,99l437 0 0 -347 59 0c-4,-56 -168,-338 -168,-686 0,-277 -9,-267 59,-546 26,-107 69,-209 113,-304 26,-56 48,-87 75,-133 14,-22 23,-39 37,-63 16,-25 28,-39 46,-63 16,-22 26,-35 43,-57 39,-53 157,-181 207,-220 207,-160 158,-144 446,-289 302,-152 769,-194 1113,-106 117,30 227,62 327,110 110,52 312,170 401,254 190,176 252,245 394,480 29,48 54,95 74,144 180,443 208,849 42,1311l-71 168 80 0 0 347 109 0c-5,-66 -34,-127 -40,-189l277 -100c97,-35 192,-49 221,-157 25,-91 -49,-167 -110,-249 -28,-36 -52,-73 -80,-109 -19,-26 -72,-92 -79,-119 27,-41 58,-61 96,-93 36,-30 60,-63 95,-93 60,-50 166,-121 166,-222 0,-127 -169,-193 -313,-282 -45,-27 -79,-52 -124,-75 8,-32 32,-76 47,-112 17,-40 36,-70 51,-108 61,-150 225,-359 -125,-409l-340 -56 16 -352c18,-117 -27,-234 -155,-234 -79,0 -362,77 -457,99l-164 -431c-65,-104 -174,-84 -259,-21 -37,27 -69,49 -103,75 -66,50 -140,103 -209,149 -37,-25 -64,-57 -93,-95 -29,-38 -60,-63 -93,-96 -79,-80 -103,-167 -241,-167 -109,0 -191,195 -266,310 -18,28 -64,99 -71,127z"/>
   <path fill="#004334" d="M1283 2584c0,262 12,463 119,705 18,41 61,122 69,159l139 0c-99,-188 -206,-429 -208,-656 -1,-48 -10,-86 -9,-117 20,-338 85,-544 222,-772 36,-61 59,-93 100,-148 254,-341 730,-572 1176,-572 774,0 1374,585 1476,1256 60,393 -14,667 -195,1009l140 0c9,-39 47,-107 66,-152 128,-298 144,-564 102,-881 -8,-59 -21,-105 -35,-163 -44,-175 -149,-384 -253,-522 -116,-155 -235,-274 -399,-386 -243,-166 -515,-255 -812,-270 -122,-6 1,-14 -170,0 -82,6 -161,0 -266,31 -225,65 -348,101 -543,231 -79,53 -155,112 -220,178 -71,70 -123,124 -183,204 -166,223 -316,587 -316,866z"/>
   <path fill="#757475" d="M2226 4927c76,0 163,-77 236,-132 35,-26 68,-50 104,-74 22,-16 29,-21 52,-38 29,-23 27,-31 65,-34 9,35 215,239 256,290 48,57 98,68 161,68 91,0 135,-112 175,-173 48,-73 86,-145 133,-215 130,31 233,139 377,139 73,0 133,-77 139,-149l-1916 0c3,40 53,165 67,201 25,60 72,117 151,117z"/>
   <g>
    <path fill="#FEFEFE" d="M2619 2877c-235,36 -394,187 -465,386 -21,57 -40,187 -24,249 33,131 292,128 436,131 189,4 383,0 572,0 148,0 400,3 468,-99 37,-55 20,-175 3,-242 -51,-200 -213,-371 -435,-418 -96,-21 -454,-23 -555,-7z"/>
    <path fill="#FEFEFE" d="M2638 2969c-71,10 -120,28 -177,59 -95,51 -184,154 -219,255 -13,41 -45,174 -22,211 45,74 771,53 903,53 79,0 394,1 412,-63 13,-45 -12,-162 -26,-201 -59,-159 -207,-290 -399,-314 -59,-8 -412,-8 -472,0z"/>
    <path fill="#FEFEFE" d="M2785 1934c-229,37 -426,251 -380,523 37,224 256,420 530,373 226,-39 419,-245 379,-517 -34,-229 -256,-423 -529,-379z"/>
    <path fill="#FEFEFE" d="M2802 2026c-178,26 -335,196 -305,406 26,180 200,335 416,303 180,-26 339,-192 307,-407 -27,-182 -202,-332 -418,-302z"/>
    <path fill="#FEFEFE" d="M3256 1751c-5,104 28,207 77,273 93,127 70,4 72,290 30,-11 73,-39 102,-57 156,-90 67,-55 238,-54 56,1 92,-9 143,-19 1,-1 79,-34 92,-41 17,-11 26,-16 41,-28 16,-13 26,-23 40,-28 7,-18 4,-9 14,-14 6,-15 36,-46 50,-67 92,-146 58,-245 70,-291 -1,-1 -2,-2 -2,-3 -6,-15 -18,-80 -31,-91l1 -13c-1,-1 -2,-2 -3,-3l-24 -41c-8,-14 -17,-25 -26,-37 -37,-48 -79,-87 -136,-121 -29,-17 -51,-29 -84,-40 -26,-9 -83,-18 -100,-27l-107 0c-14,8 -30,8 -47,11 -195,38 -368,186 -380,401zm726 -22c-5,-5 1,-5 -15,-11 -18,-7 -42,0 -56,14 -18,18 -27,56 -1,73 3,7 -3,6 11,15 4,2 17,7 23,7 68,6 81,-82 38,-98zm-272 -10c-78,25 -35,133 37,104 57,-23 32,-126 -37,-104zm-223 -2c-76,18 -45,130 30,108 63,-19 42,-125 -30,-108z"/>
   </g>
   <polygon fill="#EEEEEF" stroke="#FEFEFE" stroke-width="6.04138" points="2873,3825 2947,4052 3185,4052 2992,4192 3066,4418 2873,4278 2681,4418 2755,4192 2561,4052 2800,4052 "/>
  </g>
 </g>
</svg>
