<?xml version="1.0" encoding="UTF-8"?>
<!DOCTYPE svg PUBLIC "-//W3C//DTD SVG 1.1//EN" "http://www.w3.org/Graphics/SVG/1.1/DTD/svg11.dtd">
<!-- Creator: CorelDRAW X7 -->
<svg xmlns="http://www.w3.org/2000/svg" xml:space="preserve" width="71.5831mm" height="62.4703mm" version="1.1" shape-rendering="geometricPrecision" text-rendering="geometricPrecision" image-rendering="optimizeQuality" fill-rule="evenodd" clip-rule="evenodd"
viewBox="0 0 5777 5042"
 xmlns:xlink="http://www.w3.org/1999/xlink">
 <defs>
     <clipPath id="id0">
      <path d="M0 429l5777 0 0 4613 -5777 0 0 -4613z"/>
     </clipPath>
 </defs>
 <g id="圖層_x0020_1">
  <metadata id="CorelCorpID_0Corel-Layer"/>
  <g id="_366166944">
   <path fill="#757475" d="M2282 445l-216 -97c-102,-42 -288,-174 -387,-31 -30,44 -94,436 -94,502l-364 -21c-86,0 -106,-7 -166,27 -133,77 -54,244 -26,358 9,38 15,74 26,115 11,46 24,77 24,127l-426 161c-180,109 -14,289 51,377l153 210c-43,29 -201,194 -256,240 -46,38 -122,88 -116,183 7,105 106,149 199,205 43,25 80,50 125,77 38,22 91,64 129,74 -25,47 -203,422 -203,455 0,34 14,101 51,101l445 0 0 -354 60 0c-4,-57 -171,-343 -171,-698 0,-282 -9,-271 60,-556 27,-109 70,-213 115,-310 26,-56 49,-88 77,-135 13,-22 22,-39 37,-63 17,-26 29,-40 47,-65 17,-22 26,-35 43,-58 41,-54 161,-184 211,-224 211,-163 161,-146 454,-294 307,-154 783,-197 1133,-108 120,30 232,63 333,112 112,53 318,173 409,258 192,180 256,250 401,489 29,49 54,96 75,147 183,451 212,864 43,1334l-72 171 81 0 0 354 111 0c-6,-68 -35,-130 -40,-192l281 -103c99,-35 195,-50 225,-160 25,-92 -49,-170 -112,-253 -28,-37 -53,-74 -81,-111 -20,-26 -74,-94 -81,-121 28,-42 59,-62 98,-94 37,-31 61,-65 97,-95 61,-52 169,-123 169,-226 0,-130 -172,-196 -319,-287 -45,-28 -81,-53 -126,-77 8,-32 32,-77 48,-114 17,-41 36,-71 52,-110 62,-152 229,-365 -127,-416l-347 -57 16 -358c19,-119 -27,-239 -157,-239 -81,0 -369,79 -465,101l-168 -439c-66,-105 -177,-85 -263,-21 -38,28 -70,50 -105,76 -67,51 -142,105 -212,152 -39,-26 -66,-58 -96,-97 -29,-38 -61,-64 -94,-97 -81,-82 -105,-170 -245,-170 -111,0 -195,198 -271,315 -18,29 -65,101 -73,130z"/>
   <g>
    <g clip-path="url(#id0)">
     <image x="0" y="429" width="5777" height="4613" xlink:href="發文2星-無彩_Images\發文2星-無彩_ImgID1.png"/>
    </g>
   </g>
   <g>
    <path fill="#EEEEEF" d="M2899 950c790,0 1430,640 1430,1429 0,790 -640,1430 -1430,1430 -790,0 -1430,-640 -1430,-1430 0,-789 640,-1429 1430,-1429z"/>
    <path fill="#332C2B" d="M1332 3275l0 334 -1031 0 186 269c14,20 18,28 32,48 16,23 22,27 35,47 -29,42 -243,336 -253,374l1162 0 0 -132 2851 0 0 132 1163 0c-11,-38 -224,-331 -253,-374l253 -364 -1021 0 0 -364 -3094 0c-23,0 -30,7 -30,30z"/>
    <path fill="#004334" d="M1251 2275c0,267 12,471 121,718 19,41 62,124 71,161l142 0c-101,-191 -211,-436 -213,-667 0,-49 -10,-88 -8,-120 20,-344 86,-554 225,-786 37,-61 61,-94 102,-150 259,-347 743,-582 1198,-582 787,0 1398,596 1502,1278 60,400 -14,679 -198,1027l141 0c10,-40 48,-108 68,-154 131,-304 147,-575 104,-897 -8,-60 -21,-107 -36,-166 -45,-179 -151,-391 -257,-532 -118,-157 -240,-279 -406,-392 -248,-169 -525,-260 -827,-275 -125,-6 1,-14 -173,-1 -84,7 -164,1 -271,32 -229,66 -354,103 -553,236 -80,53 -158,114 -224,180 -72,72 -125,127 -186,209 -169,226 -322,597 -322,881z"/>
    <path fill="#757475" d="M2211 4660c78,0 167,-79 240,-134 36,-27 69,-51 106,-76 23,-16 30,-21 53,-38 30,-24 28,-32 66,-35 10,36 219,244 262,295 47,59 99,69 163,69 93,0 137,-114 178,-176 49,-74 88,-147 135,-218 133,31 238,141 385,141 74,0 135,-79 141,-151l-1951 0c3,40 54,167 69,204 25,61 73,119 153,119z"/>
    <g>
     <path fill="#FEFEFE" d="M2611 2573c-239,36 -401,191 -473,393 -21,58 -41,191 -25,253 35,134 298,131 444,134 193,4 390,0 583,0 150,0 407,3 476,-101 38,-56 20,-178 3,-246 -52,-203 -217,-377 -442,-426 -99,-21 -463,-23 -566,-7z"/>
     <path fill="#FEFEFE" d="M2631 2667c-73,10 -122,28 -181,60 -96,51 -187,156 -222,259 -14,42 -46,177 -23,215 45,76 785,54 919,54 81,0 402,1 420,-64 13,-46 -12,-165 -27,-205 -60,-161 -210,-295 -405,-320 -61,-7 -421,-7 -481,1z"/>
     <path fill="#FEFEFE" d="M2780 1613c-232,38 -434,256 -387,533 39,228 261,427 540,379 230,-39 426,-249 386,-526 -35,-233 -261,-431 -539,-386z"/>
     <path fill="#FEFEFE" d="M2798 1707c-181,26 -342,199 -311,413 27,183 204,341 424,309 183,-27 345,-196 312,-415 -27,-185 -205,-338 -425,-307z"/>
     <path fill="#FEFEFE" d="M3260 1427c-6,106 29,211 78,278 95,129 72,4 74,295 30,-11 73,-40 103,-57 159,-93 69,-57 242,-56 58,1 94,-10 147,-20 0,-1 79,-34 92,-41 18,-11 27,-16 43,-28 16,-13 26,-24 41,-29 6,-18 3,-10 13,-15 7,-14 37,-46 51,-68 94,-149 59,-249 71,-295 -1,-2 -1,-3 -2,-4 -6,-15 -18,-82 -30,-92l0 -14c-1,-1 -2,-2 -3,-3l-25 -42c-8,-14 -17,-25 -26,-38 -38,-48 -80,-88 -138,-122 -29,-18 -53,-30 -86,-41 -27,-9 -84,-18 -101,-27l-110 0c-14,7 -30,7 -48,11 -198,38 -374,189 -386,408zm739 -22c-5,-6 1,-5 -15,-11 -19,-8 -43,0 -57,14 -19,18 -27,56 -2,73 3,8 -2,7 12,16 3,3 17,7 23,7 69,7 82,-83 39,-99zm-277 -11c-80,26 -36,136 38,106 58,-23 33,-128 -38,-106zm-227 -1c-78,18 -46,131 31,109 64,-19 42,-127 -31,-109z"/>
    </g>
    <polygon fill="#EEEEEF" stroke="#FEFEFE" stroke-width="6.15003" points="3451,3538 3525,3769 3768,3769 3571,3911 3647,4142 3451,3999 3254,4142 3330,3911 3133,3769 3376,3769 "/>
    <polygon fill="#EEEEEF" stroke="#FEFEFE" stroke-width="6.15003" points="2540,3538 2614,3769 2857,3769 2661,3911 2736,4142 2540,3999 2344,4142 2419,3911 2222,3769 2465,3769 "/>
    <path fill="none" stroke="#332C2B" stroke-width="16.1418" d="M2487 2120c102,378 642,357 736,4"/>
   </g>
  </g>
 </g>
</svg>
