<?xml version="1.0" encoding="UTF-8"?>
<!DOCTYPE svg PUBLIC "-//W3C//DTD SVG 1.1//EN" "http://www.w3.org/Graphics/SVG/1.1/DTD/svg11.dtd">
<!-- Creator: CorelDRAW X7 -->
<svg xmlns="http://www.w3.org/2000/svg" xml:space="preserve" width="72.9404mm" height="67.5546mm" version="1.1" shape-rendering="geometricPrecision" text-rendering="geometricPrecision" image-rendering="optimizeQuality" fill-rule="evenodd" clip-rule="evenodd"
viewBox="0 0 2079 1925"
 xmlns:xlink="http://www.w3.org/1999/xlink">
 <defs>
    <clipPath id="id0">
     <path d="M0 0l2079 0 0 1925 -2079 0 0 -1925z"/>
    </clipPath>
 </defs>
 <g id="圖層_x0020_1">
  <metadata id="CorelCorpID_0Corel-Layer"/>
  <g id="_617770616">
   <g clip-path="url(#id0)">
    <image x="0" y="0" width="2079" height="1925" xlink:href="發文1星_Images\發文1星_ImgID1.png"/>
   </g>
  </g>
  <g id="_617770976">
   <path fill="#D9E483" d="M1043 461c279,0 505,226 505,505 0,278 -226,504 -505,504 -279,0 -505,-226 -505,-504 0,-279 226,-505 505,-505z"/>
   <path fill="#E62129" d="M490 1282l0 118 -364 0 65 95c5,7 7,10 12,17 5,8 7,9 12,16 -10,15 -86,119 -89,132l410 0 0 -46 1007 0 0 46 410 0c-4,-13 -79,-117 -89,-132l89 -128 -360 0 0 -129 -1093 0c-8,0 -10,3 -10,11z"/>
   <path fill="#F7A30A" d="M825 283l-76 -35c-36,-14 -102,-61 -137,-11 -10,16 -33,155 -33,178l-129 -8c-30,0 -37,-2 -58,10 -47,27 -19,86 -9,126 3,14 5,26 9,41 4,16 8,27 8,45l-150 56c-64,39 -5,103 18,134l54 74c-15,10 -71,68 -90,85 -17,13 -44,31 -41,64 2,37 37,53 70,72 15,9 28,18 44,28 13,7 32,22 45,26 -8,17 -71,149 -71,160 0,12 5,36 18,36l157 0 0 -125 21 0c-1,-20 -60,-121 -60,-246 0,-100 -3,-96 21,-196 10,-39 25,-76 41,-110 9,-20 17,-31 27,-48 5,-8 8,-13 13,-22 6,-9 10,-14 16,-23 6,-8 10,-12 16,-20 14,-19 56,-66 74,-79 75,-58 57,-52 160,-104 109,-55 277,-70 401,-38 42,10 81,22 117,39 40,19 112,61 144,91 68,64 91,88 142,173 10,17 19,34 26,52 65,159 75,305 16,471l-26 60 29 0 0 125 39 0c-2,-24 -12,-46 -14,-68l99 -36c35,-12 69,-18 80,-56 8,-33 -18,-60 -40,-90 -10,-13 -19,-26 -29,-39 -7,-9 -26,-33 -28,-43 10,-15 21,-22 34,-33 13,-11 22,-23 35,-34 21,-18 59,-43 59,-79 0,-46 -60,-70 -112,-102 -16,-9 -29,-18 -45,-27 3,-11 12,-27 17,-40 6,-14 13,-25 18,-39 22,-54 81,-129 -44,-147l-123 -20 6 -126c6,-42 -10,-85 -56,-85 -28,0 -130,28 -164,36l-59 -155c-23,-37 -62,-30 -93,-8 -13,10 -25,18 -37,28 -24,17 -50,36 -75,53 -13,-9 -23,-20 -34,-34 -10,-14 -21,-23 -33,-35 -28,-28 -37,-59 -87,-59 -39,0 -68,69 -95,111 -7,10 -23,35 -26,46z"/>
   <path fill="#FDD100" d="M461 929c0,94 4,166 43,253 6,15 22,44 25,57l50 0c-36,-67 -75,-154 -75,-235 0,-18 -4,-31 -3,-43 7,-121 30,-195 79,-277 13,-22 22,-34 37,-53 91,-123 262,-206 422,-206 278,0 494,211 531,452 21,141 -5,239 -70,362l50 0c3,-14 17,-38 24,-54 46,-107 51,-203 36,-317 -3,-21 -7,-38 -12,-59 -16,-63 -54,-138 -91,-187 -42,-56 -85,-99 -144,-139 -87,-59 -185,-92 -292,-97 -44,-2 1,-5 -60,0 -30,2 -58,0 -96,11 -81,24 -125,36 -196,83 -28,19 -55,41 -79,64 -25,25 -44,45 -65,74 -60,80 -114,210 -114,311z"/>
   <path fill="#F7A30A" d="M800 1771c27,0 59,-28 85,-47 13,-10 24,-18 37,-27 8,-6 11,-8 19,-14 10,-8 10,-11 23,-12 4,13 78,86 93,104 16,21 35,25 57,25 33,0 49,-41 63,-63 17,-26 31,-52 48,-77 47,11 84,50 136,50 26,0 47,-28 49,-53l-688 0c1,14 19,59 24,72 9,21 26,42 54,42z"/>
   <g>
    <path fill="#FEFEFE" d="M941 1034c-84,13 -141,67 -167,139 -7,20 -14,67 -9,89 13,48 106,46 157,47 68,2 138,0 206,0 53,1 144,1 168,-35 14,-20 7,-63 1,-87 -18,-72 -77,-133 -156,-150 -35,-8 -163,-9 -200,-3z"/>
    <path fill="#FEFEFE" d="M948 1067c-25,4 -43,10 -64,21 -34,19 -66,56 -78,92 -5,15 -16,62 -8,76 16,26 277,19 324,19 29,0 142,0 149,-23 4,-16 -5,-58 -10,-72 -21,-57 -74,-104 -143,-113 -22,-3 -148,-3 -170,0z"/>
    <path fill="#FEFEFE" d="M1001 695c-82,14 -153,90 -137,188 14,81 92,151 191,134 81,-14 150,-88 136,-186 -12,-82 -92,-152 -190,-136z"/>
    <path fill="#FEFEFE" d="M1007 728c-64,9 -120,71 -109,146 9,65 72,120 149,109 65,-9 122,-69 110,-146 -9,-66 -72,-120 -150,-109z"/>
    <path fill="#FEFEFE" d="M1170 629c-2,38 10,75 28,99 33,45 25,1 26,104 11,-4 26,-14 36,-21 57,-32 25,-20 86,-19 20,0 33,-4 52,-7 0,0 28,-12 32,-15 7,-4 10,-5 15,-10 6,-4 10,-8 15,-10 2,-6 1,-3 5,-5 2,-5 13,-16 18,-24 33,-53 21,-88 25,-104 -1,-1 -1,-1 -1,-2 -2,-5 -7,-29 -11,-32l0 -5c0,0 -1,-1 -1,-1l-9 -15c-2,-5 -6,-9 -9,-13 -13,-17 -28,-31 -49,-44 -10,-6 -18,-10 -30,-14 -9,-3 -30,-6 -36,-10l-38 0c-5,3 -11,3 -17,4 -70,14 -133,67 -137,144zm261 -8c-1,-1 1,-1 -5,-3 -7,-3 -15,0 -20,5 -7,6 -10,20 -1,26 1,2 -1,2 4,5 2,1 6,3 9,3 24,2 29,-30 13,-36zm-97 -3c-29,9 -13,48 13,37 20,-8 11,-45 -13,-37zm-81 -1c-27,7 -16,47 11,39 23,-7 15,-45 -11,-39z"/>
   </g>
   <polygon fill="#FDD100" stroke="#FEFEFE" stroke-width="2.17145" points="1033,1375 1059,1456 1145,1456 1075,1507 1102,1588 1033,1538 964,1588 990,1507 921,1456 1006,1456 "/>
  </g>
 </g>
</svg>
