<?xml version="1.0" encoding="UTF-8"?>
<!DOCTYPE svg PUBLIC "-//W3C//DTD SVG 1.1//EN" "http://www.w3.org/Graphics/SVG/1.1/DTD/svg11.dtd">
<!-- Creator: CorelDRAW X7 -->
<svg xmlns="http://www.w3.org/2000/svg" xml:space="preserve" width="72.9404mm" height="67.5545mm" version="1.1" shape-rendering="geometricPrecision" text-rendering="geometricPrecision" image-rendering="optimizeQuality" fill-rule="evenodd" clip-rule="evenodd"
viewBox="0 0 2086 1932"
 xmlns:xlink="http://www.w3.org/1999/xlink">
 <defs>
    <clipPath id="id0">
     <path d="M0 0l2086 0 0 1932 -2086 0 0 -1932z"/>
    </clipPath>
 </defs>
 <g id="圖層_x0020_1">
  <metadata id="CorelCorpID_0Corel-Layer"/>
  <g id="_366176304">
   <g clip-path="url(#id0)">
    <image x="0" y="0" width="2086" height="1932" xlink:href="發文2星_Images\發文2星_ImgID1.png"/>
   </g>
  </g>
  <g id="_366178968">
   <g>
    <path fill="#D9E483" d="M1047 463c279,0 506,226 506,506 0,280 -227,507 -506,507 -280,0 -507,-227 -507,-507 0,-280 227,-506 507,-506z"/>
    <path fill="#E62129" d="M491 1287l0 118 -365 0 66 95c5,7 6,10 11,17 6,8 8,10 13,17 -10,15 -86,119 -90,132l412 0 0 -46 1010 0 0 46 412 0c-4,-13 -79,-117 -89,-132l89 -129 -362 0 0 -129 -1096 0c-8,0 -11,2 -11,11z"/>
    <path fill="#F7A30A" d="M828 284l-77 -35c-36,-15 -101,-61 -137,-11 -10,16 -33,155 -33,178l-129 -7c-30,0 -38,-3 -59,9 -47,28 -19,87 -9,127 3,14 6,26 9,41 4,16 9,27 9,45l-151 57c-64,39 -5,102 18,133l54 75c-15,10 -71,69 -91,85 -16,14 -43,31 -41,65 3,37 38,53 71,72 15,9 28,18 44,28 13,8 32,22 46,26 -9,17 -72,150 -72,161 0,12 5,36 18,36l158 0 0 -125 21 0c-2,-20 -61,-122 -61,-248 0,-100 -3,-96 22,-197 9,-38 24,-75 40,-109 10,-21 18,-32 28,-48 4,-8 8,-14 13,-23 6,-9 10,-14 16,-23 6,-8 10,-12 16,-20 14,-19 57,-66 74,-80 75,-57 57,-51 161,-104 109,-55 278,-70 402,-38 42,11 82,22 118,39 39,19 112,62 145,92 68,64 90,89 142,173 10,18 19,34 26,52 65,160 75,307 16,473l-26 61 29 0 0 125 39 0c-2,-24 -12,-46 -14,-68l100 -36c35,-13 69,-18 79,-57 9,-33 -17,-60 -40,-90 -9,-13 -18,-26 -28,-39 -7,-9 -26,-33 -29,-43 10,-15 21,-22 35,-33 13,-11 21,-23 34,-34 22,-18 60,-44 60,-80 0,-46 -61,-70 -113,-102 -16,-10 -29,-19 -45,-27 3,-11 12,-28 17,-40 7,-15 13,-26 19,-39 22,-54 81,-130 -45,-148l-123 -20 6 -127c6,-42 -10,-84 -56,-84 -29,0 -131,27 -165,35l-59 -155c-24,-38 -63,-30 -94,-8 -13,10 -24,18 -37,27 -24,18 -50,37 -75,54 -14,-9 -23,-21 -34,-34 -10,-14 -22,-23 -33,-35 -29,-29 -37,-60 -87,-60 -39,0 -69,70 -96,112 -7,10 -23,35 -26,46z"/>
    <path fill="#FDD100" d="M463 932c0,95 4,167 43,254 6,15 22,44 25,58l50 0c-36,-68 -75,-155 -75,-237 0,-17 -4,-31 -3,-42 7,-122 30,-196 79,-279 14,-21 22,-33 37,-53 91,-123 263,-206 424,-206 279,0 496,211 532,453 22,141 -5,240 -70,364l50 0c4,-14 17,-39 24,-55 47,-108 52,-204 37,-318 -3,-21 -7,-38 -13,-59 -15,-63 -53,-138 -91,-188 -42,-56 -85,-99 -144,-139 -87,-60 -185,-92 -293,-98 -44,-2 1,-5 -61,0 -30,3 -58,1 -96,12 -81,23 -125,36 -196,83 -28,19 -56,40 -79,64 -26,25 -44,45 -66,74 -60,80 -114,211 -114,312z"/>
    <path fill="#F7A30A" d="M803 1777c27,0 59,-28 85,-47 13,-10 25,-18 38,-27 8,-6 10,-7 18,-14 11,-8 10,-11 24,-12 3,13 77,86 92,105 17,20 36,24 58,24 33,0 49,-40 63,-62 18,-27 31,-52 48,-78 47,11 84,50 136,50 27,0 48,-28 51,-53l-692 0c1,14 19,59 25,72 8,22 25,42 54,42z"/>
    <g>
     <path fill="#FEFEFE" d="M945 1038c-85,13 -142,67 -168,139 -7,20 -15,68 -9,90 12,47 106,46 158,47 68,2 138,0 206,0 53,0 144,1 169,-36 13,-20 7,-63 1,-87 -18,-72 -77,-134 -157,-151 -35,-7 -164,-8 -200,-2z"/>
     <path fill="#FEFEFE" d="M952 1071c-26,4 -44,10 -64,21 -35,19 -67,56 -79,92 -5,15 -16,63 -8,76 16,27 278,19 325,19 29,0 143,1 149,-22 5,-16 -4,-59 -9,-73 -22,-57 -75,-104 -144,-113 -22,-3 -149,-3 -170,0z"/>
     <path fill="#FEFEFE" d="M1005 698c-83,13 -154,90 -138,188 14,81 93,152 192,135 81,-14 151,-89 136,-187 -12,-82 -92,-152 -190,-136z"/>
     <path fill="#FEFEFE" d="M1011 731c-64,9 -121,70 -110,146 9,65 72,121 150,110 65,-10 122,-70 111,-147 -10,-66 -73,-120 -151,-109z"/>
     <path fill="#FEFEFE" d="M1174 632c-1,37 11,74 28,98 34,46 26,2 26,105 11,-4 26,-15 37,-21 56,-32 24,-20 86,-19 20,0 33,-4 52,-7 0,-1 28,-12 33,-15 6,-4 9,-6 15,-10 5,-5 9,-8 14,-10 2,-7 1,-4 5,-5 2,-6 13,-17 18,-24 33,-53 21,-89 25,-105 0,-1 0,-1 -1,-2 -2,-5 -6,-28 -10,-32l0 -5c-1,0 -1,-1 -1,-1l-9 -15c-3,-5 -6,-9 -9,-13 -14,-18 -29,-31 -49,-44 -11,-6 -19,-10 -31,-14 -9,-3 -30,-7 -36,-10l-39 0c-5,3 -10,3 -16,4 -71,14 -133,67 -138,145zm263 -8c-2,-2 0,-2 -6,-4 -7,-3 -15,0 -20,5 -7,6 -10,20 -1,26 1,3 0,2 4,6 2,0 6,2 9,2 24,2 29,-29 14,-35zm-99 -4c-28,9 -12,48 14,38 20,-9 11,-46 -14,-38zm-80 -1c-28,7 -16,47 11,39 22,-6 15,-45 -11,-39z"/>
    </g>
    <polygon fill="#FDD100" stroke="#FEFEFE" stroke-width="2.1793" points="1242,1380 1269,1462 1355,1462 1285,1512 1312,1594 1242,1543 1173,1594 1199,1512 1130,1462 1216,1462 "/>
    <polygon fill="#FDD100" stroke="#FEFEFE" stroke-width="2.1793" points="919,1380 946,1462 1032,1462 962,1512 989,1594 919,1543 850,1594 877,1512 807,1462 893,1462 "/>
   </g>
   <path fill="none" stroke="#E62129" stroke-width="5.71994" d="M901 877c36,134 227,127 261,2"/>
  </g>
 </g>
</svg>
