<?xml version="1.0" encoding="UTF-8"?>
<!DOCTYPE svg PUBLIC "-//W3C//DTD SVG 1.1//EN" "http://www.w3.org/Graphics/SVG/1.1/DTD/svg11.dtd">
<!-- Creator: CorelDRAW X7 -->
<svg xmlns="http://www.w3.org/2000/svg" xml:space="preserve" width="62.698mm" height="57.3644mm" version="1.1" shape-rendering="geometricPrecision" text-rendering="geometricPrecision" image-rendering="optimizeQuality" fill-rule="evenodd" clip-rule="evenodd"
viewBox="0 0 1609 1472"
 xmlns:xlink="http://www.w3.org/1999/xlink">
 <defs>
    <clipPath id="id0">
     <path d="M0 0l1609 68 0 1350 -1609 -68 0 -1350z"/>
    </clipPath>
    <clipPath id="id1">
     <path d="M421 184l666 0 0 990 -666 0 0 -990z"/>
    </clipPath>
 </defs>
 <g id="圖層_x0020_1">
  <metadata id="CorelCorpID_0Corel-Layer"/>
  <path fill="#292421" d="M119 1001l-112 -10c11,81 88,205 139,264 30,34 56,5 87,-9 142,141 296,226 520,226 184,0 411,-89 522,-225 26,13 33,28 65,35 45,-65 143,-173 158,-290l-109 9c30,-137 62,-199 36,-358 -94,-577 -850,-790 -1222,-288 -55,73 -102,177 -120,290 -25,151 2,225 36,356z"/>
  <g id="_627271192">
   <g clip-path="url(#id0)">
    <image x="0" y="0" width="1609" height="1418" xlink:href="散步1星_Images\散步1星_ImgID1.png"/>
   </g>
  </g>
  <path fill="#FDD100" d="M139 985l55 -51c15,18 12,14 21,37 5,13 7,22 13,34 11,25 24,46 38,62 27,-11 27,-20 56,-28 40,28 150,226 431,227 293,1 416,-224 431,-227 25,5 34,15 55,28 33,-36 53,-115 71,-131l61 51c98,-237 16,-542 -132,-679 -74,-68 -55,-68 -167,-133 -292,-168 -659,-68 -849,186 -55,73 -101,172 -121,283 -15,91 -8,270 37,341z"/>
  <path fill="#A6D4AE" d="M668 275c-238,42 -440,270 -393,558 38,240 272,450 561,399 239,-42 443,-267 397,-557 -38,-243 -273,-451 -565,-400z"/>
  <path fill="#F7A30A" d="M183 1155c105,172 346,297 570,297 125,0 250,-36 341,-88 91,-52 181,-130 231,-209 -1,-1 -3,-5 -4,-4l-130 -89c-55,59 -91,109 -175,155 -159,84 -356,95 -517,4 -63,-36 -151,-106 -174,-160 -31,11 -49,28 -75,43 -21,14 -53,33 -67,51z"/>
  <path fill="#F7A30A" d="M33 1013c12,47 35,92 58,130 22,35 44,73 76,101 1,1 3,3 5,4l-13 -109 76 -50c9,-7 5,-3 11,-10 -19,-35 -36,-76 -56,-111 -86,45 4,57 -157,45z"/>
  <path fill="#F7A30A" d="M1260 1079l85 61c4,35 -6,73 -10,108l23 -23c45,-52 99,-148 115,-212l-95 8c-29,-25 -36,-40 -65,-55 -12,45 -34,76 -53,113z"/>
  <g id="_481945584">
   <g clip-path="url(#id1)">
    <image x="421" y="184" width="666" height="991" xlink:href="散步1星_Images\散步1星_ImgID2.png"/>
   </g>
  </g>
  <g id="_617318040">
   <path fill="#FEFEFE" d="M646 676c-32,100 -21,180 -55,234 -18,28 -50,54 -68,76 -14,18 -58,58 -46,99 5,15 24,31 45,25 20,-6 96,-87 113,-107 55,-68 81,-82 89,-203 14,7 76,61 84,72 63,79 50,175 77,233 18,40 58,15 59,-57 1,-47 2,-100 -10,-145 -19,-76 -111,-114 -126,-183 -7,-32 15,-105 33,-121 14,33 38,50 70,67 52,26 69,21 103,32l0 380c0,19 -5,41 12,46 13,-7 10,-24 10,-43l0 -388c28,-9 18,-36 2,-49 -23,-19 -94,-18 -143,-101 -34,-56 -24,-98 -130,-115 -40,-7 -41,-7 -61,18 -29,-13 -68,-39 -108,-39 -89,-1 -30,131 -29,160 1,22 -34,56 25,110 24,22 35,4 54,-1z"/>
   <path fill="#FEFEFE" d="M790 224c-126,34 -75,218 47,189 46,-10 89,-57 73,-119 -12,-45 -59,-86 -120,-70z"/>
  </g>
  <polygon fill="#E62129" stroke="#FEFEFE" stroke-width="1.95531" points="758,1172 783,1250 865,1250 798,1298 824,1376 758,1328 691,1376 717,1298 651,1250 732,1250 "/>
 </g>
</svg>
