<?xml version="1.0" encoding="UTF-8"?>
<!DOCTYPE svg PUBLIC "-//W3C//DTD SVG 1.1//EN" "http://www.w3.org/Graphics/SVG/1.1/DTD/svg11.dtd">
<!-- Creator: CorelDRAW X7 -->
<svg xmlns="http://www.w3.org/2000/svg" xml:space="preserve" width="62.6982mm" height="57.3644mm" version="1.1" shape-rendering="geometricPrecision" text-rendering="geometricPrecision" image-rendering="optimizeQuality" fill-rule="evenodd" clip-rule="evenodd"
viewBox="0 0 4526 4141"
 xmlns:xlink="http://www.w3.org/1999/xlink">
 <defs>
    <clipPath id="id0">
     <path d="M0 0l4526 190 0 3798 -4526 -190 0 -3798z"/>
    </clipPath>
    <clipPath id="id1">
     <path d="M1186 517l1872 0 0 2787 -1872 0 0 -2787z"/>
    </clipPath>
 </defs>
 <g id="圖層_x0020_1">
  <metadata id="CorelCorpID_0Corel-Layer"/>
  <path fill="#292421" d="M335 2816l-314 -28c30,226 246,577 389,742 84,96 159,15 247,-25 399,396 830,635 1461,636 518,1 1157,-251 1467,-633 75,35 94,78 184,98 128,-182 403,-487 446,-814l-306 24c84,-385 172,-560 100,-1006 -263,-1623 -2393,-2222 -3439,-812 -153,207 -286,498 -337,816 -69,425 7,634 102,1002z"/>
  <g id="_520494080">
   <g clip-path="url(#id0)">
    <image x="0" y="0" width="4526" height="3988" xlink:href="散步1星-無彩_Images\散步1星-無彩_ImgID1.png"/>
   </g>
  </g>
  <path fill="#DCDDDD" d="M390 2771l157 -144c41,51 32,41 57,103 14,38 22,62 38,98 31,70 66,127 107,175 74,-34 75,-58 156,-79 113,77 422,636 1213,638 824,2 1170,-630 1214,-638 70,12 93,40 154,77 92,-100 150,-322 200,-369l170 144c277,-667 47,-1523 -371,-1911 -206,-191 -155,-190 -469,-372 -820,-474 -1855,-192 -2389,522 -154,206 -284,484 -339,796 -44,256 -25,759 102,960z"/>
  <path fill="#757475" d="M1881 774c-671,118 -1239,759 -1108,1571 109,674 765,1266 1579,1122 673,-119 1247,-753 1117,-1569 -109,-683 -769,-1267 -1588,-1124z"/>
  <path fill="#332C2B" d="M515 3249c295,484 974,835 1602,836 352,0 705,-100 961,-247 255,-147 509,-367 649,-589 -3,-4 -8,-15 -10,-11l-368 -250c-154,167 -253,307 -491,434 -446,239 -1002,269 -1454,13 -177,-100 -426,-298 -490,-451 -86,31 -139,79 -210,123 -61,37 -150,90 -189,142z"/>
  <path fill="#332C2B" d="M93 2849c33,133 97,259 163,365 61,99 122,206 214,285 3,3 8,8 13,11l-37 -306 216 -139c26,-22 14,-10 31,-31 -54,-96 -102,-213 -159,-311 -242,125 12,160 -441,126z"/>
  <path fill="#332C2B" d="M3545 3034l238 174c12,97 -17,204 -28,302l66 -64c126,-147 279,-418 322,-597l-265 25c-84,-71 -103,-114 -185,-156 -34,127 -95,212 -148,316z"/>
  <g id="_520495784">
   <g clip-path="url(#id1)">
    <image x="1186" y="517" width="1872" height="2787" xlink:href="散步1星-無彩_Images\散步1星-無彩_ImgID2.png"/>
   </g>
  </g>
  <g id="_520495736">
   <path fill="#FEFEFE" d="M1819 1903c-90,279 -60,504 -156,656 -50,81 -142,154 -191,215 -41,50 -165,163 -130,279 13,43 69,85 126,69 56,-15 272,-243 319,-301 155,-191 227,-230 251,-570 37,20 211,172 235,201 178,224 141,493 215,657 51,112 165,43 168,-161 2,-133 5,-282 -28,-408 -54,-213 -313,-320 -356,-516 -19,-88 42,-293 95,-338 38,92 104,141 195,187 147,75 195,59 290,91l0 1069c0,53 -13,114 34,130 38,-21 29,-70 29,-123l0 -1089c78,-26 51,-103 6,-139 -66,-53 -265,-50 -404,-285 -93,-157 -67,-274 -364,-324 -113,-19 -116,-18 -172,51 -83,-35 -191,-110 -304,-110 -250,-1 -85,369 -82,450 2,63 -94,159 71,310 67,61 97,12 153,-1z"/>
   <path fill="#FEFEFE" d="M2224 630c-355,96 -212,614 132,533 129,-30 248,-162 203,-337 -32,-126 -166,-242 -335,-196z"/>
  </g>
  <polygon fill="#DCDDDD" stroke="#FEFEFE" stroke-width="5.50064" points="2131,3298 2202,3517 2432,3516 2246,3651 2317,3870 2131,3735 1945,3870 2017,3651 1830,3516 2061,3517 "/>
 </g>
</svg>
