<?xml version="1.0" encoding="UTF-8"?>
<!DOCTYPE svg PUBLIC "-//W3C//DTD SVG 1.1//EN" "http://www.w3.org/Graphics/SVG/1.1/DTD/svg11.dtd">
<!-- Creator: CorelDRAW X7 -->
<svg xmlns="http://www.w3.org/2000/svg" xml:space="preserve" width="62.6979mm" height="57.3644mm" version="1.1" shape-rendering="geometricPrecision" text-rendering="geometricPrecision" image-rendering="optimizeQuality" fill-rule="evenodd" clip-rule="evenodd"
viewBox="0 0 1607 1470"
 xmlns:xlink="http://www.w3.org/1999/xlink">
 <defs>
    <clipPath id="id0">
     <path d="M0 0l1607 67 0 1349 -1607 -68 0 -1348z"/>
    </clipPath>
    <clipPath id="id1">
     <path d="M285 271l821 0 0 888 -821 0 0 -888z"/>
    </clipPath>
 </defs>
 <g id="圖層_x0020_1">
  <metadata id="CorelCorpID_0Corel-Layer"/>
  <path fill="#292421" d="M119 1000l-112 -10c11,80 88,205 138,263 30,34 57,5 88,-9 142,141 295,226 519,226 184,0 411,-89 521,-225 26,13 33,28 65,35 45,-65 143,-173 158,-289l-109 8c30,-136 62,-198 36,-356 -93,-577 -849,-789 -1220,-289 -55,74 -102,177 -120,290 -25,151 2,225 36,356z"/>
  <g id="_627302936">
   <g clip-path="url(#id0)">
    <image x="0" y="0" width="1607" height="1416" xlink:href="散步2星_Images\散步2星_ImgID1.png"/>
   </g>
  </g>
  <path fill="#FDD100" d="M139 984l55 -51c15,18 12,14 20,36 5,14 8,22 14,35 11,25 23,45 38,62 26,-12 26,-20 55,-28 40,27 150,226 431,226 293,1 415,-223 431,-226 25,4 33,14 55,27 32,-35 53,-114 70,-131l61 52c98,-237 16,-541 -132,-679 -73,-68 -55,-67 -166,-132 -292,-168 -659,-68 -848,185 -55,74 -101,172 -121,283 -15,91 -9,269 37,341z"/>
  <path fill="#BAE0D6" d="M668 275c-238,42 -440,269 -394,557 39,240 272,450 561,399 239,-42 443,-268 396,-557 -38,-243 -273,-450 -563,-399z"/>
  <path fill="#F7A30A" d="M183 1153c104,172 346,297 569,297 125,0 250,-35 341,-88 90,-52 180,-130 230,-209 -1,-1 -3,-5 -3,-4l-131 -88c-55,59 -90,109 -175,154 -158,85 -355,95 -516,4 -62,-35 -151,-105 -174,-160 -30,11 -49,28 -74,44 -22,13 -53,32 -67,50z"/>
  <path fill="#F7A30A" d="M33 1011c12,47 34,92 58,130 22,35 43,73 76,101 1,1 3,3 5,4l-14 -109 77 -49c9,-8 5,-4 11,-11 -19,-34 -36,-76 -57,-110 -85,44 5,56 -156,44z"/>
  <path fill="#F7A30A" d="M1258 1077l85 62c4,34 -6,72 -10,107l23 -23c45,-52 99,-148 115,-211l-94 8c-30,-25 -37,-40 -66,-55 -12,45 -34,75 -53,112z"/>
  <polygon fill="#E62129" stroke="#FEFEFE" stroke-width="1.95262" points="618,1171 643,1248 725,1248 659,1296 684,1374 618,1326 552,1374 577,1296 511,1248 593,1248 "/>
  <polygon fill="#E62129" stroke="#FEFEFE" stroke-width="1.95262" points="893,1168 918,1245 1000,1245 933,1293 959,1371 893,1323 827,1371 852,1293 786,1245 868,1245 "/>
  <g id="_627304520">
   <g clip-path="url(#id1)">
    <image x="285" y="271" width="820" height="888" xlink:href="散步2星_Images\散步2星_ImgID2.png"/>
   </g>
  </g>
  <g id="_627304376">
   <path fill="#FEFEFE" d="M461 665c44,8 50,-11 69,-37 17,-23 32,-39 44,-64l80 1c-81,220 -119,247 124,330 -1,52 -11,142 3,185 22,37 71,32 82,-5 7,-21 4,-111 5,-140 1,-57 8,-81 -30,-108 -27,-19 -59,-38 -86,-55 16,-37 46,-121 58,-162 37,-127 -129,-111 -202,-111 -51,0 -54,1 -81,31 -60,70 -93,92 -66,135z"/>
   <path fill="#FEFEFE" d="M631 871c-40,-14 -44,-30 -70,-62 -59,60 6,70 -121,72 -27,0 -65,-1 -83,12 -19,13 -27,47 -5,69 23,23 134,10 176,7 51,-3 86,-58 103,-98z"/>
   <path fill="#FEFEFE" d="M793 327c-115,26 -65,187 43,155 36,-11 64,-56 50,-101 -10,-36 -46,-64 -93,-54z"/>
   <path fill="#FEFEFE" d="M817 694c42,25 52,55 120,30 30,-11 105,-25 113,-56 17,-63 -67,-31 -96,-21 -93,32 -46,4 -110,-30l-27 77z"/>
  </g>
 </g>
</svg>
