<?xml version="1.0" encoding="UTF-8"?>
<!DOCTYPE svg PUBLIC "-//W3C//DTD SVG 1.1//EN" "http://www.w3.org/Graphics/SVG/1.1/DTD/svg11.dtd">
<!-- Creator: CorelDRAW X7 -->
<svg xmlns="http://www.w3.org/2000/svg" xml:space="preserve" width="62.6979mm" height="57.3644mm" version="1.1" shape-rendering="geometricPrecision" text-rendering="geometricPrecision" image-rendering="optimizeQuality" fill-rule="evenodd" clip-rule="evenodd"
viewBox="0 0 1592 1457"
 xmlns:xlink="http://www.w3.org/1999/xlink">
 <defs>
    <clipPath id="id0">
     <path d="M0 0l1592 67 0 1336 -1592 -67 0 -1336z"/>
    </clipPath>
    <clipPath id="id1">
     <path d="M283 269l813 0 0 880 -813 0 0 -880z"/>
    </clipPath>
 </defs>
 <g id="圖層_x0020_1">
  <metadata id="CorelCorpID_0Corel-Layer"/>
  <path fill="#292421" d="M118 991l-111 -10c11,80 87,203 137,261 30,34 56,5 87,-9 140,139 292,224 514,224 183,0 407,-88 516,-223 27,13 33,28 65,35 45,-64 142,-172 157,-287l-108 9c30,-136 61,-197 35,-354 -92,-571 -841,-782 -1209,-286 -54,73 -101,175 -119,287 -24,150 2,223 36,353z"/>
  <g id="_617775776">
   <g clip-path="url(#id0)">
    <image x="0" y="0" width="1592" height="1403" xlink:href="散步3星_Images\散步3星_ImgID1.png"/>
   </g>
  </g>
  <path fill="#FDD100" d="M137 975l55 -51c15,18 12,15 20,37 5,13 8,21 14,34 11,25 23,45 37,62 27,-12 27,-21 55,-28 40,27 149,223 427,224 290,1 412,-221 427,-224 25,4 33,14 55,27 32,-35 52,-114 70,-130l60 51c97,-235 16,-536 -131,-673 -72,-67 -54,-66 -165,-130 -289,-167 -653,-68 -840,183 -55,73 -100,171 -120,280 -15,90 -8,267 36,338z"/>
  <path fill="#BAE0D6" d="M662 272c-236,42 -436,267 -390,553 38,237 269,445 556,395 236,-42 438,-265 393,-552 -39,-240 -271,-446 -559,-396z"/>
  <path fill="#F7A30A" d="M181 1143c104,170 343,294 564,294 124,0 248,-35 338,-87 90,-52 179,-129 228,-207 -1,-1 -3,-5 -3,-4l-130 -88c-54,59 -89,108 -173,153 -156,84 -352,95 -511,5 -62,-36 -150,-105 -172,-159 -31,11 -49,28 -74,43 -22,13 -53,32 -67,50z"/>
  <path fill="#F7A30A" d="M33 1002c11,47 34,92 57,129 22,35 43,72 75,100 1,1 3,3 5,4l-13 -108 76 -49c9,-7 5,-3 11,-11 -19,-33 -36,-75 -56,-109 -85,44 4,56 -155,44z"/>
  <path fill="#F7A30A" d="M1247 1067l84 62c4,34 -6,72 -10,106l23 -23c45,-51 98,-146 114,-209l-94 8c-29,-25 -36,-40 -65,-55 -12,45 -33,75 -52,111z"/>
  <polygon fill="#E62129" stroke="#FEFEFE" stroke-width="1.93532" points="449,1160 474,1237 555,1237 489,1285 514,1362 449,1314 383,1362 409,1285 343,1237 424,1237 "/>
  <polygon fill="#E62129" stroke="#FEFEFE" stroke-width="1.93532" points="948,1157 973,1234 1054,1234 988,1282 1013,1359 948,1311 883,1359 908,1282 842,1234 923,1234 "/>
  <g id="_617777576">
   <g clip-path="url(#id1)">
    <image x="283" y="269" width="813" height="880" xlink:href="散步3星_Images\散步3星_ImgID2.png"/>
   </g>
  </g>
  <g id="_617777768">
   <path fill="#FEFEFE" d="M457 659c44,8 49,-11 69,-37 16,-22 31,-38 43,-63l80 1c-81,218 -119,245 122,327 -1,51 -11,140 3,183 22,38 71,32 82,-5 6,-21 4,-110 4,-138 1,-57 8,-81 -30,-107 -27,-19 -58,-38 -85,-55 17,-36 46,-120 58,-160 37,-127 -128,-111 -200,-110 -51,0 -54,0 -80,30 -60,70 -93,91 -66,134z"/>
   <path fill="#FEFEFE" d="M625 863c-39,-13 -43,-30 -69,-61 -58,60 6,69 -120,71 -27,1 -64,-1 -82,12 -19,13 -27,46 -5,69 23,23 133,9 174,6 50,-3 86,-57 102,-97z"/>
   <path fill="#FEFEFE" d="M786 324c-114,26 -64,185 43,153 35,-10 63,-55 49,-99 -10,-37 -46,-64 -92,-54z"/>
   <path fill="#FEFEFE" d="M809 688c42,25 53,54 120,30 30,-11 104,-25 112,-56 16,-62 -67,-31 -95,-21 -93,32 -46,5 -110,-29l-27 76z"/>
  </g>
  <polygon fill="#E62129" stroke="#FEFEFE" stroke-width="1.93532" points="703,1160 728,1237 809,1237 743,1285 768,1362 703,1314 638,1362 663,1285 597,1237 678,1237 "/>
 </g>
</svg>
