<?xml version="1.0" encoding="UTF-8"?>
<!DOCTYPE svg PUBLIC "-//W3C//DTD SVG 1.1//EN" "http://www.w3.org/Graphics/SVG/1.1/DTD/svg11.dtd">
<!-- Creator: CorelDRAW X7 -->
<svg xmlns="http://www.w3.org/2000/svg" xml:space="preserve" width="62.698mm" height="57.3644mm" version="1.1" shape-rendering="geometricPrecision" text-rendering="geometricPrecision" image-rendering="optimizeQuality" fill-rule="evenodd" clip-rule="evenodd"
viewBox="0 0 4809 4399"
 xmlns:xlink="http://www.w3.org/1999/xlink">
 <defs>
    <clipPath id="id0">
     <path d="M0 0l4809 202 0 4035 -4809 -202 0 -4035z"/>
    </clipPath>
    <clipPath id="id1">
     <path d="M678 990l3114 0 0 2606 -3114 0 0 -2606z"/>
    </clipPath>
 </defs>
 <g id="圖層_x0020_1">
  <metadata id="CorelCorpID_0Corel-Layer"/>
  <path fill="#292421" d="M356 2992l-334 -30c32,241 261,613 413,788 90,103 170,16 263,-26 424,420 882,675 1552,675 551,1 1229,-266 1559,-672 79,38 100,83 196,104 135,-193 427,-517 473,-865l-325 25c89,-409 183,-594 106,-1068 -280,-1725 -2542,-2361 -3653,-862 -163,219 -304,529 -358,866 -74,452 7,674 108,1065z"/>
  <g id="_794574232">
   <g clip-path="url(#id0)">
    <image x="0" y="0" width="4809" height="4237" xlink:href="散步3星-無彩_Images\散步3星-無彩_ImgID1.png"/>
   </g>
  </g>
  <path fill="#EEEEEF" d="M415 2944l166 -153c44,54 35,44 60,110 16,40 24,66 41,104 33,74 71,135 113,185 79,-35 80,-61 167,-83 119,82 448,675 1288,677 876,2 1243,-669 1290,-678 74,13 99,43 164,83 97,-107 159,-343 212,-393l180 154c295,-709 51,-1619 -394,-2031 -219,-202 -164,-202 -498,-395 -871,-504 -1971,-204 -2538,555 -164,219 -302,514 -360,845 -47,272 -26,806 109,1020z"/>
  <path fill="#757475" d="M1998 823c-712,124 -1316,806 -1177,1668 116,716 813,1345 1678,1192 715,-126 1325,-800 1187,-1666 -116,-726 -818,-1346 -1688,-1194z"/>
  <path fill="#332C2B" d="M547 3452c313,514 1035,887 1702,888 374,0 750,-106 1021,-263 271,-156 540,-389 690,-625 -3,-4 -9,-16 -11,-12l-390 -266c-164,178 -270,326 -523,462 -474,254 -1064,286 -1544,13 -188,-106 -453,-316 -521,-479 -91,33 -147,84 -223,131 -64,40 -160,96 -201,151z"/>
  <path fill="#332C2B" d="M98 3027c35,141 104,275 174,388 65,105 130,218 227,303 3,3 9,8 14,11l-39 -325 230 -148c27,-23 15,-11 32,-33 -57,-102 -108,-226 -169,-330 -257,133 13,170 -469,134z"/>
  <path fill="#332C2B" d="M3766 3223l253 185c13,103 -18,217 -29,321l69 -68c134,-156 297,-444 342,-634l-281 26c-89,-75 -109,-120 -197,-165 -36,134 -100,225 -157,335z"/>
  <polygon fill="#EEEEEF" stroke="#FEFEFE" stroke-width="5.84404" points="2264,3504 2340,3736 2584,3736 2386,3879 2462,4112 2264,3968 2067,4112 2143,3879 1945,3736 2189,3736 "/>
  <polygon fill="#EEEEEF" stroke="#FEFEFE" stroke-width="5.84404" points="1424,3541 1499,3774 1744,3773 1546,3917 1622,4149 1424,4005 1226,4149 1302,3917 1104,3773 1349,3774 "/>
  <polygon fill="#EEEEEF" stroke="#FEFEFE" stroke-width="5.84404" points="3032,3481 3108,3714 3352,3714 3154,3857 3230,4090 3032,3945 2835,4090 2911,3857 2713,3714 2957,3714 "/>
  <g id="_794575840">
   <g clip-path="url(#id1)">
    <image x="678" y="990" width="3114" height="2606" xlink:href="散步3星-無彩_Images\散步3星-無彩_ImgID2.png"/>
   </g>
  </g>
  <g id="_794576104">
   <path fill="#FEFEFE" d="M2562 1666c-61,122 -346,475 -342,611 2,84 48,109 101,143 88,55 405,255 438,291 -29,84 -90,170 -131,254 -40,82 -89,165 -133,251 -53,104 -19,218 108,210 106,-8 134,-134 179,-218 44,-86 88,-169 131,-252 37,-68 113,-190 131,-253 52,-179 -259,-228 -393,-375 133,-232 363,-463 298,-613 -19,-44 -203,-205 -247,-228 -29,-14 -368,-71 -404,-68 -48,4 -433,242 -447,258 -47,55 -22,137 32,160 121,49 360,-216 474,-208 47,3 157,26 205,37z"/>
   <path fill="#FEFEFE" d="M2389 2545l-204 -135c-33,37 -47,59 -71,92 -107,147 -55,113 -366,113 -79,0 -244,-15 -305,21 -77,45 -71,166 4,210 56,32 523,24 621,20 122,-5 136,-64 187,-133 45,-61 106,-123 134,-188z"/>
   <path fill="#FEFEFE" d="M2985 1171c-278,96 -144,511 136,421 93,-30 188,-145 142,-280 -32,-93 -148,-185 -278,-141z"/>
   <path fill="#FEFEFE" d="M3167 2027c-37,-23 -12,5 -38,-45l-79 -189c-27,66 -14,93 -61,165 -46,70 -64,62 -26,151 67,157 100,121 357,121 58,0 178,6 228,-6 62,-15 102,-96 49,-160 -53,-64 -322,-37 -430,-37z"/>
   <path fill="#FEFEFE" d="M884 1717c-21,15 -52,24 -26,80 29,61 216,37 315,37 73,0 425,13 464,-13 61,-41 30,-118 -67,-122 -114,-4 -641,-15 -686,18z"/>
   <path fill="#FEFEFE" d="M1620 1554c163,0 141,-125 39,-134 -581,-47 -410,122 -346,131 67,11 231,3 307,3z"/>
   <path fill="#FEFEFE" d="M1403 2112l217 0c160,0 173,-133 -25,-133 -162,0 -366,-33 -347,78 12,66 88,55 155,55z"/>
  </g>
 </g>
</svg>
