<?xml version="1.0" encoding="UTF-8"?>
<!DOCTYPE svg PUBLIC "-//W3C//DTD SVG 1.1//EN" "http://www.w3.org/Graphics/SVG/1.1/DTD/svg11.dtd">
<!-- Creator: CorelDRAW X7 -->
<svg xmlns="http://www.w3.org/2000/svg" xml:space="preserve" width="62.6979mm" height="57.3644mm" version="1.1" shape-rendering="geometricPrecision" text-rendering="geometricPrecision" image-rendering="optimizeQuality" fill-rule="evenodd" clip-rule="evenodd"
viewBox="0 0 5200 4757"
 xmlns:xlink="http://www.w3.org/1999/xlink">
 <defs>
    <clipPath id="id0">
     <path d="M0 0l5200 218 0 4364 -5200 -218 0 -4364z"/>
    </clipPath>
    <clipPath id="id1">
     <path d="M923 878l2655 0 0 2873 -2655 0 0 -2873z"/>
    </clipPath>
 </defs>
 <g id="圖層_x0020_1">
  <metadata id="CorelCorpID_0Corel-Layer"/>
  <path fill="#292421" d="M385 3235l-361 -32c34,260 282,663 447,852 96,111 183,18 283,-28 459,455 954,730 1679,730 596,1 1330,-288 1686,-727 86,41 108,90 212,112 146,-208 462,-559 511,-935l-351 28c97,-443 197,-643 114,-1155 -302,-1866 -2748,-2554 -3950,-933 -175,237 -328,572 -387,937 -80,489 7,728 117,1151z"/>
  <g id="_794572720">
   <g clip-path="url(#id0)">
    <image x="0" y="0" width="5200" height="4582" xlink:href="散步2星-無彩_Images\散步2星-無彩_ImgID1.png"/>
   </g>
  </g>
  <path fill="#EEEEEF" d="M448 3183l180 -165c48,59 38,48 65,119 17,43 26,71 44,113 37,80 77,145 123,200 85,-39 86,-66 180,-90 129,88 485,730 1393,732 948,3 1345,-724 1395,-733 81,14 107,46 177,89 105,-115 172,-370 229,-424l196 166c318,-767 54,-1750 -427,-2196 -236,-219 -177,-218 -538,-427 -942,-545 -2132,-221 -2745,599 -177,237 -326,557 -389,915 -51,293 -29,872 117,1102z"/>
  <path fill="#757475" d="M2161 890c-770,134 -1424,872 -1273,1804 125,774 879,1454 1814,1289 774,-136 1433,-865 1284,-1802 -125,-785 -885,-1456 -1825,-1291z"/>
  <path fill="#332C2B" d="M591 3733c339,556 1120,959 1841,960 405,1 811,-115 1104,-284 294,-169 585,-421 746,-676 -3,-5 -10,-17 -11,-13l-423 -287c-177,191 -291,352 -565,499 -512,274 -1150,309 -1670,14 -203,-115 -489,-342 -563,-518 -98,35 -159,91 -241,142 -70,42 -173,103 -218,163z"/>
  <path fill="#332C2B" d="M106 3274c38,151 112,297 188,419 70,114 141,236 246,327 3,4 10,9 15,13l-43 -352 249 -160c29,-25 16,-11 35,-35 -61,-111 -117,-245 -183,-358 -278,144 15,185 -507,146z"/>
  <path fill="#332C2B" d="M4072 3486l274 199c14,112 -20,235 -32,348l76 -74c145,-169 320,-480 370,-685l-305 27c-96,-81 -117,-130 -212,-178 -39,145 -109,243 -171,363z"/>
  <polygon fill="#EEEEEF" stroke="#FEFEFE" stroke-width="6.31962" points="2000,3789 2081,4041 2346,4040 2131,4195 2214,4447 2000,4291 1786,4447 1868,4195 1654,4040 1919,4041 "/>
  <polygon fill="#EEEEEF" stroke="#FEFEFE" stroke-width="6.31962" points="2889,3779 2971,4030 3235,4030 3021,4185 3103,4437 2889,4281 2676,4437 2758,4185 2543,4030 2808,4030 "/>
  <g id="_794574256">
   <g clip-path="url(#id1)">
    <image x="923" y="878" width="2655" height="2873" xlink:href="散步2星-無彩_Images\散步2星-無彩_ImgID2.png"/>
   </g>
  </g>
  <g id="_794573992">
   <path fill="#FEFEFE" d="M1492 2151c143,26 160,-34 224,-119 55,-73 102,-126 143,-206l259 2c-263,713 -386,800 401,1067 -5,169 -36,460 9,599 71,123 230,104 266,-15 21,-68 13,-361 15,-453 4,-184 27,-262 -98,-349 -88,-61 -189,-125 -278,-180 54,-117 150,-390 189,-522 120,-413 -417,-361 -654,-360 -164,1 -176,3 -261,101 -195,225 -304,296 -215,435z"/>
   <path fill="#FEFEFE" d="M2041 2819c-128,-45 -141,-99 -224,-201 -192,195 18,227 -393,234 -87,1 -210,-4 -268,37 -61,42 -89,152 -17,225 75,75 434,30 570,22 163,-11 279,-186 332,-317z"/>
   <path fill="#FEFEFE" d="M2568 1058c-374,84 -211,606 138,501 115,-35 206,-181 163,-326 -35,-118 -151,-208 -301,-175z"/>
   <path fill="#FEFEFE" d="M2643 2247c136,81 171,177 391,97 96,-35 338,-82 364,-181 54,-205 -217,-101 -309,-70 -302,104 -150,15 -359,-96l-87 250z"/>
  </g>
 </g>
</svg>
