<?xml version="1.0" encoding="UTF-8"?>
<!DOCTYPE svg PUBLIC "-//W3C//DTD SVG 1.1//EN" "http://www.w3.org/Graphics/SVG/1.1/DTD/svg11.dtd">
<!-- Creator: CorelDRAW X7 -->
<svg xmlns="http://www.w3.org/2000/svg" xml:space="preserve" width="72.978mm" height="24.6902mm" version="1.1" style="shape-rendering:geometricPrecision; text-rendering:geometricPrecision; image-rendering:optimizeQuality; fill-rule:evenodd; clip-rule:evenodd"
viewBox="0 0 1748 591"
 xmlns:xlink="http://www.w3.org/1999/xlink">
 <defs>
  <style type="text/css">
   <![CDATA[
    .fil0 {fill:#FEFEFE;fill-opacity:0.560784}
    .fil1 {fill:#D9E483;fill-opacity:0.560784}
    .fil20 {fill:#ACCE22;fill-opacity:0.560784}
    .fil19 {fill:#423B1D;fill-opacity:0.560784}
    .fil15 {fill:#534B28;fill-opacity:0.560784}
    .fil9 {fill:#564F2C;fill-opacity:0.560784}
    .fil18 {fill:#626627;fill-opacity:0.560784}
    .fil7 {fill:#645C35;fill-opacity:0.560784}
    .fil16 {fill:#6B6639;fill-opacity:0.560784}
    .fil8 {fill:#716E34;fill-opacity:0.560784}
    .fil14 {fill:#8E9347;fill-opacity:0.560784}
    .fil13 {fill:#8F9137;fill-opacity:0.560784}
    .fil17 {fill:#A7A739;fill-opacity:0.560784}
    .fil10 {fill:#B6B937;fill-opacity:0.560784}
    .fil12 {fill:#B7B847;fill-opacity:0.560784}
    .fil5 {fill:#BABC3C;fill-opacity:0.560784}
    .fil6 {fill:#C3C543;fill-opacity:0.560784}
    .fil11 {fill:#C5C84A;fill-opacity:0.560784}
    .fil3 {fill:#C6CA44;fill-opacity:0.560784}
    .fil2 {fill:#CED249;fill-opacity:0.560784}
    .fil4 {fill:#D5DA4A;fill-opacity:0.560784}
   ]]>
  </style>
 </defs>
 <g id="圖層_x0020_1">
  <metadata id="CorelCorpID_0Corel-Layer"/>
  <path class="fil0" d="M1748 35c0,0 -850,70 -1326,328l1326 0 0 -328z"/>
  <path class="fil1" d="M1745 227c0,0 -850,58 -1327,272l1327 0 0 -272z"/>
  <path class="fil1" d="M0 51c0,0 763,71 1191,330l-1191 0 0 -330z"/>
  <path class="fil0" d="M0 240c0,0 850,58 1326,272l-1326 0 0 -272z"/>
  <path class="fil2" d="M1058 271c6,7 8,10 11,15l-16 9c-1,1 -2,2 -3,2 -8,5 2,1 -14,7 -16,6 -26,5 -38,13l-15 -1 8 -19 -19 11c-1,1 -2,3 -3,4l-6 -28 -3 10c-14,-7 -10,-3 -20,-16 5,13 13,11 17,23 4,11 0,31 0,44 -15,-11 -11,-6 -19,-8 -2,-11 8,-4 -8,-13 -3,-16 3,-2 -13,-25 -15,-3 -7,9 -26,0 -23,-11 -17,-5 -28,-14 9,-34 -9,-28 34,-48 11,11 2,6 21,12 5,1 22,2 36,6 5,-19 5,6 41,-5l14 -3c12,-3 27,7 17,-12 18,8 36,13 32,36z"/>
  <path class="fil2" d="M231 134c15,-8 6,12 9,-7 2,-8 1,-3 -4,-11l-5 18zm102 -52c-1,13 -1,10 7,24 -14,5 -26,15 -44,21 -26,9 -40,3 -63,11l-2 -4 -1 6c-19,-6 -11,-23 -14,-45l8 -20c6,-13 -4,-6 9,-12 24,0 51,1 61,-21 7,4 20,11 26,15 11,8 16,8 13,25z"/>
  <path class="fil2" d="M211 85l2 27c-21,-6 -14,-2 -24,-17 -7,6 -7,9 -19,8 30,3 35,12 37,41 -30,-8 -18,-11 -43,-10 -11,-12 1,-1 -16,-7 -5,-12 9,-8 -6,-13l-13 8c-13,7 -6,4 -20,-9 -16,-14 -8,11 -13,-14 -5,-24 -5,-25 8,-44l7 -8 15 6c20,-6 0,-5 37,8 9,3 12,1 40,5 3,26 -5,16 8,19z"/>
  <path class="fil2" d="M612 150c-17,16 -4,5 -21,10l-5 24 15 4 0 25c-1,-2 -3,-6 -4,-5 0,2 -2,-3 -3,-4 0,-1 -3,-5 -3,-6 -35,2 -44,21 -87,17l-16 2c-1,-58 -3,-35 -11,-44l-4 -35c2,1 10,5 12,6 21,8 20,6 42,1 46,-10 28,-8 30,-11 22,9 24,17 55,16z"/>
  <path class="fil3" d="M351 160c-31,11 -41,41 -87,21 15,-11 2,-4 1,-7 -20,17 -7,5 -12,17 -16,11 -9,10 -28,18 -1,-11 -2,-22 -3,-33 -1,-25 -6,-21 8,-36l3 -2c23,-8 37,-2 63,-11 18,-6 30,-16 44,-21 5,3 2,-2 5,11 0,3 1,11 1,13 2,16 1,14 5,30z"/>
  <path class="fil4" d="M294 42c-10,22 -37,21 -61,21 -13,6 -3,-1 -9,12l-8 20 -3 -34 -2 24c-13,-3 -5,7 -8,-19 -28,-4 -31,-2 -40,-5 -37,-13 -17,-14 -37,-8l28 -15c0,-1 16,-13 18,-14 12,-12 17,-24 39,-24 27,0 22,5 42,21 15,13 22,14 41,21z"/>
  <path class="fil3" d="M148 127l10 16c10,6 12,17 1,19 25,5 38,22 44,44 -26,-6 -48,-9 -73,-18 -8,-4 -24,-9 -30,-13 -19,-12 -1,-9 -28,-19 11,-9 6,-8 8,-26 0,-8 0,-15 4,-22 9,-16 1,-6 12,-9 5,25 -3,0 13,14 14,13 7,16 20,9l13 -8c15,5 1,1 6,13z"/>
  <path class="fil5" d="M619 245c43,31 52,25 103,40l-2 20c-24,-6 -15,-4 -34,-3 -13,1 -25,-2 -42,-3 -6,-43 -16,-7 -31,-47 -1,1 -3,1 -4,3 -2,8 -16,3 -28,23 0,0 -5,12 -6,14 -17,4 -30,6 -42,6 -21,-1 -8,-5 -37,2 4,-6 7,-9 11,-16 11,-20 4,-2 9,-22 -1,-3 -6,-5 0,-11 25,6 7,1 23,6 7,2 18,7 25,9 9,-19 25,-12 43,-33 9,19 -1,7 12,12z"/>
  <path class="fil4" d="M557 134c-2,3 16,1 -30,11 -22,5 -21,7 -42,-1 -2,-1 -10,-5 -12,-6l4 35 3 21c-14,-6 -11,1 -13,-11 -3,-9 -5,-15 -7,-25 -11,-16 -5,-7 -21,-12 -10,-3 -24,-8 -37,-11 7,-11 5,0 2,-12 32,-3 27,2 49,-17 27,-23 38,-18 68,6 15,12 24,11 36,22z"/>
  <path class="fil6" d="M601 213l6 20c-18,21 -34,14 -43,33 -7,-2 -18,-7 -25,-9 -16,-5 2,0 -23,-6 -6,6 -1,8 0,11 -2,1 -4,1 -4,3l-19 14c0,-10 -3,-31 -2,-39 3,-21 5,-13 13,-25 43,4 52,-15 87,-17 0,1 3,5 3,6 1,1 3,6 3,4 1,-1 3,3 4,5z"/>
  <path class="fil2" d="M711 185l-12 1c5,19 -17,13 19,16 11,-9 7,-6 4,6l1 52c-15,-6 -6,-1 -18,-12l-2 -3c-12,-15 -6,-5 -13,-21 -8,-16 -1,-10 -23,-9l-1 -3c-33,-2 -14,2 -36,-12l5 -23c5,-18 3,-8 16,-22l-9 -4 -2 -5 35 -5 -4 24c39,-5 34,5 38,11 11,0 0,-2 2,9z"/>
  <path class="fil3" d="M427 209l14 20c-6,6 8,8 -13,8l18 2c11,8 6,3 15,14 11,13 7,5 13,20 -36,4 -66,-10 -97,-28l-10 -7c-1,-1 -3,-3 -4,-3 -1,-1 -3,-2 -4,-3 11,-21 -4,-36 17,-54 62,58 17,23 46,19 5,6 16,-10 5,12z"/>
  <path class="fil4" d="M773 128l-6 10 32 17c-19,12 -36,9 -57,12l-6 31 -4 -23 -9 33 -1 0c3,-12 7,-15 -4,-6l-7 -17c-2,-11 9,-9 -2,-9 -4,-6 1,-16 -38,-11l4 -24 22 -9c14,-10 8,-5 13,-17 67,1 20,7 63,13z"/>
  <path class="fil2" d="M748 221l0 0zm85 -23c-6,9 3,1 -8,9l-54 22c-1,0 -14,-4 -23,-8 -15,-3 -16,-8 -8,6 -9,-11 -6,-5 -5,-23l1 -6 6 -31c21,-3 38,0 57,-12 40,16 19,14 34,43z"/>
  <path class="fil2" d="M460 158l-16 9c-1,-9 5,4 1,15l18 10c10,6 13,4 15,21 -12,11 -10,-17 -10,20 -12,-24 14,6 -5,-16l-24 -2 -12 -6c11,-22 0,-6 -5,-12 -29,4 16,39 -46,-19 -1,-27 7,-30 26,-43 13,3 27,8 37,11 16,5 10,-4 21,12z"/>
  <path class="fil6" d="M838 232l2 7c-8,16 -13,21 -26,27 -20,10 -21,5 -42,-1 9,-12 4,-4 1,-8l-12 14c-12,-5 -12,-8 -4,4 -11,4 -12,5 -16,8l-2 -46c0,-2 1,-8 1,-10 -8,-14 -7,-9 8,-6 9,4 22,8 23,8l54 -22c11,-8 2,0 8,-9 9,15 6,14 5,34z"/>
  <path class="fil3" d="M1078 330c-36,13 -19,27 -71,23l4 -12c-12,5 -2,-4 -16,15 -12,10 -7,8 -21,15 -2,-21 -6,-35 1,-52l23 -2c12,-8 22,-7 38,-13 16,-6 6,-2 14,-7 1,0 2,-1 3,-2l16 -9 9 44z"/>
  <path class="fil3" d="M930 324l-4 10 12 3 13 20c-1,22 2,6 -7,12 -7,-3 5,1 -12,-5 -25,-8 -32,-5 -61,-20 -18,-10 -6,-13 -23,-8 7,-18 3,-12 7,-32 1,-7 0,-5 2,-12 6,-13 1,-4 6,-7 11,9 5,3 28,14 19,9 11,-3 26,0 16,23 10,9 13,25z"/>
  <path class="fil3" d="M690 224l-11 3c16,21 7,14 24,18l2 3c4,17 0,2 7,15 6,10 6,4 10,22 -51,-15 -60,-9 -103,-40 1,-8 1,-22 2,-28 4,-19 -4,-14 9,-17 22,14 3,10 36,12l1 3c22,-1 15,-7 23,9z"/>
  <path class="fil7" d="M504 215c-8,12 -10,4 -13,25 -1,8 2,29 2,39l19 -14c0,-2 2,-2 4,-3 -5,20 2,2 -9,22 -4,7 -7,10 -11,16l-1 17 3 45 -32 -5 4 -34 4 -50c-6,-15 -2,-7 -13,-20 -9,-11 -4,-6 -15,-14l2 -8c4,3 7,7 13,11 9,7 4,6 15,7l2 -36c-2,-17 -5,-15 -15,-21l-3 -9 7 0c2,12 -1,5 13,11l-3 -21c8,9 10,-14 11,44l16 -2z"/>
  <path class="fil4" d="M1026 235c10,19 -5,9 -17,12l-14 3c-36,11 -36,-14 -41,5 -14,-4 -31,-5 -36,-6 -19,-6 -10,-1 -21,-12 2,-2 23,-10 31,-18 1,-1 3,-3 3,-2 3,5 15,-29 51,-10 15,8 27,21 44,28z"/>
  <path class="fil5" d="M320 222c-9,3 -40,7 -45,7 -19,1 -12,-2 -22,-2 -9,-1 -13,2 -25,4 7,-12 6,-10 14,-20 14,-18 7,0 11,-20 15,-1 7,3 11,-10 46,20 56,-10 87,-21 3,0 4,-13 5,11 0,7 1,7 -2,12 -8,15 -7,10 -28,12l-5 24c0,-1 -1,2 -1,3z"/>
  <path class="fil5" d="M203 206l-3 26c-21,-5 -12,-7 -30,-5l-34 1c-32,-4 -26,-2 -32,-17l-1 -18 -16 0c-15,-10 -18,-15 -15,-37 27,10 9,7 28,19 6,4 22,9 30,13 25,9 47,12 73,18z"/>
  <path class="fil7" d="M740 227c0,2 -1,8 -1,10l2 46c4,-3 5,-4 16,-8 -4,15 1,3 -7,17 -2,6 -5,8 -8,13l1 81c-27,-3 -1,3 -25,-10l0 -31 2 -40 2 -20c-4,-18 -4,-12 -10,-22 -7,-13 -3,2 -7,-15 12,11 3,6 18,12l-1 -52 1 0c11,-3 6,1 12,-4 -1,18 -4,12 5,23z"/>
  <path class="fil8" d="M213 112l2 226 -22 -1 7 -105 3 -26c-6,-22 -19,-39 -44,-44 11,-2 9,-13 -1,-19 -3,-9 -4,-6 7,-6 7,19 21,30 39,40l3 -33c-2,-29 -7,-38 -37,-41 12,1 12,-2 19,-8 10,15 3,11 24,17z"/>
  <path class="fil9" d="M216 95c3,22 -5,39 14,45 -14,15 -9,11 -8,36 1,11 2,22 3,33 19,-8 12,-7 28,-18 -4,20 3,2 -11,20 -8,10 -7,8 -14,20l6 100 0 11 -19 2 0 -6 -2 -226 -2 -27 2 -24 3 34z"/>
  <path class="fil5" d="M474 273l-4 50 1 -25c-30,-6 -20,-1 -40,0 -42,1 -43,-15 -47,-22 -11,-16 -11,-8 -28,-21l3 -23c1,1 3,2 4,3 1,0 3,2 4,3l10 7c31,18 61,32 97,28z"/>
  <path class="fil5" d="M951 357l4 22c1,10 0,14 2,25l-6 1c2,-23 -4,-20 -25,-18 -18,2 -24,0 -47,-3l-5 -10 -1 -15 -13 -2c-11,-9 -14,-1 -12,-21 17,-5 5,-2 23,8 29,15 36,12 61,20 17,6 5,2 12,5 9,-6 6,10 7,-12z"/>
  <path class="fil10" d="M742 305c3,-5 6,-7 8,-13 8,-14 3,-2 7,-17 -8,-12 -8,-9 4,-4l11 -6c21,6 22,11 42,1 13,-6 18,-11 26,-27 21,31 -4,14 -26,58 -38,9 -41,4 -52,4 -8,0 -12,2 -20,4z"/>
  <path class="fil10" d="M975 389c14,-19 20,-6 20,-33 15,-1 11,9 12,-3 52,4 35,-10 71,-23l0 23c-6,3 -5,1 -12,5 -8,4 -6,2 -10,7l-8 17c-32,12 -42,1 -73,7z"/>
  <path class="fil7" d="M963 284c1,19 2,23 12,35 -7,17 -3,31 -1,52 14,-7 9,-5 21,-15 0,27 -6,14 -20,33l1 22 -19 -7c-2,-11 -1,-15 -2,-25l-4 -22 -13 -20c8,2 4,-3 19,8 0,-13 4,-33 0,-44 -4,-12 -12,-10 -17,-23 10,13 6,9 20,16l3 -10z"/>
  <path class="fil3" d="M207 144l-3 33c-18,-10 -32,-21 -39,-40l-1 -3c25,-1 13,2 43,10z"/>
  <path class="fil11" d="M478 213l-2 36c-11,-1 -6,0 -15,-7 -6,-4 -9,-8 -13,-11 -5,-13 2,-4 -9,-16l24 2c19,22 -7,-8 5,16 0,-37 -2,-9 10,-20z"/>
  <path class="fil12" d="M467 183l-7 0 3 9 -18 -10c4,-11 -2,-24 -1,-15l16 -9c2,10 4,16 7,25z"/>
  <path class="fil13" d="M998 317l-23 2c-10,-12 -11,-16 -12,-35l6 28c1,-1 2,-3 3,-4l19 -11 -8 19 15 1z"/>
  <path class="fil14" d="M718 202c-36,-3 -14,3 -19,-16l12 -1 7 17z"/>
  <path class="fil14" d="M448 231l-2 8 -18 -2c21,0 7,-2 13,-8l-14 -20 12 6c11,12 4,3 9,16z"/>
  <path class="fil13" d="M703 245c-17,-4 -8,3 -24,-18l11 -3c7,16 1,6 13,21z"/>
  <path class="fil14" d="M736 198l-1 6c-6,5 -1,1 -12,4l9 -33 4 23z"/>
  <path class="fil15" d="M264 181c-4,13 4,9 -11,10 5,-12 -8,0 12,-17 1,3 14,-4 -1,7z"/>
  <path class="fil7" d="M1007 353c-1,12 3,2 -12,3 14,-19 4,-10 16,-15l-4 12z"/>
  <path class="fil16" d="M938 337l-12 -3 4 -10c16,9 6,2 8,13z"/>
  <path class="fil17" d="M165 137c-11,0 -10,-3 -7,6l-10 -16c17,6 5,-5 16,7l1 3z"/>
  <path class="fil18" d="M231 134l5 -18c5,8 6,3 4,11 -3,19 6,-1 -9,7z"/>
  <path class="fil9" d="M772 265l-11 6 12 -14c3,4 8,-4 -1,8z"/>
  <polygon class="fil19" points="230,140 231,134 233,138 "/>
  <line class="fil15" x1="748" y1="221" x2="748" y2= "221" />
  <path class="fil20" d="M3 319c0,0 849,58 1326,272l-1326 0 0 -272z"/>
  <path class="fil20" d="M1742 319c0,0 -850,58 -1326,272l1326 0 0 -272z"/>
 </g>
</svg>
