<?xml version="1.0" encoding="UTF-8"?>
<!DOCTYPE svg PUBLIC "-//W3C//DTD SVG 1.1//EN" "http://www.w3.org/Graphics/SVG/1.1/DTD/svg11.dtd">
<!-- Creator: CorelDRAW X7 -->
<svg xmlns="http://www.w3.org/2000/svg" xml:space="preserve" width="35.169mm" height="26.6732mm" version="1.1" style="shape-rendering:geometricPrecision; text-rendering:geometricPrecision; image-rendering:optimizeQuality; fill-rule:evenodd; clip-rule:evenodd"
viewBox="0 0 217 165"
 xmlns:xlink="http://www.w3.org/1999/xlink">
 <defs>
  <style type="text/css">
   <![CDATA[
    .str2 {stroke:#332C2B;stroke-width:1.23678}
    .str1 {stroke:#61913D;stroke-width:1.23678}
    .str3 {stroke:#332C2B;stroke-width:0.618388}
    .str0 {stroke:#FDD100;stroke-width:0.471212}
    .fil7 {fill:none}
    .fil13 {fill:#FEFEFE}
    .fil12 {fill:#332C2B}
    .fil10 {fill:#FDD100}
    .fil40 {fill:#ECF6F3}
    .fil45 {fill:#8AB1DD}
    .fil22 {fill:black}
    .fil31 {fill:#010202}
    .fil34 {fill:#020205}
    .fil33 {fill:#03060A}
    .fil26 {fill:#041224}
    .fil23 {fill:#051429}
    .fil25 {fill:#0C3266}
    .fil19 {fill:#150606}
    .fil28 {fill:#15458A}
    .fil21 {fill:#16468D}
    .fil41 {fill:#16468D}
    .fil38 {fill:#181718}
    .fil17 {fill:#184689}
    .fil29 {fill:#1B4B92}
    .fil16 {fill:#1E4E96}
    .fil27 {fill:#250909}
    .fil37 {fill:#2B2A35}
    .fil39 {fill:#46536B}
    .fil44 {fill:#5E7DA9}
    .fil18 {fill:#5E7DA9}
    .fil5 {fill:#89743A}
    .fil14 {fill:#8AB1E5}
    .fil4 {fill:#917D42}
    .fil2 {fill:#937F44}
    .fil1 {fill:#948045}
    .fil6 {fill:#958047}
    .fil36 {fill:#A49C99}
    .fil9 {fill:#ADB8A5}
    .fil35 {fill:#D6E1F2}
    .fil42 {fill:#E9D0A2}
    .fil43 {fill:#E9D0A2}
    .fil8 {fill:#EBF5E3}
    .fil32 {fill:#EFE0D5}
    .fil30 {fill:#F1E1D7}
    .fil20 {fill:#F3E3D8}
    .fil15 {fill:#F7C84E}
    .fil24 {fill:#F9BDBB}
    .fil11 {fill:#61913D}
    .fil3 {fill:#877514}
    .fil0 {fill:#70590F}
   ]]>
  </style>
   <clipPath id="id0">
    <path d="M84 135c-1,0 5,6 15,8 4,1 14,1 18,1 4,0 9,-5 11,-7 6,-3 13,-5 16,-10 10,-15 11,-28 11,-28l-25 -21 -46 0 -23 15 13 37 10 5z"/>
   </clipPath>
 </defs>
 <g id="圖層_x0020_1">
  <metadata id="CorelCorpID_0Corel-Layer"/>
  <path class="fil0" d="M26 52l-1 77 0 1c2,0 2,1 1,-1l0 -1 1 -20 -1 -1c1,-4 1,-18 0,-20l0 -2c1,-3 0,-15 1,-20l0 -1c9,0 58,-1 63,0 2,1 5,-1 7,-2 3,-1 6,-2 9,-2 9,0 12,3 18,4 2,1 12,0 15,0l50 0c1,7 -1,16 1,23 -1,1 -1,16 -1,17 0,3 -1,1 1,3l0 -55 -85 -34 -79 34z"/>
  <path class="fil1" d="M143 107c8,0 42,-1 46,0 0,0 0,1 -1,1l-46 0c-2,5 -1,13 -1,19 0,0 1,0 1,0 6,2 34,0 43,1 1,0 2,0 3,0l1 2 0 1 1 -1 0 -5 0 -6 0 -12c-2,-2 -1,0 -1,-3 0,-1 0,-16 1,-17 -4,2 -39,0 -47,0l0 20z"/>
  <path class="fil2" d="M140 89c1,2 0,14 0,17 1,0 0,0 2,1 0,0 1,0 1,0l0 -20c8,0 43,2 47,0 -2,-7 0,-16 -1,-23l-50 0c-3,0 -13,1 -15,0l3 2c1,1 1,1 2,2 6,5 10,13 11,21z"/>
  <path class="fil1" d="M26 85l50 0c2,-5 3,-8 6,-12 1,-1 2,-3 3,-4 2,-2 4,-2 5,-5 -5,-1 -54,0 -63,0l0 1c-1,5 0,17 -1,20z"/>
  <path class="fil0" d="M25 130l0 1 1 4 -1 15 51 0 0 -20c-4,-1 -20,-1 -25,-1 -6,0 -20,1 -25,0 1,2 1,1 -1,1z"/>
  <path class="fil1" d="M26 128c5,-1 45,-1 50,0l0 -20c-10,1 -39,-1 -49,0l-1 20z"/>
  <path class="fil3" d="M140 147l1 3 48 -1 0 -18 0 -1 -45 0c0,1 0,1 0,1 -1,0 -1,0 -1,0 0,0 0,0 -1,0 0,0 0,1 0,1l0 17c-1,-3 -2,-2 -2,-2z"/>
  <path class="fil1" d="M32 107l39 0c0,-12 -2,-14 -1,-20l-37 0c0,0 -1,0 -1,0 0,1 0,1 0,1 0,2 0,0 0,1l0 18z"/>
  <path class="fil4" d="M140 147c0,0 1,-1 2,2l0 -17c0,0 0,-1 0,-1 1,0 1,0 1,0 0,0 0,0 1,0 0,0 0,0 0,-1l45 0 -1 -2c-1,0 -2,0 -3,0 -9,-1 -37,1 -43,-1 0,0 -1,0 -1,0 0,-6 -1,-14 1,-19 -2,0 -2,-1 -2,4 0,7 1,13 0,20l0 15z"/>
  <path class="fil4" d="M30 107l2 0 0 -18c0,-1 0,1 0,-1 0,0 0,0 0,-1 0,0 1,0 1,0l37 0c-1,6 1,8 1,20l0 0c0,-16 2,-8 2,-15 0,-2 -1,-3 0,-5l3 0 0 -2 -50 0 0 2 3 0c2,5 1,14 1,20z"/>
  <path class="fil5" d="M140 150c2,1 45,0 50,0l0 -20 -1 1 0 18 -48 1 -1 -3 0 -15c1,-7 0,-13 0,-20 0,-5 0,-4 2,-4l46 0c1,0 1,-1 1,-1 -4,-1 -38,0 -46,0 0,0 -1,0 -1,0 -2,-1 -1,-1 -2,-1 0,-3 1,-15 0,-17l0 61z"/>
  <path class="fil5" d="M71 107l0 0 -39 0 -2 0 -4 0 1 1c10,-1 39,1 49,0l0 20c-5,-1 -45,-1 -50,0l0 1c5,1 19,0 25,0 5,0 21,0 25,1l0 -41c-1,2 0,15 0,18l-5 0z"/>
  <path class="fil6" d="M26 107l4 0c0,-6 1,-15 -1,-20l-3 0c1,2 1,16 0,20z"/>
  <path class="fil7" d="M214 46l-2 7c1,0 1,1 1,0 1,1 0,1 1,0 0,0 0,-1 0,-1 1,1 1,1 1,1 0,1 1,2 2,2 0,-1 -1,-3 -1,-4 -1,-1 -1,2 -1,-2 0,-1 0,-2 0,-3"/>
  <path class="fil8" d="M199 100c2,0 1,0 2,2 1,1 1,1 2,2 0,1 0,1 1,1l1 1c0,0 0,1 0,1l0 -3c0,-1 0,-1 -1,-2 -1,-1 1,1 -1,0 -3,-4 0,-3 -5,-4 0,5 0,0 1,2z"/>
  <path class="fil9" d="M200 102l1 0c-1,-2 0,-2 -2,-2 0,0 0,1 0,1 1,1 1,1 1,1z"/>
  <path class="fil10 str0" d="M88 58c-1,3 -3,2 -5,5 -1,1 -3,3 -4,5 -3,4 -4,7 -6,12l0 2 0 3 -1 45 0 22 71 0 0 -67c0,-9 -5,-17 -11,-23 -1,-1 -2,-2 -3,-2l-4 -3c-6,-1 -9,-5 -19,-4 -3,0 -7,1 -10,2 -2,1 -6,3 -8,3z"/>
  <rect class="fil11 str1" x="14" y="147" width="186.214" height="8.10902"/>
  <rect class="fil11 str1" x="8" y="156" width="196.351" height="8.10902"/>
  <polyline class="fil7 str2" points="105,17 8,59 4,52 105,8 "/>
  <polygon class="fil12 str2" points="105,1 105,17 8,59 1,46 "/>
  <polygon class="fil12 str2" points="105,1 105,17 202,59 209,46 "/>
  <circle class="fil13" cx="83" cy="31" r="2"/>
  <circle class="fil13" cx="79" cy="40" r="2"/>
  <circle class="fil13" cx="69" cy="48" r="2"/>
  <circle class="fil13" cx="58" cy="49" r="2"/>
  <circle class="fil13" cx="48" cy="45" r="2"/>
  <circle class="fil13" cx="61" cy="41" r="2"/>
  <circle class="fil13" cx="48" cy="53" r="2"/>
  <circle class="fil13" cx="36" cy="52" r="2"/>
  <circle class="fil13" cx="29" cy="58" r="2"/>
  <circle class="fil13" cx="122" cy="31" r="2"/>
  <circle class="fil13" cx="126" cy="40" r="2"/>
  <circle class="fil13" cx="136" cy="48" r="2"/>
  <circle class="fil13" cx="147" cy="49" r="2"/>
  <circle class="fil13" cx="157" cy="45" r="2"/>
  <circle class="fil13" cx="144" cy="41" r="2"/>
  <circle class="fil13" cx="157" cy="53" r="2"/>
  <circle class="fil13" cx="169" cy="52" r="2"/>
  <circle class="fil13" cx="176" cy="58" r="2"/>
  <g>
  </g>
  <g style="clip-path:url(#id0)">
   <g>
    <path class="fil14" d="M128 91c0,1 3,3 5,6 2,-1 3,-2 5,-1 5,-4 5,-3 0,-8 0,0 -1,-2 -1,0 0,0 -7,2 -9,3z"/>
    <path class="fil15" d="M103 86c0,0 -1,1 0,2 1,1 4,1 5,1 2,0 3,-1 5,-2 -1,-1 -1,-1 -1,-1 -7,1 -1,1 -9,0z"/>
    <path class="fil16" d="M102 88c0,0 -1,4 -1,4 2,2 5,2 7,2 2,0 5,-1 6,-2 0,-1 -1,-4 -1,-4 -4,1 -6,2 -11,0z"/>
    <path class="fil17" d="M82 100c1,-1 4,-5 4,-6 -2,-1 -4,-1 -4,0 -1,2 0,5 0,6z"/>
    <path class="fil14" d="M74 93c2,1 6,4 8,7 0,-1 0,0 -1,-2 0,-1 0,-3 0,-4 1,-2 3,-1 5,0 1,-2 4,-3 4,-4 -1,-1 -8,-4 -10,-2 -2,1 -6,4 -6,5z"/>
    <path class="fil14" d="M94 104c-17,-10 14,9 0,0zm25 -2c11,-21 -6,10 0,0zm-41 17c-1,4 1,13 5,16 2,1 5,1 7,1 10,2 14,-7 25,-1 1,1 2,1 4,2 3,0 6,1 10,0 4,-2 7,-6 8,-8 -5,0 -9,-5 1,-6 2,-4 -3,-21 -5,-25 -1,-2 -3,-4 -6,-7 -4,-3 -10,-6 -11,-5 0,0 -1,0 -1,0 -3,2 1,5 0,6 -4,4 -14,1 -14,0 1,-3 2,-6 1,-7 0,0 -2,1 -4,2 1,6 -3,8 -7,3 -3,1 -8,10 -9,11 0,1 -1,4 -2,5 -1,3 -3,9 -2,13z"/>
    <path class="fil18" d="M83 99c0,0 -5,30 8,38 -9,0 -15,-8 -13,-19 0,-3 1,-7 2,-9 5,-15 3,-10 3,-10z"/>
    <path class="fil17" d="M86 95c2,1 5,-1 3,-3 0,0 -1,1 -2,1 0,1 -1,2 -1,2z"/>
    <path class="fil19" d="M138 190c-4,0 -6,0 -8,-2 -2,-2 -3,-3 -4,-7 0,-2 1,-4 1,-5 0,-2 0,-3 1,-5 0,0 0,-1 0,-1 1,-1 1,-1 2,-1 3,-1 2,0 4,-1 1,-1 2,-1 4,-1 2,0 2,1 3,2 1,0 3,0 3,2 1,1 0,3 0,4 0,2 1,3 0,5 0,1 0,3 -1,4 -1,3 -3,5 -5,6zm-70 -11c0,-2 0,-1 0,-3 0,0 -1,-1 0,-2 0,-6 4,-4 5,-5 1,-1 2,-2 3,-2 1,-1 4,-1 4,0 2,1 2,2 4,2 1,0 1,0 1,0 3,3 0,3 0,6 1,5 2,7 -1,11 -1,1 -3,2 -5,2 -3,1 -6,0 -8,-2 -1,0 -2,-1 -2,-3 -1,-1 -1,-2 -1,-4zm60 -11c0,-4 1,-4 3,-2 1,0 1,0 1,1 0,1 0,0 -1,1 -1,0 -2,0 -3,0zm7 -3c0,-1 1,-3 3,-3 0,1 0,2 0,4l-3 -1zm-7 -25c1,0 2,1 2,2 1,1 1,2 2,3 0,0 1,1 1,1 2,3 4,8 5,11 1,1 3,5 1,6 0,-1 0,-1 -1,-2 -2,0 -2,0 -3,1 0,0 0,0 0,1 -1,-1 0,-1 -1,-2 -1,-1 -3,-7 -4,-9 -1,-1 -1,-3 -2,-5 0,-1 0,-7 0,-7 0,-1 0,-1 0,0zm-5 19c0,1 0,1 0,1 0,3 1,5 1,8 0,2 -1,5 -2,6 -1,3 -5,6 -9,7 -5,1 -10,0 -14,-2l-4 -1c-1,-1 -3,-4 -3,-7 0,-1 0,0 0,-1 0,0 0,-1 0,-1 0,-3 0,-4 0,-7 0,0 0,0 0,0 0,-1 0,-1 1,-1 0,-1 3,-8 3,-13l0 -6c1,1 9,4 18,3 4,-1 5,-1 7,-2 -1,6 1,11 2,16zm36 -13c-1,-1 -1,-4 0,-5 2,-1 4,-1 5,1 -2,1 -5,4 -5,4zm-86 -12c1,0 1,3 2,4 2,1 13,6 13,2 0,-1 0,-2 0,-3 1,0 1,1 2,2 2,4 6,2 4,13 0,2 -2,4 -2,6 0,1 0,1 0,1 -1,1 0,0 -1,0 0,3 -1,6 -1,9 0,2 1,4 1,5 0,2 1,2 1,4 0,0 0,0 0,0l-1 0c-2,0 -3,3 -4,3 0,-2 -2,-5 -1,-6 0,-1 1,-1 1,-3 0,-2 0,-1 1,-3 0,-1 1,-4 0,-4 -1,0 -1,0 -1,0 -3,1 -3,3 -4,4 -1,-1 0,-2 -3,-2 0,-1 0,-2 0,-3 0,-1 2,-2 2,-6 0,-1 -1,-2 -1,-3 -1,-2 -1,-2 -2,-3 -3,-3 -3,-3 -6,-4 -3,-1 -5,-1 -6,-1 -1,0 -2,-1 -2,-2 0,-1 0,-1 0,-1 3,-5 -2,-4 0,-6 1,-2 1,-1 3,-1 0,-1 1,-3 2,-3 1,-1 2,-1 3,1zm60 32c0,0 0,1 0,0 0,-1 -3,-3 -4,-3 -2,1 -1,5 -2,6 -1,3 0,4 -1,6 -1,3 -1,4 -1,7 -2,0 -4,-2 -5,-3 0,0 4,-5 4,-8 2,-9 -3,-19 -3,-28 2,-1 5,-4 6,-5 0,3 0,5 0,8 1,6 1,5 3,10 1,3 2,4 4,7 0,1 0,0 0,1 0,1 0,2 -1,2zm-42 -28c2,-1 4,0 7,-1 0,0 2,-1 2,-1 1,0 1,1 3,2 3,1 7,1 10,0 1,-1 0,-2 1,-2 3,2 6,2 11,2 0,1 0,1 -1,2 -1,0 -1,0 -1,1 -3,2 -7,3 -11,3 -4,0 -18,-1 -21,-6zm11 -2c2,-2 9,-2 11,-1l-1 1c-1,1 -3,1 -5,2 -1,0 -4,-1 -5,-2zm53 -2c0,0 1,0 1,0 1,-1 1,-1 2,-1 2,-1 2,-1 2,0 0,3 -1,3 -3,3 -2,1 -2,0 -2,-2zm19 0c0,-3 0,-3 2,-5 0,-1 0,-2 1,-2 1,-1 2,-1 3,-1l-3 5c0,1 -2,3 -3,3zm-42 -8c1,-8 0,7 0,0zm-48 -1c0,0 0,0 0,0 0,0 0,0 -1,0 0,0 0,0 0,0 -3,0 -8,2 -9,-1 1,-3 10,-3 11,0l-1 1zm86 15c0,-1 0,-1 1,-1l2 -2c7,-5 9,-11 12,-19 0,-1 0,-3 1,-4 0,0 0,1 0,1 1,1 2,3 2,4 -2,2 -4,1 -3,6 0,1 0,3 0,4 0,1 -1,1 -3,1 -3,2 0,6 -2,7 0,0 -2,0 -3,1 0,1 -1,2 -1,3 -2,0 -5,-1 -6,-1zm9 -24c0,2 0,4 -1,5 -1,1 -2,2 -3,2 1,-2 3,-3 4,-7zm3 -2c0,0 0,-1 0,-1 1,-1 1,-1 2,0 0,1 -1,1 -1,2 -1,0 -1,0 -1,-1zm-1 0c-1,2 1,2 3,2 0,2 -2,8 -3,10 -2,-1 -2,-1 -4,0 -2,0 -4,4 -4,5 -1,4 -1,4 -4,8 -1,1 -2,1 -4,2 -1,-1 -7,-4 -8,3 0,2 0,2 1,4 -1,1 -3,4 -5,6 0,1 0,1 -1,2 -1,2 -2,3 -3,5 -1,1 -2,3 -2,4 -2,-1 -2,-1 -4,0 0,1 -1,2 -2,3 0,-1 -2,-2 -2,-2 1,-1 1,0 1,0 3,1 3,-1 2,-3 0,-2 -1,-1 -1,-2 -1,-2 -1,-4 -2,-6 -1,-2 -2,-3 -3,-5 -1,-3 -2,-3 -1,-5 2,-1 7,-5 9,-6 2,-2 7,-4 9,-4 1,1 1,4 6,2 2,0 3,-3 2,-5 3,-1 4,-2 5,-3 3,-1 11,-4 12,-6 1,-2 2,-4 2,-6 -1,-2 -1,-1 0,-3 1,-2 2,-7 4,-7 3,9 -2,0 -3,7zm-42 1c-1,-2 -1,-4 -2,-6 -1,-5 0,-7 2,-12 0,-1 2,-3 3,-4 2,4 0,19 -3,22zm-62 -2c0,0 -1,-3 -1,-4 -2,-5 -3,-10 -3,-15 2,0 9,6 7,9 -1,4 -2,6 -3,10zm59 -10c-1,-1 -2,-4 -2,-5 0,-1 1,-2 1,-2 1,0 2,0 3,0 -1,1 -1,2 -1,3 -1,1 -1,3 -1,4zm-54 -4c-2,-4 -1,-7 4,-5 -1,1 -3,5 -4,5zm4 -4c0,-1 2,-3 3,-3 2,2 -1,4 -3,3zm17 -7c4,2 7,1 10,0 0,0 1,3 1,4 -3,2 -10,2 -13,0 0,0 1,-3 2,-4zm-28 5c-3,-1 1,0 4,-1 1,0 1,-1 1,-2l0 -2c1,-1 2,-1 2,0 1,1 1,2 2,3 1,0 2,0 3,-2 1,0 2,1 2,1 0,0 -3,3 -3,3 -2,0 -4,-1 -5,1 0,1 0,3 0,4 1,3 1,3 -1,0 -1,-2 -4,-4 -5,-5zm66 -3c-1,1 -2,2 -3,1 0,-2 1,-3 2,-3 0,0 1,1 1,2zm-49 -1c1,0 4,-2 5,-2 1,8 -5,4 -5,2zm-19 3c0,-1 1,-2 1,-3 1,-1 4,-2 6,-2 0,2 -1,4 -2,4 -1,1 -3,1 -5,1zm63 -4c-1,2 -1,3 -1,4 -1,0 -2,-1 -4,-2l5 -2zm5 3c0,0 1,1 1,1 -2,1 -3,2 -4,4 -1,-1 -1,-1 -3,-1 0,0 -1,1 -2,2 -2,-3 -4,-5 -5,-6 1,0 1,0 2,-1 3,2 5,4 6,2 0,-1 0,-2 0,-4 1,0 2,0 2,0 1,0 -2,1 0,4 1,1 3,0 3,-1zm-55 -2c0,0 -1,1 -2,1 0,0 -1,-1 -1,-2 1,0 2,0 3,1zm26 -2c-1,1 -2,1 -4,2 -1,0 -4,-1 -5,-1 0,0 0,-1 0,-2 4,1 5,2 9,0 0,0 0,1 0,1zm-1 7c6,-1 5,-1 3,-5 1,-1 2,-1 2,-3 3,1 7,3 10,5 2,1 2,2 4,3 1,1 1,2 2,3 1,2 1,2 1,3 2,4 3,5 4,10 0,2 2,11 1,13 -3,0 -6,0 -7,3 0,2 5,3 6,3 -2,3 -2,3 -5,6 -1,1 -3,1 -4,2 -1,0 -8,0 -9,0 -2,-1 -3,-1 -4,-2 -11,-6 -15,3 -25,1 -2,0 -5,-1 -7,-2 -2,-2 -4,-5 -4,-7 1,-1 6,-1 6,-2 1,-2 0,-3 -1,-3 -1,-1 -2,-1 -3,-1l-3 0c0,-6 0,-8 3,-15 0,-1 1,-4 2,-5 1,-2 2,-4 3,-5 2,0 6,-1 3,-4 1,-1 2,-1 2,-2 2,2 3,3 6,3 2,-1 1,-4 1,-6 7,-4 3,1 2,6 6,2 5,2 11,1zm4 -7c0,1 0,1 -1,1l-1 -3 2 1c0,0 0,1 0,1zm-12 -1c1,-1 3,-6 4,-6 3,0 4,3 5,5 -1,1 -3,1 -4,1 -2,1 -3,0 -5,0zm-24 76c0,-1 -1,-1 -2,-1 -1,0 -1,1 -1,1 0,2 0,3 -1,4 -3,1 -1,2 -5,2 -2,-4 -5,-3 -4,0 0,1 1,3 1,4 0,1 -1,2 -1,4 1,1 1,1 1,2 0,1 -1,2 1,6 2,5 8,7 13,5 3,-1 5,-3 6,-6 0,-1 2,-4 3,-4 3,-2 9,2 14,3 8,1 12,-1 15,-3 0,0 3,3 7,5 1,2 1,3 2,4 5,3 9,3 13,1 3,-1 5,-6 5,-9 0,-2 -1,-3 -1,-5 0,0 0,-1 0,-2 1,-1 0,-1 1,-2 0,-1 0,-1 0,-3l0 -1 1 0c0,0 1,-1 1,-1l2 -4c0,0 0,-1 1,-1 2,-5 7,-12 11,-15 2,-2 4,-4 7,-5 1,0 2,1 3,1 5,1 5,1 6,-2 1,-3 4,0 4,-5 0,-2 0,-3 2,-3 1,-1 2,-1 2,-2 0,-1 0,-2 0,-3 0,-1 -1,-3 0,-5 1,-1 3,-1 3,-4 0,-2 -2,-3 -2,-5 -2,-3 -1,-7 -4,-7 -1,0 -2,7 -6,12 -8,12 -16,12 -26,16 -3,2 -7,3 -9,5 -4,3 -5,4 -8,7 -1,-2 -4,-8 -6,-8 1,-1 3,-1 6,-4 1,-1 3,-3 4,-5 6,1 7,-5 1,-6 0,0 -1,0 -1,0 0,-1 1,-3 0,-5 0,-1 1,-1 2,-2 3,-7 7,-21 1,-28 -2,-4 -10,1 -13,3 -1,-1 -2,-2 -4,-2 -2,-2 -4,-3 -7,-3 -2,-1 -4,-1 -5,-2 0,0 -2,-5 -5,-5 -2,0 -3,3 -4,5 -2,1 -6,2 -8,3 -6,3 -3,3 -6,1 -4,-1 -12,-3 -15,0 -2,1 -2,6 -2,9 0,12 5,14 6,24 -6,1 -6,6 0,6 2,8 6,9 10,10 1,6 -11,2 -12,1 -2,-2 -2,-5 -3,-6 -1,-1 -2,-1 -2,-1 -1,-1 -1,-2 -2,-2 0,0 0,2 0,2 -2,2 -1,4 -2,4 0,0 -2,0 -2,0 -1,1 -2,0 -3,0 -1,0 1,2 1,3 0,2 1,2 1,3 -1,1 -1,1 -1,1 -1,0 -2,1 -3,1 1,1 3,1 4,1 0,3 1,3 5,3 2,0 10,3 12,7 1,5 -1,7 -2,8z"/>
    <path class="fil20" d="M95 178l3 1c5,2 10,3 15,2 4,-1 7,-4 9,-7 2,-2 2,-6 2,-8 0,-8 -3,-14 -3,-23 -1,0 -3,1 -6,1 -8,1 -14,0 -19,-2 0,4 0,7 -1,10 -1,4 -3,8 -3,12 -1,6 0,12 3,14z"/>
    <path class="fil14" d="M166 131c1,0 2,0 3,1 3,1 1,5 -1,6 -2,1 -4,-1 -4,-3 -1,-2 1,-3 2,-4zm18 -24c-1,0 -2,2 -3,4 0,1 -1,2 -1,3 -1,2 -1,1 0,3 0,2 -1,4 -1,5 -2,2 -3,2 -5,2 -3,2 -10,6 -13,8 0,2 0,5 -3,5 -3,1 -4,-1 -5,-3 -2,1 -7,3 -9,5 -2,1 -8,5 -9,6 -1,2 0,2 1,5 1,2 2,3 3,5 1,2 1,4 2,6 0,1 1,0 1,2 1,2 1,4 -2,3 0,0 0,-1 -1,0 0,0 2,1 2,2 1,-1 2,-2 2,-3 2,-1 2,-1 4,0 0,-1 6,-9 6,-11 2,-2 4,-5 5,-6 -1,-2 -1,-2 -1,-4 2,-7 6,-4 9,-3 1,-1 2,-1 3,-2 1,-1 3,-3 4,-4 0,-5 3,-10 8,-9 0,-2 3,-9 3,-11 -1,1 -3,0 -3,-2 1,-3 3,-1 4,-1 0,0 0,0 0,-1 0,-1 0,-3 -1,-4z"/>
    <path class="fil18" d="M65 136c-1,1 -2,2 0,5 1,1 -1,1 -1,2 0,2 1,3 2,3 2,1 2,0 7,2 3,1 7,2 8,6 0,1 1,2 1,4 -1,3 -2,4 -2,5 0,1 0,2 0,3 3,1 2,1 3,2 1,-1 6,-9 5,0 -1,1 -1,1 -1,3 0,1 -1,2 -1,3 0,1 0,6 0,8 2,-2 2,-3 5,-4 1,0 3,0 3,0 0,-1 -3,-3 -3,-5 -2,-9 1,-13 3,-21 1,-2 1,-8 1,-10 -3,-1 -5,-5 -7,-5 0,2 1,3 -1,4 -1,0 -1,0 -2,0 -6,-1 -9,-2 -10,-4 -1,-1 -1,-3 -2,-4 -1,-1 -5,-3 -5,1 0,2 -2,1 -3,2z"/>
    <path class="fil14" d="M126 183c-1,-2 0,-5 0,-8 1,-2 0,-3 1,-6 1,-1 0,-5 2,-6 1,0 4,2 4,3l0 0c1,0 1,-1 1,-2 0,-1 0,0 0,-1 -2,-3 -3,-4 -4,-7 -2,-5 -2,-4 -3,-10 0,-3 0,-5 0,-8 0,0 -1,1 -4,3 0,0 -1,1 -2,2 0,9 5,19 3,28 -1,2 -1,4 -3,5 0,1 -2,2 -1,2 0,1 2,3 6,5z"/>
    <path class="fil14" d="M72 181c-1,-10 0,13 0,0zm-2 -10c2,0 3,1 2,2 0,1 -1,2 -2,2 -2,1 -3,-3 0,-4zm13 -1c2,-1 3,3 1,4 -1,0 -3,-3 -1,-4zm-7 -3c1,0 3,0 4,1 1,1 0,2 -1,3 -1,0 -2,0 -3,0 -1,-1 -1,-3 0,-4zm-8 12c0,2 0,3 0,4 1,4 6,6 10,6 4,0 7,-3 8,-6 0,-3 0,-5 -1,-8 0,-3 3,-3 1,-6 -1,-2 -2,0 -3,-1 -2,0 -1,0 -2,-1 -2,-2 -5,-1 -6,-1 -1,1 -1,2 -2,3 -1,1 -5,-1 -6,5 0,1 0,2 1,3 0,1 0,0 0,2z"/>
    <path class="fil14" d="M129 181c-1,-2 1,-4 2,-4 1,-1 1,-1 2,-1 1,-1 2,-3 4,-2 1,0 2,0 2,1 1,2 0,1 2,2 0,0 1,1 1,1 2,3 1,5 -1,6 -1,1 -3,2 -4,1 -2,0 -3,0 -5,-1 -1,0 -3,-2 -3,-3zm12 -10c3,-2 4,3 2,4 -3,1 -5,-3 -2,-4zm-11 -1c1,0 2,1 2,2 0,1 0,3 -2,3 -1,-1 -4,-3 0,-5zm6 -2c2,-1 4,4 2,5 -4,1 -5,-4 -2,-5zm8 17c2,-8 0,-7 0,-10 0,-1 1,-3 0,-4 0,-2 -2,-2 -3,-2 -1,-1 -1,-2 -3,-2 -2,0 -3,0 -4,1 -3,2 -5,-2 -7,3 0,2 0,3 0,5 -1,3 -1,9 2,12 2,1 6,2 9,2 2,0 6,-3 6,-5z"/>
    <path class="fil14" d="M112 144c3,0 8,-1 11,-3 1,-1 3,-2 3,-3 -5,1 -9,-1 -12,-2 -5,5 -13,1 -13,-1 -3,2 -8,2 -11,2 4,6 16,7 22,7z"/>
    <path class="fil14" d="M128 147c0,3 5,16 7,16 1,0 1,-2 3,-2 1,1 1,1 1,2 2,1 1,-4 -2,-11 -2,-4 -6,-10 -8,-13 -1,0 -1,0 -1,0 -1,0 -1,3 0,8z"/>
    <path class="fil21" d="M168 140c2,0 7,3 8,2 1,-1 1,-3 2,-3 0,-1 2,-1 3,-1 1,-2 0,-6 2,-7 1,-1 2,0 2,-2 1,-1 0,-3 0,-4 0,-5 2,-3 3,-6 1,-2 -2,-4 -2,-5 -5,17 -8,18 -18,26z"/>
    <path class="fil22" d="M159 75c0,0 0,0 0,0 0,0 0,0 0,0l1 -1c0,-1 -1,-2 0,-3 1,-1 2,-1 3,-1 2,1 2,4 -1,5l0 1c1,0 2,0 3,-1l0 -1c1,1 1,3 1,5 -1,-1 -1,-1 -1,-1 0,0 0,0 0,0 0,0 0,-1 0,-1l-1 -1c0,0 0,1 0,1l-1 0c0,1 1,1 2,1 -1,2 -1,3 -1,3 -1,0 -1,1 -2,1 -1,1 -2,1 -3,0 -2,0 -2,-1 -3,-2 -1,-1 0,0 0,-1 -1,0 -1,0 -1,-1 0,-2 0,-6 2,-7 1,-1 2,-1 2,-1 0,0 0,0 0,1 -1,1 0,1 -1,2 0,1 0,0 0,1l1 1zm-6 1c-1,9 10,10 13,6 1,-3 2,-9 -1,-13 -4,-5 -10,-1 -12,7z"/>
    <path class="fil20" d="M80 103c2,-3 -3,-8 -7,-9 0,5 1,10 3,15 0,1 1,4 1,4 2,-5 2,-5 3,-10z"/>
    <path class="fil20" d="M139 115c3,-3 6,-21 3,-22 -1,0 -3,3 -3,4 -3,5 -3,7 -2,12 1,2 1,4 2,6z"/>
    <path class="fil22" d="M136 175c3,0 2,1 3,2 0,1 2,1 3,2 0,3 -1,3 -2,4 -2,1 -2,1 -4,1 -2,0 -6,-2 -6,-4 1,-2 2,-2 3,-3 2,0 2,-1 3,-2zm-7 6c0,1 2,3 3,3 2,1 3,1 5,1 1,1 3,0 4,-1 2,-1 3,-3 1,-6 0,0 -1,-1 -1,-1 -2,-1 -1,0 -2,-2 0,-1 -1,-1 -2,-1 -3,-1 -3,1 -4,2 -1,0 -1,0 -2,1 -1,0 -3,2 -2,4z"/>
    <path class="fil22" d="M121 102c-2,1 5,3 5,3 3,1 3,1 4,0 0,-1 1,-3 0,-3 -4,0 -8,-1 -9,0z"/>
    <path class="fil23" d="M161 79c1,0 1,0 1,1 -1,0 0,0 -1,0 0,-1 0,-1 0,-1zm-4 -3c0,0 1,0 1,1 -1,0 -1,0 -1,-1zm-2 2c1,0 1,0 2,0 0,1 0,1 -1,1l0 1c1,1 1,2 3,2 1,1 2,1 3,0 1,0 1,-1 2,-1 -1,0 -1,0 -1,0 0,-1 0,0 -1,-1 0,-1 0,-1 0,-2 1,0 1,0 1,-1 0,0 -1,0 -1,0 0,-1 1,-1 0,-1 0,1 0,1 0,2 0,0 0,0 0,0l0 1c-1,0 -1,0 -2,0 0,0 0,0 -1,0 0,1 0,0 0,0l0 0c-1,-1 0,0 0,-2l0 1c-1,0 -1,0 -1,0l0 -2c0,-1 0,-1 -1,-2 1,1 1,1 2,1 0,0 -1,0 0,0l-1 -1c0,-1 0,0 0,-1 1,-1 0,-1 1,-2 0,-1 0,-1 0,-1 0,0 -1,0 -2,1 -2,1 -2,5 -2,7z"/>
    <path class="fil16" d="M103 86c2,1 8,1 9,-1 -1,-2 -2,-5 -5,-5 -1,0 -3,5 -4,6z"/>
    <path class="fil24" d="M142 126c0,-2 -10,-3 -10,-1 -1,3 9,5 10,1z"/>
    <path class="fil24" d="M85 124c0,-4 -12,-3 -11,0 0,3 10,2 11,0z"/>
    <path class="fil24" d="M102 136c2,3 10,2 12,-1 -4,-2 -10,-1 -12,1z"/>
    <path class="fil22" d="M169 133c0,2 -1,5 -3,3 -2,-2 1,-5 3,-3zm-3 -2c-1,1 -3,2 -2,4 0,2 2,4 4,3 2,-1 4,-6 1,-7 -1,0 -2,0 -3,0z"/>
    <path class="fil21" d="M174 135c2,-1 6,-6 6,-9 -2,0 -4,1 -5,2 0,2 -2,4 -1,7z"/>
    <path class="fil21" d="M73 92c1,0 4,0 5,-1 1,0 2,-2 2,-4 -4,0 -7,1 -7,5z"/>
    <path class="fil21" d="M158 147c2,-1 5,-4 7,-5 -2,-1 -4,-2 -6,-1 -1,1 -2,4 -1,6z"/>
    <path class="fil21" d="M154 134c0,2 1,3 2,3 1,0 2,0 3,-1 1,0 2,-2 1,-3 0,-1 0,-1 -2,0 -1,0 -3,1 -4,1z"/>
    <path class="fil21" d="M92 90c0,2 7,5 5,-3 -1,0 -4,2 -5,3z"/>
    <path class="fil22" d="M118 93c0,-1 -1,-4 0,-4 1,0 3,1 3,1 0,2 -2,3 -3,3zm-1 -5c-1,4 0,8 4,5 1,-1 2,-3 1,-3 -2,-1 -3,-2 -5,-2z"/>
    <path class="fil22" d="M115 98c0,0 0,1 0,0 0,0 0,-1 0,-1 0,0 0,-1 0,-1 0,0 1,0 1,0 1,0 1,0 1,0 0,1 -1,2 -2,2zm-1 -3c0,0 -1,3 0,4 1,2 2,0 3,0 2,-2 2,-4 0,-4 -1,-1 -2,-1 -3,0z"/>
    <path class="fil21" d="M136 103c0,-1 0,-3 1,-4 0,-1 1,-2 1,-3 -1,0 -2,0 -3,0 0,0 -1,1 -1,2 0,1 1,4 2,5z"/>
    <path class="fil21" d="M170 133c-4,-4 -7,2 -5,3 1,1 2,2 3,1 1,0 3,-3 2,-4z"/>
    <path class="fil22" d="M138 170c0,1 0,1 -1,1 -1,1 -1,0 -1,0 -1,-2 1,-2 2,-1zm-2 -2c-3,1 -2,6 2,5 2,-1 0,-6 -2,-5z"/>
    <path class="fil22" d="M71 172c0,1 0,2 -1,2 -1,-1 0,-1 0,-1l1 -1zm-1 -1c-3,1 -2,5 0,4 1,0 2,-1 2,-2 1,-1 0,-2 -2,-2z"/>
    <path class="fil22" d="M141 173c0,-1 0,-1 1,-1 0,0 1,1 1,1 0,1 -1,1 -2,0zm0 -2c-3,1 -1,5 2,4 2,-1 1,-6 -2,-4z"/>
    <path class="fil25" d="M161 76c0,0 0,1 0,1 -2,2 -3,-2 0,-1zm-2 -1c-1,0 0,0 0,0 -1,1 0,0 -1,1l0 2c0,0 0,0 1,0l0 -1c0,2 -1,1 0,2l0 -1 0 1c1,0 1,0 1,0 1,0 1,0 2,0l0 -1c0,0 0,0 0,0 0,-1 0,-1 0,-2l0 0 0 -1c-1,0 -1,0 -2,-1l-1 1c0,0 0,0 0,0 0,0 0,0 0,0z"/>
    <path class="fil22" d="M129 172c0,0 1,-1 2,-1 0,1 0,2 0,2 -1,0 -1,0 -2,-1zm1 -2c-4,2 -1,4 0,5 2,0 2,-2 2,-3 0,-1 -1,-2 -2,-2z"/>
    <path class="fil26" d="M163 78c1,0 1,0 1,1 -1,0 -1,-1 -1,-1zm-1 -2l0 0c1,0 0,0 0,1 0,0 1,0 1,0 0,1 0,1 -1,1 1,1 1,1 2,2 -1,1 0,1 -1,1 0,0 0,0 1,0 0,0 0,-1 1,-3 -1,0 -2,0 -2,-1l1 0c0,0 0,-1 0,-1l1 1c0,0 0,1 0,1 0,0 0,0 0,0 0,0 0,0 1,1 0,-2 0,-4 -1,-5l0 1c-1,1 -2,1 -3,1z"/>
    <path class="fil21" d="M118 93c1,0 3,-1 3,-3 0,0 -2,-1 -3,-1 -1,0 0,3 0,4z"/>
    <path class="fil27" d="M128 168c1,0 2,0 3,0 1,-1 1,0 1,-1 0,-1 0,-1 -1,-1 -2,-2 -3,-2 -3,2z"/>
    <path class="fil28" d="M179 116c-1,3 -4,6 -5,7 2,1 4,0 4,-1 2,-2 1,-4 1,-6z"/>
    <path class="fil22" d="M110 125c1,1 4,2 4,0 1,-2 -3,-1 -4,0z"/>
    <path class="fil27" d="M135 165l3 1c0,-2 0,-3 0,-4 -2,0 -3,2 -3,3z"/>
    <path class="fil29" d="M131 90c3,3 5,3 5,-2l-5 2 0 0z"/>
    <path class="fil21" d="M141 90c0,-1 -1,-2 -1,-2 -1,0 -2,1 -2,3 1,1 2,0 3,-1z"/>
    <path class="fil17" d="M86 89c-1,-1 -2,-1 -3,-1 0,1 1,2 1,2 1,0 2,-1 2,-1z"/>
    <path class="fil17" d="M115 98c1,0 2,-1 2,-2 0,0 0,0 -1,0 0,0 -1,0 -1,0 0,0 0,1 0,1 0,0 0,1 0,1 0,1 0,0 0,0z"/>
    <path class="fil30" d="M138 170c0,-3 -4,-2 -3,1 0,1 1,2 2,2 2,-1 2,-2 1,-3z"/>
    <path class="fil31" d="M161 76c-3,-1 -2,3 0,1 0,0 0,-1 0,-1z"/>
    <path class="fil17" d="M114 88c1,0 1,0 1,-1 0,0 0,-1 0,-1l-2 -1 1 3z"/>
    <path class="fil30" d="M142 175c1,0 1,-1 2,-1 0,-2 -1,-4 -2,-3 -2,0 -2,2 -2,2 0,1 1,2 2,2z"/>
    <path class="fil30" d="M69 172c-1,1 -1,2 0,3 3,1 4,-2 2,-4 -1,0 -2,0 -2,1z"/>
    <path class="fil32" d="M128 173c1,0 1,2 3,1 1,0 1,-2 0,-3 -2,-1 -3,1 -3,2z"/>
    <path class="fil31" d="M163 81c1,0 0,0 1,-1 -1,-1 -1,-1 -2,-2 0,1 0,1 0,2 1,1 1,0 1,1z"/>
    <path class="fil29" d="M76 78c0,0 0,0 1,-1 -1,0 0,0 -1,-1 0,1 0,2 0,2z"/>
    <path class="fil33" d="M155 78c0,1 0,1 1,1 0,1 -1,0 0,1l0 -1c1,0 1,0 1,-1 -1,0 -1,0 -2,0z"/>
    <path class="fil34" d="M158 76c1,-1 0,0 1,-1 -1,0 -1,0 -2,-1 1,1 1,1 1,2z"/>
    <path class="fil34" d="M157 76c0,1 0,1 1,1 0,-1 -1,-1 -1,-1z"/>
    <path class="fil34" d="M163 78c0,0 0,1 1,1 0,-1 0,-1 -1,-1z"/>
    <path class="fil35" d="M159 79l0 0c0,0 0,1 0,0l0 -1 0 1z"/>
    <path class="fil33" d="M162 80c0,-1 0,-1 -1,-1 0,0 0,0 0,1 1,0 0,0 1,0z"/>
    <path class="fil36" d="M59 201c0,0 0,0 0,-1 0,0 0,0 0,0 0,0 1,0 0,0 0,1 0,0 0,1 1,0 0,0 0,0z"/>
    <path class="fil37" d="M186 150c1,0 0,0 1,0 -1,0 0,0 -1,0 0,-1 1,0 0,0z"/>
    <path class="fil38" d="M59 201l0 -1c0,0 0,0 0,0 0,1 0,1 0,1z"/>
    <path class="fil39" d="M133 166l0 0c0,1 0,0 0,0z"/>
    <path class="fil22" d="M99 99c-1,-1 -1,-4 0,-4 1,0 3,1 3,1 0,2 -2,3 -3,3zm-1 -5c-2,3 0,8 4,5 1,-1 2,-3 0,-4 -1,0 -2,-1 -4,-1z"/>
    <path class="fil21" d="M99 99c1,0 3,-1 3,-3 0,0 -2,-1 -3,-1 -1,0 -1,3 0,4z"/>
    <path class="fil22" d="M100 89c0,-1 0,0 0,-1 0,0 0,0 0,-1 0,0 0,0 0,-1 0,0 1,0 1,0 0,0 1,0 1,1 0,0 -1,1 -2,2zm-1 0c1,1 2,0 3,0 1,-2 1,-4 -1,-4 -2,0 -3,1 -2,4z"/>
    <path class="fil17" d="M100 89c0,0 1,0 2,-2 1,-2 -1,-1 -2,-1 -2,1 -1,3 0,3z"/>
    <circle class="fil12 str2" cx="160" cy="77" r="1"/>
    <circle class="fil40 str2" cx="162" cy="72" r="3"/>
    <circle class="fil40 str2" cx="159" cy="79" r="1"/>
    <path class="fil22" d="M176 82c0,0 0,0 0,0 0,0 0,0 0,0l1 -1c0,-1 -1,-2 0,-3 1,-1 2,-1 3,-1 2,1 2,4 -1,5l0 1c1,0 2,0 3,-1l1 -1c0,1 0,3 0,5 -1,-1 -1,-1 -1,-1 0,0 0,0 0,0 0,0 0,-1 0,-1l-1 -1c0,0 0,1 0,1l-1 0c1,1 1,1 2,1 -1,2 -1,3 -1,3 -1,1 -1,1 -2,1 -1,1 -1,1 -3,0 -2,0 -2,-1 -3,-2 0,-1 0,0 0,-1 0,0 0,0 0,-1 0,-2 -1,-6 1,-7 1,-1 2,-1 3,-1 -1,0 -1,1 -1,1 0,1 0,1 0,2 -1,1 0,0 -1,1l1 1zm-5 1c-2,9 9,10 12,6 2,-3 2,-9 -1,-13 -4,-5 -10,-1 -11,7z"/>
    <path class="fil23" d="M178 86c1,0 1,0 1,1 0,0 0,0 0,0 -1,0 -1,-1 -1,-1zm-4 -3c1,0 1,0 1,1 -1,0 -1,0 -1,-1zm-1 2c0,0 0,0 1,0 0,1 0,1 -1,1l0 1c1,1 1,2 3,2 2,1 2,1 3,0 1,0 1,0 2,-1 -1,0 0,0 -1,0 0,-1 0,0 -1,-1 0,-1 0,-1 0,-2 1,0 1,0 1,-1 0,0 0,0 0,0 -1,-1 0,-1 -1,-1 0,1 0,1 0,2 0,0 0,0 0,0l0 1c-1,0 -1,0 -2,0 0,0 0,0 0,0 -1,1 0,0 -1,0l0 0c0,-1 0,0 0,-2l0 1c-1,0 0,0 -1,0l0 -2c0,-1 0,-1 -1,-2 1,1 1,1 2,1 0,0 0,0 0,0l-1 -1c1,-1 0,0 1,-1 0,-1 0,-1 0,-2 0,0 0,-1 1,-1 -1,0 -2,0 -3,1 -2,1 -1,5 -1,7z"/>
    <path class="fil25" d="M178 83c0,0 0,1 0,1 -2,2 -2,-2 0,-1zm-2 -1c0,0 0,0 0,0 0,1 0,0 -1,1l0 2c1,0 0,0 1,0l0 -1c0,2 0,1 0,2l0 -1 1 1c0,0 0,0 0,0 1,0 1,0 2,0l0 -1c0,0 0,0 0,0 0,-1 0,-1 0,-2l0 0 0 -1c-1,0 -1,0 -2,-1l-1 1c0,0 0,0 0,0 0,0 0,0 0,0z"/>
    <path class="fil26" d="M180 85c1,0 1,0 1,1 -1,0 -1,-1 -1,-1zm-1 -2l0 0c1,0 0,0 1,1 0,0 0,0 0,0 0,1 0,1 -1,1 1,1 1,1 2,2 0,1 0,1 -1,1 1,0 0,0 1,0 0,0 0,-1 1,-3 -1,0 -1,0 -2,-1l1 0c0,0 0,-1 0,-1l1 1c0,0 0,1 0,1 0,0 0,0 0,0 0,0 0,0 1,1 0,-2 0,-4 0,-5l-1 1c-1,1 -2,1 -3,1z"/>
    <path class="fil31" d="M178 83c-2,-1 -2,3 0,1 0,0 0,-1 0,-1z"/>
    <path class="fil31" d="M180 88c1,0 1,0 1,-1 -1,-1 -1,-1 -2,-2 0,1 0,1 0,2 1,1 1,0 1,1z"/>
    <path class="fil33" d="M173 85c0,1 0,1 0,1 0,1 0,0 0,1l0 -1c1,0 1,0 1,-1 -1,0 -1,0 -1,0z"/>
    <path class="fil34" d="M175 83c1,-1 1,0 1,-1 -1,0 -1,0 -2,-1 1,1 1,1 1,2z"/>
    <path class="fil34" d="M174 83c0,1 0,1 1,1 0,-1 0,-1 -1,-1z"/>
    <path class="fil34" d="M180 85c0,0 0,1 1,1 0,-1 0,-1 -1,-1z"/>
    <path class="fil35" d="M176 86l0 0c1,0 0,1 1,0l-1 -1 0 1z"/>
    <path class="fil33" d="M179 87c0,-1 0,-1 -1,-1 0,0 0,1 1,1 0,0 0,0 0,0z"/>
    <circle class="fil12 str2" cx="177" cy="84" r="1"/>
    <circle class="fil40 str2" cx="179" cy="79" r="3"/>
    <circle class="fil40 str2" cx="176" cy="86" r="1"/>
    <path class="fil7 str2" d="M100 123c0,0 7,-5 17,0"/>
    <path class="fil22" d="M107 125c-1,1 -5,2 -5,0 0,-2 4,-1 5,0z"/>
    <circle class="fil41" cx="183" cy="114" r="2"/>
    <path class="fil20" d="M136 174c-2,1 -1,2 -3,3 -2,0 -3,1 -4,3 -1,3 4,5 7,5 3,0 7,-2 6,-6 0,-2 -2,-1 -3,-2 -1,-1 -1,-4 -3,-3z"/>
    <path class="fil22" d="M80 169c-2,1 -3,2 -3,0 0,-1 0,-1 1,-1l2 1zm0 -1c-2,-3 -6,0 -4,3 0,0 2,1 3,0 2,-1 2,-2 1,-3z"/>
    <path class="fil30" d="M78 167c-1,0 -2,1 -2,2 0,3 4,3 4,0 0,-1 -1,-2 -2,-2z"/>
    <path class="fil22" d="M83 173c0,-1 0,-2 0,-2 1,0 1,1 1,1 0,1 -1,1 -1,1zm0 -3c-3,1 -1,5 1,4 2,-1 1,-5 -1,-4z"/>
    <path class="fil30" d="M83 174c1,0 2,-1 2,-1 0,-2 -1,-3 -2,-3 -1,0 -1,2 -1,2 0,2 1,2 1,2z"/>
    <path class="fil22" d="M77 175c3,0 2,1 3,2 1,1 3,0 3,2 1,2 0,3 -1,4 -2,1 -2,1 -4,1 -2,0 -7,-2 -6,-4 1,-2 1,-2 3,-3 2,0 2,-1 2,-2zm-6 6c0,1 2,3 3,3 1,1 3,1 5,1 1,0 3,0 3,-1 2,-1 4,-3 2,-6 0,-1 -1,-1 -1,-2 -2,0 -2,1 -2,-1 0,-1 -1,-2 -2,-2 -4,0 -3,2 -4,3 -1,0 -1,0 -2,0 -1,1 -3,3 -2,5z"/>
    <path class="fil20" d="M77 174c-1,1 0,2 -2,2 -2,1 -3,1 -4,4 -1,2 4,5 7,5 3,0 7,-2 6,-6 0,-2 -2,-2 -3,-2 -1,-1 -1,-4 -4,-3z"/>
    <path class="fil22" d="M68 144c-1,1 -2,1 -2,0 1,0 1,0 1,-1l1 1zm1 -1c-2,-2 -5,0 -4,2 1,1 2,1 3,1 1,-1 1,-2 1,-3z"/>
    <path class="fil30" d="M67 143c-1,0 -2,0 -2,1 0,3 4,2 4,0 0,-1 -1,-1 -2,-1z"/>
    <path class="fil22" d="M67 137c0,1 0,2 -1,1 0,0 0,0 0,-1l1 0zm0 -1c-3,0 -3,3 -1,3 1,0 2,0 2,-1 0,-1 0,-2 -1,-2z"/>
    <path class="fil30" d="M65 137c0,0 0,1 0,2 2,1 3,-1 2,-2 0,-1 -1,-1 -2,0z"/>
    <path class="fil22" d="M72 135c-1,0 -2,0 -2,-1 1,0 1,0 1,0l1 1zm0 -1c0,-2 -3,-2 -3,0 0,1 1,2 2,2 1,0 1,-1 1,-2z"/>
    <path class="fil30" d="M71 133c0,0 -1,0 -2,0 0,2 2,3 3,2 0,-1 0,-1 -1,-2z"/>
    <path class="fil22" d="M69 140c0,-1 1,-1 2,-1 0,-1 0,-1 1,-1 1,0 2,0 2,1 0,1 0,1 0,2 0,1 -2,3 -3,3 -1,-1 -1,-1 -1,-2 0,-1 0,-1 -1,-2zm2 4c1,0 2,0 3,-1 0,-1 0,-1 1,-2 0,-1 0,-2 0,-2 -1,-2 -2,-2 -3,-2 -1,0 -1,0 -1,1 -1,0 0,0 -1,0 -1,0 -1,1 -2,1 0,2 1,2 1,2 0,1 0,1 0,2 1,0 1,2 2,1z"/>
    <path class="fil20" d="M69 140c0,1 1,1 1,2 0,1 0,2 1,2 1,1 3,-2 3,-3 1,-1 0,-4 -2,-4 -1,0 -1,1 -2,1 0,1 -2,1 -1,2z"/>
    <path class="fil42" d="M93 160c-1,4 -6,18 7,20 0,0 -4,-7 -5,-10 -1,-3 -2,-10 -2,-10z"/>
    <path class="fil43" d="M118 144c0,0 -7,3 -22,-2 0,0 0,7 -1,10 0,2 8,-4 23,-8z"/>
    <path class="fil44" d="M146 138c0,0 -9,12 -7,18 3,6 -5,-9 -5,-9 0,0 5,-6 12,-9z"/>
    <path class="fil18" d="M98 136c0,0 -2,1 -8,1 0,0 3,4 6,5 4,2 -1,-2 2,-6z"/>
    <path class="fil43" d="M81 103c1,-4 -4,-8 -8,-10 0,2 0,3 0,4 3,1 6,4 7,7 0,0 0,-1 1,-1z"/>
    <path class="fil43" d="M139 115l0 0 -1 0c1,0 1,0 1,0zm4 -18c0,-3 0,-4 -1,-4 -1,0 -3,3 -3,4 -3,5 -3,7 -2,12 0,-3 1,-5 2,-8 1,-1 3,-4 4,-5 0,0 0,0 0,1zm-5 15l0 1c0,0 0,-1 0,-1l0 0z"/>
    <path class="fil18" d="M127 174c-1,0 -3,5 -6,6 0,0 5,3 5,3 0,0 0,-2 0,-4 0,-2 1,-5 1,-5z"/>
    <path class="fil22" d="M96 102c2,1 -4,3 -5,3 -3,1 -3,1 -4,0 0,-1 0,-3 0,-3 4,0 8,-1 9,0z"/>
    <path class="fil12" d="M99 112c-2,-1 -4,-1 -7,0 -9,2 -3,5 1,3 3,-2 1,-2 6,-3zm-2 -2c2,1 2,1 3,2 2,1 -1,1 -2,1 -3,1 -4,3 -8,3 -2,0 -6,-1 -3,-3 2,-1 7,-3 10,-3z"/>
    <path class="fil12" d="M99 112c-5,1 -3,1 -6,3 -4,2 -10,-1 -1,-3 3,-1 5,-1 7,0z"/>
    <path class="fil12" d="M118 112c1,-1 4,-1 7,0 8,2 3,5 -1,3 -3,-2 -1,-2 -6,-3zm2 -2c-2,1 -3,1 -4,2 -1,1 1,1 3,1 3,1 3,3 8,3 2,0 6,-1 2,-3 -2,-1 -6,-3 -9,-3z"/>
    <path class="fil12" d="M118 112c5,1 3,1 6,3 4,2 9,-1 1,-3 -3,-1 -6,-1 -7,0z"/>
   </g>
  </g>
  <path class="fil7" d="M84 135c-1,0 5,6 15,8 4,1 14,1 18,1 4,0 9,-5 11,-7 6,-3 13,-5 16,-10 10,-15 11,-28 11,-28l-25 -21 -46 0 -23 15 13 37 10 5z"/>
  <ellipse class="fil45 str3" cx="88" cy="142" rx="12" ry="6"/>
  <ellipse class="fil45 str3" cx="126" cy="143" rx="10" ry="5"/>
 </g>
</svg>
