<?xml version="1.0" encoding="UTF-8"?>
<!DOCTYPE svg PUBLIC "-//W3C//DTD SVG 1.1//EN" "http://www.w3.org/Graphics/SVG/1.1/DTD/svg11.dtd">
<!-- Creator: CorelDRAW X7 -->
<svg xmlns="http://www.w3.org/2000/svg" xml:space="preserve" width="22.0678mm" height="39.8988mm" version="1.1" style="shape-rendering:geometricPrecision; text-rendering:geometricPrecision; image-rendering:optimizeQuality; fill-rule:evenodd; clip-rule:evenodd"
viewBox="0 0 58 106"
 xmlns:xlink="http://www.w3.org/1999/xlink">
 <defs>
  <style type="text/css">
   <![CDATA[
    .fil4 {fill:#1C3D02}
    .fil17 {fill:#1C4302}
    .fil12 {fill:#224403}
    .fil98 {fill:#233B06}
    .fil6 {fill:#244A02}
    .fil50 {fill:#274908}
    .fil56 {fill:#2A5705}
    .fil69 {fill:#2B5C02}
    .fil25 {fill:#2B6402}
    .fil26 {fill:#2D6501}
    .fil8 {fill:#2D6504}
    .fil23 {fill:#2D6506}
    .fil11 {fill:#306604}
    .fil20 {fill:#316502}
    .fil34 {fill:#32640A}
    .fil76 {fill:#326A02}
    .fil79 {fill:#335A06}
    .fil73 {fill:#365917}
    .fil93 {fill:#386616}
    .fil31 {fill:#396909}
    .fil67 {fill:#3C7402}
    .fil3 {fill:#3C7C03}
    .fil36 {fill:#3D7A0A}
    .fil22 {fill:#436E03}
    .fil27 {fill:#437202}
    .fil24 {fill:#446C0A}
    .fil77 {fill:#477715}
    .fil43 {fill:#497707}
    .fil62 {fill:#498403}
    .fil41 {fill:#4B4504}
    .fil123 {fill:#4D6F2D}
    .fil60 {fill:#4D9210}
    .fil105 {fill:#4E532C}
    .fil75 {fill:#4F510B}
    .fil57 {fill:#52A708}
    .fil35 {fill:#534303}
    .fil1 {fill:#537F03}
    .fil32 {fill:#54420B}
    .fil28 {fill:#547D0A}
    .fil18 {fill:#554201}
    .fil0 {fill:#554205}
    .fil110 {fill:#564615}
    .fil49 {fill:#567A16}
    .fil97 {fill:#56A42B}
    .fil130 {fill:#57680B}
    .fil94 {fill:#583D08}
    .fil78 {fill:#587048}
    .fil47 {fill:#588515}
    .fil38 {fill:#588606}
    .fil52 {fill:#594806}
    .fil42 {fill:#599603}
    .fil59 {fill:#634B02}
    .fil92 {fill:#678A16}
    .fil14 {fill:#678C05}
    .fil53 {fill:#679503}
    .fil54 {fill:#68A806}
    .fil87 {fill:#6A5503}
    .fil58 {fill:#6AA916}
    .fil29 {fill:#6BB809}
    .fil70 {fill:#6C8E2D}
    .fil30 {fill:#6CB502}
    .fil10 {fill:#6EB901}
    .fil106 {fill:#70712E}
    .fil84 {fill:#70B216}
    .fil74 {fill:#71730D}
    .fil125 {fill:#718E4F}
    .fil19 {fill:#72BA04}
    .fil127 {fill:#74A750}
    .fil107 {fill:#74AD2C}
    .fil80 {fill:#755B06}
    .fil39 {fill:#75AA06}
    .fil82 {fill:#75B709}
    .fil16 {fill:#76B816}
    .fil101 {fill:#77C205}
    .fil115 {fill:#788F68}
    .fil72 {fill:#78B926}
    .fil9 {fill:#856C0B}
    .fil116 {fill:#866918}
    .fil119 {fill:#877950}
    .fil89 {fill:#88B32E}
    .fil71 {fill:#89CB17}
    .fil85 {fill:#89D418}
    .fil7 {fill:#8A6D06}
    .fil21 {fill:#8A6E01}
    .fil102 {fill:#8A9030}
    .fil68 {fill:#8AC826}
    .fil37 {fill:#8AD601}
    .fil2 {fill:#8BD506}
    .fil33 {fill:#8C6B05}
    .fil124 {fill:#8C936D}
    .fil40 {fill:#8CD313}
    .fil15 {fill:#8CD40B}
    .fil5 {fill:#8CD603}
    .fil108 {fill:#8DB250}
    .fil111 {fill:#8F9317}
    .fil91 {fill:#90AD6E}
    .fil103 {fill:#926B06}
    .fil46 {fill:#93D517}
    .fil81 {fill:#95C96B}
    .fil83 {fill:#95CB27}
    .fil95 {fill:#97C94B}
    .fil66 {fill:#A6D735}
    .fil86 {fill:#A7D550}
    .fil120 {fill:#A99C5E}
    .fil129 {fill:#ABB590}
    .fil45 {fill:#ABEB0A}
    .fil13 {fill:#ADED04}
    .fil128 {fill:#AEB072}
    .fil117 {fill:#AED270}
    .fil104 {fill:#B1E751}
    .fil64 {fill:#B3CF90}
    .fil100 {fill:#B7E58F}
    .fil65 {fill:#B7E86F}
    .fil96 {fill:#B8CEA9}
    .fil132 {fill:#C7B170}
    .fil113 {fill:#C7D9B8}
    .fil121 {fill:#CAD095}
    .fil48 {fill:#CAF373}
    .fil126 {fill:#CCE163}
    .fil109 {fill:#CDE9AC}
    .fil51 {fill:#CDF191}
    .fil122 {fill:#D7F7A8}
    .fil112 {fill:#D8ECD2}
    .fil114 {fill:#DAF8B9}
    .fil88 {fill:#DBF6C7}
    .fil118 {fill:#E6FCB9}
    .fil90 {fill:#E7FAC8}
    .fil63 {fill:#E8F8D7}
    .fil44 {fill:#EAF4E5}
    .fil99 {fill:#ECFDDC}
    .fil131 {fill:#EFF0B2}
    .fil55 {fill:#F3F4EB}
    .fil61 {fill:#F4F4F9}
   ]]>
  </style>
 </defs>
 <g id="圖層_x0020_1">
  <metadata id="CorelCorpID_0Corel-Layer"/>
  <g id="_2173617984288">
   <path class="fil0" d="M29 60l1 0c-1,0 -2,1 -2,3l1 0c0,1 0,0 0,0 -1,2 -2,4 -3,6 0,1 0,1 0,2 0,1 -1,4 -1,5 -1,1 -1,3 -1,4 0,2 0,2 0,4 -1,4 0,4 -1,7l0 0 -1 -4 0 0c-1,0 -1,0 -1,1 0,0 1,0 1,0 0,2 0,4 0,6 0,2 0,4 1,6l0 0 0 1c0,1 1,0 1,2 1,-1 1,0 2,0 0,-1 0,-1 0,-1l0 0 0 0 0 -1 0 0c1,0 0,0 0,0 1,0 1,0 1,0l1 1c0,-1 0,-1 -1,-2 -1,0 0,1 -1,0 1,-1 0,0 1,0l1 0c1,0 1,0 1,0 -1,-3 -2,-6 -4,-7 0,-1 1,-2 1,-4 0,-3 0,-4 0,-4l0 -1c1,0 1,0 1,-1 0,0 0,0 -1,0 0,0 0,0 0,0 0,-3 0,-5 1,-7 -1,0 0,0 -1,0 0,-1 1,-1 2,-1 0,-1 0,0 -1,-1l0 0c0,-1 1,-3 1,-4 2,-5 1,-2 2,-4l0 -1 0 -1 2 -5c0,0 -1,0 -2,0 0,0 0,0 -1,0 0,0 0,0 0,1z"/>
   <path class="fil1" d="M33 57c0,1 0,0 0,1 1,0 1,0 1,0 1,0 0,1 1,1 0,0 0,0 0,0l1 0c0,0 0,0 0,0 1,2 1,1 1,2l2 3c0,1 0,0 0,1 0,0 0,0 0,0 0,0 0,0 -1,-1 0,0 0,0 0,0 -1,0 -1,0 0,1 0,1 1,2 0,3 0,1 1,3 1,4 1,2 2,10 1,12 0,1 0,0 0,1l0 0 0 0c1,0 1,0 1,0l0 -1c0,0 0,0 1,0 0,0 1,-1 1,-1 0,-1 1,-1 1,-2 0,-1 0,0 1,-1 1,-2 1,-2 2,-4 1,-2 1,-4 1,-6l0 0 0 -2c-1,0 -1,0 -2,0 -1,0 -1,1 -2,1 0,0 -1,-1 -1,-2 -2,0 -2,0 -3,-1 0,-2 -1,-4 -2,-5 -1,-1 -1,-2 -2,-2 0,-1 -1,-1 -1,-1 -1,-1 -1,-1 -2,-1 0,0 0,-1 0,0z"/>
   <path class="fil2" d="M32 20l-1 0c0,0 0,1 0,0l-3 0 1 0c0,0 0,0 0,1 0,0 0,0 0,0 0,1 0,2 0,3 1,0 1,1 1,1l1 -1c1,0 -1,0 1,1 0,0 0,0 0,1l0 0c1,0 0,0 1,0 1,0 0,0 1,0 0,0 1,0 1,0l0 1c1,0 3,2 4,3l0 0c1,1 0,1 1,2 0,0 0,0 -1,0l0 0c1,0 1,0 1,1l0 0 1 -1c1,0 1,0 1,0 0,-1 0,-1 0,-1 -1,-1 0,0 -1,0 0,-1 0,-1 1,0 1,0 0,0 0,0l1 2c0,0 0,0 0,0l-1 0 0 1 1 0c-1,0 0,0 -1,0l0 1 1 0 0 0c1,-1 0,-1 2,-1l0 -1 0 -1c0,0 0,0 0,0 0,0 0,0 1,-1 -1,0 -2,-1 -1,-2 -1,0 -1,0 -1,-1 0,0 0,0 1,0l0 1c1,0 0,0 1,0l0 0c0,-1 0,0 0,-1 0,0 -1,0 -1,0 0,-1 0,-1 -1,-1 -1,0 -1,0 -1,0 -1,-1 0,0 -1,0 -1,-1 -1,-1 -1,-1 0,-1 0,0 0,-1l1 0c0,0 0,0 0,0l0 -1 -2 1c0,0 -1,0 1,-1l-1 -1 1 0c-1,0 -2,0 -2,0 -1,0 0,0 -1,0 0,0 0,0 0,0 -1,-1 0,0 -1,-1l1 0c-1,0 -1,0 -1,0 -2,-1 -2,-1 -3,-2 0,0 0,0 -1,0 -1,-1 0,-1 -1,0z"/>
   <path class="fil3" d="M33 5c-2,0 -3,0 -4,1 0,0 -1,1 -1,1 -1,0 -2,1 -2,1l0 2 -1 0c0,0 0,0 0,0l-1 1c0,0 0,0 0,0 0,0 0,0 0,0 0,1 0,1 -1,2l0 1c0,-1 0,0 -1,0 -1,0 0,0 0,0 0,1 -1,2 0,2 2,0 0,0 1,0l0 0c1,0 3,-2 3,-2 1,0 1,0 2,0 0,0 3,-2 5,-2 0,-1 0,-1 2,-1 -1,-1 0,-2 -2,-3l0 -1c1,1 0,1 2,0 0,0 0,0 0,0l1 0c-1,0 -1,0 -1,0 -1,1 -1,1 -1,1 0,1 0,1 2,1 0,1 0,1 1,1 0,0 0,-1 0,0l1 -1c1,0 2,0 3,0l1 0c0,0 0,0 0,0 1,-1 1,0 1,-1 0,0 0,0 -1,0 -1,0 -1,0 -2,0l-1 -1c-1,0 -2,1 -3,0l2 0c0,0 -1,-1 2,-1l-1 -1c0,0 -2,-1 -3,0l-1 0c-1,1 0,0 -1,1l-1 0 0 -1z"/>
   <path class="fil2" d="M39 34l-1 1c0,1 0,0 -1,1 0,0 0,0 0,0 1,1 1,-1 1,0 0,0 -1,1 -1,1 0,0 0,0 0,0l-1 0c0,0 0,0 -1,0 0,1 0,1 0,1 0,1 0,1 -1,1l0 0c0,1 0,1 -1,1l0 0c0,1 0,1 0,2l-1 0 1 1 0 0c0,-1 -1,0 0,-1 0,1 0,1 0,2 0,0 0,0 0,0 0,1 0,0 -1,1 0,1 1,4 1,4l0 2c0,0 0,0 0,-1 0,0 0,0 1,0 0,0 0,0 0,0l1 1c1,-1 0,-1 2,-2 0,1 0,1 0,0 0,0 0,0 0,0 0,0 0,0 0,0l0 -1 1 0c0,-1 0,-1 0,-2 0,0 0,0 0,0 0,0 0,0 1,-1l0 1 0 -1c0,-1 0,-1 1,-1l-1 0c1,-1 1,-1 1,-1 0,0 0,-1 1,-2 0,0 0,0 0,-1 0,0 0,0 0,0 0,-1 1,-1 0,-2 0,-1 0,-2 0,-3 0,0 0,0 0,0 -1,1 0,1 0,1 0,0 0,0 -1,0 0,0 0,0 0,-1 1,0 2,0 2,-1 0,0 0,0 0,0 -2,0 1,0 -1,0 0,0 0,0 0,0l-1 0c0,0 1,0 0,0 0,0 0,0 -1,0z"/>
   <path class="fil4" d="M14 62c1,0 0,0 1,0 0,0 0,0 0,0 0,0 0,1 0,1 -1,0 -1,0 -1,-1zm-7 2l0 0c0,-1 0,-1 0,-1 0,-1 1,-1 0,-2 -1,0 0,-1 0,1 -2,1 -3,7 -3,9 1,0 1,0 1,1 1,-2 0,-1 1,-2l1 -1 0 0c0,0 0,0 1,0 0,0 0,-1 0,-1l1 0c0,-1 0,-1 1,-1 0,0 0,0 0,0 1,-1 1,-1 2,-1 0,-1 0,0 0,-1 1,0 1,0 2,0l0 0 1 -1c0,0 4,-2 4,-2 1,0 2,0 3,-1 1,0 5,-1 7,-1 0,-1 0,-1 0,-1 1,0 1,0 1,0 1,0 2,0 2,0l0 0 0 -1 -1 0c1,0 0,0 1,0 -1,0 -1,-1 -1,-2 -1,0 0,0 -1,0 -2,0 -3,0 -4,0 0,1 0,1 0,2 0,0 1,0 1,0 -1,0 -4,0 -5,0 0,0 0,0 0,0l0 0c1,2 2,0 3,1l0 1c-1,0 -1,0 -2,0 0,0 -1,0 -2,0l0 -1c0,0 0,0 0,0 -2,0 -5,0 -7,1 -2,2 0,1 -2,1 0,2 0,2 -1,2 0,0 0,0 0,0 0,0 0,1 0,1 -1,1 -1,0 -1,1 -1,0 0,1 -2,1 0,0 0,0 0,-1 -1,1 -1,1 -2,1 0,-1 0,-1 1,-2z"/>
   <path class="fil5" d="M34 54c0,0 0,0 0,0 0,0 0,0 0,0 0,1 0,0 0,1l-1 2c1,0 1,0 2,1 0,0 1,0 1,1l1 0c0,-1 1,-1 2,-1 -1,1 0,0 -1,1l0 0c-1,1 0,1 0,1 1,2 0,1 1,2 0,0 0,0 0,0 0,0 1,-1 1,-1l2 0c0,1 1,1 1,1 0,0 0,0 0,0 0,-1 0,-1 0,-1 0,-1 0,1 -1,-1 1,0 0,0 2,0 0,-1 -1,0 0,-1 0,2 0,2 -1,2 1,1 1,0 1,1 0,0 -1,1 0,2l1 1c0,-2 -1,-2 0,-3 0,0 0,0 0,0 0,0 -1,-1 -1,-1l1 -1 0 0c0,-1 0,-1 0,-1l-1 -1c-1,0 1,0 0,0 -1,1 0,1 -1,1l0 -1c0,0 0,0 0,0l0 0c0,0 1,-1 1,-2 0,1 0,0 1,1l0 0c0,0 0,0 0,0 0,0 0,1 0,1 0,0 0,0 1,1 0,0 1,2 1,3 0,1 0,2 0,3l0 1c0,1 0,1 0,2l2 -1 0 2 0 -1 0 -4 -1 -1c0,0 0,0 0,0l0 -1c0,-3 -2,-5 -4,-7l0 0c-2,-1 -1,0 -2,0 -1,-1 0,-1 -1,-1 -1,0 -3,-1 -4,0 -1,0 1,-1 -1,0l0 0c0,0 0,0 0,0 -1,-1 0,-1 -2,0z"/>
   <path class="fil3" d="M20 28c0,1 0,1 0,2 1,1 1,0 1,1 0,1 0,0 0,1 0,0 0,0 0,0l1 0 0 1 0 0c1,0 0,1 1,1 0,1 0,0 0,1 0,0 0,0 0,-1 1,0 0,0 1,0 0,0 0,1 0,1l1 0c0,-1 0,0 -1,0 3,-1 4,0 4,-2 1,-1 0,0 1,0 0,0 0,-2 1,-3l0 0c0,-1 0,-1 0,-1 0,-1 0,-1 0,-2 -1,0 0,0 -1,0l0 -1 -2 0c0,0 -1,-1 -2,-1 -1,0 -2,0 -3,0 -3,0 -2,1 -2,3z"/>
   <path class="fil6" d="M25 17c1,0 0,0 1,0 0,1 0,1 0,1 -1,0 1,-1 0,0 -1,0 -1,0 -1,1 -1,0 0,0 -1,0 0,0 0,-1 0,-1l1 -1zm-2 -1c0,1 -1,1 -2,0 0,-1 0,-1 0,-1l0 -1c0,1 0,1 0,2 -1,1 -1,2 -1,3 -2,0 -2,0 -3,-1l-1 -1 1 -1c-1,0 -1,1 -1,0 -1,0 0,1 -1,0 0,0 0,0 0,-1 -1,0 -1,0 -1,0l-1 0c0,0 1,0 1,0l0 1c1,0 0,0 1,1 0,0 0,0 0,0 1,0 0,0 1,1l-1 0c0,0 0,0 0,0 -1,0 -1,1 -1,1l1 1c1,0 1,-1 1,0 0,1 -3,1 -3,1 -1,0 -1,1 -1,1 1,0 0,-1 1,0 0,0 0,0 0,0 1,1 0,1 2,1l0 1c0,0 0,0 0,0 1,0 2,-1 3,-1l0 0c1,0 1,0 2,0 0,0 1,0 1,0 0,0 0,0 0,0 0,-1 0,0 0,-1l1 0 0 -1 2 -1c1,0 0,0 1,0l0 0c0,0 0,0 1,0 0,0 0,-1 0,-1 0,0 0,0 0,0 0,-1 1,-1 1,-1 0,-1 1,-1 1,-2l0 -1c1,0 0,0 1,0 1,-1 2,-2 3,-2 0,-1 1,-1 1,-1l0 0c-2,0 -5,2 -5,2 -1,0 -1,0 -2,0 0,0 -2,2 -3,2z"/>
   <path class="fil7" d="M27 76c-1,2 -1,4 -1,7l2 0c0,1 -1,1 -2,2 0,0 0,1 0,4 0,2 -1,3 -1,4 2,1 3,4 4,7 0,0 0,0 -1,0l1 0c0,0 0,0 0,0l0 1 1 0 0 -3c0,-1 0,-3 0,-5 0,-1 0,-1 0,-2 -1,-2 0,-1 0,-2l0 0 0 -1c0,-2 -1,-6 0,-8 -1,-1 -1,-1 -1,-3 0,-2 1,-3 0,-3 0,-2 0,-1 -1,-1 -1,2 0,0 0,2 0,1 0,1 0,1 -1,0 -1,0 -1,0 0,0 0,-1 0,0z"/>
   <path class="fil8" d="M14 55c0,1 0,0 0,1l0 0c0,1 -2,1 -3,1 0,1 0,1 0,2 1,0 1,0 2,0 -1,1 0,0 -1,1l0 0c0,0 0,0 -1,1l-1 0c0,-1 0,-1 -1,-1l-2 3c0,0 0,1 0,1l0 0 0 0 0 1c1,0 1,-1 2,-1 2,0 2,-3 6,-5 1,-1 2,-1 3,-1 3,0 2,0 4,0 1,-1 2,0 2,-1 1,-1 2,-1 3,-2 0,0 0,0 -1,0 0,0 -1,0 -1,1 -1,1 -1,0 -2,0l-3 -1c0,0 0,0 0,0 -2,0 -1,0 -2,0 1,0 1,-1 3,-1 3,0 2,0 3,0 1,0 5,0 6,-1 0,1 0,1 0,1 1,1 1,0 1,1l0 0c0,0 0,0 0,0 0,0 0,0 0,0 1,0 1,1 1,0 0,-1 0,-1 -1,-1 -2,-1 -6,-1 -8,-1 -2,0 -4,1 -5,1 -1,1 -1,0 -2,0 -1,1 -2,1 -2,1z"/>
   <path class="fil6" d="M29 33c0,2 -1,2 -2,2 -2,0 -2,1 -3,2l1 1c0,1 1,4 1,4l1 0c0,1 1,2 1,3 1,-1 1,-2 1,-3 0,1 0,1 0,1 1,1 1,1 1,2 0,0 0,0 0,0 0,0 0,0 0,0l0 -1c0,0 0,0 0,0 1,0 2,-3 2,-4 0,-1 1,-4 -1,-5 0,-2 1,-1 0,-3 0,0 0,-1 -1,-2l0 0c-1,1 -1,3 -1,3z"/>
   <path class="fil9" d="M18 64l0 1 -1 2c1,1 0,0 1,1 0,0 0,0 0,0l0 3 -1 0c1,1 0,0 1,1 0,2 0,0 0,2 0,0 0,0 0,3 0,1 0,1 0,2 0,0 0,1 0,2l0 1c-1,2 -1,2 -1,3 0,1 0,0 0,0l0 0c-1,0 -1,0 -1,-1 1,-1 0,-3 0,-4 0,-1 -1,-4 -1,-5 1,-1 0,-1 1,-1l0 1c0,0 0,-1 0,-1 1,0 1,0 1,0 0,0 0,1 0,-1l-3 1c0,1 0,2 0,2 1,1 1,2 1,2 1,2 1,4 1,5 0,1 0,3 0,3l1 0 1 0 0 2 -2 0 0 0c0,1 0,4 1,5 0,-1 0,-1 0,-2 0,0 -1,-2 0,-2 0,-1 0,-1 1,0 0,-1 0,-1 0,-3l2 1 0 1c0,0 0,-1 0,-1 1,0 1,0 1,0l0 1c0,1 0,0 1,0 0,0 -1,0 -1,0 0,-1 0,-1 1,-1 -1,-1 -1,0 -1,-2 0,0 0,0 0,-1 0,-1 -1,-3 -1,-4 0,0 -1,-7 -1,-7 0,-1 1,-1 0,-2l0 -6 0 -1c-1,0 -1,0 -1,0z"/>
   <path class="fil10" d="M13 8c1,1 1,1 1,1 -1,0 -1,0 -1,0 0,-1 0,0 0,-1zm-4 -3c0,1 0,0 0,1 1,0 1,0 1,0 0,1 0,0 1,1 0,0 0,0 0,1 1,0 0,0 1,1 0,0 1,1 1,1 0,1 0,1 1,1l0 1c0,0 0,0 0,0 1,-1 1,0 1,-1 0,0 3,1 4,0 1,-1 1,-2 1,-3 0,-1 0,0 -1,-1 1,0 1,1 2,0l0 0 -1 -1 -1 -1 -1 0c0,1 1,1 1,2 -1,0 -1,-1 -1,-1 0,0 0,0 -1,-1 0,1 0,0 0,1 -1,-1 -1,-1 -1,-2l-1 1c0,0 0,0 0,0 0,2 0,1 0,2 -1,0 -1,-1 -1,-2l-1 0 1 -1c0,0 0,0 0,0l-1 0c0,0 0,0 -1,0 1,0 1,0 1,-1l-1 0c1,0 1,0 1,0 0,-2 0,-1 0,-2 -1,0 -1,0 -1,0l0 3 -1 1c-2,0 -1,-1 -2,0z"/>
   <path class="fil3" d="M4 14c0,1 0,0 0,1 1,1 1,1 2,2 1,1 2,2 2,2 1,1 1,1 2,1 2,0 3,1 5,1l0 -1 -1 -1 -1 -1c0,0 0,1 0,0 -1,-2 2,-1 2,-1l-1 -1 0 -1c0,0 -1,0 -1,0l1 0c0,-1 0,0 -1,-1 0,0 0,0 0,0 0,0 0,0 -1,0l-2 0c-1,0 -1,0 -1,-1 0,0 0,0 -1,0 0,0 -1,0 -1,0 -1,0 -2,1 -3,1z"/>
   <path class="fil8" d="M15 45c0,0 0,0 -1,1l-1 0 -1 0c1,0 0,0 1,0 0,1 0,0 -1,1 0,0 -1,0 -1,0l0 1 0 0c0,0 0,0 0,0l0 0c0,1 0,1 0,1 1,0 1,0 2,-1l1 0 0 1 3 0c0,2 0,2 1,2l-4 0 0 0 0 1 4 0 1 0 0 0 4 -1c2,0 4,0 5,0 1,-1 2,-1 0,-3 0,-1 0,-1 -1,-1 1,1 0,0 0,1 1,1 0,-1 1,0 0,0 0,0 0,1 0,0 0,0 0,0l0 0c1,1 0,2 -1,1 0,0 0,0 0,0l0 1c0,0 0,0 0,0 0,0 0,0 0,0l-3 0c0,-1 0,-1 1,-1 2,0 2,0 2,-1 -2,0 -4,1 -7,0l0 0 -3 0c0,-4 0,-3 1,-4 1,0 2,0 3,0l-1 0c-1,0 -1,0 -1,0l-4 0z"/>
   <path class="fil0" d="M12 65l1 0 0 1c0,2 -2,5 -1,8l1 0 0 0c0,0 0,0 0,0 0,1 -1,6 0,6 0,0 0,0 0,0 1,0 0,0 1,0 0,1 0,1 -1,1 0,2 0,4 0,5 0,2 1,1 1,2 0,1 0,3 0,3 0,0 0,0 0,-1 0,0 0,0 0,0l2 0c-1,-4 -1,-2 -2,-3 0,-1 1,-2 0,-4 0,-1 0,-1 0,-2 0,1 1,1 1,3 0,0 -1,2 0,2 0,1 -1,1 0,1 2,0 -1,-3 1,-4 0,-1 0,-3 -1,-5 0,0 0,-1 -1,-2 0,0 0,-1 0,-2l0 -1c0,-1 0,0 1,-1 0,0 0,0 1,0 0,0 0,0 0,0 0,-1 0,-1 -1,-1 0,0 0,0 0,0l0 0 -1 -1c0,-1 0,-4 0,-5l0 0c-1,0 -1,0 -2,0z"/>
   <path class="fil11" d="M42 46c1,1 1,1 1,1 1,0 1,0 1,0 1,0 0,0 2,0 0,1 0,1 -1,2l1 0c-1,1 0,0 0,1 -2,0 -1,-1 -3,-1 -1,0 0,0 -1,1 1,0 0,0 1,0 0,0 1,0 1,0 0,0 0,0 0,1l0 0c4,-1 7,-2 11,-1l0 0 0 -1c0,0 -1,-1 -1,-1 -1,-1 -1,-1 -2,-1 0,-1 0,0 0,-1 0,0 0,0 0,0 0,0 0,0 -1,0 -2,-1 -5,-1 -8,0 0,0 -1,0 -1,0 0,0 0,0 0,0z"/>
   <path class="fil7" d="M17 91c0,1 0,1 0,2 1,1 2,2 2,4 1,1 1,3 1,4l0 0 1 -2c0,0 0,0 0,0l0 -1 1 0 0 1c0,0 0,0 0,0l-1 2c0,0 0,0 0,0l1 0c0,-1 0,-1 1,-1 -1,-2 -1,-4 -1,-6 0,-2 0,-4 0,-6 -1,0 -1,1 -1,0l0 -1 0 2c0,0 0,0 0,0 0,0 0,0 0,0l-1 1c0,0 0,0 0,0 0,0 0,0 0,0l-3 0 0 2c0,-1 0,0 0,-1 0,0 0,0 0,0z"/>
   <path class="fil12" d="M27 47c1,0 1,0 1,1 2,2 1,2 0,3 -1,0 -3,0 -5,0l-4 1 -1 0 0 1c-1,0 -1,0 -2,0 -1,1 -1,1 -2,1 0,0 0,0 -1,1 0,1 0,0 -1,1 1,0 1,-1 2,-1 0,0 1,0 2,-1 1,0 1,1 2,0 1,0 3,-1 5,-1 2,0 6,0 8,1 1,0 1,0 1,1 0,1 0,0 -1,0 0,0 1,0 1,1l1 0c0,-1 0,-1 -1,-2 0,0 0,0 0,0l0 -1 -1 -1c0,-1 0,-4 0,-4 -1,0 0,0 -1,0l-1 -1c0,0 0,0 0,0l-1 0 -1 0c0,0 0,0 0,0l0 0z"/>
   <path class="fil9" d="M28 71c1,-2 1,-2 1,-2 1,2 0,2 0,2l-1 0zm4 -12l0 0 -2 5c0,1 0,1 1,0 0,0 0,0 1,-1 0,-1 -1,-1 0,-1 1,1 1,1 0,2 0,1 0,-1 -1,3 0,1 0,1 -1,1 0,-2 1,-1 1,-3 -1,0 0,0 -1,0l0 1c-1,2 0,-1 -2,4 0,1 -1,3 -1,4l0 0c1,1 1,0 1,1 -1,0 -2,0 -2,1 1,0 0,0 1,0 0,-1 0,0 0,0 0,0 0,0 1,0 0,0 0,0 0,-1 0,-2 -1,0 0,-2 1,0 1,-1 1,1 1,0 0,1 0,3 0,2 0,2 1,3 0,0 0,0 0,-2 0,-1 0,-1 0,-2 0,-1 0,-3 0,-4 1,0 1,0 1,-1 0,-2 1,-7 3,-7 0,-2 0,-2 0,-4 0,0 0,0 0,0l-1 -1c0,-1 0,-1 0,-1l-1 1z"/>
   <path class="fil13" d="M49 64l-1 -1c0,-1 0,0 0,-1 0,0 0,0 0,-1 1,1 1,1 2,1 1,0 2,1 2,2l1 0c0,-1 0,-3 0,-4 -1,0 -1,0 -1,-1 0,0 0,-1 0,-1 -1,0 -1,0 -1,0 0,0 0,0 0,-1 -3,1 -1,1 -2,2 -1,0 -1,-1 0,-2l1 0 0 -1 1 1 0 -1c0,0 0,0 0,-1l-1 0 -1 0c0,0 0,0 -1,0 -1,0 -1,0 -1,0 -2,-1 -2,0 -3,0 2,2 4,4 4,7l0 1c0,0 0,0 0,0l1 1z"/>
   <path class="fil14" d="M56 64c1,0 1,1 0,1 0,0 0,0 0,-1zm-5 -8c1,1 1,2 2,4 0,1 0,3 0,4l0 0 0 1c1,0 0,-1 1,0 0,0 0,0 0,0 0,1 0,0 1,1l0 1c0,0 0,0 1,0 0,1 0,1 0,2 1,0 1,0 1,0 0,0 0,0 0,0 0,1 0,1 1,1 0,1 0,0 0,1 1,0 0,0 0,-1l0 -1c0,-2 0,-3 -1,-5 0,-1 0,-2 -1,-2 0,-1 -1,-2 -1,-2 0,-1 0,-1 -1,-1 0,-1 0,-1 0,-1 0,0 0,0 -1,0l0 -1c0,0 0,0 -1,-1 -1,0 -1,0 -1,-1 0,1 0,1 0,1z"/>
   <path class="fil15" d="M44 35c2,-1 1,0 1,-1 1,0 1,0 1,1 0,0 0,0 0,1 0,-1 -1,0 -1,0 0,1 0,1 -1,1l0 -2zm3 -4c0,1 1,2 1,3 0,1 0,3 0,4 0,-1 0,-1 0,-2 0,0 -1,0 -1,-1 0,0 -1,-1 -1,-2l-1 0c0,0 0,0 0,0l0 1c-2,0 -1,0 -2,1l0 0c1,0 1,0 1,1 0,1 0,0 0,1 0,0 0,0 0,1 1,0 0,0 1,0 0,1 0,1 0,1 1,0 1,0 1,1l1 2 0 0c0,1 0,1 0,1l1 0c0,0 0,0 1,-1 0,-2 0,-4 0,-6 0,-2 0,-3 -1,-5 -1,0 0,1 0,0 -1,0 -1,0 -1,-1 0,-1 0,0 0,0 0,0 -1,0 -1,-1 0,0 0,0 0,0l1 2z"/>
   <path class="fil10" d="M11 30l-1 1c0,0 0,0 -1,0l0 0 0 -1c0,1 -1,1 -1,1 0,1 0,0 0,1 0,1 -1,2 -1,3 0,1 0,2 0,4l1 -1c0,0 1,0 1,-1 0,-1 -1,-1 -1,-1 1,0 1,0 2,1 0,-2 0,0 0,-3l0 1c0,0 0,0 0,0l0 -2c1,0 0,0 1,-1l0 1c1,0 1,0 2,0l-1 0c0,1 0,1 0,1 2,-1 0,-1 2,-1l0 0c0,0 0,0 0,0l0 -1c1,0 1,0 1,0 0,-1 0,0 0,-1l0 0c0,-2 0,0 0,-1 0,1 -1,1 -1,1 0,-1 0,0 1,-1 -1,0 -1,0 -1,0 0,-1 1,-1 0,-1 -2,-1 -1,0 -1,-1 0,0 -1,0 -1,0 0,0 0,0 0,0 0,1 0,0 -1,1l0 1z"/>
   <path class="fil16" d="M33 102l-1 0c0,0 0,1 0,0 0,0 -1,-1 0,1 -1,-1 -1,0 -1,-1l0 0c0,1 0,1 -1,1l0 0 1 0c-1,0 -1,0 -1,0 -1,0 -1,1 -1,1l-1 0c0,0 -2,0 -3,0 -1,-1 0,0 -2,0 0,0 -1,0 -2,0 1,1 1,0 1,0 -1,0 -1,1 -1,0 -2,0 -1,0 -2,1l-1 -1c0,0 -1,0 -1,0 -1,0 -2,0 -1,-1l-1 0 -1 0 -2 0c0,0 0,0 0,0l-1 0 1 0c1,2 1,1 3,1 1,1 1,1 3,1 1,0 7,0 8,0l3 0c1,-1 0,0 2,-1 3,0 5,0 7,0l0 -1 0 0c0,0 0,0 0,0 -2,0 -3,0 -5,0 0,-1 0,-1 1,-1l-1 0 0 -1 0 1z"/>
   <path class="fil17" d="M27 55c-1,1 -2,1 -3,2 0,1 -1,0 -2,1 -2,0 -1,0 -4,0 -1,0 -2,0 -3,1 -4,2 -4,5 -6,5 -1,0 -1,1 -2,1l0 -1c-1,1 -1,1 -1,2 1,0 1,0 2,-1 0,1 0,1 0,1 2,0 1,-1 2,-1 0,-1 0,0 1,-1 0,0 0,-1 0,-1 0,0 0,0 0,0 1,0 1,0 1,-2 2,0 0,1 2,-1 2,-1 5,-1 7,-1 0,0 0,0 0,0l0 1c1,0 2,0 2,0 1,0 1,0 2,0l0 -1c-1,-1 -2,1 -3,-1l0 0c0,0 0,0 0,0 1,0 4,0 5,0 0,0 -1,0 -1,0 0,-1 0,-1 0,-2 1,0 2,0 4,0 1,0 0,0 1,0 0,1 0,2 1,2 -1,0 0,0 -1,0l1 0 1 0 -1 0c1,-1 0,0 1,-1 0,-1 0,-1 0,-1l-1 0c0,-1 -1,-1 -1,-1 0,0 0,0 0,0 0,0 0,0 0,0 -2,0 -3,0 -4,0z"/>
   <path class="fil18" d="M14 91l0 2c0,1 0,3 0,4l0 -1c2,1 1,1 2,1 0,0 0,0 0,0 0,0 0,-1 0,-1l1 0 1 -1c0,0 0,0 0,1 0,2 0,0 1,2l1 1c-1,1 0,1 -1,1 0,0 0,0 0,0l0 1c0,0 0,0 1,0 0,0 0,0 0,0 0,-1 0,-3 -1,-4 0,-2 -1,-3 -2,-4 -1,-1 -1,-4 -1,-5 0,-1 0,-1 0,-1 1,-1 0,0 0,-1 0,0 0,-2 0,-3 -2,1 1,4 -1,4 -1,0 0,0 0,-1 -1,0 0,-2 0,-2 0,-2 -1,-2 -1,-3 0,1 0,1 0,2 1,2 0,3 0,4 1,1 1,-1 2,3l-2 0c0,0 0,0 0,0 0,1 0,1 0,1z"/>
   <path class="fil19" d="M6 0l0 1c1,0 0,0 0,0l0 0c1,1 0,0 1,0 0,1 0,1 0,1 0,0 0,0 0,0 0,1 0,1 0,1l1 2 1 0c1,-1 0,0 2,0l1 -1 0 -3c0,0 0,0 1,0 0,1 0,0 0,2 0,0 0,0 -1,0l1 0c0,1 0,1 -1,1 1,0 1,0 1,0l1 0c0,0 0,0 0,0l-1 1 1 0c0,1 0,2 1,2 0,-1 0,0 0,-2 0,0 0,0 0,0l1 -1 0 0c-1,0 -1,-1 -2,-1l-1 0 0 -2c0,-1 -1,0 -1,-1l-5 0 -1 0z"/>
   <path class="fil20" d="M38 48c0,1 0,1 0,2 -1,1 -1,1 -2,2l2 0c0,-1 0,-1 0,-1 1,0 -1,1 0,0 1,-1 1,-1 1,-2 1,1 1,1 1,2 -1,1 -1,-1 -1,1 0,0 0,0 1,0 0,0 0,0 0,1l1 -1 3 -1 0 0c0,-1 0,-1 0,-1 0,0 -1,0 -1,0 -1,0 0,0 -1,0 1,-1 0,-1 1,-1 2,0 1,1 3,1 0,-1 -1,0 0,-1l-1 0c1,-1 1,-1 1,-2 -2,0 -1,0 -2,0 0,0 0,0 -1,0 0,0 0,0 -1,-1l0 0 0 0c0,0 0,0 0,0l0 1c0,0 0,0 0,0 -1,0 -1,0 -1,1 1,0 1,0 2,-1 0,2 -1,0 -1,2l0 0c-1,0 0,0 -1,1 -1,-1 0,-1 -1,-1l1 -1c0,0 0,0 0,0 -1,0 0,0 -1,0l-1 0c-1,1 0,0 -1,0z"/>
   <path class="fil21" d="M14 73l0 1 3 -1c0,2 0,1 0,1 0,0 0,0 -1,0 0,0 0,1 0,1l0 -1c-1,0 0,0 -1,1 0,1 1,4 1,5 0,1 1,3 0,4 0,1 0,1 1,1l0 0c0,0 0,1 0,0 0,-1 0,-1 1,-3l0 -1c0,-1 0,-2 0,-2 0,-1 0,-1 0,-2 0,-3 0,-3 0,-3 0,-2 0,0 0,-2 -1,-1 0,0 -1,-1 0,0 0,0 0,0 0,0 0,0 0,0 0,0 0,0 0,0l0 1c0,1 -2,1 -3,1z"/>
   <path class="fil0" d="M17 31l0 0c-1,2 -2,4 -3,7 0,1 0,1 0,2 0,0 0,2 0,4 -1,2 0,1 -1,1l0 1 1 0 0 -2c1,0 0,1 2,0 -1,-1 -1,-1 -2,-1 1,-1 0,-1 1,-3l0 -1c0,-1 0,-1 1,-1 0,0 0,0 0,-1l0 -1 0 -1c0,0 0,1 1,1 0,-1 0,-2 1,-4 0,-1 1,-1 1,-3 -1,0 0,0 -1,0 0,0 -1,1 -1,2z"/>
   <path class="fil22" d="M17 12c-1,0 -2,-1 -2,1 0,0 -1,0 0,0l0 -1 1 0c0,0 0,1 1,1l0 1c0,-1 0,-1 -1,-1 0,0 0,1 0,1l1 2 -2 0c1,1 0,0 1,0 0,1 0,0 1,0l0 1 0 0c1,0 1,0 2,0 0,1 0,1 0,1 1,0 0,-1 1,-2l1 0c0,-1 0,-1 0,-2 0,0 0,0 1,0 -1,0 -1,0 -1,-2 -1,0 0,0 -1,-1 0,1 -1,1 -3,1z"/>
   <path class="fil23" d="M10 48c0,1 0,2 -1,2 0,0 0,-1 0,-2l0 0c-1,1 -1,1 -2,2 0,1 0,0 0,1 0,-1 0,-1 0,-1 0,0 1,-1 1,-1l0 0 0 0c-1,1 -2,1 -2,2 0,1 -1,2 -1,2l0 1 0 1 0 0c0,0 1,0 1,0 0,-1 0,-1 0,-1 1,0 0,0 0,0 0,0 0,0 1,0 0,-1 0,-1 0,-1l0 -1c0,0 0,0 0,0 1,0 0,0 1,1l0 0 2 0 2 -1c0,0 0,0 0,0 0,0 1,0 1,0 0,0 0,0 1,0l0 -1 0 0 0 0c-2,0 0,0 -1,0 -1,0 0,0 -1,1l-1 0c0,0 0,0 0,0l0 -1c-1,0 -1,0 -1,0 1,-1 0,-2 0,-3 1,1 1,1 1,1 0,0 0,0 0,-1l0 0c0,0 0,0 0,0l0 0c0,0 0,0 0,0l-1 0z"/>
   <path class="fil24" d="M5 46l0 0 0 -1c0,-1 0,0 0,0 0,-1 1,-2 1,-2l0 -1c1,-1 1,-1 2,-2 -1,0 -1,0 -1,0 -1,1 -1,2 -2,2 0,0 0,-1 0,-1 0,-1 0,-1 0,-1 0,-1 0,0 1,0l0 -1c0,0 0,-1 0,-3 0,0 0,0 0,0l0 -1c1,0 0,0 1,-1 0,0 0,-1 1,-2 0,-1 0,0 0,-1 0,0 1,0 1,-1l0 0 0 0c-1,0 -3,3 -3,4 -1,1 -1,1 -1,2 -1,3 -2,7 -1,10l1 0z"/>
   <path class="fil1" d="M27 20l0 1c-2,0 -1,0 -2,1 -2,0 -1,0 -1,1 0,0 0,0 0,0 -1,0 -1,0 -1,1 -1,0 0,0 -1,0l0 0c1,0 1,0 2,0 0,0 1,0 1,0 1,0 0,0 1,0l0 0c1,0 1,0 1,1l1 0c0,0 0,0 0,0 0,0 1,0 2,1 1,0 0,0 1,0 0,-1 0,-1 -1,-1 0,0 0,-1 -1,-1l-1 -1c0,-1 0,0 0,-1l1 -2 -1 0 -1 0z"/>
   <path class="fil7" d="M17 36l0 1c0,0 0,0 1,1 0,-1 0,-2 0,-2 1,2 0,3 0,5l1 -1 0 -1 0 -1c0,-1 1,-3 1,-5 1,-1 0,-1 1,-1 0,0 0,0 0,0 0,-1 0,0 0,-1 -1,0 -1,-1 -2,-2l0 0c0,2 -1,2 -1,3 -1,2 -1,3 -1,4z"/>
   <path class="fil15" d="M39 62c0,1 0,0 0,0 3,0 3,1 4,2 -1,-1 0,0 0,0l0 0c0,0 0,0 0,0 0,0 0,0 0,0l1 1c0,0 -1,1 -1,0 -1,0 0,0 -1,-1 0,0 0,0 0,1l0 0c0,0 0,0 0,0 1,1 1,0 1,1 -1,0 -1,0 -2,0l1 0c0,0 0,0 0,0 1,1 1,0 1,1 0,1 1,2 1,2 1,0 1,-1 2,-1 0,0 0,0 0,0 0,0 1,0 1,0 0,-1 0,-1 0,-2l0 1 -1 0 0 0c-1,1 -1,1 -2,1 0,-1 0,-1 0,-2 1,0 1,0 2,-1l0 -1 0 -1c0,1 0,1 0,1 0,0 0,0 -1,0 0,-1 0,-1 0,-2l1 0c0,-1 0,-2 -1,-2l0 0 0 0 -1 1c0,0 1,1 1,1 0,0 0,0 0,0 -1,1 0,1 0,3l-1 -1c-1,-1 0,-2 0,-2 0,-1 0,0 -1,-1 1,0 1,0 1,-2 -1,1 0,0 0,1 -2,0 -1,0 -2,0 1,2 1,0 1,1 0,0 0,0 0,1 0,0 0,0 0,0 0,0 -1,0 -1,-1l-2 0c0,0 -1,1 -1,1 0,0 0,0 0,0z"/>
   <path class="fil8" d="M20 49l4 0c0,0 -1,-1 1,-1 1,1 1,1 2,1 0,-2 0,-1 -1,-2 0,0 -1,0 -1,0 0,0 1,0 2,0l1 0 0 -1 -4 -1 -3 0c1,0 0,0 1,0 0,1 -1,1 -2,1l0 3z"/>
   <path class="fil25" d="M11 49c0,0 0,0 -1,-1 0,1 1,2 0,3 0,0 0,0 1,0l0 1c0,0 0,0 0,0l1 0c1,-1 0,-1 1,-1 1,0 -1,0 1,0l0 0 4 0c-1,0 -1,0 -1,-2l-3 0 0 -1 -1 0c-1,1 -1,1 -2,1z"/>
   <path class="fil26" d="M27 55c1,0 2,0 4,0l0 0c0,-1 0,0 -1,-1 0,0 0,0 0,-1 -1,1 -5,1 -6,1 -1,0 0,0 -3,0 -2,0 -2,1 -3,1 1,0 0,0 2,0 0,0 0,0 0,0l3 1c1,0 1,1 2,0 0,-1 1,-1 1,-1 1,0 1,0 1,0z"/>
   <path class="fil15" d="M31 46c0,1 0,2 0,2 0,0 0,3 0,4 2,1 0,1 2,1l0 0c0,0 1,0 1,0l0 0c0,-2 0,-2 1,-2l-1 -1c0,0 0,0 0,0 -1,0 -1,0 -1,0 0,1 0,1 0,1l0 -2c0,0 -1,-3 -1,-4 1,-1 1,0 1,-1 0,0 0,0 0,0 0,-1 0,-1 0,-2 -1,1 0,0 0,1l0 0 -1 -1 0 1c0,1 0,1 -1,1 0,1 0,2 0,2z"/>
   <path class="fil27" d="M18 27c1,1 0,0 1,1 -1,1 -1,0 -2,1l0 -2 1 0zm-6 -2c0,1 0,1 -1,1 0,1 -1,1 -1,1l0 1c1,-1 1,-1 3,-1 2,-1 1,-1 3,0 0,-1 0,0 0,0 1,1 1,1 1,1 0,1 0,1 -1,1 0,1 0,1 -1,2 0,1 0,0 0,1l0 0c1,-1 1,-1 1,-1l0 0 1 0c0,-1 1,-2 1,-2 1,0 0,0 1,0l0 0c1,1 1,2 2,2 0,-1 0,0 -1,-1 0,-1 0,-1 0,-2 -1,0 -1,0 -1,0 0,0 0,0 -1,-1 0,0 0,0 0,0 0,-1 0,-1 0,-2 0,-1 0,-1 1,-1 -1,0 -1,0 -1,-1l0 0c0,2 0,2 -2,2 0,1 0,0 0,0 0,1 0,1 0,1 0,0 0,0 -1,0 -1,0 -1,0 -3,-1z"/>
   <path class="fil28" d="M33 58l0 0c0,0 0,0 0,1l1 1c0,0 0,0 0,0 1,0 1,0 1,1 1,1 2,5 3,6l0 1c1,-1 0,-2 0,-3 -1,-1 -1,-1 0,-1 0,0 0,0 0,0 1,1 1,1 1,1 0,0 0,0 0,0 0,-1 0,0 0,-1l-2 -3c0,-1 0,0 -1,-2 0,0 0,0 0,0l-1 0c0,0 0,0 0,0 -1,0 0,-1 -1,-1 0,0 0,0 -1,0 0,-1 0,0 0,-1l0 0c-1,1 0,0 -1,1l1 0z"/>
   <path class="fil29" d="M7 34c0,3 -1,4 0,6 1,0 2,-2 2,-2 0,-1 1,-1 1,-2l1 0c0,0 0,0 0,0l0 -1c1,0 1,0 2,0 0,-1 0,0 0,-1 0,0 0,0 1,0l0 -1c-2,0 0,0 -2,1 0,0 0,0 0,-1l1 0c-1,0 -1,0 -2,0l0 -1c-1,1 0,1 -1,1l0 2c0,0 0,0 0,0l0 -1c0,3 0,1 0,3 -1,-1 -1,-1 -2,-1 0,0 1,0 1,1 0,1 -1,1 -1,1l-1 1c0,-2 0,-3 0,-4 0,-1 1,-2 1,-3 -1,1 -1,2 -1,2z"/>
   <path class="fil30" d="M13 27c-1,0 -1,0 -1,0 0,0 0,1 -1,1 1,0 0,0 0,0l0 1 -1 0 1 1 0 -1c1,-1 1,0 1,-1 0,0 0,0 0,0 0,0 1,0 1,0 0,1 -1,0 1,1 1,0 0,0 0,1 0,0 0,0 1,0 -1,1 -1,0 -1,1 0,0 1,0 1,-1 0,1 0,-1 0,1l0 0c1,-1 1,-1 1,-2 1,-1 0,-2 0,-2 -2,-1 -1,-1 -3,0z"/>
   <path class="fil9" d="M16 41c0,-1 0,-1 0,-2 1,0 1,0 2,0l0 4c-1,0 0,-1 -1,0 -1,0 -1,0 -1,-2zm2 -3l0 1 -2 0 -1 0 0 1 0 3 1 0c0,0 0,0 0,0l0 1c0,0 -1,0 -1,1 0,0 -1,0 0,0l4 0 0 -1 0 0 0 -4 -1 1c0,-2 1,-3 0,-5 0,0 0,1 0,2z"/>
   <path class="fil31" d="M18 23c0,1 0,1 1,1 -1,0 -1,0 -1,1 0,1 0,1 0,2 0,0 0,0 0,0 1,1 1,1 1,1 0,0 0,0 1,0 0,-2 -1,-3 2,-3 1,0 2,0 3,0 1,0 2,1 2,1l2 0c-1,0 -1,0 -1,-1l-2 0 0 -1 0 0c0,1 0,0 -1,1 0,0 1,0 0,0 -2,-1 -3,-1 -5,-1l1 0c0,0 0,0 0,0 0,0 1,0 1,0l0 0c-1,0 0,0 -1,0 0,0 0,0 0,-1 0,0 0,0 0,0l1 0c-1,0 -1,0 -1,-1 0,1 0,0 0,1 0,0 0,0 0,0 0,0 -1,0 -1,0 -1,0 -1,0 -2,0z"/>
   <path class="fil9" d="M14 65c0,1 0,4 0,5l1 1 1 0 0 1 0 0c-1,0 -1,0 -1,0 -1,1 -1,0 -1,1 1,0 3,0 3,-1l0 -1c0,0 0,0 0,0 0,0 0,0 0,0 0,0 0,0 0,0l0 -1c-1,0 -1,0 -3,0l0 -2 3 0 0 0c0,0 0,0 -1,0 -1,-1 0,-1 -2,-1l0 -2c2,0 2,1 3,1l0 -1c-1,0 -1,0 -2,-1l0 0 -1 1z"/>
   <path class="fil26" d="M20 49l0 0c3,1 5,0 7,0 0,1 0,1 -2,1 -1,0 -1,0 -1,1l3 0c0,0 0,0 0,0 0,0 0,0 0,0l0 -1c0,0 0,0 0,0 1,1 2,0 1,-1l0 0c0,0 0,0 0,0 0,-1 0,-1 0,-1 -1,-1 0,1 -1,0 0,-1 1,0 0,-1l0 0c0,0 0,0 0,0 -1,0 -2,0 -2,0 0,0 1,0 1,0 1,1 1,0 1,2 -1,0 -1,0 -2,-1 -2,0 -1,1 -1,1l-4 0z"/>
   <path class="fil26" d="M11 56c0,1 -1,1 -2,2l0 1 0 1c1,0 1,0 1,1l1 0c1,-1 1,-1 1,-1l0 0c1,-1 0,0 1,-1 -1,0 -1,0 -2,0 0,-1 0,-1 0,-2 1,0 3,0 3,-1l0 0c0,-1 0,0 0,-1 -1,0 -1,1 -2,1 1,-1 1,0 1,-1l-1 0c0,0 0,0 0,1 0,0 -1,0 -1,0 0,0 0,0 0,0z"/>
   <path class="fil32" d="M14 97l0 1 0 0c1,0 1,0 1,0 1,0 0,0 0,0 0,3 0,0 0,1l0 1c1,0 1,0 1,0l1 -1c0,-1 1,0 1,0l1 1c1,0 0,0 1,-1l-1 -1c-1,-2 -1,0 -1,-2 0,-1 0,-1 0,-1l-1 1 -1 0c0,0 0,1 0,1 0,0 0,0 0,0 -1,0 0,0 -2,-1l0 1z"/>
   <path class="fil15" d="M35 53c0,0 0,0 -1,1 2,-1 1,-1 2,0 0,0 0,0 0,0l0 0c2,-1 0,0 1,0 1,-1 3,0 4,0 1,0 0,0 1,1 1,0 0,-1 2,0l0 -2c0,0 -1,1 -1,0 -1,0 -1,0 -1,0 0,0 0,0 -1,0 0,0 0,0 0,-1l-1 1c0,-1 0,-1 0,-1 -1,1 -2,0 -3,1 -1,0 -1,0 -2,0z"/>
   <path class="fil21" d="M17 71l1 0 0 -3c0,0 0,0 0,0 -1,-1 0,0 -1,-1l1 -2c-1,0 0,0 -1,0l0 1c-1,0 -1,-1 -3,-1l0 2c2,0 1,0 2,1 1,0 1,0 1,0l0 0 -3 0 0 2c2,0 2,0 3,0l0 1z"/>
   <path class="fil33" d="M17 91c0,0 0,0 0,0 0,1 0,0 0,1l0 -2 3 0c0,0 0,0 0,0 0,0 0,0 0,0l1 -1c0,0 0,0 0,0 0,0 0,0 0,0l0 -2c0,0 0,0 -1,0 0,0 0,1 0,1l0 -1 -2 -1c0,2 0,2 0,3 -1,-1 -1,-1 -1,0 -1,0 0,2 0,2z"/>
   <path class="fil26" d="M20 49l0 -3c1,0 2,0 2,-1 -1,0 0,0 -1,0l0 0c-1,0 -2,0 -3,0 -1,1 -1,0 -1,4l3 0z"/>
   <path class="fil6" d="M2 18c1,1 2,0 3,1l3 1 -1 -1c-2,-1 -1,-1 -2,-2 0,0 1,0 0,0 -1,1 1,1 0,0 0,1 0,1 0,0 -1,-1 -2,-1 -3,-1 0,0 0,0 0,0 -1,0 -1,0 -2,0 0,1 0,1 0,1 0,0 0,0 0,0l0 0c0,0 0,0 0,1l1 0c0,0 0,-1 -1,0 2,0 2,0 2,0z"/>
   <path class="fil34" d="M37 49c0,0 0,0 0,0 0,1 0,1 0,0 -1,1 -1,1 -1,2l0 0c-1,1 -1,1 -1,2 1,0 1,0 2,0 1,-1 2,0 3,-1 0,0 0,0 0,1 0,-1 0,-1 0,-1 -1,0 -1,0 -1,0 0,-2 0,0 1,-1 0,-1 0,-1 -1,-2 0,1 0,1 -1,2 -1,1 1,0 0,0 0,0 0,0 0,1l-2 0c1,-1 1,-1 2,-2 0,-1 0,-1 0,-2 0,1 0,0 -1,1z"/>
   <path class="fil35" d="M23 101l-1 3 1 0c2,0 1,-1 2,0 1,0 3,0 3,0 1,-1 0,0 0,-1 0,0 -1,-1 -1,-1l-1 0c0,0 0,0 0,1 -1,0 -1,-1 -2,0 0,-2 -1,-1 -1,-2l0 0z"/>
   <path class="fil28" d="M15 105c0,0 0,-1 0,0 0,1 1,1 1,1l10 -1c-1,0 -7,0 -8,0 -2,0 -2,0 -3,-1 -2,0 -2,1 -3,-1l-1 0c-1,1 -1,1 -1,1 1,1 3,1 5,1z"/>
   <path class="fil36" d="M33 12l0 0c1,0 1,-1 3,-1 0,0 0,0 0,-1 1,0 0,0 1,0l0 0c0,0 0,0 1,0l0 0c1,-1 2,-1 3,-1 -1,0 -2,0 -3,0l-1 1c0,-1 0,0 0,0 -1,0 -1,0 -1,-1 -2,0 -2,0 -2,-1 0,0 0,0 1,-1 0,0 0,0 1,0l-1 0c0,0 0,0 0,0 -2,1 -1,1 -2,0l0 1c2,1 1,2 2,3 -2,0 -2,0 -2,1z"/>
   <path class="fil37" d="M41 66c1,0 1,0 2,0 0,-1 0,0 -1,-1 0,0 0,0 0,0l0 0c0,-1 0,-1 0,-1 1,1 0,1 1,1 0,1 1,0 1,0l-1 -1c0,0 0,0 0,0 0,0 0,0 0,0l0 0c0,0 -1,-1 0,0 -1,-1 -1,-2 -4,-2 1,1 1,1 2,2 0,1 0,1 0,2z"/>
   <path class="fil22" d="M15 24c-1,0 0,0 -1,0 0,0 0,0 -1,0 0,0 0,1 -1,1 2,1 2,1 3,1 1,0 1,0 1,0 0,0 0,0 0,-1 0,0 0,1 0,0 2,0 2,0 2,-2 -1,0 -2,1 -3,1 0,0 0,0 0,0z"/>
   <path class="fil9" d="M13 53c1,0 0,0 1,1 0,0 -1,1 -1,0 0,-1 0,0 0,-1zm-1 -1c1,0 0,0 0,0 0,2 0,2 0,3l1 0c1,-1 1,-1 1,-1 1,-1 2,-1 3,-1l1 -1 -4 0c-1,0 -1,0 -1,0 0,0 -1,0 -1,0 0,0 0,0 0,0z"/>
   <path class="fil27" d="M17 12c2,0 3,0 3,-1 1,1 0,1 1,1 0,2 0,2 1,2 -1,0 -1,0 -1,0l0 1c1,-1 0,-1 1,-1 0,0 -1,0 0,0l0 -1 1 -3 0 0c-1,0 -1,0 -2,-1 1,1 1,2 0,3l0 -3c0,0 0,0 0,0 0,0 -1,2 -2,2 0,1 -1,0 -2,1z"/>
   <path class="fil7" d="M17 43c1,-1 0,0 1,0l0 -4c-1,0 -1,0 -2,0 0,1 0,1 0,2 0,2 0,2 1,2z"/>
   <path class="fil36" d="M22 33c0,1 1,2 1,3l1 1c1,-1 1,-2 3,-2 1,0 2,0 2,-2 -1,0 0,-1 -1,0 0,2 -1,1 -4,2 1,0 1,-1 1,0l-1 0c0,0 0,-1 0,-1 -1,0 0,0 -1,0 0,1 0,1 0,1 0,-1 0,0 0,-1 -1,0 0,-1 -1,-1z"/>
   <path class="fil29" d="M19 102l0 0c0,0 0,0 0,0 0,0 0,1 0,1 0,0 0,0 -1,0l0 1c0,0 0,0 0,0l0 0 0 0 1 1c1,-1 0,-1 2,-1 0,1 0,0 1,0 0,0 0,1 -1,0l0 0c0,0 0,0 0,0 0,-1 1,-1 1,-2 0,0 -1,0 -1,0 0,0 -1,0 -1,0l-1 -1 0 0 0 -1 -1 0 1 2z"/>
   <path class="fil38" d="M25 20c-1,1 0,-1 -1,1l0 0 -2 1 -1 0c0,1 0,1 1,1l-1 0c0,0 0,0 0,0 0,1 0,1 0,1 1,0 0,0 1,0 1,0 0,0 1,0 0,-1 0,-1 1,-1 0,0 0,0 0,0 0,-1 -1,-1 1,-1 1,-1 0,-1 2,-1l0 -1c0,0 -1,0 -1,0 -1,1 -1,1 -1,0z"/>
   <path class="fil39" d="M27 100c1,1 1,1 1,2l-1 -1c0,0 0,0 0,1l0 0c0,0 1,1 1,1 1,0 1,0 1,1 0,0 0,-1 1,-1 0,0 0,0 1,0l-1 0 0 0c0,-1 0,-1 -1,-1 0,-1 1,-1 0,-2 -1,0 0,0 0,0l-1 0 -1 0 0 0z"/>
   <path class="fil40" d="M36 59c1,0 1,1 2,2 1,1 2,3 2,5 1,1 1,1 3,1 0,-1 0,0 -1,-1 0,0 0,0 0,0l-1 0c0,-1 0,-1 0,-2 -1,-1 -1,-1 -2,-2 0,0 0,1 0,0 -1,-1 0,0 -1,-2 0,0 -1,0 0,-1l0 0c1,-1 0,0 1,-1 -1,0 -2,0 -2,1l-1 0z"/>
   <path class="fil41" d="M14 98l0 1 1 0 -1 1 0 1c1,1 0,1 1,2l1 0 -1 0c0,0 0,0 0,0 0,-1 0,-1 0,-1l0 0 0 -1c0,0 0,0 0,-1l1 0c1,0 0,0 1,1 1,0 1,1 2,1l0 0 0 0c-1,-1 0,0 -1,-1 0,0 0,0 0,0 0,-1 0,-1 0,-1l0 0c-1,0 -1,-1 -1,-1l-1 1c0,0 0,0 -1,0l0 -1c0,-1 0,2 0,-1 0,0 1,0 0,0 0,0 0,0 -1,0z"/>
   <path class="fil42" d="M30 98l0 3 1 1 1 -2c0,0 0,0 1,0 0,-1 0,-1 0,-1l0 0 0 0 0 0 -1 0c0,0 0,0 0,0 0,0 0,0 0,0 0,0 0,0 0,-1l0 0 0 0 0 0 0 0c0,0 0,0 0,0l-1 0 0 -1c-1,0 0,0 0,0l-1 1z"/>
   <path class="fil36" d="M42 9l2 0c0,-1 0,-1 -1,-1 0,-1 0,0 0,-1 -1,0 -1,0 -1,0 -1,-1 0,0 -1,-1l1 1c-1,0 -1,0 -1,0 0,0 0,0 0,0 -2,1 -1,0 -1,-1l1 0c0,0 0,0 0,0 0,0 0,0 -1,0 0,0 0,0 -1,-1l1 1c-3,0 -2,1 -2,1l-2 0c1,1 2,0 3,0l1 1c1,0 1,0 2,0 1,0 1,0 1,0 0,1 0,0 -1,1 0,0 0,0 0,0z"/>
   <path class="fil43" d="M6 39c0,0 0,0 0,1 0,0 1,0 1,0 0,0 0,0 0,0 0,0 0,0 1,0l0 0 0 0c0,-1 0,1 0,-1 1,0 1,0 2,0l0 -2c0,0 0,0 0,0 -1,1 0,0 -1,1 0,0 -1,2 -2,2 -1,-2 0,-3 0,-6 -1,1 0,1 -1,1l0 1c0,0 0,0 0,0 0,2 0,3 0,3z"/>
   <path class="fil23" d="M8 20c1,0 1,1 2,1 1,0 1,1 2,1 0,0 0,-1 1,-1 0,0 3,0 3,-1 0,-1 0,0 -1,0l0 1c-2,0 -3,-1 -5,-1 -1,0 -1,0 -2,-1 0,0 0,0 1,1 -1,0 0,0 -1,0z"/>
   <path class="fil44" d="M8 53c0,0 1,0 0,0 0,0 0,1 -1,1 0,0 0,0 -1,0 0,0 1,0 0,0 0,0 0,0 0,1 0,0 -1,0 -1,0 0,0 0,0 0,1 0,0 0,0 -1,0 0,-2 1,-2 1,-2 0,0 0,0 0,0l0 -1c0,0 -1,1 -1,1 0,0 0,0 0,0 0,0 0,-1 0,0 -1,1 0,2 0,2 0,0 0,0 0,0l1 0c1,0 0,0 1,0 0,-1 1,-1 1,-2 1,0 1,1 1,0 1,-1 2,0 2,-1l-2 0z"/>
   <path class="fil45" d="M44 55l0 0c1,0 1,-1 3,0 0,0 0,0 1,0 1,0 1,0 1,0l-1 -1c0,0 -2,0 -2,-1l-3 0c0,1 1,0 1,0l0 2z"/>
   <path class="fil46" d="M45 33c0,0 0,0 0,0l0 -1c1,0 1,0 1,1l1 1 0 -1 -1 -2c-1,-1 -1,-1 -1,-2 1,0 0,0 0,1 1,0 1,0 1,0 0,1 0,1 1,1l-1 -2c0,0 0,0 0,0 0,1 1,1 1,1 0,-1 0,-1 -1,-1l0 0c-1,0 0,0 -1,0l0 -1c-1,0 -1,0 -1,0 0,1 0,1 1,1 -1,1 0,2 1,2 -1,1 -1,1 -1,1 0,0 0,0 0,0l0 1z"/>
   <path class="fil34" d="M39 47c0,0 0,0 0,0 0,0 0,1 0,1 -1,0 0,0 -1,0 1,0 0,1 1,0l1 0c1,0 0,0 1,0 0,0 0,0 0,0l-1 1c1,0 0,0 1,1 1,-1 0,-1 1,-1l0 0c0,-2 1,0 1,-2 -1,1 -1,1 -2,1 0,-1 0,-1 1,-1 0,0 0,0 0,0l0 -1c0,0 0,0 0,0l0 0 -1 0c0,1 -1,1 -2,1z"/>
   <path class="fil21" d="M30 64l0 1c1,0 0,0 1,0 0,2 -1,1 -1,3 1,0 1,0 1,-1 1,-4 1,-2 1,-3 1,-1 1,-1 0,-2 -1,0 0,0 0,1 -1,1 -1,1 -1,1 -1,1 -1,1 -1,0z"/>
   <path class="fil47" d="M32 26l0 1c3,1 3,1 5,3 1,0 1,1 2,1 0,-1 -1,0 0,-1l0 0 -1 0 -1 -1c-1,-1 0,0 -1,0 0,-1 0,-1 -1,-1l-1 -2c-1,0 -1,0 -1,0 -1,0 0,0 -1,0z"/>
   <path class="fil5" d="M46 67l0 -3 0 1c-1,1 -1,1 -2,1 0,1 0,1 0,2 1,0 1,0 2,-1l0 0z"/>
   <path class="fil6" d="M7 62c0,-2 -1,-1 0,-1 1,1 0,1 0,2 0,0 0,0 0,1l0 0c0,0 0,-1 0,-1l2 -3 0 -1c0,1 0,0 0,0l-1 0c1,0 1,0 0,0l0 1c-1,0 -1,1 -1,2z"/>
   <path class="fil48" d="M45 60c1,0 1,1 1,2l-1 1c0,0 1,0 1,0l0 -1c1,1 1,3 1,4l0 -1c0,-1 0,-2 0,-3 0,-1 -1,-3 -1,-3 -1,0 0,-1 -1,0l0 1z"/>
   <path class="fil16" d="M14 2c1,0 3,2 3,2 1,1 1,1 1,2 0,0 0,0 0,0 0,0 0,1 1,1 0,-1 -1,-1 -1,-2l1 0 0 0c0,-1 0,-1 -1,-1l-1 -1c0,0 -1,-1 -3,-2l0 0c1,1 0,0 0,1z"/>
   <path class="fil16" d="M20 101l0 1c0,0 0,0 -1,-1l1 1c0,0 1,0 1,0 0,0 1,0 1,0 0,1 -1,1 -1,2 0,0 0,0 0,0 0,-1 1,-2 1,-2 0,-1 0,-1 0,-1 0,0 0,0 0,0l-1 0c0,0 0,0 0,0l1 -2 -1 0c0,0 0,0 0,0l-1 2z"/>
   <path class="fil49" d="M29 105c1,0 2,0 2,0 1,0 2,0 3,0 3,-1 4,0 4,-1l0 0c-2,0 -4,0 -7,0 -2,1 -1,0 -2,1z"/>
   <path class="fil50" d="M28 46l0 0c1,0 1,0 1,-1 0,0 0,0 0,0 1,0 1,0 1,0 0,-1 0,-1 -1,-2 0,0 0,0 0,-1 0,1 0,2 -1,3 0,-1 -1,-2 -1,-3l-1 0c1,2 2,3 2,4z"/>
   <path class="fil51" d="M46 31l1 2 0 2c0,1 1,1 1,1 0,1 0,1 0,2 0,-1 0,-3 0,-4 0,-1 -1,-2 -1,-3 -1,0 -1,0 -1,-1 0,0 0,0 0,0 0,0 0,1 0,1 0,-1 0,0 0,0z"/>
   <path class="fil45" d="M53 60c-1,-2 -1,-3 -2,-4l0 1 -1 -1 0 1 -1 0c-1,1 -1,2 0,2 1,-1 -1,-1 2,-2 0,1 0,1 0,1 0,0 0,0 1,0 0,0 0,1 0,1 0,1 0,1 1,1z"/>
   <path class="fil52" d="M15 64l0 0c2,0 1,1 3,0 0,0 0,0 1,0 0,-2 0,-1 0,-2 0,0 -4,2 -4,2z"/>
   <path class="fil53" d="M39 30c-1,-1 -3,-3 -4,-3l-1 -1 1 2c1,0 1,0 1,1 1,0 0,-1 1,0l1 1 1 0z"/>
   <path class="fil54" d="M14 11c0,1 0,1 0,1 0,1 0,0 1,1 0,-2 1,-1 2,-1 1,-1 2,0 2,-1 1,0 2,-2 2,-2 0,0 0,0 0,0 0,-1 0,-1 0,-1l0 0 0 -1c-1,1 -1,0 -2,0 1,1 1,0 1,1 0,1 0,2 -1,3 -1,1 -4,0 -4,0 0,1 0,0 -1,1 0,0 0,0 0,0l0 -1z"/>
   <path class="fil55" d="M29 26l0 1 1 0c0,1 0,1 0,2 0,-1 0,-2 0,-2 1,0 1,0 1,0 0,-1 0,0 0,-1 -1,0 0,0 -1,0 -1,-1 -2,-1 -2,-1 0,1 0,1 1,1z"/>
   <path class="fil56" d="M5 17c1,1 0,1 2,2l1 1c1,0 0,0 1,0 -1,-1 -1,-1 -1,-1 0,0 -1,-1 -2,-2 -1,-1 -1,-1 -2,-2 0,0 0,0 0,0 1,1 0,0 1,1 0,1 0,0 0,1z"/>
   <path class="fil57" d="M11 99l2 2 1 0c0,0 0,0 0,0 0,0 0,0 0,0l0 -1c0,-1 0,0 0,-1l-1 0 -1 0 -1 0z"/>
   <path class="fil31" d="M17 17l0 1c1,1 1,1 3,1 0,-1 0,-2 1,-3l-1 0c-1,1 0,2 -1,2 0,0 0,0 0,-1 -1,0 -1,0 -2,0z"/>
   <path class="fil58" d="M16 101c1,1 1,0 1,1l1 2 0 0c0,0 0,0 0,0l0 -1c1,0 1,0 1,0 0,0 0,-1 0,-1 0,0 0,0 0,0l0 0c-1,0 -1,-1 -2,-1l-1 0 0 0z"/>
   <path class="fil52" d="M15 39l1 0 2 0 0 -1c-1,-1 -1,-1 -1,-1l0 -1c-1,0 -1,-1 -1,-1l0 1 0 1c0,1 0,1 0,1 -1,0 -1,0 -1,1z"/>
   <path class="fil59" d="M14 46c1,-1 1,-1 1,-1 -1,0 0,0 0,0 0,-1 1,-1 1,-1l0 -1c0,0 0,0 0,0l-1 0 0 -3c-1,2 0,2 -1,3 1,0 1,0 2,1 -2,1 -1,0 -2,0l0 2z"/>
   <path class="fil60" d="M22 14c1,0 1,-1 1,0l0 -1c1,-1 1,-1 1,-2l0 0c-1,0 0,0 -1,1l0 -1c0,0 0,0 0,-1 0,0 0,0 0,0 0,0 0,0 0,0l-1 3 0 1z"/>
   <path class="fil61" d="M34 100l1 0 0 0c0,0 0,0 0,0l1 -1c0,0 -1,-2 -1,-2 0,0 0,0 -1,0 0,1 1,2 1,2 0,0 -2,1 -1,1z"/>
   <path class="fil62" d="M34 53l0 0 -1 1 0 0 1 1c0,-1 0,0 0,-1 0,0 0,0 0,0 0,0 0,0 0,0 1,-1 1,-1 1,-1 0,-1 0,-1 1,-2l0 0c-2,0 -1,1 -2,2z"/>
   <path class="fil5" d="M44 35l0 2c1,0 1,0 1,-1 0,0 1,-1 1,0 0,-1 0,-1 0,-1 0,-1 0,-1 -1,-1 0,1 1,0 -1,1z"/>
   <path class="fil63" d="M12 96c0,0 0,0 0,0 1,0 0,0 0,0 0,0 1,0 1,0 0,0 0,1 0,1 0,0 0,0 0,0 1,0 1,0 1,1l0 -1c0,-1 0,-3 0,-4 -1,1 0,0 -1,1l1 2c-2,0 0,0 -2,-1l-1 1c0,1 0,0 1,0z"/>
   <path class="fil64" d="M8 49c0,0 -1,1 -1,1l0 0c1,-1 1,-1 2,-2l2 -1c0,0 1,0 1,0 0,-1 0,-1 0,-1 -1,1 -4,2 -4,3z"/>
   <path class="fil24" d="M21 9c0,0 0,0 0,0l0 3c1,-1 1,-2 0,-3 1,1 1,1 2,1l0 0 -1 -1 -1 0 0 -1c0,0 0,0 0,1 0,0 0,0 0,0z"/>
   <path class="fil42" d="M29 24c0,-1 0,-2 0,-3 0,0 0,0 0,0 0,-1 0,-1 0,-1l-1 2c0,1 0,0 0,1l1 1z"/>
   <path class="fil65" d="M14 2c1,0 1,1 1,1 -1,0 0,0 -1,0 1,0 1,1 2,1 0,0 0,0 1,1 0,0 0,0 0,-1 0,0 -2,-2 -3,-2 0,0 0,0 0,0z"/>
   <path class="fil15" d="M45 59c-1,-2 -1,-1 0,-1 0,0 0,-1 0,-1 0,0 0,0 0,0l0 0c-1,-1 -1,0 -1,-1 0,1 -1,2 -1,2l0 0c0,0 0,0 0,0l0 1c1,0 0,0 1,-1 1,0 -1,0 0,0l1 1z"/>
   <path class="fil66" d="M46 62l-1 0c0,1 0,1 0,2 1,0 1,0 1,0 0,0 0,0 0,-1l0 1 0 3 1 0 0 -1 0 -1 0 1c0,-1 0,-3 -1,-4l0 1c0,0 -1,0 -1,0l1 -1z"/>
   <path class="fil40" d="M43 27c0,-1 0,0 0,-1 0,-1 0,0 0,0 0,-1 0,0 0,-1 -1,0 -1,0 -1,0 0,-1 0,0 0,-1l0 1c0,0 0,0 0,0l-1 0c0,1 0,0 0,1 0,0 0,0 1,1 1,0 0,-1 1,0z"/>
   <path class="fil67" d="M7 40c0,0 0,0 0,0 0,0 -1,0 -1,0 0,-1 0,-1 0,-1l0 1c-1,0 -1,-1 -1,0 0,0 0,0 0,1 0,0 0,1 0,1 1,0 1,-1 2,-2z"/>
   <path class="fil42" d="M47 68c0,0 -1,0 -1,0 0,0 0,0 0,0 1,0 1,0 2,0l0 2 0 0 1 -1 0 -2 -2 1z"/>
   <path class="fil68" d="M41 34c0,0 0,0 0,0 2,0 -1,0 1,0 0,0 0,0 0,0 0,1 -1,1 -2,1 0,1 0,1 0,1 1,0 1,0 1,0 0,0 -1,0 0,-1 0,0 0,0 0,0 0,1 0,2 0,3l1 -2c0,0 0,-1 0,-1l0 0 0 -1c1,0 0,0 1,0l-1 0 0 0c-1,0 -1,0 -1,0 0,0 0,0 0,0z"/>
   <path class="fil11" d="M33 56c0,0 0,0 0,1l0 0c0,-1 0,0 0,0l1 -2 -1 -1c0,0 0,0 -1,-1 0,0 0,0 0,0 0,0 0,0 0,0l0 1c0,0 0,0 0,0 1,1 1,1 1,2z"/>
   <path class="fil69" d="M26 24c-1,0 0,0 -1,0 0,0 -1,0 -1,0 -1,0 -1,0 -2,0 0,0 -1,0 -1,0 0,0 0,0 0,0l-1 0c2,0 3,0 5,1 1,0 0,0 0,0 1,-1 1,0 1,-1z"/>
   <path class="fil70" d="M13 101l0 1 1 0c0,1 0,0 0,1l1 0c-1,-1 0,-1 -1,-2 0,0 0,0 0,0 0,0 0,0 0,0 -1,0 0,0 -1,0 0,0 0,0 0,0z"/>
   <path class="fil71" d="M35 51c-1,0 -1,0 -1,2 1,-1 0,-2 2,-2 0,-1 0,-1 1,-2 -2,1 -1,1 -2,2z"/>
   <path class="fil50" d="M24 18c0,0 0,1 0,1 1,0 0,0 1,0 0,-1 0,-1 1,-1 1,-1 -1,0 0,0 0,0 0,0 0,-1 -1,0 0,0 -1,0l-1 1z"/>
   <path class="fil72" d="M14 3c1,0 0,0 1,0 0,0 0,-1 -1,-1l-1 -1 0 2 1 0z"/>
   <path class="fil40" d="M40 33l0 0 1 0c0,-1 0,-1 1,-1l0 1 1 0c0,0 0,0 0,0l-1 -2c0,0 1,0 0,0 -1,-1 -1,-1 -1,0 1,0 0,-1 1,0 0,0 0,0 0,1 0,0 0,0 -1,0l-1 1z"/>
   <path class="fil73" d="M8 58c0,1 0,1 0,1 1,0 1,0 0,0l1 0c0,0 0,1 0,0l0 -1c1,-1 2,-1 2,-2 -1,1 -2,2 -3,2z"/>
   <path class="fil74" d="M30 103l0 0 1 -1 0 0 -1 -1 -1 0 0 -1c1,1 0,1 0,2 1,0 1,0 1,1l0 0z"/>
   <path class="fil75" d="M16 101c0,1 0,1 1,2l0 0 0 1 0 0c0,0 1,0 1,0l0 0 -1 -2c0,-1 0,0 -1,-1 0,0 0,0 0,0l0 0z"/>
   <path class="fil21" d="M28 71l1 0c0,0 1,0 0,-2 0,0 0,0 -1,2z"/>
   <path class="fil59" d="M26 85c1,-1 2,-1 2,-2l-2 0c0,0 0,0 0,0 1,0 1,0 1,0 0,1 0,1 -1,1l0 1z"/>
   <path class="fil76" d="M13 18l0 -1c1,0 1,0 2,1 0,-1 0,0 0,-1 0,0 0,0 0,0 -1,-1 0,-1 -1,-1l1 1c0,0 -3,-1 -2,1 0,1 0,0 0,0z"/>
   <path class="fil74" d="M21 104l0 0c1,0 2,0 2,0l-1 0 1 -3 -1 1c0,0 -1,1 -1,2z"/>
   <path class="fil52" d="M16 88l0 0 1 0c0,-1 1,-1 0,-1l0 -1 -1 0c0,1 1,0 0,1 0,0 0,0 0,1z"/>
   <path class="fil49" d="M10 37l0 2c-1,0 -1,0 -2,0 0,2 0,0 0,1 0,-1 1,0 1,0l1 0c0,-1 0,-1 0,-2 0,0 1,-1 1,-1l-1 0z"/>
   <path class="fil54" d="M39 31l0 1c1,0 1,0 1,0 -1,-1 0,-1 -1,-2 -1,1 0,0 0,1z"/>
   <path class="fil77" d="M34 4c0,1 0,1 0,1l-1 0 0 0 0 1 1 0c1,-1 0,0 1,-1l1 0c0,-1 -1,-1 -2,-1z"/>
   <path class="fil78" d="M8 49l0 0c0,-1 3,-2 4,-3 0,0 0,0 0,1 1,-1 1,0 1,-1 -1,0 0,0 -1,0 -1,0 -2,1 -2,1 -1,1 -2,1 -2,2z"/>
   <polygon class="fil79" points="22,22 24,21 24,21 24,20 22,21 "/>
   <path class="fil3" d="M41 6l0 0 -1 0c0,1 -1,2 1,1 0,0 0,0 0,0 0,0 0,0 1,0l-1 -1z"/>
   <path class="fil80" d="M17 65c1,0 0,0 1,0l0 -1c-2,1 -1,0 -3,0 1,1 1,1 2,1z"/>
   <path class="fil60" d="M13 98c0,0 0,0 0,0 0,0 0,0 1,0l0 1 0 -1 0 0c0,-1 0,-1 -1,-1l0 0 0 1z"/>
   <path class="fil56" d="M13 18l1 1c0,0 0,-1 1,-1 0,0 0,0 0,0l1 0c-1,-1 0,-1 -1,-1 0,1 0,0 0,1 -1,-1 -1,-1 -2,-1l0 1z"/>
   <path class="fil35" d="M16 103c-1,1 0,1 1,1l0 0 0 -1 0 0c-1,0 -1,0 -1,0 -1,-1 -1,-1 -1,-1 0,0 0,0 0,0 0,0 0,0 0,1 0,0 0,0 0,0l1 0z"/>
   <path class="fil36" d="M21 15c0,0 0,0 0,1 1,1 2,1 2,0l0 0c-1,0 1,0 -1,0 -1,0 0,-1 0,-2 -1,0 0,0 -1,1z"/>
   <path class="fil24" d="M15 13c0,0 0,0 1,1 0,0 0,0 0,0 0,0 0,-1 0,-1 1,0 1,0 1,1l0 -1c-1,0 -1,-1 -1,-1l-1 1z"/>
   <path class="fil34" d="M6 54c1,0 1,0 1,0 1,0 1,-1 1,-1 1,0 0,0 0,0l0 0c-1,-1 0,-1 -1,-1 0,0 0,0 0,0l0 1c0,0 0,0 0,1 -1,0 -1,0 -1,0z"/>
   <path class="fil68" d="M32 53c0,0 0,0 0,0 0,0 0,0 0,0 1,1 1,1 1,1l0 0 1 -1c0,0 -1,0 -1,0l0 0c-2,0 0,0 -2,-1l1 1z"/>
   <path class="fil81" d="M31 102l0 0c0,0 0,0 0,0l0 0c0,0 0,-1 1,-1 0,-1 0,0 1,-1l0 1c0,0 0,0 0,0 0,0 0,0 0,0l0 0c0,-1 0,0 0,-1 0,0 0,0 0,0 -1,0 -1,0 -1,0l-1 2z"/>
   <path class="fil82" d="M34 101l-1 0c0,0 0,0 0,0l0 1 1 0c0,0 0,0 0,-1 1,0 1,0 1,0l0 -1 -1 1z"/>
   <path class="fil83" d="M30 25c1,0 1,0 1,1 0,-1 0,-1 1,-1 0,0 0,0 0,0l0 1c0,0 0,0 0,0 0,-1 0,-1 0,-1 -2,-1 0,-1 -1,-1l-1 1z"/>
   <path class="fil84" d="M31 102c0,1 0,0 1,1 -1,-2 0,-1 0,-1l1 -1c0,0 -1,0 0,0l0 -1c-1,1 -1,0 -1,1 -1,0 -1,1 -1,1z"/>
   <path class="fil48" d="M46 33c0,1 1,2 1,2l0 -2 0 1 -1 -1c0,0 0,-1 0,0z"/>
   <path class="fil67" d="M18 27l-1 0 0 2c1,-1 1,0 2,-1 -1,-1 0,0 -1,-1z"/>
   <path class="fil85" d="M36 36l0 1c0,0 0,0 0,0l1 0c0,0 0,0 0,0 0,0 1,-1 1,-1 0,-1 0,1 -1,0 0,0 0,0 0,0 0,0 0,0 0,0 -1,0 0,0 -1,0z"/>
   <path class="fil86" d="M41 23c-1,0 -2,0 -3,0 0,-1 0,-1 -1,-1 1,1 0,0 1,1 0,0 0,0 0,0 1,0 0,0 1,0 0,0 1,0 2,0z"/>
   <path class="fil87" d="M14 54c1,0 1,0 2,-1 1,0 1,0 2,0l-1 0c-1,0 -2,0 -3,1z"/>
   <path class="fil88" d="M32 98l0 0c0,1 0,1 0,1l1 0c0,-1 -1,0 0,-1 1,2 0,1 0,1l0 0c1,0 1,0 1,0 0,0 0,-1 -1,-1 0,-1 0,-1 0,-1l0 1 -1 0z"/>
   <path class="fil71" d="M42 24l0 0 0 0 -1 0 -1 -1 1 1c-2,1 -1,1 -1,1l2 -1z"/>
   <path class="fil89" d="M18 100l0 -1 0 0c0,0 -1,-1 -1,0 0,0 0,1 1,1z"/>
   <path class="fil90" d="M41 33l-1 0 0 1 1 0c0,0 0,0 0,0 0,0 0,0 1,0l0 -1 -1 0z"/>
   <polygon class="fil91" points="11,100 10,100 11,100 12,101 13,101 11,99 "/>
   <path class="fil62" d="M16 29c1,0 1,0 1,-1 0,0 0,0 -1,-1 0,0 0,-1 0,0 0,0 1,1 0,2z"/>
   <path class="fil34" d="M30 45c0,0 0,0 -1,0 0,0 0,0 0,0 0,1 0,1 -1,1 1,0 1,0 1,0l0 0 1 0c0,0 0,-1 0,-2 0,0 0,0 0,0l0 1c0,0 0,0 0,0 0,0 0,0 0,0z"/>
   <path class="fil91" d="M9 48c0,1 0,2 0,2 1,0 1,-1 1,-2 0,0 0,0 0,0l-1 0z"/>
   <path class="fil54" d="M10 28l0 0 0 0c0,0 0,0 1,0 1,0 1,-1 1,-1 0,0 0,0 1,0 -2,0 -2,0 -3,1z"/>
   <path class="fil92" d="M9 30l0 0 0 0c1,-1 1,-1 1,-1l0 -1 0 0 0 -1c0,1 0,1 -1,1 0,1 0,1 0,2z"/>
   <path class="fil93" d="M13 23c1,0 0,0 0,0 1,0 1,0 2,1l0 -1c-2,0 -1,0 -2,-1l0 1z"/>
   <path class="fil51" d="M43 27c0,0 0,0 1,0 1,0 1,0 1,1 0,-1 0,-1 0,-1 -1,0 -1,0 -2,0 1,-1 1,-1 0,-2 0,1 0,0 0,1 0,0 0,-1 0,0 0,1 0,0 0,1z"/>
   <path class="fil42" d="M9 38c1,-1 0,0 1,-1 0,0 0,0 0,0l1 0 0 -1 -1 0c0,1 -1,1 -1,2z"/>
   <path class="fil94" d="M15 102l0 0c0,0 0,0 0,0 0,0 0,0 1,1 0,0 0,0 1,0 -1,-1 -1,-1 -1,-2l-1 1z"/>
   <path class="fil95" d="M13 1l1 1c0,0 0,0 0,0 0,-1 1,0 0,-1l0 0c0,0 0,0 0,0 -1,0 -1,-1 -2,-1 0,1 1,0 1,1z"/>
   <path class="fil77" d="M24 11c0,0 0,0 0,0 0,0 0,0 0,0l1 -1c0,0 0,0 0,0l1 0 -1 -1c-1,1 -1,1 -1,2z"/>
   <path class="fil83" d="M37 22l0 -1c-1,0 -2,-1 -3,-1 1,1 1,1 3,2z"/>
   <path class="fil96" d="M9 13c0,1 0,1 1,1l2 0c0,0 -1,0 -2,0l0 -1 -1 0z"/>
   <path class="fil16" d="M17 5l0 0c-1,-1 -1,-1 -1,-1l0 0c0,1 0,1 1,2 0,-1 0,0 0,-1z"/>
   <path class="fil80" d="M16 88l2 0 0 -2 -1 0 0 1c1,0 0,0 0,1l-1 0z"/>
   <path class="fil58" d="M18 100c0,0 0,0 0,1 0,0 0,0 0,0 1,1 0,0 1,1l-1 -2 1 0c0,0 0,0 0,0l-1 -1 1 1 -1 0z"/>
   <path class="fil72" d="M10 29l0 2c-1,-1 0,-1 -1,0 1,0 1,0 1,0l1 -1 -1 -1 0 0z"/>
   <path class="fil97" d="M12 97c0,0 0,0 0,0 1,1 0,0 1,1l0 -1 0 0c0,0 0,0 0,0 0,0 0,-1 0,-1 0,0 -1,0 -1,0l0 0 0 1z"/>
   <path class="fil98" d="M14 62c0,1 0,1 1,1 0,0 0,-1 0,-1 0,0 0,0 0,0 -1,0 0,0 -1,0z"/>
   <path class="fil99" d="M12 99l1 0c0,0 0,0 -1,-1 0,0 0,0 0,0l0 1z"/>
   <path class="fil65" d="M9 30l0 0 0 0 0 1 0 0c1,-1 0,-1 1,0l0 -2c0,1 0,0 0,1l-1 0z"/>
   <path class="fil61" d="M19 44l0 0 0 0c1,-1 1,0 0,-1 0,1 0,1 0,1 0,0 0,0 0,0z"/>
   <path class="fil100" d="M9 30l1 0c0,-1 0,0 0,-1l0 0 1 0 -1 0c0,0 0,0 -1,1z"/>
   <path class="fil101" d="M33 26c0,0 0,0 1,0l1 1 0 -1c0,0 -1,0 -1,0 -1,0 0,0 -1,0z"/>
   <path class="fil43" d="M24 20l0 1 0 0 0 0c1,-2 0,0 1,-1 0,0 0,1 0,0 0,0 0,0 0,0l0 0c-1,0 0,0 -1,0z"/>
   <path class="fil51" d="M48 63l0 -1 2 0c-1,0 -1,0 -2,-1 0,1 0,1 0,1 0,1 0,0 0,1z"/>
   <path class="fil63" d="M13 35l0 0c1,-1 1,-1 1,0 0,-1 0,0 0,-1l0 0c-1,0 -1,0 -1,0 0,1 0,0 0,1z"/>
   <path class="fil65" d="M46 31c0,0 0,-1 0,0 0,0 0,-1 0,-1 0,0 0,0 0,0 0,0 0,0 -1,0 0,-1 1,-1 0,-1 0,1 0,1 1,2z"/>
   <path class="fil86" d="M17 5l0 0c1,1 1,1 1,1 0,0 0,0 0,0 0,-1 0,-1 -1,-2 0,1 0,1 0,1z"/>
   <path class="fil80" d="M16 72l0 0 0 -1 -1 0 0 0c0,0 0,0 0,0 1,0 1,0 1,1 0,0 0,0 0,0z"/>
   <path class="fil68" d="M43 36c0,0 0,-1 0,0l0 0c0,0 0,0 1,0 0,-1 0,-1 -1,-1l-1 0c0,0 0,0 1,1z"/>
   <path class="fil102" d="M26 102l0 0 1 0 0 0c0,-1 0,-1 0,-1 0,0 0,0 -1,0 0,0 1,0 0,0l0 0c0,0 0,0 0,1l0 0z"/>
   <path class="fil92" d="M56 64c0,1 0,1 0,1 1,0 1,-1 0,-1z"/>
   <path class="fil103" d="M14 54c-1,-1 0,-1 -1,-1 0,1 0,0 0,1 0,1 1,0 1,0z"/>
   <path class="fil104" d="M45 59c0,0 0,0 0,1l0 0 0 -1c1,-1 0,0 1,0 -1,-1 -1,-1 -1,-1 -1,0 -1,-1 0,1z"/>
   <path class="fil105" d="M5 55l0 0 0 -1c0,0 0,0 0,0 0,0 -1,0 -1,2 1,0 1,0 1,0 0,-1 0,-1 0,-1z"/>
   <polygon class="fil69" points="17,18 17,17 17,17 17,16 16,17 "/>
   <path class="fil89" d="M21 99l1 0c0,0 0,0 0,0l-1 0 0 -1 0 1z"/>
   <path class="fil106" d="M17 53l1 0 0 -1c0,0 0,1 0,0l1 0 -1 0 -1 1z"/>
   <path class="fil65" d="M41 33l1 0 0 1 0 0 0 -1 0 -1c-1,0 -1,0 -1,1z"/>
   <path class="fil107" d="M14 33c1,-1 1,-1 1,-1l0 0c0,0 0,0 -1,0l0 1z"/>
   <path class="fil84" d="M14 9c0,0 0,0 -1,-1 0,1 0,0 0,1 0,0 0,0 1,0z"/>
   <path class="fil108" d="M34 100c0,0 0,1 0,1l1 -1 0 1 0 0 1 -1 -1 0 -1 0z"/>
   <path class="fil102" d="M16 101c0,0 0,0 0,0l0 0 1 0c-1,-1 0,-1 -1,-1l0 1z"/>
   <path class="fil95" d="M22 101c0,0 0,0 0,0 0,0 0,0 0,1l1 -1 0 0c-1,0 -1,0 -1,-1 0,0 0,0 1,0l0 0c-1,0 -1,0 -1,1z"/>
   <path class="fil89" d="M6 1c0,0 1,0 0,0l0 -1 0 0c0,1 -1,1 0,1z"/>
   <path class="fil109" d="M28 25c0,0 0,0 0,0l-1 0c0,-1 0,-1 -1,-1l0 1 2 0z"/>
   <path class="fil110" d="M15 102l1 -1 0 0 0 -1 -1 0c0,1 0,1 0,1l0 1z"/>
   <path class="fil86" d="M38 48c0,-1 0,0 0,-1 0,0 0,0 0,0 0,-1 1,-1 1,-2 -1,1 -1,1 -1,1 0,0 0,0 0,0 0,1 0,1 0,2z"/>
   <path class="fil88" d="M34 4c0,0 0,0 0,0 -1,1 -1,1 -1,1l1 0c0,0 0,0 0,-1z"/>
   <path class="fil111" d="M19 101c1,1 1,1 1,1l0 -1 0 0c0,0 0,0 0,0 -1,0 -1,0 -1,0l0 0z"/>
   <path class="fil112" d="M28 46l0 1 1 0 0 0 0 -1c0,0 0,0 -1,0l0 0c0,0 0,0 0,0l0 0z"/>
   <path class="fil113" d="M12 101l-1 -1 -1 0 1 0c-1,0 -1,-1 -1,0 1,1 0,0 1,1 0,0 0,0 1,0z"/>
   <path class="fil114" d="M33 100c0,0 0,0 0,0 0,1 0,0 0,1 0,-1 0,-1 0,-2 0,0 0,0 0,1z"/>
   <path class="fil108" d="M32 98c-1,0 -1,0 0,-1 -1,0 0,0 -1,0l0 0c0,0 -1,0 0,0l0 1 1 0z"/>
   <path class="fil115" d="M28 16c0,0 0,0 0,0 0,0 0,0 0,0l1 -1c-1,0 0,0 -1,0l0 1z"/>
   <path class="fil96" d="M32 98c0,0 0,0 0,0 0,-1 0,-1 -1,-1 -1,0 0,0 0,0 1,0 0,0 1,0 -1,1 -1,1 0,1z"/>
   <path class="fil116" d="M29 100c0,0 -1,0 0,0l0 1 0 -1c0,0 0,0 0,0z"/>
   <path class="fil104" d="M37 49c0,0 0,0 0,0l0 -1 0 1c0,0 0,0 0,0 0,0 0,0 0,0z"/>
   <path class="fil114" d="M33 101c-1,0 0,0 0,0 -1,1 -1,1 0,1l0 -1c0,0 0,0 0,0 0,0 0,0 0,0 0,0 0,0 0,0 0,0 0,0 0,0z"/>
   <path class="fil91" d="M14 99c0,1 0,0 0,1l1 -1 -1 0 0 -1c0,1 0,1 0,1 0,0 0,0 0,0 0,1 0,0 0,0z"/>
   <path class="fil86" d="M10 28l0 1 1 0 -1 0 1 0c0,-1 0,0 0,-1l-1 0 0 0z"/>
   <path class="fil117" d="M30 48c1,0 0,0 1,0 0,0 0,-1 0,-2 -1,2 0,2 -1,2z"/>
   <path class="fil118" d="M30 103c1,0 1,0 1,-1 0,0 0,0 0,0l-1 1z"/>
   <path class="fil64" d="M29 47c0,0 0,0 0,0 0,0 0,0 0,0l0 -1 0 0 0 1 0 0z"/>
   <path class="fil119" d="M13 81c1,0 1,0 1,-1 -1,0 0,0 -1,0 0,0 0,0 0,0 0,0 0,0 0,0l0 1z"/>
   <polygon class="fil10" points="18,100 18,100 19,100 18,99 18,99 "/>
   <path class="fil120" d="M27 100l0 0c-1,0 0,-1 -1,0 1,1 0,0 1,0z"/>
   <path class="fil121" d="M35 101c1,-1 1,0 1,-1l-1 0c0,0 1,0 0,0l0 0 1 0 -1 1z"/>
   <path class="fil117" d="M12 103l2 0c0,-1 0,0 0,-1 0,1 0,0 -1,1 0,0 0,0 0,0 0,0 0,0 -1,0z"/>
   <path class="fil122" d="M24 11l-1 0 0 1c1,-1 0,-1 1,-1z"/>
   <path class="fil95" d="M33 42c0,-1 0,-1 0,-2l0 0 0 2z"/>
   <path class="fil104" d="M45 33l1 0c0,-1 0,0 0,0 0,-1 0,-1 -1,-1l0 1z"/>
   <path class="fil95" d="M34 38c0,1 0,0 0,1 1,0 1,0 1,-1 0,0 0,0 0,0 0,0 -1,0 -1,0 0,0 0,0 0,0z"/>
   <path class="fil68" d="M11 29l0 -1c0,0 1,0 0,0 -1,0 -1,0 -1,0l1 0c0,1 0,0 0,1z"/>
   <path class="fil81" d="M32 98l1 0 0 -1c-1,1 -1,0 -1,1l0 0 0 0z"/>
   <polygon class="fil123" points="29,46 29,47 30,47 30,46 "/>
   <path class="fil117" d="M48 31c0,0 0,0 0,0 -1,-1 0,-1 -1,-1 0,1 0,1 1,1 0,1 -1,0 0,0z"/>
   <path class="fil124" d="M40 86l0 -1 0 0 0 0c0,0 0,0 0,0 -1,0 -1,0 -1,1 1,0 1,0 1,0z"/>
   <path class="fil81" d="M12 96l0 1 0 -1 0 0c0,0 1,0 0,0 0,0 0,0 0,0z"/>
   <path class="fil121" d="M18 52l1 0 0 0 -1 0c0,1 0,0 0,0z"/>
   <path class="fil125" d="M7 50l0 0c0,0 0,0 0,1 0,-1 0,0 0,-1z"/>
   <polygon class="fil126" points="22,99 22,98 21,98 21,99 "/>
   <path class="fil100" d="M32 102c0,1 0,0 0,0l1 0c-1,0 -1,0 0,-1l-1 1z"/>
   <path class="fil122" d="M32 20l-1 0 0 0c0,1 0,0 0,0l1 0z"/>
   <path class="fil125" d="M9 48l0 0 1 0c0,0 0,0 0,0l1 0c0,0 0,0 0,0l0 -1 -2 1z"/>
   <path class="fil108" d="M11 36l0 1c1,-1 0,0 1,-1 0,-1 0,0 -1,0 0,0 0,0 0,0z"/>
   <polygon class="fil81" points="15,13 15,13 16,12 15,12 "/>
   <path class="fil126" d="M53 64l0 0 0 0 -1 0c1,0 1,0 1,0z"/>
   <path class="fil91" d="M33 99c0,0 1,1 0,-1 -1,1 0,0 0,1l0 0 0 0z"/>
   <path class="fil100" d="M8 40c1,0 0,0 1,0 0,0 -1,-1 -1,0l0 0z"/>
   <path class="fil64" d="M38 104c1,0 1,1 1,0 0,-1 0,0 -1,-1l0 1 0 0z"/>
   <path class="fil127" d="M32 99c0,0 0,0 0,-1 0,1 0,1 0,1 0,0 0,0 0,0 0,0 0,0 0,0z"/>
   <path class="fil51" d="M7 2l0 1c0,0 0,0 0,-1 0,0 0,0 0,0l0 0z"/>
   <path class="fil122" d="M12 9c-1,-1 0,-1 -1,-1 0,0 0,0 0,0 0,0 0,0 1,1z"/>
   <path class="fil128" d="M26 102l0 0c0,-1 0,-1 0,-1l0 1 0 0z"/>
   <path class="fil81" d="M20 6c0,0 0,0 0,-1 0,0 0,0 -1,0l0 0 1 1z"/>
   <path class="fil129" d="M16 31l0 0c0,0 1,0 1,0l0 0 -1 0 0 0z"/>
   <path class="fil64" d="M13 102l0 -1c-1,1 -1,0 -1,1l1 0z"/>
   <path class="fil48" d="M39 44c1,0 1,0 1,0l0 -1c0,0 0,0 -1,1z"/>
   <path class="fil51" d="M33 40c1,0 1,0 1,-1 -1,1 -1,1 -1,1z"/>
   <path class="fil115" d="M55 50c0,0 0,0 0,0 1,0 0,0 1,0 0,-1 0,0 -1,-1l0 1 0 0z"/>
   <path class="fil130" d="M28 104l1 0c0,-1 0,-1 -1,-1 0,1 1,0 0,1z"/>
   <path class="fil100" d="M44 37c0,-1 0,0 0,-1 -1,0 -1,0 -1,0 0,1 0,0 1,1z"/>
   <path class="fil117" d="M40 33c0,-1 0,-1 -1,-1 1,1 1,1 1,1z"/>
   <polygon class="fil75" points="32,59 33,58 33,58 32,58 "/>
   <polygon class="fil91" points="22,33 22,32 21,32 "/>
   <path class="fil100" d="M41 41c0,0 0,0 0,0 0,-1 0,-1 0,-1 0,0 0,0 0,0 0,1 0,1 0,1z"/>
   <path class="fil124" d="M13 66l0 -1 -1 0c0,1 0,0 0,1 1,0 0,0 1,0z"/>
   <path class="fil120" d="M29 63c0,0 0,1 0,0l-1 0c0,0 1,0 1,0 0,0 0,0 0,0 0,0 0,0 0,0z"/>
   <path class="fil120" d="M19 39c0,0 0,0 0,0 1,-1 0,0 0,-1l0 1z"/>
   <path class="fil48" d="M39 45c1,-1 0,0 1,-1 -1,0 -1,0 -1,1z"/>
   <path class="fil100" d="M23 101l0 -1c-1,0 -1,0 -1,0 0,1 0,1 1,1z"/>
   <path class="fil48" d="M43 36c0,-1 0,0 0,0l0 0 0 0z"/>
   <path class="fil120" d="M30 89c0,-1 0,-1 0,-1l0 1 0 0z"/>
   <path class="fil51" d="M42 25l0 -1 0 0c0,1 0,0 0,1z"/>
   <path class="fil131" d="M53 65l0 -1 0 0c0,1 -1,0 0,1z"/>
   <path class="fil117" d="M37 36c1,-1 1,0 1,-1l0 0c-1,0 -1,0 -1,1z"/>
   <path class="fil91" d="M15 105c0,-1 0,0 0,0 0,0 0,0 0,0z"/>
   <path class="fil51" d="M35 37c1,0 1,0 1,0 0,0 0,0 0,0l-1 0z"/>
   <path class="fil117" d="M38 103c0,0 0,0 0,0 0,0 0,0 0,0l0 0z"/>
   <path class="fil129" d="M44 81c1,0 0,0 1,-1 -1,1 -1,0 -1,1z"/>
   <path class="fil115" d="M26 19c1,-1 1,-1 1,-1 0,0 -1,0 -1,1z"/>
   <path class="fil48" d="M14 33l0 0 0 0c0,0 0,0 0,0z"/>
   <path class="fil129" d="M30 27l-1 0c1,0 0,0 1,0z"/>
   <path class="fil100" d="M42 24c0,0 0,0 -1,0l0 0 1 0z"/>
   <path class="fil129" d="M43 8l0 -1c0,1 0,0 0,1z"/>
   <polygon class="fil115" points="21,7 21,8 21,7 "/>
   <path class="fil124" d="M52 47c0,-1 0,-1 0,-1 -1,0 0,0 -1,0 1,0 1,0 1,0 0,0 0,0 0,0 0,1 0,0 0,1z"/>
   <path class="fil129" d="M13 23c0,0 1,0 0,0l0 0z"/>
   <path class="fil132" d="M13 74c0,0 0,0 0,0l0 0c0,0 0,0 0,0z"/>
   <path class="fil121" d="M7 2c0,0 0,0 0,-1 -1,0 0,1 -1,0l1 1z"/>
   <polygon class="fil117" points="5,46 5,45 "/>
   <polygon class="fil124" points="6,70 7,69 "/>
  </g>
 </g>
</svg>
