<?xml version="1.0" encoding="UTF-8"?>
<!DOCTYPE svg PUBLIC "-//W3C//DTD SVG 1.1//EN" "http://www.w3.org/Graphics/SVG/1.1/DTD/svg11.dtd">
<!-- Creator: CorelDRAW X7 -->
<svg xmlns="http://www.w3.org/2000/svg" xml:space="preserve" width="49.259mm" height="51.4405mm" version="1.1" style="shape-rendering:geometricPrecision; text-rendering:geometricPrecision; image-rendering:optimizeQuality; fill-rule:evenodd; clip-rule:evenodd"
viewBox="0 0 509 532"
 xmlns:xlink="http://www.w3.org/1999/xlink">
 <defs>
  <style type="text/css">
   <![CDATA[
    .str0 {stroke:#ECF6F3;stroke-width:2.58386}
    .str1 {stroke:#FEFEFE;stroke-width:0.787561}
    .fil2 {fill:none}
    .fil3 {fill:#FEFEFE}
    .fil0 {fill:#FFEF6D}
    .fil1 {fill:#E0AD12}
    .fil4 {fill:#FEFEFE;fill-rule:nonzero}
   ]]>
  </style>
   <clipPath id="id0">
    <path d="M12 12l497 0 0 520 -497 0 0 -520z"/>
   </clipPath>
    <clipPath id="id1">
     <path d="M102 82l294 0 0 294 -294 0 0 -294z"/>
    </clipPath>
    <clipPath id="id2">
     <path d="M192 171l114 0 0 115 -114 0 0 -115z"/>
    </clipPath>
 </defs>
 <g id="圖層_x0020_1">
  <metadata id="CorelCorpID_0Corel-Layer"/>
  <g style="clip-path:url(#id0)">
   <image x="12" y="12" width="497" height="519" xlink:href="home_button1_Images\home_button1_ImgID1.png"/>
  </g>
  <path class="fil0" d="M84 0l341 0c46,0 84,38 84,84l0 364c0,46 -38,84 -84,84l-341 0c-46,0 -84,-38 -84,-84l0 -364c0,-46 38,-84 84,-84z"/>
  <path class="fil1" d="M509 370l0 78c0,46 -38,84 -84,84l-341 0c-46,0 -84,-38 -84,-84l0 -78c0,17 14,32 31,32l447 0c17,0 31,-15 31,-32z"/>
  <rect class="fil2 str0" x="25" y="22" width="458" height="479" rx="76" ry="77"/>
  <g id="_2173381840752">
   <g style="clip-path:url(#id1)">
    <image x="102" y="82" width="293" height="294" xlink:href="home_button1_Images\home_button1_ImgID2.png"/>
   </g>
  </g>
  <path class="fil3 str1" d="M165 291c1,-1 7,-8 8,-10 2,-3 4,-6 6,-9 6,-10 3,-8 -2,-20 -1,-3 -3,-7 -4,-10 -1,-5 -3,-6 -8,-7 -8,-2 -16,-3 -24,-5l0 -22c8,-1 16,-3 24,-5 11,-2 7,-4 13,-17 5,-12 5,-8 -2,-19l-12 -17 16 -16c2,1 4,2 5,3l17 10c8,6 9,-1 26,-7 11,-3 8,-1 13,-22 3,-13 1,-12 6,-12 6,0 12,0 18,0 1,3 2,8 3,12 1,4 2,8 2,12 3,11 4,7 18,13 13,5 10,9 21,2 2,-1 17,-11 18,-11l16 15 -15 22c-1,2 -2,3 -1,6 0,1 3,8 4,10 8,18 -1,14 25,19 4,1 8,2 12,3l0 22c-8,2 -16,3 -24,5 -5,1 -8,1 -9,6 -1,4 -2,7 -4,11 -1,2 -4,8 -5,10 0,4 3,8 5,10 4,7 8,12 12,18 -1,2 -15,15 -16,16 -1,-1 -15,-10 -18,-12 -10,-6 -8,-5 -15,-1 -6,3 -10,5 -17,6 -5,2 -5,3 -6,9l-6 24 -21 0c-1,-2 -5,-21 -6,-24 -1,-6 -1,-7 -6,-9 -13,-3 -18,-8 -22,-9 -4,-1 -7,2 -10,4 -3,2 -17,12 -19,12l-16 -16 -14 1c-2,2 4,8 8,11 1,2 16,17 18,18 5,4 9,-1 12,-3l17 -11c3,-2 2,-1 6,0l13 6c1,1 5,22 6,25 2,11 5,9 23,9 5,0 11,0 16,0 6,0 7,-3 8,-8 1,-6 4,-22 6,-26 4,-2 8,-3 12,-5 5,-3 3,-3 11,2 3,2 18,12 21,12 4,1 7,-3 10,-6l22 -23c-2,-3 -19,-27 -19,-29l6 -15c2,-1 23,-5 26,-5 5,-1 8,-2 9,-8 0,-8 0,-23 0,-32 0,-5 -3,-6 -8,-8 -9,-1 -18,-3 -27,-5 -1,-2 -2,-5 -3,-8 0,-1 -3,-7 -3,-7 0,-1 16,-23 17,-26 1,-3 -1,-6 -2,-7 -2,-2 -4,-4 -6,-6l-16 -16c-6,-6 -9,-2 -20,5l-13 8c-2,0 -6,-3 -8,-4 -2,0 -9,-2 -9,-3 -1,-2 -5,-22 -6,-26 -2,-11 -5,-9 -23,-9 -6,0 -11,0 -16,0 -6,0 -7,3 -8,9 -2,6 -5,21 -6,26 -3,1 -6,2 -9,3 -11,5 -6,7 -15,1l-20 -12c-3,-2 -6,0 -8,2l-20 21c-3,3 -6,6 -2,11l6 9c3,5 6,9 9,13 2,3 1,2 -1,7 -4,10 -1,8 -9,9l-20 5c-11,2 -8,5 -8,23 0,5 0,10 0,15 0,6 2,7 7,9 3,0 26,5 26,5l1 2c0,1 0,1 1,2 0,1 1,3 1,4 1,2 2,5 3,7l-16 29 14 -1z"/>
  <g id="_2173381840432">
   <g style="clip-path:url(#id2)">
    <image x="192" y="171" width="114" height="114" xlink:href="home_button1_Images\home_button1_ImgID3.png"/>
   </g>
  </g>
  <path class="fil3 str1" d="M255 170c27,0 49,22 49,50 0,27 -22,49 -49,49 -28,0 -50,-22 -50,-49 0,-28 22,-50 50,-50zm0 15c18,0 34,16 34,35 0,18 -16,34 -34,34 -19,0 -35,-16 -35,-34 0,-19 16,-35 35,-35z"/>
  <path class="fil4" d="M191 416c1,2 2,5 3,8l11 0 0 7 -29 0 0 -7 11 0c-1,-3 -2,-5 -3,-7l7 -1zm-13 20l24 0 0 6 -24 0 0 -6zm0 11l24 0 0 6 -24 0 0 -6zm24 12l0 22 -17 0 0 6 -7 0 0 -28 24 0zm-17 16l10 0 0 -10 -10 0 0 10zm52 -57l0 17c0,2 1,3 3,3l6 0 0 7 -8 0c-3,0 -5,0 -6,-1 -2,-2 -2,-4 -2,-7l0 -13 -12 0c0,5 -1,9 -2,11 -1,3 -3,7 -7,11l-6 -5c4,-4 6,-6 6,-8 1,-2 1,-7 1,-15l27 0zm-30 29l33 0 0 6c-2,7 -5,14 -9,20 4,3 10,5 16,7l-4 7c-8,-3 -13,-6 -18,-9 -4,4 -10,7 -17,9l-5 -6c7,-2 12,-5 16,-8 -4,-4 -8,-9 -11,-14l7 -4c2,5 6,10 10,13 4,-4 6,-9 8,-14l-26 0 0 -7z"/>
  <path id="1" class="fil4" d="M296 416c1,2 2,4 3,6l29 0 0 19 -7 0 0 -12 -53 0 0 12 -7 0 0 -19 30 0c-1,-2 -2,-3 -3,-5l8 -1zm-26 22l50 0 0 7 -22 0 0 12 23 0 0 6 -23 0 0 14c4,1 9,1 16,1 5,0 11,0 17,0l-2 7c-19,0 -31,0 -36,-2 -4,-1 -8,-2 -13,-6 -2,-1 -4,-3 -6,-6 -2,5 -6,10 -10,16l-6 -7c5,-4 8,-9 10,-13 2,-4 4,-9 5,-16l7 1c-1,5 -2,8 -3,12 3,4 6,7 9,9 1,1 3,2 5,2l0 -30 -21 0 0 -7z"/>
 </g>
</svg>
