<?xml version="1.0" encoding="UTF-8"?>
<!DOCTYPE svg PUBLIC "-//W3C//DTD SVG 1.1//EN" "http://www.w3.org/Graphics/SVG/1.1/DTD/svg11.dtd">
<!-- Creator: CorelDRAW X7 -->
<svg xmlns="http://www.w3.org/2000/svg" xml:space="preserve" width="35.169mm" height="26.6732mm" version="1.1" style="shape-rendering:geometricPrecision; text-rendering:geometricPrecision; image-rendering:optimizeQuality; fill-rule:evenodd; clip-rule:evenodd"
viewBox="0 0 167 127"
 xmlns:xlink="http://www.w3.org/1999/xlink">
 <defs>
  <style type="text/css">
   <![CDATA[
    .str2 {stroke:#332C2B;stroke-width:0.948881}
    .str1 {stroke:#61913D;stroke-width:0.948881}
    .str4 {stroke:#332C2B;stroke-width:0.474441}
    .str3 {stroke:#332C2B;stroke-width:0.474441}
    .str0 {stroke:#FDD100;stroke-width:0.361524}
    .fil7 {fill:none}
    .fil29 {fill:#FEFEFE}
    .fil13 {fill:#FEFEFE}
    .fil23 {fill:#FEFEFE}
    .fil12 {fill:#332C2B}
    .fil10 {fill:#FDD100}
    .fil15 {fill:#020201}
    .fil22 {fill:#2D320D}
    .fil24 {fill:#5B7827}
    .fil18 {fill:#7E8235}
    .fil5 {fill:#89743A}
    .fil26 {fill:#8EB447}
    .fil25 {fill:#8F9C40}
    .fil4 {fill:#917D42}
    .fil2 {fill:#937F44}
    .fil1 {fill:#948045}
    .fil6 {fill:#958047}
    .fil17 {fill:#9DB01C}
    .fil27 {fill:#A6D43C}
    .fil21 {fill:#AAB659}
    .fil9 {fill:#ADB8A5}
    .fil28 {fill:#B7EA55}
    .fil14 {fill:#D4E17F}
    .fil30 {fill:#D4E17F}
    .fil20 {fill:#DA8164}
    .fil19 {fill:#E6B6AE}
    .fil8 {fill:#EBF5E3}
    .fil16 {fill:#FAF1D3}
    .fil11 {fill:#61913D}
    .fil3 {fill:#877514}
    .fil0 {fill:#70590F}
   ]]>
  </style>
 </defs>
 <g id="圖層_x0020_1">
  <metadata id="CorelCorpID_0Corel-Layer"/>
  <path class="fil0" d="M20 40l0 59 -1 1c2,0 2,1 1,-1l0 -1 0 -15 0 -1c1,-3 1,-13 0,-15l0 -2c1,-2 0,-12 0,-15l0 -1c8,0 46,-1 49,0 2,0 4,-1 6,-2 2,0 4,-1 7,-1 6,0 9,2 13,3 2,1 9,0 12,0l38 0c1,5 -1,12 0,18 0,1 0,12 0,13 0,2 -1,1 1,2l0 -42 -65 -26 -61 26z"/>
  <path class="fil1" d="M110 82c6,0 32,-1 35,0 0,0 0,1 -1,1l-35 0c-2,4 -1,10 -1,14 0,0 1,1 1,1 4,1 26,0 33,0 1,0 2,0 2,0l1 2 0 0 1 0 0 -4 0 -5 0 -9c-2,-1 -1,0 -1,-2 0,-1 0,-12 0,-13 -2,1 -29,0 -35,0l0 15z"/>
  <path class="fil2" d="M107 68c1,2 1,11 1,13 0,1 0,1 1,1 0,0 0,0 1,0l0 -15c6,0 33,1 35,0 -1,-6 1,-13 0,-18l-38 0c-3,0 -10,1 -12,0l2 2c1,0 2,1 2,1 5,4 8,10 8,16z"/>
  <path class="fil1" d="M20 65l39 0c1,-4 2,-6 4,-9 1,-1 2,-2 3,-3 1,-2 2,-2 3,-4 -3,-1 -41,0 -49,0l0 1c0,3 1,13 0,15z"/>
  <path class="fil0" d="M19 100l0 0 1 3 -1 12 39 0 0 -16c-2,0 -15,0 -19,0 -4,0 -16,1 -19,0 1,2 1,1 -1,1z"/>
  <path class="fil1" d="M20 98c4,0 34,0 38,1l0 -17c-8,2 -30,0 -38,1l0 15z"/>
  <path class="fil3" d="M107 113l1 2 37 -1 0 -14 0 0 -34 0c-1,0 -1,0 -1,0 0,0 0,1 0,0 0,0 -1,1 -1,1 0,0 0,0 0,0l0 14c-1,-3 -2,-2 -2,-2z"/>
  <path class="fil1" d="M24 82l30 0c0,-9 -1,-10 -1,-15l-28 0c0,0 0,0 0,0 0,0 0,0 0,1 -1,1 0,-1 0,1l-1 13z"/>
  <path class="fil4" d="M107 113c0,0 1,-1 2,2l0 -14c0,0 0,0 0,0 0,0 1,-1 1,-1 0,1 0,0 0,0 0,0 0,0 1,0l34 0 -1 -2c0,0 -1,0 -2,0 -7,0 -29,1 -33,0 0,0 -1,-1 -1,-1 0,-4 -1,-10 1,-14 -2,0 -2,-1 -2,3 0,5 1,10 0,15l0 12z"/>
  <path class="fil4" d="M23 82l1 0 1 -13c0,-2 -1,0 0,-1 0,-1 0,-1 0,-1 0,0 0,0 0,0l28 0c0,5 1,6 1,15l0 0c0,-13 2,-6 2,-11 0,-2 0,-2 0,-4l2 -1 1 -1 -39 0 0 2 2 0c2,3 1,11 1,15z"/>
  <path class="fil5" d="M107 115c2,1 35,0 39,0l0 -15 -1 0 0 14 -37 1 -1 -2 0 -12c1,-5 0,-10 0,-15 0,-4 0,-3 2,-3l35 0c1,0 1,-1 1,-1 -3,-1 -29,0 -35,0 -1,0 -1,0 -1,0 -1,0 -1,0 -1,-1 0,-2 0,-11 -1,-13l0 47z"/>
  <path class="fil5" d="M54 82l0 0 -30 0 -1 0 -3 0 0 1c8,-1 30,1 38,-1l0 17c-4,-1 -34,-1 -38,-1l0 1c3,1 15,0 19,0 4,0 17,0 19,0l0 -31c-1,2 0,11 0,14l-4 0z"/>
  <path class="fil6" d="M52 78l4 0c0,-3 -1,-14 1,-15l0 -2 -3 0c-1,2 0,2 0,4 0,7 -2,-1 -2,13z"/>
  <path class="fil6" d="M20 82l3 0c0,-4 1,-12 -1,-15l-2 0c1,2 1,12 0,15z"/>
  <path class="fil7" d="M164 35l-1 6c1,0 0,1 1,0 0,0 0,0 0,0 0,0 0,-1 1,-1 0,0 0,0 0,1 0,0 0,1 2,1 -1,-1 -1,-2 -1,-3 -1,-1 -1,1 -1,-1 0,-1 0,-2 0,-3"/>
  <path class="fil8" d="M153 77c1,0 1,0 1,1 1,1 1,1 2,2 0,0 0,0 0,1l1 1c0,0 0,0 0,0l1 -2c-1,-1 -1,-1 -2,-2 -1,-1 1,1 0,0 -3,-2 0,-2 -4,-3 0,4 0,0 1,2z"/>
  <path class="fil9" d="M154 79l0 -1c0,-1 0,-1 -1,-1 0,0 0,0 0,1 0,0 0,0 1,1z"/>
  <path class="fil10 str0" d="M68 44c-1,2 -3,2 -4,4 -1,1 -3,3 -3,4 -3,3 -3,6 -5,10l0 1 0 2 -1 35 0 17 55 0 0 -52c-1,-7 -4,-13 -9,-17 -1,-1 -1,-2 -2,-2l-3 -3c-4,0 -7,-3 -14,-3 -3,1 -6,1 -8,2 -2,1 -5,2 -6,2z"/>
  <rect class="fil11 str1" x="10" y="113" width="142.867" height="6.22141"/>
  <rect class="fil11 str1" x="6" y="120" width="150.645" height="6.22141"/>
  <polyline class="fil7 str2" points="81,13 6,45 3,40 81,6 "/>
  <polygon class="fil12 str2" points="81,1 81,13 6,45 1,35 "/>
  <polygon class="fil12 str2" points="81,1 81,13 155,45 160,35 "/>
  <circle class="fil13" cx="64" cy="23" r="1"/>
  <circle class="fil13" cx="60" cy="31" r="1"/>
  <circle class="fil13" cx="53" cy="37" r="1"/>
  <circle class="fil13" cx="45" cy="38" r="1"/>
  <circle class="fil13" cx="37" cy="35" r="1"/>
  <circle class="fil13" cx="46" cy="31" r="1"/>
  <circle class="fil13" cx="37" cy="40" r="1"/>
  <circle class="fil13" cx="28" cy="40" r="1"/>
  <circle class="fil13" cx="22" cy="45" r="1"/>
  <circle class="fil13" cx="94" cy="23" r="1"/>
  <circle class="fil13" cx="97" cy="31" r="1"/>
  <circle class="fil13" cx="105" cy="37" r="1"/>
  <circle class="fil13" cx="113" cy="38" r="1"/>
  <circle class="fil13" cx="120" cy="35" r="1"/>
  <circle class="fil13" cx="111" cy="31" r="1"/>
  <circle class="fil13" cx="120" cy="40" r="1"/>
  <circle class="fil13" cx="129" cy="40" r="1"/>
  <circle class="fil13" cx="135" cy="45" r="1"/>
  <path class="fil14" d="M87 94c2,8 15,5 13,-3 -1,-9 -15,-6 -13,3zm-25 -3c1,8 14,6 13,-3 -2,-8 -15,-6 -13,3zm12 -20l1 0c5,-1 12,-1 17,2l6 5 0 0 -2 -3c1,-1 7,-7 9,-8 2,-1 9,-4 12,-3l-1 0c-4,1 -7,2 -10,5 -3,5 -3,6 -5,11l-1 3c0,-1 1,-2 1,-3 1,1 0,2 0,3 1,0 1,-1 3,-2 -1,1 -1,2 -1,3 1,-1 2,-1 4,-1 -1,1 -2,1 -3,2 -1,2 0,10 -1,13 0,2 -3,7 -4,8 -6,-1 -8,-1 -12,-6 -4,-4 -1,-9 -1,-14 4,-18 -9,-18 -10,-6 0,5 2,11 -1,15 -2,5 -5,7 -11,6 -5,0 -6,-7 -5,-11 2,-8 2,-6 -1,-14 0,1 1,0 1,2 1,-1 0,-2 1,-2 0,0 0,1 0,1 1,0 1,-2 2,-2l0 0 -1 3c1,-1 2,-4 2,-5 1,-4 0,-9 -2,-13 -1,-1 -7,-4 -5,-6 4,3 5,4 8,8 2,2 5,7 6,10l-3 2 7 -3z"/>
  <path class="fil15" d="M79 110c-21,-4 19,2 0,0zm-18 -9c4,5 11,7 17,8 4,1 12,0 17,0 2,-1 4,-2 4,-3 -1,0 -7,1 -10,-3 -3,-3 -5,-4 -5,-9 0,-5 5,-17 -1,-21 -3,-3 -6,3 -6,6 0,4 1,9 0,13 -1,7 -8,13 -16,9zm48 -33c-7,6 -7,13 -7,13l3 -2 -1 3 0 0 2 -1c2,-2 4,-5 4,-8 1,-4 3,-5 4,-8l0 0 -5 3zm-50 7c1,0 1,1 1,1 2,-2 2,-1 3,-3 0,-5 0,-10 -3,-13l-3 -3c0,0 0,4 0,6 0,3 -4,9 2,13 0,-1 0,-1 0,-1zm40 31c2,-1 3,-2 4,-3 2,-4 1,-7 1,-12 -1,-3 -1,-3 0,-6 0,-1 2,-1 2,-2 -1,0 -2,1 -3,1 0,-1 0,-2 1,-3 -2,1 -2,2 -3,2 0,-1 1,-2 0,-2 0,1 0,1 -1,2l1 -3c2,-5 2,-6 5,-11 3,-3 6,-4 10,-5l1 0 -3 -1c-6,-2 -8,0 -13,2 -2,1 -9,6 -9,8l0 0c-5,-3 -12,-3 -17,-2l0 0c-6,-3 -9,-18 -19,-17 -2,2 10,7 7,19 0,1 0,3 -2,5l1 -3c-1,1 -1,3 -2,3 0,-1 0,-1 0,-2 -1,0 0,1 -1,2 0,-1 -1,-1 -1,-2 3,8 3,6 1,14 -1,4 0,11 5,11 6,1 9,-1 11,-6 3,-4 1,-10 1,-15 1,-12 14,-12 10,6 0,5 -3,10 1,14 4,5 6,5 12,6zm-35 -1c-6,-4 -7,-12 -5,-18 2,-8 -5,-11 -4,-19 1,-3 3,-8 1,-10 -3,-5 0,-6 4,-4 6,2 10,9 12,12 2,4 3,4 4,4 4,-1 7,0 11,1 1,0 4,1 5,1 0,0 1,-2 2,-3 2,-2 6,-4 8,-6 3,-1 5,-1 8,-1 4,-1 10,-1 5,3 -1,0 -1,1 -2,2 -1,2 -2,3 -2,5 -1,2 -1,4 -2,6 0,1 -4,4 -4,5 1,-1 2,0 2,-1 0,2 -4,2 -3,7 0,3 1,5 1,9 -5,20 -37,11 -41,7z"/>
  <path class="fil16" d="M80 99c1,-1 4,-2 2,-3 0,-1 -3,-1 -4,-1 0,1 1,3 2,3 -3,1 -3,0 -4,0 0,1 1,1 2,1 1,0 1,0 2,0 0,1 1,1 2,1 1,0 1,0 2,0 0,-1 -3,0 -4,-1zm-19 2c8,4 15,-2 16,-9 1,-4 0,-9 0,-13 0,-3 3,-9 6,-6 6,4 1,16 1,21 0,5 2,6 5,9 4,3 8,3 10,3 -1,1 -2,2 -4,3 -5,1 -13,1 -17,0 -6,-1 -13,-3 -17,-8z"/>
  <path class="fil17" d="M117 64c-5,-1 -18,6 -21,11l2 3 0 0 -6 -5 0 0c2,0 1,0 2,-1 2,-2 6,-5 8,-6 2,-1 3,-1 6,-2 3,-2 6,-1 6,-1l3 0 0 1 0 0z"/>
  <path class="fil18" d="M67 94c17,3 -16,-2 0,0zm-5 -3c-2,-9 11,-11 13,-3 1,9 -12,11 -13,3z"/>
  <path class="fil18" d="M93 97c17,2 -16,-2 0,0zm-6 -3c-2,-9 12,-12 13,-3 2,8 -11,11 -13,3z"/>
  <path class="fil17" d="M74 70c0,0 0,1 1,1l-8 3 3 -2c-1,-3 -4,-8 -6,-10 -3,-4 -5,-5 -8,-8 1,-1 1,-1 2,0 0,0 4,3 4,3 4,4 9,9 10,14 0,0 1,-1 2,-1z"/>
  <path class="fil19" d="M60 60c3,11 0,14 -1,15 0,0 0,0 0,1 -6,-4 -2,-10 -2,-13 0,-2 0,-6 0,-6l3 3z"/>
  <path class="fil19" d="M106 81c-2,1 0,-10 3,-13l5 -3c-1,3 -3,4 -4,8 0,3 -2,6 -4,8z"/>
  <path class="fil14" d="M114 63c0,0 -4,0 -6,1 -3,1 -4,1 -6,2 -2,1 -6,4 -8,6 -1,1 0,1 -2,1 0,-2 7,-7 9,-8 5,-2 7,-4 13,-2z"/>
  <path class="fil20" d="M59 75c1,-1 4,-4 1,-15 3,3 3,8 3,13 -1,2 -1,1 -3,3 0,0 0,-1 -1,-1z"/>
  <path class="fil14" d="M74 70l-2 1c-1,-5 -6,-10 -10,-14 0,-1 -4,-3 -4,-3 6,0 14,11 16,16z"/>
  <path class="fil20" d="M106 81c-1,0 -2,1 -2,1 0,-1 0,-2 1,-3 -1,1 -2,2 -3,2 -1,0 -1,-5 5,-11 1,-1 1,-1 2,-2 -3,3 -5,14 -3,13z"/>
  <path class="fil21" d="M99 106c1,-1 4,-7 4,-8 0,-3 0,-11 1,-13 -1,3 -1,3 0,6 0,5 1,8 -1,12 -1,1 -2,2 -4,3z"/>
  <path class="fil15" d="M82 96c-1,0 -2,0 -3,0 0,0 1,2 1,2 1,0 1,0 1,-1 1,0 1,0 1,-1zm-2 3c1,1 4,0 4,1 -1,0 -1,0 -2,0 -1,0 -2,0 -2,-1 -1,0 -1,0 -2,0 -1,0 -2,0 -2,-1 1,0 1,1 4,0 -1,0 -2,-1 -2,-3 1,0 4,0 5,1 0,1 -2,2 -3,3z"/>
  <path class="fil22" d="M82 96c0,1 0,1 -1,1 0,1 0,1 -1,1 0,0 -1,-2 -1,-2 1,0 2,0 3,0z"/>
  <circle class="fil23" transform="matrix(-0.0396235 0.00214626 0.00214626 0.0396235 78.8078 95.8572)" r="6"/>
  <g id="_2173595417056">
   <g>
    <path class="fil24" d="M89 65l0 1 -1 -1 0 0c-1,1 -1,1 -2,1l1 1 2 -1c0,0 0,0 0,0 -1,0 0,0 -1,0 1,0 2,0 2,0 -1,1 -1,1 -2,1 -1,0 -1,0 -1,0l0 1c-1,0 -1,0 -1,0 0,1 0,1 -1,1 0,0 0,0 0,0 0,1 0,1 0,2 0,0 0,0 0,0 0,0 0,0 0,0l0 0c0,0 0,0 0,1 1,1 3,-1 3,-1 1,-1 1,-4 2,-5 0,0 0,0 0,0 0,0 0,0 0,0 0,1 0,0 0,1 0,1 0,0 0,1 0,-1 1,-1 1,-1 0,-1 -1,-1 -1,-2 -1,0 0,0 -1,0 0,0 0,1 0,0 1,-1 3,-2 4,0l0 1c1,-1 1,0 1,0 0,0 -1,0 -1,0l0 1c-1,0 -1,0 -2,0l-1 1c-1,0 0,1 -1,1l0 1c1,0 1,0 2,-1 0,1 0,1 0,1 0,0 0,0 0,0 0,0 0,0 0,0l1 -1c-1,0 -1,0 -1,0l1 -1c0,0 0,0 0,0 0,1 0,1 0,1 0,0 0,0 1,0 0,-1 0,-1 0,-2l0 0c1,-1 0,-1 1,-1 0,1 0,0 0,1 1,0 1,-1 2,-1l0 1c1,0 4,-3 4,0 2,0 2,2 1,3 0,0 0,0 0,1l0 0c0,0 0,0 0,0 0,0 0,-1 0,-1 -1,1 0,1 -1,1 1,0 1,1 2,1 0,1 0,0 0,2 1,0 1,1 1,1 0,0 0,1 0,1 0,0 0,0 -1,0 0,0 0,0 0,1 0,0 0,0 0,1 -1,1 -3,0 -5,-1 0,1 0,1 -1,2 1,0 1,0 1,-1 -4,0 -2,0 -4,-1l0 -2c-1,0 -1,0 -1,-1 1,0 0,0 0,1 1,0 1,0 1,0 1,0 1,0 1,0 1,0 1,0 2,0 0,0 2,-1 2,-1 0,0 0,0 -1,0 0,0 0,0 0,0 0,0 0,0 0,0l0 -1c-2,0 0,1 -3,0 -1,0 -1,0 -1,0 0,0 1,0 1,0 0,0 1,0 2,0 -1,0 -1,-1 -1,-1 1,0 0,0 1,0 0,1 1,0 1,0l0 -1c0,0 1,0 1,0 0,-1 -1,-2 0,-2l-1 0 0 0c0,0 -1,0 -1,0 -1,0 -2,1 -3,1l0 1c0,0 0,0 -1,0l0 0c0,0 0,0 0,0 1,1 1,1 1,1 1,0 0,0 1,0 0,0 -1,0 -1,0 0,0 0,0 0,0 -1,0 -1,0 -2,0 -1,0 -1,-1 -2,0 -1,0 -2,1 -4,1 0,0 0,-1 0,-1 0,0 0,0 0,0 0,1 0,1 0,1 1,1 2,1 4,1 2,-1 2,-2 4,-2 0,1 0,1 -1,1 0,0 -3,2 -5,1 -1,0 0,0 0,0 0,1 -1,0 0,0l0 1c1,1 2,1 4,1l1 1c-1,0 -3,0 -4,-1 -1,0 0,0 -2,0 0,1 0,2 -1,2 0,-1 0,-1 0,-1 -1,0 -4,1 -5,-1l0 0c0,0 -1,0 -1,1 0,0 0,0 0,0l0 0c-1,0 -1,0 -2,-1 -2,2 -5,0 -4,-1 0,0 0,0 0,0 1,-1 2,-1 3,-1l-1 0c0,0 0,0 -1,1 -1,0 -1,0 -2,-1 -1,0 -1,0 -1,-1 0,0 0,0 0,0 0,0 0,2 0,2 1,0 1,0 1,1 -1,0 -2,-1 -2,-1 -1,0 -1,-1 -1,-2 -3,1 -2,1 -3,2 -1,1 -2,0 -3,0 -1,0 -2,0 -2,0 -1,-1 0,-3 1,-3 -2,-2 -2,-4 -1,-4 1,0 1,0 1,1 1,0 3,1 3,2 1,0 0,0 1,0 0,-1 -1,-1 -1,-1 0,0 0,-1 -1,-2 0,0 0,0 0,0 0,0 0,0 -1,-1 1,0 0,0 1,0l1 0c0,-1 0,-2 0,-3 1,0 2,2 2,3 0,1 0,1 1,2 0,0 0,0 0,0l0 0c0,1 0,0 0,0 0,0 0,0 1,-1 0,0 0,0 0,0 1,-1 2,-1 3,-1 0,0 0,0 0,0 0,0 0,0 0,0 0,1 0,2 0,2 0,1 0,1 0,2l0 0c0,0 0,0 0,0l-1 -1 -1 0c0,0 0,0 0,0 1,1 1,2 1,3 0,0 0,0 0,0 1,1 1,1 2,1 0,0 1,0 2,0 -1,0 -1,-1 -2,-1 -1,-1 0,0 -1,-1 0,-2 0,0 0,-1 0,-1 0,-1 0,-2 0,-1 0,-2 0,-3 1,0 1,1 2,1 0,0 0,-1 0,-1l-1 -1c0,-1 0,-1 0,-2 -1,1 -1,1 -1,2 0,0 0,1 0,1l0 1c0,0 0,0 0,-1 0,-1 0,-1 0,-2 0,-1 0,-1 1,-1 0,0 0,0 0,0l0 1c0,0 1,1 1,2 1,-1 0,-4 2,-3 1,0 1,1 1,1l1 0c0,0 0,-1 0,-1 1,0 1,0 1,1 0,1 1,1 1,2 0,0 0,0 0,-1 0,0 0,0 0,0 1,0 2,1 3,2 1,0 1,-1 1,-1 0,0 0,-1 1,-1 0,0 1,1 1,1 1,-1 1,-2 3,-1z"/>
    <path class="fil25" d="M93 77c-1,0 -1,-1 -1,0l-1 -1c-2,0 -3,0 -4,-1l0 -1c-1,0 0,1 0,0 0,0 -1,0 0,0 2,1 5,-1 5,-1 1,0 1,0 1,-1 -2,0 -2,1 -4,2 -2,0 -3,0 -4,-1 0,0 0,0 0,-1 0,0 0,0 0,0 0,0 0,1 0,1 2,0 3,-1 4,-1 1,-1 1,0 2,0 1,0 1,0 2,0 0,0 0,0 0,0 0,0 1,0 1,0 -1,0 0,0 -1,0 0,0 0,0 -1,-1 0,0 0,0 0,0l0 0c1,0 1,0 1,0l0 -1c1,0 2,-1 3,-1 0,0 1,0 1,0l0 0 1 0c-1,0 0,1 0,2 0,0 -1,0 -1,0l0 1c0,0 -1,1 -1,0 -1,0 0,0 -1,0 0,0 0,1 1,1 -1,0 -2,0 -2,0 0,0 -1,0 -1,0 0,0 0,0 1,0 3,1 1,0 3,0l0 1c0,0 0,0 0,0 0,0 0,0 0,0 1,0 1,0 1,0 0,0 -2,1 -2,1 -1,0 -1,0 -2,0 0,0 0,0 -1,0 0,0 0,0 -1,0 0,-1 1,-1 0,-1 0,1 0,1 1,1l0 2z"/>
    <path class="fil26" d="M72 66c0,1 0,1 0,1l0 -1c0,0 0,-1 0,-1 0,-1 0,-1 1,-2 0,1 0,1 0,2l1 1c0,0 0,1 0,1 -1,0 -1,-1 -2,-1 0,1 0,2 0,3 0,1 0,1 0,2 0,1 0,-1 0,1 1,1 0,0 1,1 1,0 1,1 2,1 -1,0 -2,0 -2,0 -1,0 -1,0 -2,-1 0,0 0,0 0,0 0,-1 0,-2 -1,-3 0,0 0,0 0,0l1 0 1 1c0,0 0,0 0,0l0 0c0,-1 0,-1 0,-2 0,0 0,-1 0,-2 0,0 0,0 0,0 0,0 0,0 0,0 -1,0 -2,0 -3,1 0,0 0,0 0,0 0,0 0,0 -1,0 0,-1 0,-5 2,-5 0,0 0,1 0,2 1,0 1,1 2,1z"/>
    <path class="fil27" d="M77 72c-1,0 -2,0 -2,0l0 1c0,0 0,0 0,0 0,0 -2,-1 -2,-2 0,-1 0,-2 0,-3 0,0 0,0 0,-1l1 2c1,1 1,2 3,2 -1,-1 0,-1 -1,-1 0,0 -1,0 -1,-1 0,-1 0,-2 0,-3 0,1 0,0 0,1 1,0 0,1 2,1 0,0 0,0 0,0l-1 -1c0,-1 0,0 -1,-1 0,0 0,0 0,0 0,-1 0,-1 0,-2 0,-1 1,-2 1,0 0,2 1,3 1,4 0,1 0,2 0,3 0,0 0,1 0,1z"/>
    <path class="fil26" d="M89 65l0 0c0,1 0,0 0,0 1,0 0,0 1,0 0,1 1,1 1,2 0,0 -1,0 -1,1 0,-1 0,0 0,-1 0,-1 0,0 0,-1 0,0 0,0 0,0 0,0 0,0 0,0 -1,1 -1,4 -2,5 0,0 -2,2 -3,1 0,-1 0,-1 0,-1l0 0c0,0 0,0 0,0 0,0 0,0 0,0 0,-1 0,-1 0,-2 0,0 0,0 0,0 1,0 1,0 1,-1 0,0 0,0 1,0l0 -1c0,0 0,0 1,0 1,0 1,0 2,-1 0,0 -1,0 -2,0 1,0 0,0 1,0 0,0 0,0 0,0l-2 1 -1 -1c1,0 1,0 2,-1l0 0 1 1 0 -1z"/>
    <path class="fil26" d="M84 71c0,0 0,0 -1,0 0,0 0,1 -1,0 -1,-1 -1,-2 -1,-3 0,-1 0,-1 0,-1 0,-1 0,-1 -1,-2l2 1c0,0 0,0 0,1l1 0c0,0 0,0 0,1 1,1 1,1 1,2 0,0 0,0 0,1z"/>
    <path class="fil27" d="M81 71l0 1c-2,0 -2,-1 -3,-1 0,0 0,0 -1,1 0,-3 1,-3 0,-4 0,-1 0,-1 1,0l0 0c0,0 1,1 1,2 1,0 1,0 2,1 0,0 0,0 0,0z"/>
    <path class="fil27" d="M93 67l0 0c0,1 0,1 0,2 -1,0 -1,0 -1,0 0,0 0,0 0,-1 0,0 0,0 0,0l-1 1c0,0 0,0 1,0l-1 1c0,0 0,0 0,0 0,0 0,0 0,0 0,0 0,0 0,-1 -1,1 -1,1 -2,1l0 -1c1,0 0,-1 1,-1l1 -1c1,0 1,0 2,0l0 -1c0,1 0,1 0,1z"/>
    <path class="fil26" d="M81 74c0,0 0,0 1,-1l-1 1c0,0 0,0 0,0l2 -2c0,0 0,0 1,0 0,1 1,2 0,3 -2,1 -3,-1 -3,-1z"/>
    <path class="fil28" d="M64 73c0,0 0,1 1,2 -1,0 -2,-1 -2,-1 -1,0 -1,1 -2,1 0,-1 0,-1 0,-2 0,0 1,0 1,-1 0,0 0,0 1,0 0,0 0,0 1,0 0,0 0,0 0,1z"/>
    <path class="fil27" d="M101 68l0 1c0,0 0,0 0,0 -1,2 -1,2 -3,2 0,-2 1,-2 1,-3l0 0c0,0 0,0 0,0 0,1 0,1 0,1 1,-1 1,0 1,-1 1,0 1,0 1,0z"/>
   </g>
   <circle class="fil29" cx="72" cy="71" r="1"/>
   <circle class="fil29" cx="76" cy="73" r="1"/>
   <ellipse class="fil29" cx="84" cy="69"/>
   <ellipse class="fil29" cx="87" cy="73"/>
   <ellipse class="fil29" cx="64" cy="73"/>
   <ellipse class="fil29" cx="72" cy="66"/>
   <ellipse class="fil29" cx="91" cy="69"/>
   <ellipse class="fil29" cx="95" cy="74"/>
   <ellipse class="fil29" cx="95" cy="75"/>
   <ellipse class="fil29" cx="100" cy="75"/>
   <ellipse class="fil29" cx="102" cy="72"/>
   <ellipse class="fil29" cx="90" cy="71"/>
   <ellipse class="fil29" cx="97" cy="69"/>
   <ellipse class="fil29" cx="84" cy="75"/>
   <ellipse class="fil29" cx="79" cy="68"/>
   <ellipse class="fil29" cx="70" cy="72"/>
   <ellipse class="fil29" cx="75" cy="66"/>
   <ellipse class="fil29" cx="63" cy="71"/>
   <ellipse class="fil29" cx="78" cy="69"/>
   <ellipse class="fil29" cx="90" cy="67"/>
   <ellipse class="fil29" cx="67" cy="70"/>
   <ellipse class="fil29" cx="89" cy="75"/>
  </g>
  <g id="_2173595427584">
   <g>
    <path class="fil24" d="M81 115l0 -1 0 0 0 0c-1,0 -1,0 -1,0l1 -1 0 1c0,0 0,0 0,0 0,0 0,0 0,0 0,0 1,0 1,0 -1,0 -1,0 -1,-1 0,0 0,0 0,0l0 0c-1,0 -1,0 -1,0 0,0 0,0 0,-1 0,0 0,0 0,0 0,0 0,0 0,0 0,0 0,0 0,0 0,0 0,0 0,0l0 -1c0,0 0,0 0,0 1,0 1,1 1,1 1,0 1,2 1,2 0,0 0,0 0,0 0,0 0,0 0,0 0,0 0,0 0,0 0,-1 0,0 0,-1 0,1 0,1 0,1 0,0 0,0 0,0 -1,1 0,1 -1,0 0,0 0,0 0,1 0,0 1,1 2,0l0 -1c1,1 0,1 1,1 -1,-1 -1,0 -1,-1l0 0c0,0 0,0 0,0l-1 -1c0,0 0,0 0,0l0 -1c0,0 0,0 0,1 1,0 0,0 1,0 0,0 0,0 0,0 0,0 0,0 0,0l0 0c0,0 0,0 0,0l0 0c0,0 0,0 0,0 0,0 0,0 0,0 0,0 0,0 1,0 -1,0 -1,1 -1,1l0 0c0,0 0,0 1,1 0,-1 -1,-1 0,-1 0,0 0,0 1,1l0 -1c0,1 1,2 1,1 1,0 1,-1 1,-2 0,0 0,0 0,0l0 0c0,0 0,0 0,0 0,0 0,0 0,0 0,0 0,0 0,0 0,0 0,0 1,0 0,-1 0,0 0,-1 0,0 0,0 0,-1 0,0 1,0 1,0 -1,0 -1,0 -1,0 0,0 0,0 0,0 0,-1 0,0 0,-1 0,0 -1,0 -2,0 0,-1 0,0 0,-1 0,0 0,0 0,1 -2,-1 -1,-1 -2,0l0 0c0,0 -1,1 -1,1 1,0 0,0 1,0 0,0 0,0 0,0 0,0 0,0 1,0 0,0 0,-1 0,0 0,0 1,1 1,0 0,0 0,0 0,0 0,0 0,0 0,0 0,1 0,1 0,1l0 0c-1,0 0,-1 -2,-1 0,0 0,0 0,0 0,1 0,0 0,0 0,0 0,1 1,1 0,0 0,0 0,0 0,0 0,0 0,0 0,0 0,0 0,0l1 1c0,0 0,0 0,0 0,0 -1,0 0,1l-1 0 0 -1c0,1 0,1 0,0 -1,0 -1,0 -1,0l0 0c0,-1 -1,-1 -1,-1l0 0c0,0 0,0 0,0 0,0 1,0 1,0 0,0 0,0 0,0 0,0 0,0 0,0 0,0 0,0 0,0 -1,0 -1,0 -1,0 -1,0 -1,0 -1,0 -1,-1 -1,-1 -2,-1 0,0 0,0 0,0 0,0 0,0 0,0 0,0 0,0 0,0 1,-1 1,-1 2,0 1,0 1,1 2,1 0,-1 0,0 -1,-1 0,0 -1,-1 -2,-1 0,0 0,0 0,0 0,0 0,0 0,0l0 0c1,-1 1,0 2,0l1 0c-1,-1 -1,-1 -2,-1 -1,0 0,1 -1,0 0,0 0,0 0,-1 0,1 0,1 0,1 -1,0 -2,-1 -2,0l-1 0c0,0 0,0 0,-1 0,0 0,0 0,0l0 0c0,0 0,0 -1,0 -1,0 -2,0 -2,0 0,1 0,1 0,1 1,0 1,0 1,0l0 0c0,0 0,0 0,0 -1,0 -1,0 -1,0 -1,0 -1,0 -1,0 0,0 0,0 0,0 0,0 0,-1 0,-1 1,0 1,0 1,0 0,0 -1,0 -1,0 0,0 -1,1 -1,1 -1,-1 -1,-1 -1,-1 0,-1 -1,0 -1,0 -1,0 -1,-1 -1,-1 -1,1 0,2 0,2 -1,1 -1,2 -1,2 0,-1 1,-1 1,-1 0,0 1,0 1,0 0,0 0,0 1,0 -1,0 -1,0 -1,0 0,0 0,1 0,1 0,0 0,0 -1,0 0,0 0,0 0,0 0,0 0,0 0,0l1 0c0,1 0,1 0,2 0,0 1,-1 1,-1 0,-1 0,-1 0,-1 0,0 0,0 0,0l0 0c1,-1 0,0 0,0 1,0 1,0 1,0 0,0 0,0 0,0 0,1 0,1 1,1 0,0 0,0 0,0 0,0 0,0 0,0 0,0 0,-1 0,-1 0,0 0,0 1,-1l-1 0c0,0 0,0 0,0l0 1 0 -1c0,0 0,0 0,0 0,0 0,0 0,-1 0,0 0,0 0,0 1,0 1,0 1,0 0,0 1,0 1,0 0,0 -1,0 -1,1 0,0 0,0 -1,0 0,1 1,0 0,0 0,1 0,1 0,1 0,0 0,1 0,1 0,0 1,0 1,0 0,0 0,1 0,1l-1 0c0,0 0,1 0,1 0,-1 0,-1 0,-1 0,0 0,0 0,-1l0 0c0,0 0,0 0,0 0,1 0,1 0,1 0,1 0,1 0,1 0,0 0,0 0,0l0 0c0,-1 1,-1 1,-1 0,0 0,1 0,1 1,0 1,0 1,0l0 0c0,0 0,0 0,0 1,0 0,0 1,0 0,0 0,0 0,-1 0,0 0,0 0,0 0,1 0,0 0,1 1,0 1,-1 2,-1 0,0 0,0 0,1 0,0 0,0 0,0 1,0 1,0 1,0 0,0 0,1 1,1z"/>
    <path class="fil25" d="M84 110c0,0 0,0 0,0l-1 0c-1,0 -1,-1 -2,0l0 0c0,0 0,0 0,0 0,0 0,0 0,0 1,0 2,1 2,1 1,1 1,0 1,1 -1,0 -1,-1 -2,-1 -1,-1 -1,-1 -2,0 0,0 0,0 0,0 0,0 0,0 0,0 0,0 0,0 0,0 1,0 1,0 2,1 0,0 0,0 1,0 0,0 0,0 1,0 0,0 0,0 0,0 0,0 0,0 0,0 0,0 0,0 0,0 0,0 -1,0 -1,0 0,0 0,0 0,0l0 0c0,0 1,0 1,1l0 0c0,0 0,0 1,0 0,1 0,1 0,0l0 1 1 0c-1,-1 0,-1 0,-1 0,0 0,0 0,0l-1 -1c0,0 0,0 0,0 0,0 0,0 0,0 0,0 0,0 0,0 -1,0 -1,-1 -1,-1 0,0 0,1 0,0 0,0 0,0 0,0 2,0 1,1 2,1l0 0c0,0 0,0 0,-1 0,0 0,0 0,0 0,0 0,0 0,0 0,1 -1,0 -1,0 0,-1 0,0 0,0 -1,0 -1,0 -1,0 0,0 0,0 0,0 -1,0 0,0 -1,0 0,0 1,-1 1,-1l0 0z"/>
    <path class="fil26" d="M74 112c0,0 0,0 0,0l0 0c0,1 0,1 0,1 0,0 0,0 0,1 0,0 0,-1 0,-1l1 0c0,0 0,-1 0,-1 0,0 -1,0 -1,0 0,0 0,-1 0,-1 0,0 0,0 0,-1 1,0 0,1 0,0 1,0 1,0 1,0 0,-1 1,-1 1,-1 0,0 -1,0 -1,0 0,0 0,0 -1,0 0,0 0,0 0,0 0,1 0,1 0,1 0,0 0,0 0,0l0 1 0 -1c0,0 0,0 0,0l1 0c-1,1 -1,1 -1,1 0,0 0,1 0,1 0,0 0,0 0,0 0,0 0,0 0,0 -1,0 -1,0 -1,-1 0,0 0,0 0,0 0,0 0,0 -1,0 0,1 0,2 0,3 1,-1 1,-1 1,-1 0,0 1,-1 1,-1z"/>
    <path class="fil27" d="M77 110c-1,0 -1,0 -1,0l0 0c0,0 0,0 0,0 0,0 -1,0 -1,0 0,1 0,1 0,2 -1,0 -1,0 -1,0l1 -1c0,0 1,0 1,0 0,0 0,0 0,0 0,0 0,0 -1,0 0,1 0,1 0,2 0,-1 0,0 0,-1 1,0 1,0 1,0 0,0 0,0 0,0l0 0c-1,1 0,1 -1,1 0,0 0,0 0,0 0,0 0,0 0,1 0,0 0,1 0,0 1,-1 1,-2 1,-2 0,0 0,-1 0,-1 0,0 1,-1 1,-1z"/>
    <path class="fil26" d="M81 115l0 0c0,-1 0,-1 0,-1 1,1 0,1 1,0 0,0 0,0 0,0 0,0 0,0 0,-1 0,1 0,0 0,1 0,0 0,0 0,0 0,0 0,0 0,0 0,0 0,0 0,0 0,0 0,-2 -1,-2 0,0 0,-1 -1,-1 0,0 0,0 0,0l0 1c0,0 0,0 0,0 0,0 0,0 0,0 0,0 0,0 0,0 0,0 0,0 0,0 0,1 0,1 0,1 0,0 0,0 1,0l0 0c0,0 0,0 0,0 0,1 0,1 1,1 0,0 -1,0 -1,0 0,0 0,0 0,0 0,0 0,0 0,0l0 -1 -1 1c0,0 0,0 1,0l0 0 0 0 0 1z"/>
    <path class="fil26" d="M80 112c0,-1 0,-1 -1,-1 0,0 0,0 0,0 -1,0 -1,1 -1,1 0,1 0,1 0,1 0,0 0,0 -1,1l1 -1c0,0 0,0 0,0l1 0c0,0 0,0 0,0 0,-1 0,-1 1,-1 0,0 0,0 0,0z"/>
    <path class="fil27" d="M78 111l0 0c0,-1 -1,0 -1,0 0,0 0,0 0,-1 -1,1 0,2 -1,2 0,0 0,1 1,0l0 0c0,0 0,0 1,-1 0,0 0,1 0,0 0,0 0,0 0,0z"/>
    <path class="fil27" d="M83 114l0 0c0,0 0,-1 1,-1 -1,0 -1,0 -1,0 0,0 0,0 0,0 0,0 0,0 0,0l0 0c0,0 0,0 0,0l0 0c0,0 0,0 0,0 0,0 0,0 0,0 -1,0 0,0 -1,0 0,-1 0,-1 0,-1l0 1c0,0 0,0 0,0l1 1c0,0 0,0 0,0l0 0c0,0 0,0 0,0z"/>
    <path class="fil26" d="M79 110c0,0 0,0 0,0l0 0c0,0 0,0 0,0l0 1c0,0 1,0 1,0 0,0 0,-1 0,-1 -1,-1 -1,0 -1,0z"/>
    <path class="fil28" d="M71 109c0,-1 0,-1 0,-1 0,0 0,0 0,0 -1,0 -1,0 -1,0 0,0 0,0 0,0 0,0 0,1 0,1 0,0 0,0 0,0 1,0 1,0 1,0 0,0 0,0 0,0z"/>
    <path class="fil27" d="M87 114l0 0c0,0 0,0 0,0 0,-1 0,-1 -1,-1 0,1 0,1 0,1l0 0c0,0 0,0 0,0 0,0 0,0 0,0 0,0 0,0 0,0 1,0 1,0 1,0z"/>
   </g>
   <circle class="fil29" transform="matrix(-0.150349 -0.0329991 0.0329991 -0.150349 74.4275 110.471)" r="2"/>
   <circle class="fil29" transform="matrix(-0.150349 -0.0329991 0.0329991 -0.150349 76.2614 109.948)" r="2"/>
   <circle class="fil29" transform="matrix(-0.0963664 -0.0211508 0.0211508 -0.0963664 79.5366 112.215)" r="2"/>
   <circle class="fil29" transform="matrix(-0.0963664 -0.0211508 0.0211508 -0.0963664 81.3604 110.691)" r="2"/>
   <circle class="fil29" transform="matrix(-0.0963664 -0.0211508 0.0211508 -0.0963664 70.9412 108.648)" r="2"/>
   <circle class="fil29" transform="matrix(-0.0963664 -0.0211508 0.0211508 -0.0963664 73.9566 112.239)" r="2"/>
   <circle class="fil29" transform="matrix(-0.0963664 -0.0211508 0.0211508 -0.0963664 82.6889 113.031)" r="2"/>
   <circle class="fil29" transform="matrix(-0.0812246 -0.0178274 0.0178274 -0.0812246 84.6624 111.272)" r="2"/>
   <circle class="fil29" transform="matrix(-0.0812246 -0.0178274 0.0178274 -0.0812246 85.089 110.708)" r="2"/>
   <circle class="fil29" transform="matrix(-0.0406123 -0.00891371 0.00891371 -0.0406123 87.0872 111.097)" r="2"/>
   <circle class="fil29" transform="matrix(-0.0406123 -0.00891371 0.00891371 -0.0406123 87.5568 112.526)" r="2"/>
   <circle class="fil29" transform="matrix(-0.0406123 -0.00891371 0.00891371 -0.0406123 82.5583 111.813)" r="2"/>
   <circle class="fil29" transform="matrix(-0.0406123 -0.00891371 0.00891371 -0.0406123 84.9861 113.556)" r="2"/>
   <circle class="fil29" transform="matrix(-0.0406123 -0.00891371 0.00891371 -0.0406123 80.012 109.744)" r="2"/>
   <circle class="fil29" transform="matrix(-0.0406123 -0.00891371 0.00891371 -0.0406123 77.3266 112.312)" r="2"/>
   <circle class="fil29" transform="matrix(-0.0406123 -0.00891371 0.00891371 -0.0406123 73.4515 109.41)" r="2"/>
   <circle class="fil29" transform="matrix(-0.0406123 -0.00891371 0.00891371 -0.0406123 75.2647 112.564)" r="2"/>
   <circle class="fil29" transform="matrix(-0.0406123 -0.00891371 0.00891371 -0.0406123 70.4944 109.544)" r="2"/>
   <circle class="fil29" transform="matrix(-0.0406123 -0.00891371 0.00891371 -0.0406123 76.6783 111.653)" r="2"/>
   <circle class="fil29" transform="matrix(-0.0406123 -0.00891371 0.00891371 -0.0406123 81.8996 113.94)" r="2"/>
   <circle class="fil29" transform="matrix(-0.0406123 -0.00891371 0.00891371 -0.0406123 72.1521 110.193)" r="2"/>
   <circle class="fil29" transform="matrix(-0.0406123 -0.00891371 0.00891371 -0.0406123 82.3919 110.047)" r="2"/>
  </g>
  <ellipse class="fil30 str3" cx="62" cy="109" rx="8" ry="4"/>
  <ellipse class="fil30 str4" cx="96" cy="109" rx="8" ry="4"/>
  <path class="fil12" d="M73 89c-1,-1 -3,-1 -5,-1 -7,1 -4,4 0,3 3,-1 1,-1 5,-2zm-2 -1c2,0 2,0 3,1 1,1 -1,1 -2,1 -2,0 -3,2 -7,1 -1,0 -4,-1 -1,-2 1,-1 5,-2 7,-1z"/>
  <path class="fil12" d="M73 89c-4,1 -2,1 -5,2 -4,1 -7,-2 0,-3 2,0 4,0 5,1z"/>
  <g id="_2173595439616">
   <path class="fil12" d="M90 92c1,-2 3,-1 5,-1 7,2 3,4 -1,2 -2,-1 0,-1 -4,-1zm1 -2c-1,0 -2,0 -2,1 -1,1 0,1 2,1 2,1 2,3 6,3 1,0 4,-1 2,-3 -2,-1 -6,-2 -8,-2z"/>
   <path class="fil12" d="M90 92c4,0 2,0 4,1 4,2 8,0 1,-2 -2,0 -4,-1 -5,1z"/>
  </g>
 </g>
</svg>
