<?xml version="1.0" encoding="UTF-8"?>
<!DOCTYPE svg PUBLIC "-//W3C//DTD SVG 1.1//EN" "http://www.w3.org/Graphics/SVG/1.1/DTD/svg11.dtd">
<!-- Creator: CorelDRAW X7 -->
<svg xmlns="http://www.w3.org/2000/svg" xml:space="preserve" width="50.9883mm" height="44.2375mm" version="1.1" style="shape-rendering:geometricPrecision; text-rendering:geometricPrecision; image-rendering:optimizeQuality; fill-rule:evenodd; clip-rule:evenodd"
viewBox="0 0 355 308"
 xmlns:xlink="http://www.w3.org/1999/xlink">
 <defs>
  <style type="text/css">
   <![CDATA[
    .str0 {stroke:#F7A30A;stroke-width:1.39127}
    .str1 {stroke:#FEFEFE;stroke-width:0.530073}
    .fil3 {fill:#FDD100}
    .fil1 {fill:#FCFCFC}
    .fil2 {fill:#F7A30A}
    .fil0 {fill:#F28000}
   ]]>
  </style>
 </defs>
 <g id="圖層_x0020_1">
  <metadata id="CorelCorpID_0Corel-Layer"/>
  <g id="_2173994749728">
   <path class="fil0" d="M165 1c-21,2 -36,7 -53,16 -8,5 -17,11 -24,17 -33,31 -50,70 -45,117 3,32 17,59 38,81 6,6 20,17 29,22 7,4 15,8 23,11 44,16 96,7 132,-23 18,-15 34,-36 42,-60 13,-39 10,-76 -9,-112 -12,-21 -30,-39 -51,-51 -24,-14 -53,-21 -82,-18z"/>
   <path class="fil1" d="M171 10c-67,3 -123,63 -119,135 3,39 23,69 42,85l9 8c8,6 20,12 30,16 84,33 177,-32 172,-126 -1,-17 -7,-36 -14,-49 -4,-8 -8,-13 -12,-19 -12,-17 -34,-33 -54,-41 -17,-7 -35,-10 -54,-9z"/>
   <path class="fil2" d="M167 27c-57,6 -105,57 -98,121 6,57 57,105 121,98 57,-6 105,-57 98,-121 -6,-57 -57,-105 -121,-98z"/>
   <path class="fil1" d="M170 32c-21,2 -50,14 -63,28 -2,3 -4,4 -7,7 -6,6 -16,24 -19,33 -27,75 31,146 106,141 55,-4 101,-53 96,-113 -2,-15 -6,-30 -12,-41 -19,-35 -57,-58 -101,-55z"/>
   <path class="fil3" d="M327 208c1,-8 -2,-12 -8,-15 -3,5 -1,13 2,16 1,2 1,1 3,2l3 2c5,3 11,-1 14,-5 6,-7 1,-6 1,-6 -7,-2 -12,4 -15,6z"/>
   <path class="fil3" d="M331 82c-4,-3 -9,-9 -16,-4 1,5 6,9 11,9 3,1 3,0 6,-1 0,0 0,0 1,0 4,-2 5,-2 7,-7 1,-3 1,-7 0,-10l-2 -3c-5,3 -7,8 -7,16z"/>
   <path class="fil3" d="M353 164c-9,0 -11,4 -15,9 -1,-2 -3,-13 -11,-12 -3,14 13,21 21,14 3,-3 4,-6 5,-11z"/>
   <path class="fil3" d="M34 93c-8,-2 -12,2 -15,6 -3,-6 -3,-13 -11,-14 -1,6 -1,8 1,13 3,6 4,5 9,6 5,1 5,2 10,-2 2,-1 6,-5 6,-9z"/>
   <path class="fil3" d="M35 224c-6,-4 -8,-5 -17,-3 3,8 12,12 18,8 0,0 1,-1 1,-1 3,-1 4,0 6,-7 2,-5 1,-7 0,-12 -7,3 -8,6 -8,15z"/>
   <path class="fil3" d="M267 289c-2,-6 -8,-6 -16,-7 4,-5 6,-8 4,-16 -8,3 -12,10 -8,18 1,3 0,5 6,7 5,1 10,1 14,-2z"/>
   <path class="fil3" d="M72 265c-8,-2 -14,-1 -17,4 5,3 9,5 16,3 5,-2 2,-2 4,-5l2 -2c2,-4 1,-9 -1,-13 -2,-2 -2,-3 -4,-4 -5,6 -3,12 0,17z"/>
   <path class="fil3" d="M349 183c-9,0 -10,3 -15,7l-3 -8c-1,-3 -4,-4 -8,-5 0,6 0,8 3,13 1,2 1,3 3,4 1,1 1,0 2,1 2,0 1,0 3,0 7,4 14,-4 15,-12z"/>
   <path class="fil3" d="M284 280c-4,-6 -8,-6 -17,-6 5,-4 4,-10 3,-16 -6,3 -11,10 -8,17l1 1c0,0 0,0 0,0 1,2 1,6 10,7 4,0 8,-1 11,-3z"/>
   <path class="fil3" d="M58 253c-10,-3 -10,-1 -18,1 1,3 4,5 9,6 8,2 9,-1 12,-4 0,0 0,0 1,0 2,-2 3,-3 2,-9 0,-4 -2,-8 -4,-10 -5,4 -5,10 -2,16z"/>
   <path class="fil3" d="M104 282c-8,0 -13,2 -16,7 4,2 8,3 13,2 8,-2 11,-12 7,-18 -2,-4 -5,-6 -8,-7 -3,8 0,12 4,16z"/>
   <path class="fil3" d="M27 126c-10,1 -10,5 -13,9l-1 1c-2,-7 -5,-11 -12,-12 0,12 4,16 13,17 8,0 12,-6 13,-15z"/>
   <path class="fil3" d="M159 294c-6,4 -12,5 -13,13 10,1 17,-2 17,-12 0,0 1,-3 0,-5 -2,-4 -8,-9 -14,-9 0,7 4,12 10,13z"/>
   <path class="fil3" d="M140 292c-8,2 -13,4 -14,11 29,3 18,-27 6,-25 -1,9 3,11 8,14z"/>
   <path class="fil3" d="M323 65c-2,-3 -10,-6 -16,-2 2,5 8,8 13,8 7,0 18,-9 10,-22l-3 2c-4,4 -3,9 -4,14z"/>
   <path class="fil3" d="M315 255c-5,-5 -11,-4 -18,-2 3,-8 3,-10 -1,-16 -5,3 -7,11 -5,15 1,2 0,2 1,2l1 2c2,1 2,6 12,4 4,0 7,-2 10,-5z"/>
   <path class="fil3" d="M30 110c-10,-1 -11,2 -15,8 -1,-3 -3,-12 -11,-14 -1,9 1,17 10,18l3 0c2,1 1,1 3,0 4,-1 9,-7 10,-12z"/>
   <path class="fil3" d="M341 136c-3,-6 -5,-10 -14,-9 2,15 18,18 24,9 2,-3 3,-7 3,-12 -8,0 -10,7 -13,12z"/>
   <path class="fil3" d="M233 287c5,-2 7,-6 6,-14 -4,0 -13,6 -11,14 1,3 1,0 1,2 1,4 3,10 13,10 13,-1 3,-8 -4,-10l-5 -2z"/>
   <path class="fil3" d="M340 118c-4,-5 -7,-10 -15,-8 0,5 6,12 12,13l1 -1c0,0 1,0 1,0 0,0 0,0 1,0 9,-1 12,-7 11,-17 -3,-1 -6,2 -8,4 -1,2 -2,6 -3,9z"/>
   <path class="fil3" d="M207 308c-1,-8 -4,-11 -11,-13 6,-5 9,-3 11,-14 -13,1 -16,7 -15,15l0 3c1,5 8,9 15,9z"/>
   <path class="fil3" d="M16 173c-4,-6 -5,-9 -15,-9 2,9 7,16 16,13l1 0c2,0 3,1 7,-4 2,-4 4,-8 3,-13 -9,2 -8,7 -12,13z"/>
   <path class="fil3" d="M121 288c-5,1 -9,1 -12,6 -3,2 -3,1 -2,3 1,1 15,6 19,-9 1,-1 2,-4 -2,-9 -2,-3 -4,-5 -9,-7 0,9 1,12 6,16z"/>
   <path class="fil3" d="M20 191c-2,-5 -7,-8 -15,-8 2,8 8,16 16,12 4,-1 12,-3 10,-18 -8,0 -10,12 -11,14z"/>
   <path class="fil3" d="M355 144c-9,1 -11,4 -14,11 -4,-7 -4,-10 -13,-12 0,12 5,15 13,16 9,2 12,-6 14,-15z"/>
   <path class="fil3" d="M40 78c-5,-2 -9,-2 -12,1l-4 3c0,-8 -3,-13 -8,-16 -3,6 -2,14 1,18 3,3 5,2 5,2 2,0 2,1 4,2 6,0 12,-5 14,-10z"/>
   <path class="fil3" d="M315 49c-4,-2 -8,-4 -13,-2 -2,0 -3,1 -4,2 2,3 5,5 9,6 7,2 8,0 11,-2 5,-4 6,-9 4,-16 -2,-5 -3,-4 -4,-5 -4,7 -4,7 -3,17z"/>
   <path class="fil3" d="M336 100c-3,-5 -6,-8 -15,-7 0,5 6,11 11,12l5 -1c0,0 0,0 1,0 4,-1 6,-2 8,-7 1,-3 2,-9 -1,-12 -8,3 -6,7 -9,15z"/>
   <path class="fil3" d="M57 49c-1,0 -1,-1 -2,-1 -6,-4 -11,-1 -15,1 1,-8 1,-13 -5,-17 -4,13 -5,15 3,22 1,0 1,0 3,1 5,2 13,-1 16,-6z"/>
   <path class="fil3" d="M88 274c-10,-1 -12,1 -17,4 2,7 16,7 20,-1 2,-4 3,-5 2,-11 -2,-4 -4,-7 -8,-8 -3,9 -1,10 3,16z"/>
   <path class="fil3" d="M47 62c-7,-2 -12,-1 -16,3 0,-11 -1,-11 -6,-16 -3,4 -6,15 4,20l4 2c3,0 5,0 7,-1 4,-2 6,-4 7,-8z"/>
   <path class="fil3" d="M300 268c-3,-6 -12,-4 -17,-3 4,-8 3,-9 1,-17 -6,3 -10,11 -5,18 3,4 3,7 10,6 5,0 8,-1 11,-4z"/>
   <path class="fil3" d="M229 303c-1,-8 -7,-8 -14,-11 5,-3 9,-7 8,-15 -7,1 -13,7 -12,15l0 2c0,2 -1,4 5,7 4,3 8,3 13,2z"/>
   <path class="fil3" d="M45 239c-7,-1 -6,-5 -17,-1 2,5 12,12 19,6l2 -2c2,-2 2,-1 3,-5 2,-5 1,-10 -2,-14 -2,2 0,0 -2,2 -4,3 -4,9 -3,14z"/>
   <path class="fil3" d="M14 155c-4,-6 -5,-10 -14,-11 0,4 1,8 4,11 5,5 6,4 12,4 7,-1 11,-8 11,-16 -8,1 -11,5 -13,12z"/>
   <path class="fil3" d="M27 208c-3,-3 -7,-7 -15,-5l1 5c3,3 8,7 12,6 5,-1 1,-1 5,-3 9,-3 8,-15 5,-18 -5,3 -8,7 -8,15z"/>
   <path class="fil3" d="M326 239c-5,-5 -11,-2 -16,0 1,-8 1,-12 -6,-15 -3,5 -3,13 0,16l4 3c8,7 16,0 18,-4z"/>
   <path class="fil3" d="M336 221c-7,-3 -13,1 -17,3 1,-8 -1,-13 -7,-15 -2,10 -3,14 5,19 0,0 0,0 1,0 9,6 16,-2 18,-7z"/>
   <circle class="fil2 str0" cx="178" cy="137" r="109"/>
   <polygon class="fil3 str1" points="178,55 197,111 256,111 208,146 226,203 178,168 130,203 149,146 101,111 160,111 "/>
  </g>
 </g>
</svg>
