<?xml version="1.0" encoding="UTF-8"?>
<!DOCTYPE svg PUBLIC "-//W3C//DTD SVG 1.1//EN" "http://www.w3.org/Graphics/SVG/1.1/DTD/svg11.dtd">
<!-- Creator: CorelDRAW X7 -->
<svg xmlns="http://www.w3.org/2000/svg" xml:space="preserve" width="35.169mm" height="26.6732mm" version="1.1" style="shape-rendering:geometricPrecision; text-rendering:geometricPrecision; image-rendering:optimizeQuality; fill-rule:evenodd; clip-rule:evenodd"
viewBox="0 0 440 333"
 xmlns:xlink="http://www.w3.org/1999/xlink">
 <defs>
  <style type="text/css">
   <![CDATA[
    .str2 {stroke:#332C2B;stroke-width:2.50012}
    .str1 {stroke:#61913D;stroke-width:2.50012}
    .str0 {stroke:#FDD100;stroke-width:0.952547}
    .fil7 {fill:none}
    .fil14 {fill:#FEFEFE}
    .fil12 {fill:#332C2B}
    .fil10 {fill:#FDD100}
    .fil13 {fill:#4D421E}
    .fil5 {fill:#89743A}
    .fil4 {fill:#917D42}
    .fil2 {fill:#937F44}
    .fil1 {fill:#948045}
    .fil6 {fill:#958047}
    .fil9 {fill:#ADB8A5}
    .fil8 {fill:#EBF5E3}
    .fil11 {fill:#61913D}
    .fil3 {fill:#877514}
    .fil0 {fill:#70590F}
   ]]>
  </style>
 </defs>
 <g id="圖層_x0020_1">
  <metadata id="CorelCorpID_0Corel-Layer"/>
  <g id="_2173512025808">
   <path class="fil0" d="M52 105l-1 155 0 3c4,-1 3,2 2,-2l0 -2 1 -41 -1 -2c2,-7 2,-36 0,-41l0 -3c2,-6 0,-31 1,-40l0 -3c19,0 119,-1 128,1 4,0 11,-4 15,-5 6,-2 12,-4 18,-4 18,-1 24,6 35,8 5,2 24,0 31,0l101 0c2,14 -1,32 1,46 -1,4 -1,33 -1,35 1,7 -1,3 2,6l0 -111 -172 -69 -160 69z"/>
   <path class="fil1" d="M289 216c16,0 85,-2 93,1 0,0 -1,0 -3,1l-91 0c-5,10 -2,27 -3,39 1,0 2,0 3,0 10,3 67,1 86,1 2,0 5,0 6,1l2 4 0 2 3 -2 0 -11 0 -12 -1 -24c-3,-3 -1,1 -2,-6 0,-2 0,-31 1,-35 -6,4 -77,1 -94,2l0 39z"/>
   <path class="fil2" d="M282 180c3,3 1,28 1,34 2,1 1,1 3,2 1,0 2,0 3,0l0 -39c17,-1 88,2 94,-2 -2,-14 1,-32 -1,-46l-101 0c-7,0 -26,2 -31,0l6 5c2,1 4,2 6,4 11,10 19,25 20,42z"/>
   <path class="fil1" d="M53 172l101 0c5,-10 5,-15 11,-23 2,-4 6,-8 8,-10 4,-4 7,-3 9,-9 -9,-2 -109,-1 -128,-1l0 3c-1,9 1,34 -1,40z"/>
   <path class="fil0" d="M51 263l0 1 1 8 -1 31 102 0 0 -41c-7,-2 -40,-1 -50,-1 -11,0 -41,2 -50,0 1,4 2,1 -2,2z"/>
   <path class="fil1" d="M53 259c9,-2 90,-1 100,1l0 -43c-20,4 -78,-1 -99,1l-1 41z"/>
   <path class="fil3" d="M283 297l2 5 97 0 0 -37 0 -2 -91 1c0,0 0,0 -1,0 0,0 -1,1 -1,1 0,-1 -1,0 -1,0 0,0 0,1 0,1l0 36c-3,-7 -5,-5 -5,-5z"/>
   <path class="fil1" d="M64 216l79 0c0,-23 -4,-28 -2,-40l-75 0c0,0 0,0 -1,1 0,0 0,1 0,1 -1,4 0,-1 0,3l-1 35z"/>
   <path class="fil4" d="M283 297c0,0 2,-2 5,5l0 -36c0,0 0,-1 0,-1 0,0 1,-1 1,0 0,0 1,-1 1,-1 1,0 1,0 1,0l91 -1 -2 -4c-1,-1 -4,-1 -6,-1 -19,0 -76,2 -86,-1 -1,0 -2,0 -3,0 1,-12 -2,-29 3,-39 -6,1 -5,-1 -5,8 -1,15 2,26 0,41l0 30z"/>
   <path class="fil4" d="M60 216l4 0 1 -35c0,-4 -1,1 0,-3 0,0 0,-1 0,-1 1,-1 1,-1 1,-1l75 0c-2,12 2,17 2,40l0 0c0,-33 5,-15 4,-30 0,-5 -1,-5 1,-10l6 -1 0 -3 -101 0 0 3 6 1c4,9 1,29 1,40z"/>
   <path class="fil5" d="M283 302c4,3 90,2 102,1l0 -40 -3 2 0 37 -97 0 -2 -5 0 -30c2,-15 -1,-26 0,-41 0,-9 -1,-7 5,-8l91 0c2,-1 3,-1 3,-1 -8,-3 -77,-1 -93,-1 -1,0 -2,0 -3,0 -2,-1 -1,-1 -3,-2 0,-6 2,-31 -1,-34l1 122z"/>
   <path class="fil5" d="M143 216l0 0 -79 0 -4 0 -7 0 1 2c21,-2 79,3 99,-1l0 43c-10,-2 -91,-3 -100,-1l0 2c9,2 39,0 50,0 10,0 43,-1 50,1l1 -83c-3,4 -1,30 -1,37l-10 0z"/>
   <path class="fil6" d="M143 216l10 0c0,-7 -2,-33 1,-37l0 -4 -6 1c-2,5 -1,5 -1,10 1,15 -4,-3 -4,30z"/>
   <path class="fil6" d="M53 216l7 0c0,-11 3,-31 -1,-40l-6 -1c2,5 2,34 0,41z"/>
   <path class="fil7" d="M433 93l-5 15c3,-1 3,2 3,-1 1,1 0,1 1,0 0,0 1,-1 1,-1 1,0 1,0 1,1 0,1 2,4 6,4 -1,-2 -3,-5 -4,-7 -1,-3 0,2 -1,-4 0,-3 0,-4 0,-7"/>
   <path class="fil8" d="M402 202c4,0 3,0 4,4 2,1 2,2 4,5 1,1 1,1 2,2l2 2c0,0 0,1 1,1l0 -6c-2,-1 -1,-1 -3,-3 -2,-3 1,1 -1,-1 -7,-7 0,-5 -11,-9 0,11 -1,2 2,5z"/>
   <path class="fil9" d="M405 207l1 -1c-1,-4 0,-4 -4,-4 1,1 0,1 1,2 1,2 1,2 2,3z"/>
   <path class="fil10 str0" d="M178 116c-2,6 -6,6 -10,11 -2,2 -6,6 -9,10 -6,9 -7,15 -11,25l-1 4 0 5 -1 92 0 45 144 -1 -1 -135c-1,-19 -10,-35 -22,-47 -3,-2 -5,-3 -7,-5l-7 -5c-11,-2 -19,-9 -38,-8 -7,0 -14,1 -20,4 -5,1 -13,6 -17,5z"/>
   <rect class="fil11 str1" x="27" y="297" width="376.429" height="16.3923"/>
   <rect class="fil11 str1" x="17" y="316" width="396.92" height="16.3923"/>
   <polyline class="fil7 str2" points="212,34 15,120 9,104 212,16 "/>
   <polygon class="fil12 str2" points="212,2 212,34 15,120 2,92 "/>
   <polygon class="fil12 str2" points="212,2 212,34 409,120 423,92 "/>
   <path class="fil13" d="M182 125c-2,5 -5,5 -9,9 -2,2 -6,6 -8,9 -6,8 -6,14 -11,23l0 4 0 4 -1 83 0 40 130 0 -1 -122c-1,-17 -9,-32 -20,-42 -2,-2 -4,-3 -6,-5l-6 -5c-11,-1 -17,-8 -35,-7 -6,0 -12,1 -18,4 -4,1 -11,5 -15,5z"/>
   <circle class="fil14" cx="168" cy="62" r="4"/>
   <circle class="fil14" cx="159" cy="81" r="4"/>
   <circle class="fil14" cx="139" cy="96" r="4"/>
   <circle class="fil14" cx="117" cy="99" r="4"/>
   <circle class="fil14" cx="97" cy="92" r="4"/>
   <circle class="fil14" cx="122" cy="83" r="4"/>
   <circle class="fil14" cx="98" cy="106" r="4"/>
   <circle class="fil14" cx="74" cy="104" r="4"/>
   <circle class="fil14" cx="58" cy="118" r="4"/>
   <circle class="fil14" cx="247" cy="62" r="4"/>
   <circle class="fil14" cx="256" cy="81" r="4"/>
   <circle class="fil14" cx="275" cy="96" r="4"/>
   <circle class="fil14" cx="297" cy="99" r="4"/>
   <circle class="fil14" cx="317" cy="92" r="4"/>
   <circle class="fil14" cx="292" cy="83" r="4"/>
   <circle class="fil14" cx="317" cy="106" r="4"/>
   <circle class="fil14" cx="341" cy="104" r="4"/>
   <circle class="fil14" cx="356" cy="118" r="4"/>
  </g>
 </g>
</svg>
