<?xml version="1.0" encoding="UTF-8"?>
<!DOCTYPE svg PUBLIC "-//W3C//DTD SVG 1.1//EN" "http://www.w3.org/Graphics/SVG/1.1/DTD/svg11.dtd">
<!-- Creator: CorelDRAW X7 -->
<svg xmlns="http://www.w3.org/2000/svg" xml:space="preserve" width="41.022mm" height="36.3737mm" version="1.1" style="shape-rendering:geometricPrecision; text-rendering:geometricPrecision; image-rendering:optimizeQuality; fill-rule:evenodd; clip-rule:evenodd"
viewBox="0 0 202 179"
 xmlns:xlink="http://www.w3.org/1999/xlink">
 <defs>
  <style type="text/css">
   <![CDATA[
    .str0 {stroke:#332C2B;stroke-width:0.98502}
    .fil27 {fill:none}
    .fil25 {fill:#332C2B}
    .fil26 {fill:#ECF6F3}
    .fil9 {fill:black}
    .fil18 {fill:#010202}
    .fil21 {fill:#020205}
    .fil20 {fill:#03060A}
    .fil13 {fill:#041224}
    .fil10 {fill:#051429}
    .fil12 {fill:#0C3266}
    .fil6 {fill:#150606}
    .fil15 {fill:#15458A}
    .fil8 {fill:#16468D}
    .fil28 {fill:#16468D}
    .fil4 {fill:#184689}
    .fil16 {fill:#1B4B92}
    .fil3 {fill:#1E4E96}
    .fil14 {fill:#250909}
    .fil23 {fill:#2B2A35}
    .fil24 {fill:#46536B}
    .fil31 {fill:#5E7DA9}
    .fil5 {fill:#5E7DA9}
    .fil1 {fill:#8AB1E5}
    .fil22 {fill:#D6E1F2}
    .fil29 {fill:#E9D0A2}
    .fil30 {fill:#E9D0A2}
    .fil19 {fill:#EFE0D5}
    .fil17 {fill:#F1E1D7}
    .fil7 {fill:#F3E3D8}
    .fil2 {fill:#F7C84E}
    .fil11 {fill:#F9BDBB}
    .fil0 {fill:#055459}
   ]]>
  </style>
 </defs>
 <g id="圖層_x0020_1">
  <metadata id="CorelCorpID_0Corel-Layer"/>
  <ellipse class="fil0" cx="82" cy="156" rx="69" ry="10"/>
  <g id="_2173500896240">
   <path class="fil1" d="M106 23c0,2 5,4 7,9 4,-2 6,-3 9,-2 8,-6 8,-5 0,-12 0,-1 -2,-4 -2,0 0,0 -11,3 -14,5z"/>
   <path class="fil2" d="M67 15c0,1 -1,2 -1,2 2,2 7,3 8,2 4,0 6,-1 8,-3 0,-1 0,-2 -1,-2 -11,2 -2,2 -14,1z"/>
   <path class="fil3" d="M66 18c0,1 -2,6 -2,7 2,3 7,2 11,2 2,0 8,0 10,-2 0,-2 -2,-6 -3,-7 -6,2 -10,4 -16,0z"/>
   <path class="fil4" d="M34 36c1,-1 6,-7 6,-9 -3,-1 -6,-1 -7,1 -1,2 0,7 1,8z"/>
   <path class="fil1" d="M21 26c4,1 10,7 12,11 1,-2 1,-1 -1,-4 0,-1 0,-3 0,-5 1,-3 6,-2 8,-1 2,-2 6,-5 6,-6 0,-1 -12,-5 -15,-4 -3,2 -9,8 -10,9z"/>
   <path class="fil1" d="M52 43c-26,-16 23,14 0,0zm40 -3c17,-32 -9,16 0,0zm-64 26c-2,7 1,21 7,25 4,2 8,2 12,3 15,3 21,-11 39,-2 2,1 3,2 5,3 5,0 11,2 17,0 6,-3 11,-9 13,-13 -9,0 -15,-8 0,-9 4,-6 -3,-32 -7,-39 -2,-3 -4,-7 -9,-11 -6,-5 -16,-10 -18,-8 0,0 -1,0 -1,0 -6,3 1,8 -1,10 -5,5 -22,1 -21,0 1,-5 3,-10 2,-11 -1,-1 -4,0 -7,2 2,10 -5,12 -11,6 -5,0 -13,15 -13,16 -1,2 -3,7 -4,9 -1,4 -4,14 -3,19z"/>
   <path class="fil5" d="M36 35c0,0 -9,47 13,59 -16,1 -24,-11 -21,-29 0,-4 1,-11 2,-14 9,-24 6,-16 6,-16z"/>
   <path class="fil4" d="M40 30c3,1 8,-2 5,-6 -1,0 -2,2 -3,2 -1,1 -2,3 -2,4z"/>
   <path class="fil6" d="M122 178c-6,0 -9,0 -13,-3 -3,-3 -5,-5 -5,-11 0,-3 0,-6 0,-8 1,-3 1,-4 2,-7 0,-1 0,-2 0,-2 1,-1 2,-1 4,-2 4,-1 2,0 5,-2 2,-1 4,-2 7,-1 2,0 3,2 5,3 1,1 4,0 5,3 1,3 0,5 0,7 -1,2 0,5 0,8 0,2 -1,5 -2,6 -2,5 -6,7 -8,9zm-110 -18c0,-2 1,-1 0,-3 -1,-1 -1,-3 -1,-4 1,-9 7,-7 9,-8 1,-1 2,-3 4,-4 2,0 6,0 7,1 2,2 3,3 5,3 2,0 2,0 3,1 4,4 -1,4 0,9 1,7 2,11 -2,17 -2,2 -5,3 -8,4 -5,1 -9,-1 -12,-3 -2,-1 -3,-3 -4,-5 0,-3 -1,-5 -1,-8zm95 -16c0,-7 1,-6 4,-4 1,1 2,1 2,2 -1,1 -1,1 -3,1 -1,0 -2,1 -3,1zm11 -4c0,-3 1,-6 3,-6 1,2 1,4 1,6l-4 0zm-11 -41c1,1 2,2 3,4 1,2 1,3 3,4 0,1 1,2 1,2 3,5 7,12 8,17 1,2 4,8 1,10 0,-1 1,-2 -1,-3 -3,-1 -3,0 -5,1 0,1 1,1 0,1 -1,-1 0,-1 -1,-2 -2,-2 -6,-11 -7,-14 -1,-3 -2,-6 -2,-9 0,-1 -2,-10 -1,-11 0,0 1,0 1,0zm-9 31c0,0 0,1 0,1 0,5 1,7 1,12 0,3 -1,9 -2,11 -3,4 -9,9 -15,10 -7,1 -15,1 -21,-2l-6 -3c-3,-1 -5,-6 -5,-11 -1,0 -1,0 -1,-1 0,-1 0,-1 0,-2 0,-4 0,-6 1,-10 0,0 0,-1 0,-1 0,-1 0,-1 0,-1 1,-2 7,-13 6,-21l0 -9c1,1 14,6 29,4 5,-1 7,-2 9,-3 -1,9 2,18 4,26zm57 -20c-2,-2 -1,-7 0,-8 3,-2 7,-2 8,1 -3,1 -8,7 -8,7zm-136 -20c2,1 2,5 4,6 3,2 20,10 20,3 1,-2 1,-2 1,-4 1,1 1,1 2,2 3,7 10,5 7,21 -1,4 -3,7 -4,10 0,1 0,1 0,2 0,0 0,0 0,0 -1,5 -2,9 -2,14 0,2 1,5 1,8 0,2 1,3 2,5 0,0 0,0 0,1l-2 0c-3,0 -4,4 -6,4 -1,-2 -3,-7 -2,-9 1,-2 2,-2 2,-5 0,-2 1,-1 1,-4 1,-2 2,-6 0,-7 -1,0 -1,0 -2,0 -3,2 -4,5 -5,6 -2,-1 -1,-2 -5,-3 0,-2 0,-2 0,-4 -1,-2 3,-4 2,-9 0,-2 0,-4 -1,-6 -1,-2 -2,-3 -3,-5 -5,-3 -5,-3 -10,-5 -3,-2 -7,-1 -9,-2 -1,0 -3,-2 -3,-3 0,-1 0,-2 0,-2 4,-7 -2,-6 0,-10 2,-2 2,-1 4,-1 1,-1 3,-4 4,-5 1,-1 3,-1 4,2zm96 51c0,0 -1,1 -1,0 -1,-2 -4,-6 -7,-5 -3,1 -2,7 -3,9 -2,5 0,7 -1,10 -1,4 -1,7 -1,11 -3,-1 -6,-4 -8,-5 -1,-1 5,-7 6,-13 3,-14 -5,-29 -4,-44 3,-2 8,-6 9,-8 -1,5 -1,8 0,13 1,9 1,8 4,15 2,5 4,8 6,11 0,2 0,1 1,2 0,2 0,3 -1,4zm-67 -45c4,0 6,1 11,-1 1,0 3,-1 4,-1 1,0 1,1 3,2 5,3 12,3 16,0 2,0 1,-2 2,-3 5,3 9,4 18,4 0,1 -1,1 -2,2 -1,1 -1,1 -2,2 -5,3 -11,5 -18,5 -5,0 -27,-1 -32,-10zm17 -3c3,-2 14,-3 17,0l-1 0c-2,1 -5,3 -7,3 -3,0 -7,-1 -9,-3zm83 -2c0,-1 1,-1 2,-1 1,-1 2,-1 3,-2 3,-1 4,-1 4,1 0,4 -2,5 -5,5 -3,1 -3,-1 -4,-3zm30 0c0,-5 1,-6 3,-9 1,-1 1,-2 2,-3 2,-1 3,-1 5,-1l-5 7c-1,2 -3,5 -5,6zm-65 -14c1,-12 -1,11 0,0zm-76 -2c0,1 0,0 0,1 0,0 -1,0 -1,0 0,0 -1,0 -1,0 -4,1 -11,3 -14,-1 2,-5 16,-5 17,0l-1 0zm135 24c0,-1 1,-1 1,-1l3 -3c11,-8 14,-17 19,-30 1,-1 1,-5 2,-6 0,0 0,1 1,2 0,1 3,4 2,6 -2,3 -6,1 -5,9 0,1 1,4 1,6 -1,2 -3,2 -4,3 -5,2 -2,8 -4,10 -1,1 -3,0 -5,2 0,0 -1,3 -2,4 -2,1 -7,-1 -9,-2zm14 -36c1,2 0,5 -2,7 -1,2 -3,3 -5,4 2,-4 5,-6 7,-11zm4 -3c0,-1 1,-3 1,-3 1,-1 2,-1 2,0 1,1 0,2 0,3 -2,0 -2,0 -3,0zm-1 -2c-1,4 3,5 5,4 0,3 -4,12 -5,15 -3,-1 -3,-1 -6,0 -3,1 -6,7 -7,9 -1,7 -1,6 -6,12 -2,1 -3,2 -5,4 -3,-3 -11,-6 -13,3 -1,4 0,4 1,7 -1,2 -5,7 -7,10 -1,2 -1,2 -2,3 -2,2 -3,5 -5,7 -1,2 -3,6 -4,8 -2,-2 -2,-3 -5,-1 -1,1 -2,3 -3,4 0,0 -3,-2 -3,-3 0,0 1,0 2,1 3,0 4,-2 3,-5 -1,-3 -2,-2 -3,-4 -1,-3 -1,-6 -2,-9 -2,-3 -3,-4 -5,-7 -2,-5 -3,-5 -1,-8 1,-3 10,-9 13,-10 4,-3 11,-6 15,-7 1,3 1,7 8,5 4,-1 5,-5 4,-9 4,-2 6,-3 8,-4 5,-3 16,-7 19,-11 2,-2 3,-5 2,-9 0,-2 -1,-1 1,-4 1,-3 3,-12 6,-12 5,15 -3,1 -5,11zm-66 3c-1,-3 -2,-7 -2,-10 -2,-8 -1,-12 2,-18 1,-2 3,-6 4,-7 4,5 1,31 -4,35zm-97 -3c0,-1 -2,-6 -2,-7 -3,-7 -4,-16 -4,-24 3,0 13,10 11,15 -2,6 -3,9 -5,16zm92 -17c-1,-1 -3,-6 -3,-7 0,-1 2,-3 2,-3 1,-1 3,0 4,0 0,2 -1,3 -1,5 -1,1 -1,4 -2,5zm-84 -5c-3,-7 -1,-11 6,-9 -2,2 -5,8 -6,9zm6 -6c1,-2 4,-5 5,-6 3,4 -2,7 -5,6zm26 -12c7,3 12,2 16,0 1,1 3,5 3,7 -5,2 -16,3 -21,0 0,-1 2,-6 2,-7zm-43 8c-4,-2 2,0 6,-2 1,0 2,-1 2,-3l0 -4c1,0 3,0 3,1 1,2 2,4 3,4 1,1 3,1 5,-2 1,0 3,0 4,1 -2,1 -5,4 -6,6 -3,-1 -7,-2 -8,1 0,2 0,4 0,5 2,5 2,5 -1,0 -2,-2 -6,-6 -8,-7zm103 -5c-1,2 -3,4 -4,1 -1,-2 1,-3 3,-4 0,1 1,2 1,3zm-76 -1c2,0 5,-3 7,-3 2,12 -7,6 -7,3zm-30 4c0,-1 1,-3 1,-4 1,-3 7,-3 9,-3 0,2 0,6 -2,7 -2,0 -6,0 -8,0zm98 -5c0,2 0,4 -1,5 -1,0 -3,0 -6,-3l7 -2zm8 4c1,0 1,1 2,2 -3,1 -4,3 -6,5 -1,0 -2,-1 -4,-1 -1,0 -3,1 -5,3 -2,-5 -6,-7 -7,-9 1,0 2,-1 3,-1 5,3 8,5 9,2 1,-1 1,-3 1,-6 2,0 3,0 3,0 1,-1 -3,2 0,6 2,2 4,0 4,-1zm-85 -4c-1,1 -2,3 -3,2 -1,0 -2,-2 -2,-3 1,0 3,0 5,1zm41 -3c-3,2 -4,2 -7,3 -2,0 -7,-1 -8,-1 -1,-1 0,-2 0,-2 6,1 8,2 14,-1 0,0 1,1 1,1zm-3 12c10,-3 8,-3 6,-9 1,-1 2,-1 2,-4 5,1 12,5 16,7 3,2 4,4 6,6 1,1 3,3 3,5 1,2 2,2 2,4 3,6 4,7 6,15 0,4 3,18 1,21 -4,1 -9,0 -10,4 -1,4 7,5 9,5 -3,4 -3,6 -8,10 -1,1 -4,2 -6,3 -2,1 -12,0 -15,0 -2,-1 -3,-2 -5,-3 -18,-9 -24,4 -39,2 -4,-1 -9,-2 -12,-4 -3,-3 -5,-7 -6,-11 2,-1 9,-1 10,-3 1,-2 -1,-4 -2,-5 -1,-1 -3,-1 -5,-1l-4 0c0,-10 0,-13 4,-24 0,-1 2,-6 3,-8 1,-3 3,-5 5,-7 4,0 9,-2 5,-7 1,-1 2,-2 3,-2 3,3 5,4 9,4 4,-1 3,-6 2,-10 12,-6 5,2 3,10 9,3 8,3 17,2zm6 -11c0,1 0,1 -1,1l-1 -4 3 1c0,1 0,1 -1,2zm-17 -2c0,-1 3,-10 5,-10 4,0 7,6 8,9 -1,1 -5,1 -6,2 -3,0 -5,0 -7,-1zm-38 119c-1,-1 -3,-2 -4,-1 -1,0 -1,1 -2,2 0,2 0,4 -1,5 -5,2 -2,3 -8,4 -4,-7 -7,-6 -7,-1 0,3 2,5 2,6 0,2 -1,4 0,7 0,1 1,2 1,3 0,1 -2,3 1,10 3,8 13,10 20,8 5,-1 8,-5 9,-10 0,-2 4,-6 5,-6 6,-3 15,3 22,4 13,2 19,-2 23,-4 2,0 6,5 12,7 1,3 2,5 4,7 7,5 13,5 20,2 4,-2 7,-9 7,-15 0,-3 -1,-4 -1,-7 0,-1 0,-2 0,-3 1,-2 0,-3 1,-4 1,-1 1,-1 1,-4l0 -2 1 1c1,-1 1,-2 1,-3l3 -6c1,0 1,-1 2,-2 3,-7 12,-19 17,-24 3,-3 7,-6 11,-6 1,0 4,1 6,1 6,1 7,1 9,-4 1,-3 6,1 6,-8 0,-3 0,-4 2,-5 2,0 4,0 4,-2 1,-2 1,-3 1,-4 -1,-3 -2,-5 -1,-8 2,-2 6,-1 5,-7 0,-3 -3,-5 -4,-7 -3,-5 0,-12 -5,-12 -3,0 -4,12 -9,19 -13,19 -27,20 -41,26 -6,2 -11,4 -15,7 -6,4 -8,6 -12,11 -2,-3 -7,-12 -10,-13 2,-1 5,-2 9,-5 2,-2 5,-6 6,-8 10,0 11,-8 2,-9 0,0 -1,0 -1,-1 0,-1 1,-5 1,-8 -1,-2 1,-2 2,-4 5,-9 10,-32 2,-44 -3,-5 -16,3 -21,5 -2,-1 -4,-2 -6,-3 -4,-2 -7,-3 -11,-5 -3,-1 -7,-1 -8,-1 0,-1 -4,-9 -7,-9 -4,1 -5,5 -7,8 -4,2 -9,3 -13,5 -8,5 -5,4 -9,2 -7,-3 -19,-5 -24,-1 -2,2 -3,10 -3,14 0,19 9,21 9,38 -9,1 -9,9 1,9 3,14 10,14 15,16 1,10 -16,3 -19,1 -3,-3 -2,-7 -4,-9 -2,-2 -3,-1 -4,-2 -2,-1 -1,-2 -3,-3 0,0 0,4 0,4 -2,2 -1,5 -2,5 -1,0 -3,1 -4,1 -1,2 -2,0 -4,0 -2,-1 1,3 2,4 -1,3 0,4 1,5 -2,1 -1,2 -2,2 -2,0 -4,1 -4,1 0,1 4,2 5,2 1,5 3,5 8,5 4,-1 17,5 19,10 2,8 -1,12 -2,13z"/>
   <path class="fil7" d="M55 159l5 3c8,3 15,3 22,2 6,-1 12,-5 15,-10 2,-4 2,-10 2,-13 0,-13 -4,-23 -4,-37 -1,0 -4,2 -9,3 -13,1 -23,-2 -30,-4 -1,6 0,12 -2,16 -1,6 -4,12 -5,18 -1,9 0,19 6,22z"/>
   <path class="fil1" d="M166 86c2,-1 3,0 5,0 3,2 2,9 -2,10 -4,1 -6,-2 -7,-3 0,-4 2,-6 4,-7zm28 -39c-2,0 -4,5 -5,8 0,1 -1,3 -1,4 -2,3 -2,2 -1,5 1,3 0,6 -2,8 -2,3 -4,3 -7,2 -4,4 -16,11 -21,13 1,3 0,8 -3,9 -5,1 -7,-3 -8,-5 -4,1 -11,5 -15,7 -3,2 -12,7 -13,10 -2,3 -1,3 1,8 2,3 3,4 5,7 1,3 1,6 2,9 1,2 2,1 3,4 1,3 0,5 -3,5 -1,-1 -2,-1 -2,-1 0,1 3,3 3,3 1,-1 2,-3 3,-4 3,-2 3,-1 5,1 2,-2 10,-16 11,-18 2,-3 6,-8 7,-10 -1,-3 -2,-3 -1,-7 2,-9 9,-6 13,-3 2,-2 3,-3 5,-4 2,-2 5,-4 8,-6 -2,-8 3,-16 11,-14 1,-3 5,-14 5,-17 -2,1 -5,-1 -4,-3 1,-5 4,-1 5,-2 1,0 1,-1 1,-2 0,-2 -1,-5 -2,-7z"/>
   <path class="fil5" d="M7 94c-1,1 -3,3 1,7 1,1 -2,1 -2,3 -1,4 1,5 2,6 4,1 4,-1 12,1 4,3 10,5 12,10 1,2 1,4 1,7 0,5 -3,6 -2,8 0,2 0,2 0,4 4,2 3,2 5,3 1,-1 9,-13 7,0 -1,3 -1,2 -1,5 0,2 -1,4 -2,5 -1,2 1,9 1,12 2,-2 2,-4 7,-6 1,0 4,0 4,0 1,-1 -3,-5 -4,-8 -2,-14 2,-20 5,-33 1,-3 2,-12 2,-15 -6,-2 -8,-8 -11,-8 -1,3 0,5 -3,6 -1,0 -2,0 -3,0 -9,-1 -13,-3 -16,-6 -1,-1 -1,-5 -2,-7 -2,-1 -7,-5 -8,2 0,3 -4,1 -5,4z"/>
   <path class="fil1" d="M103 167c-1,-3 -1,-7 0,-12 2,-3 -1,-5 1,-10 1,-2 0,-8 3,-9 3,-1 6,3 7,5l1 0c1,-1 1,-2 1,-4 -1,-1 -1,0 -1,-2 -2,-3 -4,-6 -6,-11 -3,-7 -3,-6 -4,-15 -1,-5 -1,-8 0,-13 -1,1 -3,3 -6,5 -1,1 -3,2 -3,3 -1,15 6,30 4,44 -1,3 -2,6 -4,8 -1,2 -3,3 -3,4 1,2 4,5 10,7z"/>
   <path class="fil1" d="M17 164c0,-16 2,20 0,0zm-1 -16c1,0 3,1 3,4 0,2 -2,3 -3,3 -4,1 -5,-6 0,-7zm20 -1c3,-2 4,5 2,6 -3,1 -6,-4 -2,-6zm-11 -4c1,-1 4,0 5,1 2,1 1,3 0,4 -2,1 -5,1 -6,0 -1,-2 -1,-4 1,-5zm-13 17c0,3 0,5 1,8 1,6 8,9 14,9 7,0 12,-5 13,-11 1,-3 -1,-7 -1,-11 -1,-5 5,-5 1,-11 -2,-1 -3,1 -4,0 -3,0 -2,-1 -4,-3 -4,-2 -7,-1 -8,0 -2,2 -3,3 -4,4 -2,1 -9,-1 -9,8 0,1 0,3 0,4 1,2 1,1 1,3z"/>
   <path class="fil1" d="M107 164c0,-3 2,-6 4,-7 1,-1 2,0 3,-1 2,-1 2,-5 7,-3 1,0 2,1 3,2 0,3 0,1 2,2 1,1 2,2 3,3 2,5 0,7 -3,9 -2,1 -4,2 -5,2 -4,0 -6,0 -9,-2 -2,-1 -4,-3 -5,-5zm20 -16c4,-2 6,5 2,7 -3,1 -7,-5 -2,-7zm-18 -1c1,-1 3,2 3,3 1,2 0,4 -2,4 -3,0 -6,-4 -1,-7zm9 -4c4,-1 7,7 3,8 -5,2 -7,-6 -3,-8zm14 27c3,-12 -1,-11 0,-15 0,-2 1,-4 0,-7 -1,-3 -4,-2 -5,-3 -2,-1 -3,-3 -5,-3 -3,-1 -5,0 -7,1 -4,5 -8,-2 -10,6 -1,2 0,4 -1,7 -2,5 -1,15 4,18 3,3 10,5 14,4 4,-1 9,-4 10,-8z"/>
   <path class="fil1" d="M80 106c6,0 13,-2 18,-5 1,-1 5,-4 5,-5 -8,2 -14,-1 -18,-3 -8,9 -21,2 -22,-1 -4,3 -11,4 -16,3 6,10 24,11 33,11z"/>
   <path class="fil1" d="M106 111c1,5 8,24 11,24 1,0 1,-3 5,-2 2,1 1,2 1,3 3,1 1,-7 -3,-17 -4,-7 -9,-16 -13,-20 0,-1 -1,-1 -1,-1 -1,1 -1,5 0,13z"/>
   <path class="fil8" d="M169 100c3,0 11,4 13,2 1,-1 2,-4 2,-5 1,-1 4,0 5,-1 2,-2 0,-9 3,-10 2,-1 4,-1 4,-3 0,-2 0,-6 0,-7 -1,-8 3,-4 5,-9 1,-3 -3,-7 -5,-9 -7,27 -11,29 -27,42z"/>
   <path class="fil9" d="M45 56c0,0 0,0 0,0 0,0 0,0 0,0l2 -1c-1,-2 -2,-4 0,-6 1,-1 3,-1 4,-1 3,2 3,7 -1,8l0 1c2,1 3,0 4,-1l1 -2c1,3 1,5 0,8 0,-1 0,-1 0,-1 0,0 -1,0 -1,0 0,-1 0,-2 0,-2l-2 -1c0,0 0,1 1,1l-2 0c1,1 1,1 3,2 -1,3 -1,4 -2,4 0,1 -2,2 -3,2 -1,1 -2,1 -4,1 -3,-1 -4,-3 -5,-5 -1,-1 0,1 -1,0 0,-1 0,-1 0,-2 0,-4 -1,-9 3,-12 1,-1 2,-2 4,-2 -1,1 -2,2 -2,3 0,2 0,2 0,3 -1,2 0,0 0,1l1 2zm-9 1c-3,14 14,17 20,9 2,-4 3,-13 -1,-19 -7,-8 -16,-2 -19,10z"/>
   <path class="fil7" d="M31 42c2,-5 -4,-13 -11,-15 0,8 1,17 4,24 0,1 2,6 2,7 3,-8 3,-9 5,-16z"/>
   <path class="fil7" d="M123 61c6,-5 10,-34 5,-36 -1,2 -4,6 -5,8 -4,7 -5,10 -2,18 0,4 1,7 2,10z"/>
   <path class="fil9" d="M118 155c5,-1 3,2 5,3 1,1 4,1 4,3 1,4 0,5 -2,6 -2,2 -3,2 -6,2 -3,0 -10,-3 -9,-7 1,-2 2,-3 4,-3 3,-1 3,-2 4,-4zm-11 9c1,2 3,4 5,5 3,2 5,2 9,2 1,0 4,-1 5,-2 3,-2 5,-4 3,-9 -1,-1 -2,-2 -3,-3 -2,-1 -2,1 -2,-2 -1,-1 -2,-3 -4,-3 -5,0 -4,3 -6,4 -1,1 -2,0 -3,1 -2,1 -4,4 -4,7z"/>
   <path class="fil9" d="M89 46c0,3 8,-3 9,-4 3,-3 4,-3 2,-5 -1,-1 -2,-3 -3,-2 -4,5 -7,10 -8,11z"/>
   <path class="fil10" d="M48 62c1,1 1,1 1,2 0,0 0,0 0,0 0,-1 0,-1 -1,-2zm-7 -4c1,-1 2,0 2,0 -1,1 -1,0 -2,0zm-2 3c1,0 2,0 2,0 0,1 0,1 -1,1l0 1c1,2 2,4 5,5 2,0 3,0 4,-1 1,0 3,-1 3,-2 -1,1 0,0 -1,0 0,-2 0,0 -1,-2 -1,0 -1,-1 0,-2 0,-1 1,0 1,-2 0,0 -1,-1 -1,-1 0,0 0,0 0,0 0,1 0,1 0,3 -1,0 -1,0 -1,0l0 1c-1,0 -1,0 -2,0 -1,0 -1,0 -1,1 -1,0 0,0 -1,0l-1 -1c0,-2 0,0 1,-2l-1 0c0,0 0,0 0,0l0 -3c-1,0 -1,-1 -2,-2 2,0 1,0 2,1 1,0 0,0 1,0l-1 -2c0,-1 -1,1 0,-1 0,-1 0,-1 0,-3 0,-1 1,-2 2,-3 -2,0 -3,1 -4,2 -4,3 -3,8 -3,12z"/>
   <path class="fil3" d="M68 15c3,1 11,1 13,-1 -1,-3 -4,-9 -8,-9 -2,0 -5,9 -5,10z"/>
   <path class="fil11" d="M128 78c1,-4 -15,-5 -16,-1 -1,4 15,7 16,1z"/>
   <path class="fil11" d="M38 75c0,-6 -18,-5 -17,0 1,5 16,3 17,0z"/>
   <path class="fil11" d="M65 93c3,5 17,4 19,0 -7,-4 -16,-3 -19,0z"/>
   <path class="fil9" d="M171 88c0,4 -2,9 -6,5 -3,-2 2,-7 6,-5zm-5 -2c-2,1 -4,3 -4,7 1,1 3,4 7,3 4,-1 6,-8 2,-10 -1,0 -3,-1 -5,0z"/>
   <path class="fil8" d="M178 91c3,-1 9,-9 10,-13 -4,-1 -6,2 -8,4 -1,1 -3,5 -2,9z"/>
   <path class="fil8" d="M20 24c2,0 6,0 8,0 2,-1 2,-5 2,-7 -6,0 -10,0 -10,7z"/>
   <path class="fil8" d="M154 111c2,-2 6,-7 10,-9 -2,-1 -6,-3 -9,-1 -1,1 -4,7 -1,10z"/>
   <path class="fil8" d="M147 91c1,2 2,3 3,4 1,0 4,0 5,-1 2,-1 2,-3 2,-5 0,-2 -1,-2 -4,-1 -2,1 -4,2 -6,3z"/>
   <path class="fil8" d="M49 21c1,3 12,9 9,-5 -2,1 -7,4 -9,5z"/>
   <path class="fil9" d="M91 26c-1,-1 -2,-6 0,-6 1,0 4,2 5,2 0,2 -3,4 -5,4zm-2 -7c-2,5 1,12 6,7 2,-2 4,-4 1,-6 -2,-1 -4,-2 -7,-1z"/>
   <path class="fil9" d="M86 35c0,-1 0,0 -1,-1 0,-1 0,-1 0,-2 0,0 0,-1 1,-2 0,0 1,0 2,0 0,1 1,1 1,1 0,2 -2,3 -3,4zm-1 -6c-2,0 -2,5 -1,6 1,3 3,1 5,0 3,-3 3,-6 -1,-7 0,0 -3,0 -3,1z"/>
   <path class="fil8" d="M118 41c1,-1 1,-4 2,-5 0,-2 1,-4 2,-5 -1,0 -4,-1 -5,0 0,0 -2,2 -2,3 0,1 2,6 3,7z"/>
   <path class="fil8" d="M172 88c-6,-5 -10,3 -8,6 1,1 3,2 5,1 2,-1 4,-5 3,-7z"/>
   <path class="fil9" d="M121 146c0,2 1,3 -1,3 -1,0 -2,0 -2,-1 -1,-3 2,-3 3,-2zm-3 -3c-4,2 -2,10 3,8 4,-1 1,-9 -3,-8z"/>
   <path class="fil9" d="M17 150c0,2 0,4 -2,3 -1,-1 -1,-1 0,-2l2 -1zm-1 -2c-5,1 -4,8 0,7 1,0 3,-1 3,-3 0,-3 -2,-4 -3,-4z"/>
   <path class="fil9" d="M127 152c0,-1 0,-2 1,-2 0,0 1,1 2,1 -1,2 -2,2 -3,1zm0 -4c-5,2 -1,8 2,7 4,-2 2,-9 -2,-7z"/>
   <path class="fil12" d="M48 57c0,1 0,1 0,3 -3,3 -4,-4 0,-3zm-3 -1c-1,0 0,0 -1,0 0,1 0,1 0,1l0 3c0,0 0,0 0,0l1 0c-1,2 -1,0 -1,2l1 -1 1 2c0,-1 0,-1 1,-1 1,0 1,0 2,0l0 -1c0,0 0,0 1,0 0,-2 0,-2 0,-3l0 -1 0 -1c-2,0 -2,0 -3,-1l-2 1c0,0 0,0 0,0 0,0 0,0 0,0z"/>
   <path class="fil9" d="M108 150c0,0 1,-1 2,-1 1,1 1,2 0,3 -1,0 -1,-1 -2,-2zm1 -3c-5,3 -2,7 1,7 2,0 3,-2 2,-4 0,-1 -2,-4 -3,-3z"/>
   <path class="fil13" d="M51 61c1,0 2,0 2,1 -2,0 -2,-1 -2,-1zm-1 -4l0 1c0,0 0,0 0,0 0,0 1,1 1,1 0,2 -1,1 -1,2 1,1 2,2 2,4 0,0 1,0 -1,0 1,0 0,1 1,0 1,0 1,-1 2,-4 -2,-1 -2,-1 -3,-2l2 0c-1,0 -1,-1 -1,-1l2 1c0,0 0,1 0,2 0,0 1,0 1,0 0,0 0,0 0,1 1,-3 1,-5 0,-8l-1 2c-1,1 -2,2 -4,1z"/>
   <path class="fil8" d="M91 26c2,0 5,-2 5,-4 -1,0 -4,-2 -5,-2 -2,0 -1,5 0,6z"/>
   <path class="fil14" d="M107 144c1,0 2,-1 3,-1 2,0 2,0 3,-1 0,-1 -1,-1 -2,-2 -3,-2 -4,-3 -4,4z"/>
   <path class="fil15" d="M186 62c-2,4 -7,10 -8,11 3,2 6,-1 7,-2 2,-3 2,-6 1,-9z"/>
   <path class="fil9" d="M78 76c1,2 6,3 7,0 0,-3 -6,-2 -7,0z"/>
   <path class="fil14" d="M118 140l4 0c0,-2 0,-4 -1,-6 -2,0 -3,3 -3,6z"/>
   <path class="fil16" d="M111 21c4,4 8,5 7,-2l-7 2 0 0z"/>
   <path class="fil8" d="M126 21c0,-1 -1,-2 -1,-3 -2,1 -4,2 -3,4 1,3 3,1 4,-1z"/>
   <path class="fil4" d="M41 19c-2,-1 -4,-1 -5,-1 0,1 1,3 2,3 1,1 2,-1 3,-2z"/>
   <path class="fil4" d="M86 35c1,-1 3,-2 3,-4 0,0 -1,0 -1,-1 -1,0 -2,0 -2,0 -1,1 -1,2 -1,2 0,1 0,1 0,2 1,1 1,0 1,1z"/>
   <path class="fil17" d="M122 146c-1,-3 -7,-3 -5,3 0,2 2,2 4,2 2,-1 2,-3 1,-5z"/>
   <path class="fil18" d="M48 57c-4,-1 -3,6 0,3 0,-2 0,-2 0,-3z"/>
   <path class="fil4" d="M84 18c1,0 1,0 1,-1 1,-1 1,-1 1,-2l-3 -1 1 4z"/>
   <path class="fil17" d="M128 154c1,1 2,-1 2,-2 1,-2 -1,-5 -3,-4 -2,1 -2,3 -2,4 1,2 2,2 3,2z"/>
   <path class="fil17" d="M13 150c0,2 -1,4 1,4 4,2 6,-3 3,-5 -2,-1 -3,0 -4,1z"/>
   <path class="fil19" d="M107 151c0,1 1,3 3,2 2,0 3,-4 0,-5 -2,-1 -4,1 -3,3z"/>
   <path class="fil18" d="M51 65c2,0 1,0 1,0 0,-2 -1,-3 -2,-4 -1,1 -1,2 0,2 1,2 1,0 1,2z"/>
   <path class="fil16" d="M24 3c1,0 1,-1 1,-2 -1,0 0,0 -1,-1 0,1 0,2 0,3z"/>
   <path class="fil20" d="M39 61c0,1 0,1 0,2 1,1 0,-1 1,0l0 -1c1,0 1,0 1,-1 0,0 -1,0 -2,0z"/>
   <path class="fil21" d="M44 57c0,0 0,0 0,-1 -1,-1 0,-1 -2,-1 1,1 1,2 2,2z"/>
   <path class="fil21" d="M41 58c1,0 1,1 2,0 0,0 -1,-1 -2,0z"/>
   <path class="fil21" d="M51 61c0,0 0,1 2,1 0,-1 -1,-1 -2,-1z"/>
   <path class="fil22" d="M44 62l1 1c1,0 0,0 1,0l-1 -2 -1 1z"/>
   <path class="fil20" d="M49 64c0,-1 0,-1 -1,-2 1,1 1,1 1,2 0,0 0,0 0,0z"/>
   <path class="fil23" d="M198 115c0,1 -1,1 0,1 0,-1 0,0 0,-1 -1,0 0,0 0,0z"/>
   <path class="fil24" d="M115 141l-1 0c0,1 1,0 1,0z"/>
   <path class="fil9" d="M61 35c-1,-1 -2,-6 0,-6 1,1 4,2 5,2 0,2 -3,5 -5,4zm-2 -7c-3,5 0,12 6,7 2,-1 4,-4 1,-5 -2,-1 -4,-3 -7,-2z"/>
   <path class="fil8" d="M61 35c2,1 5,-2 5,-4 -1,0 -4,-1 -5,-2 -2,0 -1,5 0,6z"/>
   <path class="fil9" d="M62 19c0,0 0,0 0,-1 0,0 0,-1 0,-1 0,-1 0,-1 0,-2 1,0 1,0 2,0 0,0 1,0 1,1 0,1 -2,2 -3,3zm-1 1c1,2 2,0 4,-1 1,-3 1,-6 -1,-5 -3,0 -6,1 -3,6z"/>
   <path class="fil4" d="M62 20c1,-1 2,-1 3,-4 1,-2 -2,-1 -3,-1 -3,2 -1,4 0,5z"/>
   <path class="fil9" d="M58 44c1,3 -7,-3 -8,-4 -3,-3 -4,-3 -2,-5 0,0 2,-3 3,-2 4,5 7,10 7,11z"/>
   <circle class="fil25 str0" cx="47" cy="59" r="2"/>
   <circle class="fil26 str0" cx="50" cy="52" r="4"/>
   <circle class="fil26 str0" cx="45" cy="62" r="1"/>
   <path class="fil9" d="M98 57c0,0 0,-1 0,0 0,0 0,-1 0,-1l1 -1c0,-1 -1,-4 1,-5 0,-1 3,-2 4,-1 3,2 3,7 -2,8l1 1c1,1 3,0 4,-2l1 -1c1,2 0,5 0,7 0,0 0,0 -1,0 0,0 0,-1 0,-1 0,0 0,-1 0,-1l-2 -1c0,-1 0,0 0,1l-1 0c1,1 1,1 2,2 0,2 0,4 -1,4 0,1 -2,2 -3,2 -2,1 -2,1 -4,0 -4,0 -4,-2 -5,-4 -1,-1 0,0 -1,-1 0,0 0,0 0,-1 0,-4 -1,-10 3,-12 1,-1 2,-2 3,-2 0,1 -1,2 -1,3 0,1 0,2 0,3 -1,2 0,-1 -1,1l2 2zm-9 1c-3,14 14,17 19,9 3,-4 4,-13 -1,-19 -6,-8 -15,-2 -18,10z"/>
   <path class="fil10" d="M101 63c1,1 1,1 1,2 0,-1 0,0 -1,-1 0,0 0,0 0,-1zm-7 -5c1,0 2,0 2,1 -1,1 -2,0 -2,-1zm-2 4c1,0 1,0 2,0 0,1 0,1 -1,1l0 1c1,2 1,4 5,4 2,1 2,1 4,0 1,0 3,-1 3,-2 -1,0 0,0 -1,0 0,-2 0,-1 -1,-2 -1,-1 -1,-1 0,-2 0,-1 0,0 0,-2 0,0 0,-1 0,-1 0,-1 0,0 0,-1 0,2 0,2 -1,3 0,0 0,1 0,1l0 1c-1,0 -1,0 -2,0 -1,0 -1,0 -2,0 0,1 0,1 -1,1l0 -1c0,-2 0,0 0,-3l0 1c0,0 0,0 -1,0l1 -3c-1,-1 -2,-1 -2,-2 2,0 1,0 2,1 0,-1 0,0 1,0l-2 -2c1,-2 0,1 1,-1 0,-1 0,-2 0,-3 0,-1 1,-2 1,-3 -1,0 -2,1 -3,2 -4,2 -3,8 -3,12z"/>
   <path class="fil12" d="M101 58c0,1 0,1 0,2 -4,3 -4,-3 0,-2zm-3 -1c-1,0 -1,-1 -1,0 0,1 0,0 0,1l-1 3c1,0 1,0 1,0l0 -1c0,3 0,1 0,3l1 -1 0 1c1,0 1,0 2,0 1,0 1,0 2,0l0 -1c0,0 0,-1 0,-1 1,-1 1,-1 1,-3l0 0 0 -1c-2,0 -3,-1 -4,-2l-1 1c0,0 0,1 0,1 0,-1 0,0 0,0z"/>
   <path class="fil13" d="M104 61c1,1 1,1 1,2 -1,0 -1,-1 -1,-2zm-1 -3l0 0c0,1 0,0 0,1 0,0 0,1 0,1 0,2 0,1 0,2 1,1 1,2 2,3 0,1 0,1 -1,1 1,0 0,0 1,0 1,0 1,-2 1,-4 -1,-1 -1,-1 -2,-2l1 0c0,-1 0,-2 0,-1l2 1c0,0 0,1 0,1 0,0 0,1 0,1 1,0 1,0 1,0 0,-2 1,-5 0,-7l-1 1c-1,2 -3,3 -4,2z"/>
   <path class="fil18" d="M101 58c-4,-1 -4,5 0,2 0,-1 0,-1 0,-2z"/>
   <path class="fil18" d="M104 66c1,0 1,0 1,-1 -1,-1 -1,-2 -2,-3 -1,1 -1,1 0,2 1,1 1,0 1,2z"/>
   <path class="fil20" d="M92 62c0,1 0,1 0,1 1,1 0,0 1,1l0 -1c1,0 1,0 1,-1 -1,0 -1,0 -2,0z"/>
   <path class="fil21" d="M97 58c0,-1 0,0 0,-1 -1,-1 0,-1 -2,-1 0,1 1,1 2,2z"/>
   <path class="fil21" d="M94 58c0,1 1,2 2,1 0,-1 -1,-1 -2,-1z"/>
   <path class="fil21" d="M104 61c0,1 0,2 1,2 0,-1 0,-1 -1,-2z"/>
   <path class="fil22" d="M97 63l0 1c1,0 1,0 1,-1l0 -1 -1 1z"/>
   <path class="fil20" d="M102 65c0,-1 0,-1 -1,-2 0,1 0,1 0,1 1,1 1,0 1,1z"/>
   <circle class="fil25 str0" cx="100" cy="59" r="2"/>
   <circle class="fil26 str0" cx="103" cy="53" r="4"/>
   <circle class="fil26 str0" cx="98" cy="63" r="1"/>
   <path class="fil27 str0" d="M62 73c0,0 12,-8 26,0"/>
   <path class="fil9" d="M73 76c-1,2 -7,3 -7,0 -1,-3 5,-2 7,0z"/>
   <ellipse class="fil28" cx="192" cy="58" rx="2" ry="3"/>
   <path class="fil7" d="M118 153c-3,1 -1,3 -4,4 -3,1 -5,2 -6,5 -1,5 7,8 11,8 4,0 11,-2 10,-9 -1,-3 -4,-2 -5,-4 -2,-1 -2,-5 -6,-4z"/>
   <path class="fil9" d="M30 146c-2,1 -4,2 -4,-1 1,-1 1,-1 2,-1l2 2zm1 -2c-4,-5 -10,0 -7,4 1,1 3,2 5,1 3,-1 3,-4 2,-5z"/>
   <path class="fil17" d="M28 142c-2,0 -4,1 -4,3 0,5 7,4 7,1 0,-3 -2,-3 -3,-4z"/>
   <path class="fil9" d="M35 151c0,-2 0,-2 1,-3 1,1 1,2 2,2 -1,2 -2,2 -3,1zm0 -5c-5,3 -1,9 2,7 4,-1 2,-8 -2,-7z"/>
   <path class="fil17" d="M36 153c1,0 3,-1 3,-2 0,-2 -1,-5 -3,-4 -2,1 -3,3 -2,4 0,1 1,2 2,2z"/>
   <path class="fil9" d="M27 154c5,0 3,3 4,4 2,1 4,0 5,3 1,4 -1,5 -2,6 -3,2 -3,1 -6,1 -4,0 -11,-2 -10,-6 1,-3 3,-3 5,-4 3,0 3,-2 4,-4zm-11 10c1,2 3,4 5,5 2,2 5,2 8,2 2,0 4,-1 6,-2 3,-2 5,-5 2,-9 0,-2 -1,-2 -2,-3 -2,-1 -2,0 -3,-2 0,-2 -2,-3 -3,-3 -6,0 -4,3 -6,4 -1,0 -2,0 -4,1 -1,1 -4,4 -3,7z"/>
   <path class="fil7" d="M27 153c-3,1 -1,3 -4,4 -3,1 -5,1 -6,5 -2,4 6,8 10,8 5,0 12,-2 10,-9 0,-3 -3,-3 -4,-4 -2,-1 -2,-5 -6,-4z"/>
   <path class="fil9" d="M13 107c-2,1 -4,1 -4,-1 1,-1 1,-1 2,-1l2 2zm0 -2c-3,-4 -8,0 -6,3 1,1 3,2 5,1 2,-1 2,-3 1,-4z"/>
   <path class="fil17" d="M11 104c-2,0 -4,1 -4,2 1,4 6,4 6,1 0,-2 -1,-3 -2,-3z"/>
   <path class="fil9" d="M10 95c0,1 0,3 -2,2 0,-1 0,-1 1,-2l1 0zm0 -1c-4,0 -4,5 -1,5 1,0 2,-1 3,-2 0,-2 -1,-3 -2,-3z"/>
   <path class="fil17" d="M8 95c-1,0 -1,2 0,3 2,2 5,-2 3,-4 -1,0 -2,0 -3,1z"/>
   <path class="fil9" d="M18 92c-2,0 -3,0 -3,-2 1,0 1,0 2,0l1 2zm1 -1c-1,-4 -6,-3 -6,0 1,1 2,2 3,2 2,0 3,-1 3,-2z"/>
   <path class="fil17" d="M17 89c-1,-1 -2,-1 -3,0 -1,3 3,5 4,3 1,-1 0,-2 -1,-3z"/>
   <path class="fil9" d="M14 100c0,-3 1,-2 2,-2 1,-1 1,-2 2,-2 2,0 3,1 3,2 1,1 1,1 0,3 0,2 -3,5 -4,4 -2,0 -2,-1 -2,-3 0,-1 0,-1 -1,-2zm3 7c1,0 3,-1 4,-2 1,-1 1,-3 2,-4 0,-1 0,-3 -1,-3 0,-2 -2,-4 -4,-3 -1,0 -2,0 -2,1 -1,1 0,1 -2,1 0,0 -1,1 -1,2 -1,2 1,2 1,3 0,1 0,1 0,2 0,1 2,3 3,3z"/>
   <path class="fil7" d="M13 100c0,1 1,1 1,2 0,2 1,3 2,4 3,1 5,-2 6,-4 1,-3 0,-7 -4,-7 -1,0 -1,2 -2,2 -1,1 -3,0 -3,3z"/>
   <path class="fil29" d="M50 131c-1,6 -7,28 13,32 0,0 -7,-12 -9,-17 -2,-4 -4,-15 -4,-15z"/>
   <path class="fil30" d="M90 106c0,0 -10,4 -34,-3 0,0 -1,11 -1,15 -1,4 11,-6 35,-12z"/>
   <path class="fil31" d="M135 96c0,0 -15,20 -11,29 5,9 -8,-15 -8,-15 0,0 7,-9 19,-14z"/>
   <path class="fil5" d="M59 94c0,0 -4,1 -12,1 -1,0 3,6 9,8 7,2 -2,-3 3,-9z"/>
   <path class="fil30" d="M32 41c1,-5 -5,-12 -12,-15 0,2 0,4 0,6 5,2 10,7 11,11 0,0 0,-1 1,-2z"/>
   <path class="fil30" d="M123 61l0 0 0 -1c0,1 0,1 0,1zm7 -29c0,-4 -1,-6 -2,-7 -1,2 -4,6 -5,8 -4,7 -5,10 -3,17 0,-4 1,-7 4,-12 1,-2 4,-6 5,-7 1,0 1,0 1,1zm-8 24l0 1c0,0 0,-1 0,-1l0 0z"/>
   <path class="fil5" d="M104 154c-1,0 -4,7 -8,9 0,0 6,5 7,4 1,0 0,-3 0,-6 0,-4 1,-7 1,-7z"/>
  </g>
 </g>
</svg>
