<?xml version="1.0" encoding="UTF-8"?>
<!DOCTYPE svg PUBLIC "-//W3C//DTD SVG 1.1//EN" "http://www.w3.org/Graphics/SVG/1.1/DTD/svg11.dtd">
<!-- Creator: CorelDRAW X7 -->
<svg xmlns="http://www.w3.org/2000/svg" xml:space="preserve" width="37.0203mm" height="47.1811mm" version="1.1" style="shape-rendering:geometricPrecision; text-rendering:geometricPrecision; image-rendering:optimizeQuality; fill-rule:evenodd; clip-rule:evenodd"
viewBox="0 0 167 213"
 xmlns:xlink="http://www.w3.org/1999/xlink">
 <defs>
  <style type="text/css">
   <![CDATA[
    .fil10 {fill:#291305}
    .fil0 {fill:#421D0A}
    .fil2 {fill:#552B0A}
    .fil5 {fill:#6A8A39}
    .fil7 {fill:#6D4515}
    .fil4 {fill:#755856}
    .fil6 {fill:#86B34E}
    .fil11 {fill:#95A12A}
    .fil9 {fill:#C59B54}
    .fil8 {fill:#E0DCD9}
    .fil3 {fill:#F3F2EB}
    .fil1 {fill:#FEFEFE}
   ]]>
  </style>
 </defs>
 <g id="圖層_x0020_1">
  <metadata id="CorelCorpID_0Corel-Layer"/>
  <g id="_2173377056656">
   <path class="fil0" d="M127 84l1 1c1,0 1,1 2,1 4,4 7,7 10,11 2,3 2,2 3,5l4 11c2,8 0,16 -3,23 -3,6 -7,11 -11,14 0,1 1,-1 0,2 0,1 -10,19 -16,21 0,-3 0,-6 -2,-8 -1,2 -2,6 -3,8 -5,9 -22,23 -33,28 -2,1 -1,1 -3,2 2,0 4,0 6,0 -2,1 -6,2 -9,2 -14,2 -25,-5 -35,-13 -1,-1 -1,-1 -2,-2 -1,-1 -2,-2 -3,-3 -2,-2 -4,-4 -5,-6l-9 -13c-3,-5 -5,-10 -7,-16 -10,-30 -2,-40 -1,-45 0,-3 2,-6 3,-9l4 -7c-2,0 -4,-2 -6,-3 -1,4 -4,8 -5,11 -13,24 -6,48 2,70l5 10c7,13 20,21 33,28 9,5 2,3 11,4 5,1 8,2 13,1 4,0 8,1 12,0 5,0 7,-1 12,-1l0 2c10,-3 15,-1 27,-11l3 -2c2,5 0,4 4,6 2,-4 2,-6 2,-10 0,-4 3,-6 4,-6 2,-3 3,-4 5,-7 4,-5 7,-12 9,-19 -6,1 -6,0 -7,-1 -2,-2 -3,-1 -3,-4 4,3 4,3 9,3 2,-1 -1,1 1,-1 2,-2 2,-5 2,-7l-4 -3 5 0c2,-8 1,-14 3,-21 -2,-8 1,-15 -7,-29 -3,-6 -3,-6 -8,-11 -2,-3 -7,-8 -10,-10 -1,0 0,0 -1,1 0,0 -1,1 -1,1 -1,1 -1,1 -1,2z"/>
   <path class="fil1" d="M36 112c-3,2 -3,4 -1,7 2,6 1,13 14,20 20,10 55,8 68,-9 10,-11 3,-22 -7,-29 -4,4 -13,20 -18,10 -1,-2 5,-7 7,-8 0,0 0,-1 0,-1l5 -5c-2,-1 -4,-1 -5,-2 -3,-2 -2,-2 -6,-2 1,2 -1,4 -3,5 -1,-1 0,1 0,-2 0,-3 1,-2 0,-4 -5,-6 -31,-5 -41,2 -5,3 -3,3 -7,7 -1,1 -6,4 -6,6 0,1 3,7 3,8 2,3 5,5 4,9 -3,-1 -5,-8 -7,-12z"/>
   <path class="fil2" d="M133 150c-2,2 -6,4 -8,6l-8 4c-8,3 -8,4 -18,6 -23,4 -57,-2 -75,-20 -3,-3 -6,-6 -9,-10 -4,-8 -8,-21 -4,-29 -1,5 -9,15 1,45 2,6 4,11 7,16l9 13c1,2 3,4 5,6 1,1 2,2 3,3 1,1 1,1 2,2 10,8 21,15 35,13 3,0 7,-1 9,-2 -2,0 -4,0 -6,0 2,-1 1,-1 3,-2 11,-5 28,-19 33,-28 1,-2 2,-6 3,-8 2,2 2,5 2,8 6,-2 16,-20 16,-21 1,-3 0,-1 0,-2z"/>
   <path class="fil3" d="M32 105c-1,-5 -2,-8 -5,-12l-6 0c-2,5 -5,7 -6,13 -10,34 38,57 74,54 10,-1 20,-4 27,-7 8,-4 15,-8 21,-16 6,-10 7,-20 3,-30 -4,-10 -10,-14 -17,-20 -2,1 -7,7 -9,9 5,5 9,9 10,15 1,7 -1,15 -5,20 -7,7 -20,14 -33,15 -13,2 -31,0 -42,-8 -8,-6 -10,-14 -13,-24 -1,-3 0,-2 1,-5 2,-2 0,-1 0,-4z"/>
   <path class="fil4" d="M29 72c-3,0 -5,-1 -7,-1 -2,1 -4,1 -7,1 0,-2 -2,-8 -5,-9 0,3 2,7 4,9 -2,2 -11,7 -2,16 2,1 4,3 6,3l-4 7c-1,3 -3,6 -3,9 -4,8 0,21 4,29 3,4 6,7 9,10 18,18 52,24 75,20 10,-2 10,-3 18,-6l8 -4c2,-2 6,-4 8,-6 4,-3 8,-8 11,-14 3,-7 5,-15 3,-23l-4 -11c-1,-3 -1,-2 -3,-5 -3,-4 -6,-7 -10,-11 -1,0 -1,-1 -2,-1l-1 -1c-1,0 -2,1 -3,1 -1,2 -1,1 -1,2 7,6 13,10 17,20 4,10 3,20 -3,30 -6,8 -13,12 -21,16 -7,3 -17,6 -27,7 -36,3 -84,-20 -74,-54 1,-6 4,-8 6,-13l6 0c3,4 4,7 5,12 1,1 1,2 2,3 1,2 1,3 2,4 2,4 4,11 7,12 1,-4 -2,-6 -4,-9 0,-1 -3,-7 -3,-8 0,-2 5,-5 6,-6 4,-4 2,-4 7,-7 10,-7 36,-8 41,-2 2,0 2,2 4,-5 -8,-3 -10,-5 -19,-4 -6,0 -12,0 -17,1 -5,2 -11,4 -14,7 -4,5 0,3 -10,11 -7,-16 -3,-4 1,-20 2,0 4,-2 6,-3 21,-8 36,-7 58,-3l2 -5c-13,-1 -20,-4 -38,-2 -8,1 -23,5 -29,10 0,-1 0,-1 -1,-1l-1 -3c-2,-2 -2,-2 -3,-3z"/>
   <path class="fil5" d="M121 70l10 0c-2,1 -4,4 -5,5 -2,2 -4,3 -5,5 -3,-1 -5,-3 -8,-4 -3,-1 -7,-2 -10,-4 0,0 0,0 0,-1l-2 6c6,1 11,4 16,6 -1,3 -6,8 -9,10 -10,-3 -5,-5 -12,-5l-3 5c4,0 3,0 6,2 1,1 3,1 5,2l-5 5c2,-1 3,-2 5,-4 2,-2 3,-3 5,-5l19 -20c2,-2 2,-3 5,-5 2,-1 1,0 3,-1l2 0c3,-1 -1,-1 2,-1l-3 -29c-2,3 1,0 -2,2 1,-4 -1,-13 -1,-18 -1,-3 -1,-15 -3,-15 -2,0 0,-1 -1,1l-6 11c-6,12 -13,21 -15,32 0,2 0,4 -1,7 -2,2 -4,3 -8,0 -1,0 -2,-1 -3,-2 -1,-2 -1,-1 -3,-3 0,4 0,5 4,7 8,4 7,2 11,4l2 1c0,0 1,0 1,0 0,0 0,0 0,0l4 2c1,1 1,1 3,1l8 -41c1,-5 2,-10 3,-14l0 2c0,3 -7,47 -8,49 0,0 0,2 0,2l-1 1c0,3 1,1 0,4z"/>
   <path class="fil6" d="M82 44l1 -1c2,1 4,6 6,9 2,2 0,0 1,3 2,0 4,3 6,5 2,1 6,3 8,5l1 1c3,0 14,4 16,4 1,-3 0,-1 0,-4l1 -1c0,0 0,-2 0,-2 1,-2 8,-46 8,-49l0 -2c-1,4 -2,9 -3,14l-8 41c-2,0 -2,0 -3,-1l-4 -2c0,0 0,0 0,0 0,0 -1,0 -1,0l-2 -1c-4,-2 -3,0 -11,-4 -4,-2 -4,-3 -4,-7 2,2 2,1 3,3 1,1 2,2 3,2 4,3 6,2 8,0 1,-3 1,-5 1,-7 2,-11 9,-20 15,-32l6 -11c1,-2 -1,-1 1,-1 2,0 2,12 3,15 0,5 2,14 1,18 3,-2 0,1 2,-2l-4 -28c0,-4 1,-7 -1,-9 -3,1 -1,3 -9,8 -1,1 -2,2 -3,3 -5,3 -5,4 -7,5l-10 8c-1,2 -2,1 -3,2 -2,1 -2,2 -3,3l-14 11c-1,2 1,1 -1,4z"/>
   <path class="fil7" d="M92 187c-13,0 -22,-2 -33,-10 -3,-2 -4,-4 -7,-6 0,4 2,3 1,8 -6,-4 -18,-15 -19,-20 -1,3 0,7 1,9 -5,-2 -12,-18 -17,-21 1,17 13,33 24,42 8,6 15,9 27,8 10,0 15,-3 22,-9 0,0 -1,1 0,0l1 -1z"/>
   <path class="fil8" d="M101 71l-2 5c-22,-4 -37,-5 -58,3 -2,1 -4,3 -6,3 -4,16 -8,4 -1,20 10,-8 6,-6 10,-11 3,-3 9,-5 14,-7 5,-1 11,-1 17,-1 9,-1 11,1 19,4 -2,7 -2,5 -4,5 1,2 0,1 0,4 0,3 -1,1 0,2 2,-1 4,-3 3,-5l3 -5c7,0 2,2 12,5 3,-2 8,-7 9,-10 -5,-2 -10,-5 -16,-6l2 -6 2 -5 -1 -1 -3 6z"/>
   <path class="fil9" d="M140 66c-3,0 1,0 -2,1l-2 0c-2,1 -1,0 -3,1 -3,2 -3,3 -5,5l-19 20c-2,2 -3,3 -5,5 -2,2 -3,3 -5,4 0,0 0,1 0,1 -2,1 -8,6 -7,8 5,10 14,-6 18,-10 10,7 17,18 7,29 -13,17 -48,19 -68,9 -13,-7 -12,-14 -14,-20 -2,-3 -2,-5 1,-7 -1,-1 -1,-2 -2,-4 -1,-1 -1,-2 -2,-3 0,3 2,2 0,4 -1,3 -2,2 -1,5 3,10 5,18 13,24 11,8 29,10 42,8 13,-1 26,-8 33,-15 4,-5 6,-13 5,-20 -1,-6 -5,-10 -10,-15 2,-2 7,-8 9,-9 0,-1 0,0 1,-2 1,0 2,-1 3,-1 0,-1 0,-1 1,-2 0,0 1,-1 1,-1 1,-1 0,-1 1,-1 5,-6 7,-7 16,-8 5,0 18,-1 21,-3 1,-7 -7,-4 -12,-4 -3,1 -13,2 -15,1z"/>
   <path class="fil10" d="M82 44c0,5 4,7 5,10 1,5 0,2 4,4 1,1 3,3 4,4 -16,-2 -33,-2 -48,2l-7 2c0,2 0,1 1,2 -3,0 -8,-1 -10,4l-2 0c1,1 1,1 3,3l1 3c1,0 1,0 1,1 6,-5 21,-9 29,-10 18,-2 25,1 38,2l3 -6c-2,-2 -6,-4 -8,-5 -2,-2 -4,-5 -6,-5 -1,-3 1,-1 -1,-3 -2,-3 -4,-8 -6,-9l-1 1z"/>
   <path class="fil10" d="M121 70c-2,0 -13,-4 -16,-4l-2 5c0,1 0,1 0,1 3,2 7,3 10,4 3,1 5,3 8,4 1,-2 3,-3 5,-5 1,-1 3,-4 5,-5l-10 0z"/>
   <path class="fil11" d="M29 75c-2,0 -8,-4 -14,-2 -4,2 -7,6 -3,11l2 2c6,0 8,-1 11,-5 1,0 1,0 1,0 2,-2 2,-4 3,-6z"/>
  </g>
 </g>
</svg>
