<?xml version="1.0" encoding="UTF-8"?>
<!DOCTYPE svg PUBLIC "-//W3C//DTD SVG 1.1//EN" "http://www.w3.org/Graphics/SVG/1.1/DTD/svg11.dtd">
<!-- Creator: CorelDRAW X7 -->
<svg xmlns="http://www.w3.org/2000/svg" xml:space="preserve" width="44.9847mm" height="46.9769mm" version="1.1" style="shape-rendering:geometricPrecision; text-rendering:geometricPrecision; image-rendering:optimizeQuality; fill-rule:evenodd; clip-rule:evenodd"
viewBox="0 0 374 391"
 xmlns:xlink="http://www.w3.org/1999/xlink">
 <defs>
  <style type="text/css">
   <![CDATA[
    .str0 {stroke:#ECF6F3;stroke-width:2.07878}
    .fil2 {fill:none}
    .fil3 {fill:#FEFEFE}
    .fil1 {fill:#9E78C2}
    .fil0 {fill:#DEBCFE}
    .fil4 {fill:#FEFEFE;fill-rule:nonzero}
   ]]>
  </style>
   <clipPath id="id0">
    <path d="M9 9l365 0 0 382 -365 0 0 -382z"/>
   </clipPath>
    <clipPath id="id1">
     <path d="M72 44l239 0 0 239 -239 0 0 -239z"/>
    </clipPath>
 </defs>
 <g id="圖層_x0020_1">
  <metadata id="CorelCorpID_0Corel-Layer"/>
  <g style="clip-path:url(#id0)">
   <image x="9" y="9" width="365" height="381" xlink:href="home_button3_Images\home_button3_ImgID1.png"/>
  </g>
  <path class="fil0" d="M62 0l250 0c34,0 62,28 62,62l0 267c0,34 -28,62 -62,62l-250 0c-34,0 -62,-28 -62,-62l0 -267c0,-34 28,-62 62,-62z"/>
  <path class="fil1" d="M374 272l0 57c0,34 -28,62 -62,62l-250 0c-34,0 -62,-28 -62,-62l0 -57c0,13 10,23 23,23l328 0c13,0 23,-10 23,-23z"/>
  <rect class="fil2 str0" x="19" y="16" width="337" height="352" rx="56" ry="56"/>
  <g id="_2173553316272">
   <g style="clip-path:url(#id1)">
    <image x="72" y="44" width="239" height="239" xlink:href="home_button3_Images\home_button3_ImgID2.png"/>
   </g>
  </g>
  <g id="_2173553318256">
   <path class="fil3" d="M87 162l0 3c5,6 9,3 21,4 4,42 35,74 78,77 0,4 0,8 0,12 0,6 0,7 4,9l3 0c6,-4 3,-8 4,-21 42,-3 74,-35 77,-77 13,-1 17,2 21,-4l0 -3c-2,-4 -3,-4 -9,-4 -4,0 -8,0 -12,0 -3,-43 -35,-74 -77,-78 -1,-12 2,-16 -4,-21l-3 0c-4,3 -4,3 -4,10 0,4 0,7 0,11 -43,4 -74,35 -78,78 -4,0 -8,0 -12,0 -6,0 -6,0 -9,4zm32 -4c7,0 14,-1 19,2l1 7c-6,3 -13,1 -20,2 0,33 34,67 67,67 0,-7 -1,-14 2,-20l7 0c2,6 1,13 2,20 33,0 66,-33 67,-67 -7,-1 -14,1 -20,-2l0 -7c6,-3 13,-2 20,-2 -1,-33 -34,-67 -67,-67 -1,7 0,14 -2,19l-7 1c-3,-6 -2,-13 -2,-20 -33,0 -67,34 -67,67z"/>
   <path class="fil3" d="M179 167l-17 -17c-2,1 -20,19 -22,22 5,6 13,13 19,19 3,4 17,18 20,19l68 -67c2,-3 8,-7 9,-10 -1,-3 -19,-21 -22,-22l-55 56z"/>
  </g>
  <path class="fil4" d="M141 305l5 2c-1,4 -3,8 -4,11l0 39 -6 0 0 -30c-1,2 -3,4 -5,6l-2 -6c3,-3 5,-6 7,-9 2,-3 4,-8 5,-13zm35 1l3 5c-4,1 -9,2 -15,3l0 14 17 0 0 5 -17 0 0 17 15 0 0 5 -33 0 0 -5 13 0 0 -17 -15 0 0 -5 15 0 0 -14c-4,0 -7,1 -11,1l-2 -6c12,0 22,-1 30,-3z"/>
  <path id="1" class="fil4" d="M192 307l22 0 0 5c-2,3 -5,7 -8,10 0,0 1,1 1,1l8 0 0 5c-1,4 -3,8 -4,11l-4 -3c1,-2 2,-4 3,-8l-4 0 0 23c0,2 0,3 -1,4 -1,1 -2,1 -4,1l-5 0 -1 -5c2,0 3,0 4,0 2,0 3,0 3,-1l0 -19c-1,4 -2,7 -3,9 -1,3 -3,6 -5,10l-4 -3c2,-4 4,-7 5,-10 1,-3 2,-5 2,-9l-6 0 0 -5 10 0c-2,-2 -4,-4 -6,-7l3 -2c2,2 3,3 5,4 1,-1 3,-4 5,-6l-16 0 0 -5zm29 -2l5 1c0,1 -1,3 -2,4l19 0 0 4 -4 0c-1,4 -3,8 -6,10 0,0 0,0 0,0 3,2 7,4 11,5l-3 5c-5,-2 -9,-4 -12,-6 -3,2 -7,4 -12,6l-2 -5c4,-1 7,-3 10,-5 -2,-2 -4,-4 -5,-6 -2,2 -3,3 -5,5l-3 -5c4,-4 7,-8 9,-13zm3 9c1,3 3,5 5,7 2,-1 4,-4 5,-7l-10 0zm4 43l-1 -5c2,0 3,0 4,0 2,0 3,0 3,-1 1,-1 2,-4 2,-10l-7 0c-1,3 -2,5 -3,7 -3,4 -7,7 -13,9l-2 -5c5,-1 9,-4 11,-7 0,-1 1,-3 2,-4l-10 0 0 -5 11 0c0,-1 0,-3 0,-5l5 1c0,1 0,3 0,4l11 0c0,9 -1,14 -1,16 0,2 -1,3 -2,4 -1,1 -4,1 -10,1z"/>
 </g>
</svg>
