<?xml version="1.0" encoding="UTF-8"?>
<!DOCTYPE svg PUBLIC "-//W3C//DTD SVG 1.1//EN" "http://www.w3.org/Graphics/SVG/1.1/DTD/svg11.dtd">
<!-- Creator: CorelDRAW X7 -->
<svg xmlns="http://www.w3.org/2000/svg" xml:space="preserve" width="12.9008mm" height="12.9008mm" version="1.1" shape-rendering="geometricPrecision" text-rendering="geometricPrecision" image-rendering="optimizeQuality" fill-rule="evenodd" clip-rule="evenodd"
viewBox="0 0 30 30"
 xmlns:xlink="http://www.w3.org/1999/xlink">
 <defs>
    <clipPath id="id0">
     <path d="M0 0l30 0 0 30 -30 0 0 -30z"/>
    </clipPath>
 </defs>
 <g id="圖層_x0020_1">
  <metadata id="CorelCorpID_0Corel-Layer"/>
  <g id="_779319352">
   <g clip-path="url(#id0)">
    <image x="0" y="0" width="29.6131" height="29.6131" xlink:href="地圖上的寵物1_Images\地圖上的寵物1_ImgID1.png"/>
   </g>
  </g>
  <g id="_779319424">
   <circle fill="#FEFEFE" cx="14" cy="13" r="13"/>
   <g>
    <path fill="#D4E17F" d="M13 17c-1,3 -5,2 -4,-1 0,-3 4,-2 4,1zm8 -1c-1,3 -5,2 -5,-1 1,-2 5,-2 5,1zm-4 -6l0 0c-2,0 -4,0 -6,1l-2 1 0 0 1 -1c0,0 -2,-2 -3,-2 -1,-1 -3,-2 -4,-1l1 0c1,0 2,0 3,1 1,2 1,2 1,4l1 1c0,-1 -1,-1 -1,-1 0,0 0,0 0,1 0,0 0,-1 0,-1 0,0 0,1 0,1 -1,0 -1,0 -1,0 0,0 0,0 1,0 0,1 0,3 0,4 0,1 1,3 1,3 2,0 3,-1 4,-2 1,-1 0,-3 0,-4 -1,-6 3,-6 3,-2 0,1 -1,3 0,4 1,2 2,2 4,2 1,0 2,-2 1,-3 0,-3 0,-2 1,-4 0,0 -1,0 -1,0 0,0 0,0 0,-1 0,1 0,1 0,1 0,0 0,-1 -1,-1l0 0 1 1c-1,0 -1,-1 -1,-1 0,-2 0,-3 1,-4 0,-1 2,-2 1,-2 -1,1 -1,1 -2,2 -1,1 -2,2 -2,3l1 1 -2 -1z"/>
    <path fill="#020201" d="M21 19c-2,3 -8,3 -11,3 -1,-1 -1,-1 -1,-1 0,0 2,0 3,-1 1,-1 2,-1 2,-3 0,-1 -2,-5 0,-7 1,0 2,2 2,2 0,2 -1,3 0,4 0,3 2,4 5,3zm-15 -10c2,2 2,4 2,4l-1 -1 0 1 0 0 0 0c-1,0 -1,-2 -1,-2 -1,-2 -1,-2 -2,-3l0 0 2 1zm15 2c0,0 0,0 0,1 0,-1 -1,-1 -1,-2 0,-1 0,-2 1,-4l1 0c0,0 0,1 0,1 0,1 1,3 -1,4 0,0 0,0 0,0zm-12 10c0,0 -1,-1 -1,-1 -1,-1 -1,-2 0,-4 0,-1 0,-1 0,-2 -1,0 -1,0 -1,0 0,0 0,0 1,0 0,0 0,-1 0,-1 0,0 0,1 0,1 0,-1 0,-1 0,-1 0,0 0,0 1,1l-1 -1c0,-2 0,-2 -1,-4 -1,-1 -2,-1 -3,-1l-1 0 0 0 1 -1c2,0 3,0 4,1 1,0 3,2 3,2l0 1c2,-1 4,-1 6,-1l0 0c1,-1 2,-6 5,-5 1,0 -3,2 -2,6 0,0 0,1 1,1l-1 -1c1,0 1,1 1,1 0,0 0,0 0,-1 0,1 0,1 0,1 0,0 1,0 1,0 -1,2 -1,1 -1,4 1,1 0,3 -1,3 -2,0 -3,0 -4,-2 -1,-1 0,-3 0,-4 0,-4 -4,-4 -3,2 0,1 1,3 0,4 -1,1 -2,2 -4,2zm10 0c2,-1 3,-4 2,-6 0,-3 2,-4 2,-6 -1,-1 -1,-2 -1,-3 1,-2 0,-2 -1,-1 -2,0 -3,2 -4,3 0,2 0,2 -1,2 -1,-1 -2,0 -3,0 -1,0 -2,0 -2,0 0,0 0,0 0,-1 -1,0 -2,-1 -3,-1 -1,-1 -2,-1 -3,-1 0,0 -2,0 -2,1 0,0 1,0 1,0 0,0 0,0 1,1 0,0 0,1 0,1 0,1 1,1 1,2 0,0 1,1 1,2 0,-1 0,0 0,0 -1,0 1,0 1,2 -2,5 1,6 6,6 2,0 3,0 5,-1z"/>
    <path fill="#FAF1D3" d="M15 19c0,-1 -1,-1 -1,-1 0,-1 1,-1 1,0 1,0 0,0 0,0 1,1 1,0 1,0 0,0 0,1 0,1 -1,0 -1,0 -1,0 0,0 0,0 -1,0 0,0 0,0 0,0 0,0 0,0 1,0zm6 0c-3,1 -5,0 -5,-3 -1,-1 0,-2 0,-4 0,0 -1,-2 -2,-2 -2,2 0,6 0,7 0,2 -1,2 -2,3 -1,1 -3,1 -3,1 0,0 1,0 1,1 2,0 4,0 6,0 1,0 4,-1 5,-3z"/>
    <path fill="#9DB01C" d="M3 8c2,-1 6,2 7,3l-1 1 0 0 2 -1 0 -1c0,1 0,1 -1,0 0,0 -1,-1 -2,-1 0,-1 -1,-1 -2,-1 -1,-1 -2,-1 -2,-1l-1 1 0 0 0 0z"/>
    <path fill="#7E8235" d="M18 14c2,0 3,3 1,3 -2,1 -3,-3 -1,-3zm3 2c0,-3 -4,-3 -5,-1 0,3 4,4 5,1z"/>
    <path fill="#7E8235" d="M10 15c2,0 3,3 1,3 -2,0 -3,-3 -1,-3zm3 2c0,-3 -4,-4 -4,-1 -1,3 3,4 4,1z"/>
    <path fill="#9DB01C" d="M17 10c0,0 0,0 0,0l2 1 -1 -1c0,-1 1,-2 2,-3 1,-1 1,-2 2,-2 0,-1 0,-1 0,0 0,0 -1,0 -2,1 -1,1 -2,2 -3,4 0,0 0,0 0,0z"/>
    <path fill="#020201" d="M19 15c0,0 0,0 0,0 1,0 1,0 0,0 0,1 0,1 0,0l0 1c0,0 0,0 1,0l-1 0 0 0c0,0 0,0 0,0l0 1c0,0 0,-1 0,-1 0,0 0,0 0,0 0,1 0,1 0,1l-1 -1c0,0 0,1 0,1 0,-1 0,-1 0,-1 0,0 0,0 0,0 0,0 0,0 0,0 0,0 0,0 0,-1 0,0 0,0 0,0l1 0 0 0zm-1 -1c-2,0 -1,4 1,3 2,0 1,-3 -1,-3z"/>
    <path fill="#020201" d="M10 17c0,0 0,0 0,0l0 0 0 0c0,0 0,0 0,0l0 0c0,0 0,0 0,0 0,0 0,0 0,0 0,0 0,0 0,0 0,0 0,0 0,-1l0 0c0,0 0,0 0,0 0,0 0,0 0,0l0 0c0,0 0,0 1,0l0 0c0,0 0,0 0,0 0,0 0,0 0,0 0,-1 0,0 1,0 0,0 0,0 -1,0 0,1 0,1 0,0 0,1 0,1 0,1 1,0 0,0 1,0 0,0 0,0 0,0l-1 0c0,0 0,0 0,0l0 0 0 0c0,0 0,0 0,0 0,0 0,0 0,0l0 0c0,1 0,0 0,1l0 -1 0 0 0 0 0 0c-1,0 0,0 -1,0 0,0 0,0 0,0zm0 -2c-2,0 -1,3 1,3 2,0 1,-3 -1,-3z"/>
    <path fill="#E6B6AE" d="M21 6c-1,4 0,5 0,5 0,0 0,0 0,0 2,-1 1,-3 1,-4 0,0 0,-1 0,-1l-1 0z"/>
    <path fill="#E6B6AE" d="M7 13c0,0 0,-3 -1,-4l-2 -1c1,1 1,1 2,3 0,0 0,2 1,2z"/>
    <path fill="#D4E17F" d="M4 7c0,0 1,0 2,1 1,0 2,0 2,1 1,0 2,1 2,1 1,1 1,1 1,0 0,0 -2,-2 -3,-2 -1,-1 -2,-1 -4,-1z"/>
    <path fill="#DA8164" d="M21 11c0,0 -1,-1 0,-5 -1,2 -1,3 -1,4 0,1 1,1 1,2 0,-1 0,-1 0,-1z"/>
    <path fill="#D4E17F" d="M17 10l0 0c1,-2 2,-3 3,-4 1,-1 2,-1 2,-1 -2,0 -5,3 -5,5z"/>
    <path fill="#DA8164" d="M7 13c0,0 0,0 0,0 1,0 0,0 0,-1 1,1 1,1 1,1 0,0 0,-2 -2,-3 0,-1 0,-1 0,-1 1,1 1,4 1,4z"/>
    <path fill="#AAB659" d="M9 21c0,0 -1,-2 -1,-3 0,-1 0,-3 0,-4 0,1 0,1 0,2 -1,2 -1,3 0,4 0,0 1,1 1,1z"/>
    <path fill="#2D320D" d="M10 17c0,0 0,0 0,0 0,0 0,0 0,0l0 0 0 0c0,0 0,0 0,0 0,0 0,0 0,0 0,0 0,0 0,0 1,0 0,0 1,0l0 0 0 0 0 0 0 1c0,-1 0,0 0,-1l0 0c0,0 0,0 0,0 0,0 0,0 0,0l0 0 0 0c0,0 0,0 0,0l1 0c0,0 0,0 0,0 -1,0 0,0 -1,0 0,0 0,0 0,-1 0,1 0,1 0,0 0,0 0,0 0,0l0 0 0 0 0 0 0 0c0,0 0,0 0,0 0,0 0,0 0,0l0 0c0,0 0,0 0,0 0,0 0,0 0,0l0 0c-1,0 -1,0 -1,0l0 0c0,0 0,0 0,0 0,0 0,0 0,0l0 0c0,1 0,1 0,1 0,0 0,0 0,0 0,0 0,0 0,0 0,0 0,0 0,0l0 0zm1 0c0,0 -1,0 -1,-1 1,0 1,0 1,1z"/>
    <path fill="#2D320D" d="M19 16l0 -1c0,1 0,1 0,0l0 0 0 1c0,0 0,-1 0,-1l0 0 -1 0c0,0 0,0 0,0 0,1 0,1 0,1 0,0 0,0 0,0 0,0 0,0 0,0 0,0 0,0 0,1 0,0 0,-1 0,-1l1 1c0,0 0,0 0,-1 0,0 0,0 0,0 0,0 0,1 0,1l0 -1c0,0 0,0 0,0l0 0 1 0c-1,0 -1,0 -1,0zm-1 0c0,-1 1,-1 1,0 0,0 -1,0 -1,0z"/>
    <path fill="#020201" d="M14 18c0,0 1,0 1,0 0,0 0,0 0,0 0,0 0,0 -1,0 0,0 0,0 0,0zm1 1c-1,0 -1,0 -1,0 0,0 0,0 0,0 1,0 1,0 1,0 0,0 0,0 1,0 0,0 0,-1 0,-1 0,0 0,1 -1,0 0,0 1,0 1,0 -1,-1 -2,-1 -2,0 0,0 1,0 1,1z"/>
    <path fill="white" d="M19 15c0,0 0,1 0,1l0 -1 0 0c1,0 1,0 0,0 0,0 0,0 0,0z"/>
    <path fill="#2D320D" d="M14 18c0,0 0,0 0,0 1,0 1,0 1,0 0,0 0,0 0,0 0,0 -1,0 -1,0z"/>
    <path fill="#020201" d="M18 16c0,0 1,0 1,0 0,-1 -1,-1 -1,0z"/>
    <path fill="#020201" d="M11 17c0,-1 0,-1 -1,-1 0,1 1,1 1,1z"/>
    <path fill="white" d="M10 17l0 0 0 0c0,0 0,0 0,0l0 0 0 0c0,0 0,0 0,0z"/>
    <circle fill="#FEFEFE" stroke="#332C2B" stroke-width="0.45909" transform="matrix(0.158068 0.00856196 -0.00856196 0.158068 19.0961 15.1253)" r="3"/>
    <circle fill="#FEFEFE" stroke="#332C2B" stroke-width="0.45909" transform="matrix(0.158068 0.00856196 -0.00856196 0.158068 11.1717 16.0211)" r="3"/>
    <circle fill="#FEFEFE" transform="matrix(0.0481869 0.00261011 -0.00261011 0.0481869 10.2655 17.2912)" r="3"/>
    <circle fill="#FEFEFE" transform="matrix(0.0481869 0.00261011 -0.00261011 0.0481869 18.0333 16.3647)" r="3"/>
    <circle fill="#FEFEFE" transform="matrix(0.025425 0.00137718 -0.00137718 0.025425 15.2591 17.6508)" r="3"/>
    <g>
     <g>
      <path fill="#5B7827" d="M12 8l0 0 0 0 1 0c0,0 0,0 0,1l0 0 -1 -1c0,0 0,0 0,0 0,0 0,0 0,0 0,0 0,0 0,0 0,1 0,1 1,1 0,0 0,0 0,0l0 0c0,0 0,0 0,0 0,0 0,0 0,0 0,0 0,0 0,0 0,1 0,1 0,1 0,0 0,0 0,0 0,0 0,0 0,0l0 0c0,0 0,0 0,0 0,0 -1,0 -1,0 0,0 0,-1 0,-1 0,-1 0,0 0,-1 0,0 0,0 0,0 0,1 0,0 0,1 0,0 0,0 0,0 0,0 -1,0 -1,0 1,0 1,-1 1,-1 0,0 0,0 0,0 0,0 0,0 0,0 0,0 -1,0 -1,0l0 0c-1,0 0,0 0,0 0,0 0,0 0,1l0 0c0,0 0,0 0,0l1 0c0,0 0,0 0,0l0 1c0,0 0,0 0,-1 -1,1 0,0 -1,1 0,0 0,0 0,0 0,0 0,0 0,0l0 -1c0,0 0,0 0,0l0 0c0,0 0,0 0,0 0,0 0,0 0,0 0,0 0,0 0,0 0,0 0,0 0,0l0 0c0,-1 0,-1 0,-1 0,1 0,1 0,1 -1,0 -1,0 -1,0l0 0c0,0 -1,-1 -1,0 -1,0 -1,0 -1,1 0,0 0,0 0,0l0 0c0,0 0,0 0,0 0,0 0,0 1,0 0,0 0,0 0,0 -1,0 -1,0 -1,0 0,1 0,0 0,1 0,0 0,0 0,0 0,0 0,0 0,1 0,0 0,-1 0,-1 0,0 0,1 0,1 0,0 0,0 0,0 0,0 1,0 1,0 1,0 0,0 1,0 0,0 0,0 0,0 1,0 0,0 1,0l0 -1c0,0 0,0 0,0 0,0 0,0 0,0 0,0 0,0 0,0 0,0 0,0 -1,0 0,0 0,0 0,0 0,0 -1,0 -1,0 0,0 0,0 1,0 0,0 0,0 0,0 0,0 0,0 0,0l-1 0c1,0 1,0 2,0 0,0 0,0 0,0 0,-1 0,0 0,0 -1,0 -1,-1 -1,-1 0,0 0,0 0,0 0,0 0,0 0,0 0,0 0,0 0,0l-1 0c0,0 0,0 0,0 0,0 0,-1 0,-1l1 0 0 0c0,0 0,0 0,0 0,0 1,0 1,1l0 0c0,0 0,0 0,0l0 0c0,0 0,0 0,0 0,0 0,0 0,0 0,0 0,0 0,0 0,0 0,0 0,0 0,0 0,0 0,0 0,0 0,0 0,0 1,0 1,0 1,0 0,0 1,1 1,0 0,0 0,0 0,0 0,0 0,0 0,0 0,0 0,0 0,1 0,0 0,0 -1,0 -1,0 0,-1 -1,-1 0,1 0,0 0,0 0,0 1,1 2,1 0,0 0,0 0,0 0,0 0,0 0,0l0 0c0,1 -1,1 -1,1l-1 0c1,0 1,0 1,0 1,0 1,-1 1,0 0,0 0,0 0,0 0,0 0,0 0,0 1,0 1,0 2,-1l0 0c0,0 0,1 0,1 0,0 0,0 0,0l0 0c1,0 0,0 1,0 1,0 1,0 1,-1 0,0 0,0 0,0 0,0 -1,0 -1,0l0 0c1,0 0,0 1,0 0,0 0,0 0,0 1,0 1,0 1,0 0,0 0,0 0,0 0,0 0,0 0,0 0,0 -1,0 -1,0 1,0 1,0 1,0 0,0 0,0 0,0 1,0 1,0 1,0 1,0 1,0 1,0 0,0 1,0 1,0 0,0 0,-1 -1,-1 1,0 1,-1 1,-1 0,0 -1,0 -1,0 0,0 0,1 0,1 -1,0 0,0 -1,0 0,0 0,0 0,0 1,-1 1,-1 1,-1 0,0 0,0 0,0 0,0 0,0 0,0 0,0 0,0 0,0l0 0c0,0 0,-1 -1,-1 0,0 0,0 0,1 0,0 0,0 0,0 0,0 0,0 0,0l0 0c0,1 0,0 0,0 0,0 -1,0 -1,0 0,0 0,0 0,0 0,0 0,0 -1,0 0,0 0,0 0,0 0,0 0,0 0,0 0,0 0,0 0,0 1,1 0,1 0,1l0 0c0,0 0,0 0,0l1 0 0 0c0,0 0,0 0,0 0,0 0,0 0,0 0,0 0,0 0,1 -1,0 -1,0 -1,0 0,0 0,0 0,0 0,0 0,0 0,-1 0,0 0,0 0,0 0,0 0,0 0,0 0,0 0,-1 0,-1 0,0 0,0 0,-1 0,0 0,1 0,1 0,0 0,-1 0,-1l0 0c0,0 0,0 0,0 0,0 0,0 0,0 0,0 0,0 0,0l0 1c0,0 0,0 0,-1 0,0 0,0 0,0 0,0 0,-1 0,-1 0,0 0,0 0,0l0 1c0,0 0,0 0,0 -1,0 0,-1 -1,-1 0,0 0,1 0,1l0 0c0,0 0,-1 -1,-1 0,0 0,0 0,1 0,0 0,0 0,0 0,0 0,0 0,0 0,0 0,0 0,0 0,0 -1,0 -1,1 0,0 0,0 0,-1 0,0 0,0 -1,0 0,0 0,0 0,0 0,0 0,0 -1,0z"/>
      <path fill="#8F9C40" d="M11 12c0,0 0,0 0,0l1 0c0,0 1,0 1,-1l0 0c0,0 0,0 0,0 0,0 0,0 0,0 -1,0 -2,-1 -2,-1 0,0 0,1 0,0 1,0 0,1 1,1 1,0 1,0 1,0 0,-1 0,-1 0,-1 0,0 0,0 0,0 0,0 0,0 0,0 0,1 -1,0 -1,0 0,0 0,0 -1,0 0,0 0,0 0,0 0,0 0,0 0,0 0,0 0,0 0,0 0,0 0,0 0,0 0,0 0,0 0,0 0,0 0,0 0,0l0 0c0,0 0,0 0,0l0 0c0,-1 -1,-1 -1,-1 0,0 0,0 0,0l0 0 -1 0c0,0 0,1 0,1 0,0 0,0 0,0l1 0c0,0 0,0 0,0 0,0 0,0 0,0 0,0 0,0 0,0 0,0 0,1 1,1 0,0 0,-1 0,0 0,0 0,0 0,0 -1,0 -1,0 -2,0l1 0c0,0 0,0 0,0 0,0 0,0 0,0 -1,0 -1,0 -1,0 0,0 1,0 1,0 0,0 0,0 0,0 1,0 1,0 1,0 0,0 0,0 0,0 0,0 0,0 0,0 0,0 0,0 0,0l0 1z"/>
      <path fill="#8EB447" d="M17 8c0,1 0,1 0,1l0 -1c0,0 0,0 0,0 0,0 0,0 0,0 0,0 0,0 0,0l0 0c0,0 0,1 0,1 0,0 0,-1 0,-1 0,1 0,1 0,1 0,0 0,1 0,1 0,0 0,0 0,0 0,0 0,0 0,0 0,1 0,1 0,1 0,0 0,0 0,0 0,0 0,0 1,0 0,-1 0,-1 0,-1 0,0 0,0 0,0 0,0 0,0 0,0l0 0 -1 0c0,0 0,0 0,0l0 0c0,0 1,0 0,-1 0,0 0,0 0,0 0,0 0,0 0,0 0,0 0,0 0,0 1,0 1,0 1,0 0,0 0,0 0,0 0,0 0,0 1,0 0,0 0,-2 -1,-2 0,1 0,1 0,1 0,0 0,0 -1,0z"/>
      <path fill="#A6D43C" d="M16 10c0,0 0,0 0,0l0 1c0,0 0,0 0,0 1,0 1,-1 1,-1 0,0 0,-1 0,-1 0,0 0,0 0,0l0 0c0,0 -1,1 -1,1 0,0 0,0 0,0 0,0 0,-1 0,-1 1,0 1,0 1,-1 0,1 0,0 -1,1 0,0 0,0 0,0 0,0 0,0 0,0l0 0c0,-1 0,0 0,-1 0,0 0,0 0,0 1,0 1,0 0,0 0,0 0,-1 0,0 0,0 0,1 0,1 0,0 0,1 0,1 0,0 0,0 0,0z"/>
      <path fill="#8EB447" d="M12 8l0 0c0,0 0,0 0,0 0,0 0,0 0,0 0,0 0,1 -1,1 0,0 1,0 1,0 0,0 0,0 0,0 0,-1 0,0 0,-1 0,0 0,0 0,0 0,1 0,0 0,1 0,0 0,1 0,1 0,0 1,0 1,0 0,0 0,0 0,0l0 0c0,0 0,0 0,0 0,0 0,0 0,0 0,0 0,0 0,-1 0,0 0,0 0,0 0,0 0,0 0,0 0,0 0,0 0,0l0 0c0,0 0,0 0,0 -1,0 -1,0 -1,-1 0,0 0,0 0,0 0,0 0,0 0,0 0,0 0,0 0,0l1 1 0 0c0,-1 0,-1 0,-1l-1 0 0 0 0 0z"/>
      <path fill="#8EB447" d="M14 10c0,0 0,0 0,0 0,0 0,0 0,0 1,0 1,-1 1,-1 0,0 0,0 0,0 0,-1 0,-1 0,-1l-1 0c0,0 0,1 0,1l0 0c0,0 0,0 0,0 0,0 0,0 0,1 0,0 0,0 0,0z"/>
      <path fill="#A6D43C" d="M15 10l0 0c0,0 0,0 0,0 1,0 1,0 1,0 0,-1 0,-1 0,-1 0,0 0,0 0,0l-1 0c0,0 0,0 0,1 0,0 0,-1 0,0 0,0 0,0 0,0z"/>
      <path fill="#A6D43C" d="M11 9l0 0c0,0 0,0 0,0 0,0 0,0 0,0 0,0 0,0 0,0 0,0 0,0 0,0l0 0c0,0 0,0 0,0l0 1c0,0 0,0 0,0 0,0 0,0 0,0 1,-1 0,0 1,-1 0,1 0,1 0,1l0 -1c0,0 0,0 0,0l-1 0c0,0 0,0 0,0l0 0c0,0 0,0 0,0z"/>
      <path fill="#8EB447" d="M15 11c-1,0 -1,0 -1,0l1 0c0,0 0,0 0,0l-1 -1c0,0 0,0 0,0 0,1 -1,1 0,1 0,0 1,0 1,0z"/>
      <path fill="#B7EA55" d="M20 10c0,1 0,1 0,1 0,0 0,0 0,0 1,0 1,0 1,0 0,0 0,0 0,0 0,0 0,-1 0,-1 -1,0 -1,0 -1,0 0,0 0,0 0,0 0,0 0,0 0,0z"/>
      <path fill="#A6D43C" d="M8 9l0 0c0,0 0,0 0,0 1,1 1,1 1,1 0,-1 0,-1 0,-1l0 0c0,0 0,0 0,0 0,0 0,0 0,0 0,0 0,0 0,0 -1,0 -1,0 -1,0z"/>
     </g>
     <ellipse fill="#FEFEFE" cx="17" cy="10"/>
     <ellipse fill="#FEFEFE" cx="16" cy="10"/>
     <ellipse fill="#FEFEFE" cx="14" cy="9"/>
     <ellipse fill="#FEFEFE" cx="13" cy="11"/>
     <ellipse fill="#FEFEFE" cx="20" cy="10"/>
     <ellipse fill="#FEFEFE" cx="17" cy="9"/>
     <ellipse fill="#FEFEFE" cx="11" cy="9"/>
     <ellipse fill="#FEFEFE" cx="10" cy="11"/>
     <ellipse fill="#FEFEFE" cx="10" cy="11"/>
     <ellipse fill="#FEFEFE" cx="9" cy="11"/>
     <ellipse fill="#FEFEFE" cx="8" cy="10"/>
     <ellipse fill="#FEFEFE" cx="12" cy="10"/>
     <ellipse fill="#FEFEFE" cx="10" cy="9"/>
     <ellipse fill="#FEFEFE" cx="14" cy="11"/>
     <ellipse fill="#FEFEFE" cx="15" cy="9"/>
     <ellipse fill="#FEFEFE" cx="18" cy="10"/>
     <ellipse fill="#FEFEFE" cx="16" cy="9"/>
     <ellipse fill="#FEFEFE" cx="20" cy="10"/>
     <ellipse fill="#FEFEFE" cx="16" cy="9"/>
     <ellipse fill="#FEFEFE" cx="12" cy="9"/>
     <ellipse fill="#FEFEFE" cx="19" cy="10"/>
     <ellipse fill="#FEFEFE" cx="12" cy="11"/>
    </g>
    <g>
     <g>
      <path fill="#5B7827" d="M15 23l0 0 0 0 0 0c0,0 0,0 0,0l0 0 -1 0c0,0 0,0 1,0 0,0 0,0 0,0 0,0 -1,0 -1,0 0,0 0,0 1,0 0,0 0,0 0,0l0 0c0,0 0,0 0,0 0,0 0,0 0,0 0,0 0,0 0,0 0,0 0,0 0,0 0,0 0,0 0,0 0,0 0,0 0,0l0 -1c0,0 0,0 0,0 0,0 -1,1 -1,1 0,0 0,0 0,0 0,0 0,0 0,0 0,0 0,0 0,0 0,0 0,0 0,0 0,0 0,0 0,0 0,0 0,0 0,0 0,0 0,0 0,0 0,0 0,0 0,0 0,0 0,0 0,0 0,1 0,1 0,1l0 -1c0,1 0,0 0,0 0,0 0,0 0,0l0 0c0,0 0,0 0,0l0 0c0,0 0,0 0,0l0 0c0,0 0,0 0,0 0,0 0,0 0,0 0,0 0,0 0,0 0,0 0,0 0,0l0 0c0,0 0,0 0,0l0 0c0,0 0,0 0,0 0,0 0,0 0,0 0,0 0,0 0,0 0,0 0,0 0,0l0 0c0,0 0,0 0,0 0,0 0,0 0,0 0,0 0,0 -1,0l0 0c0,0 0,1 0,0 0,1 0,0 0,0 0,0 0,0 0,0l0 0c0,0 0,0 0,0 0,0 0,0 0,0 0,0 0,0 0,0 0,0 0,0 -1,0 0,0 1,0 0,0 0,0 0,0 0,-1 0,0 0,0 0,0 0,0 0,0 0,0 0,0 0,0 0,0 0,0 0,0 0,0 0,0 1,0 1,0 0,0 0,0 0,0 0,0 0,0 0,0 1,0 0,0 1,0l0 0c0,0 0,0 0,0 0,0 0,0 0,0 0,0 0,0 0,0 0,0 0,0 -1,0 0,0 0,0 0,0 0,0 0,1 0,1 0,0 0,-1 0,-1 0,0 0,1 0,1 0,0 0,0 0,0l0 0c0,0 0,-1 1,-1 0,0 0,0 0,0 0,1 0,1 0,1 0,-1 -1,0 -1,0 0,0 0,0 0,0 0,0 0,0 0,0 0,0 0,0 0,0l0 0c0,0 0,0 0,0 0,0 0,0 0,0l0 0 0 0c0,0 0,0 0,0 1,0 1,0 1,0l0 0c0,0 0,0 0,0l0 0c0,0 0,0 0,0 0,0 0,0 0,0 0,0 0,0 0,0 0,0 0,0 0,0 0,0 0,0 0,0 0,0 0,0 0,0 0,0 0,0 0,0 0,-1 1,-1 1,-1 0,0 0,0 0,0 0,0 0,0 0,0 0,0 0,0 0,0 0,0 -1,0 -1,0 0,0 0,1 0,1 0,-1 0,0 0,-1 0,0 0,0 1,0 0,0 0,0 0,0 0,0 0,0 0,0l-1 0c0,0 0,0 0,0l0 0c0,0 0,0 0,0 0,0 0,0 1,0 0,0 0,0 0,0 0,0 0,0 0,0 0,0 0,-1 0,0l0 0c0,0 1,0 1,0 0,0 0,0 -1,0l0 -1c1,0 1,1 1,1 0,-1 1,-1 0,0 0,0 0,0 0,0 0,0 0,0 0,0l0 0c0,0 0,0 0,0 0,0 0,0 0,0 1,0 1,0 1,0 0,0 0,0 0,0 0,0 0,0 0,0 0,-1 0,0 0,-1 0,0 0,0 0,1 0,0 0,0 0,0 0,0 0,0 0,-1 0,0 1,0 1,0 0,0 0,0 0,0 0,0 0,1 0,1 0,0 0,0 0,0 0,0 0,0 0,0 0,0 0,0 0,0 0,0 0,0 0,0 0,0 0,0 0,0 0,0 0,0 0,0 0,0 0,0 0,0 0,0 0,0 0,0 0,0 0,0 0,0l0 0c0,1 0,1 0,1 0,0 0,0 -1,0 0,-1 0,-1 0,-1 0,0 0,0 0,0l0 0c0,0 0,0 0,0 0,0 0,0 0,0 0,0 0,0 0,0 0,1 0,1 0,1 0,0 0,0 0,0 0,0 0,0 0,0 0,0 0,-1 0,-1 0,0 0,0 0,0l0 0c0,0 0,0 0,0l0 0 0 0c0,0 0,0 0,0 0,0 0,0 0,0 0,0 0,0 0,0 0,0 0,0 -1,0 0,0 0,0 0,0 0,0 0,0 0,0 1,0 0,0 1,0 0,0 0,0 0,0 0,0 0,0 0,0 0,1 0,1 0,1 0,0 0,0 0,0 0,0 0,0 0,0l0 0c0,0 0,0 0,0 0,0 0,0 0,0 0,0 0,0 0,0l0 0c0,0 0,0 0,0 0,0 0,0 0,0 0,0 0,0 0,0 0,0 0,0 0,0l0 0c0,0 0,0 -1,0 0,0 1,0 0,0 0,0 0,0 0,0l0 0c0,0 0,0 0,0 0,0 0,0 0,0 0,0 0,0 0,0 0,0 0,0 0,0 0,0 0,0 0,0 0,0 -1,0 -1,0 0,0 0,0 0,0 0,0 0,0 0,0 0,0 0,0 0,0 0,0 0,0 0,0z"/>
      <path fill="#8F9C40" d="M14 22c0,0 0,0 0,0l0 0c0,0 0,0 0,0l1 0c0,0 0,0 0,0 0,0 0,0 0,0 -1,0 -1,0 -1,0 0,1 0,0 0,1 0,0 0,-1 0,-1 0,0 1,0 1,0 0,0 0,0 0,0 0,0 0,0 0,0 0,0 0,0 0,0 0,0 -1,0 -1,1 0,0 0,0 0,0 0,0 0,0 0,0 0,0 0,0 0,0 0,0 0,0 0,0 0,0 0,0 0,0 0,0 0,0 0,0 0,0 0,0 0,0l0 0c0,0 0,0 0,0l0 0c0,0 0,0 -1,0 0,0 0,0 0,0l0 0 0 0c0,0 0,0 0,0 0,0 0,0 0,0l0 0c0,0 0,0 0,0 0,0 0,0 0,0 0,0 0,0 0,0 0,0 1,-1 1,0 0,0 0,0 0,-1 0,0 0,0 0,0 -1,0 -1,1 -1,1l0 0c0,0 0,0 0,0 0,0 0,-1 0,-1 0,0 0,1 0,1 0,0 0,-1 0,-1 0,0 0,0 0,0 1,0 1,0 1,0 0,0 0,0 0,0 0,0 0,0 0,0 0,0 0,0 0,0l0 0z"/>
      <path fill="#8EB447" d="M17 23c0,0 0,0 0,0l0 0c0,0 0,0 0,0 0,0 0,0 0,0 0,0 0,0 0,0l0 0c0,0 0,0 0,0 0,0 0,0 0,0 0,0 0,0 0,-1 0,0 0,0 0,0 0,0 0,0 0,0 -1,0 0,0 -1,0 0,0 0,0 0,0 0,0 0,0 0,0 1,0 1,0 1,0 0,0 0,0 0,0 0,0 0,0 0,0 0,0 0,0 0,0l0 0 0 0c0,0 0,0 0,0l0 0c0,0 0,0 0,0 0,0 0,1 0,1 0,0 0,0 0,0 0,0 0,0 0,0 0,0 0,0 0,-1 0,0 0,0 0,0 0,0 0,0 0,0 0,1 1,1 0,1 0,0 0,0 0,0 0,0 0,0 0,0z"/>
      <path fill="#A6D43C" d="M16 22c0,0 0,0 0,0l0 0c0,0 0,0 0,0 0,0 0,0 0,0 1,0 1,0 1,1 0,0 0,0 0,0l-1 0c0,-1 0,-1 0,-1 0,0 0,0 0,0 0,0 0,0 0,0 0,1 0,1 0,1 0,0 0,0 0,0 0,0 0,0 0,0 0,0 0,0 0,0l0 0c0,0 0,0 0,0 0,0 0,0 0,0 0,0 0,0 0,0 0,0 0,0 0,0 0,0 0,0 0,0 0,0 0,-1 0,-1 0,0 0,0 0,0z"/>
      <path fill="#8EB447" d="M15 23l-1 0c0,0 0,0 0,0 0,0 0,0 0,0 0,0 0,0 0,0 0,0 0,0 0,0 0,0 0,0 0,0 0,0 0,0 0,0 0,0 0,0 0,0 0,0 0,0 0,0 0,0 0,0 0,0 0,0 1,-1 1,-1 0,0 0,0 0,0l0 1c0,0 0,0 0,0 0,0 0,0 0,0 0,0 0,0 0,0 0,0 0,0 0,0 0,0 0,0 0,0 0,0 0,0 0,0l0 0c0,0 0,0 0,0 -1,0 -1,0 -1,0 0,0 1,0 1,0 0,0 0,0 0,0 -1,0 -1,0 -1,0l1 0 0 0c0,0 0,0 0,0l0 0 0 0 0 0z"/>
      <path fill="#8EB447" d="M15 23c0,0 0,0 0,-1 0,0 0,0 0,0 0,0 0,1 1,1 0,0 0,0 0,0 0,0 0,0 0,0l-1 0c0,0 0,0 0,0l0 0c0,0 0,0 0,0 0,0 0,0 0,0 0,0 0,0 0,0z"/>
      <path fill="#A6D43C" d="M15 22l0 0c1,0 1,0 1,0 0,0 0,0 0,0 0,0 0,1 0,1 0,0 0,0 0,0l0 0c0,0 0,0 0,-1 0,0 0,1 -1,0 0,0 0,0 0,0z"/>
      <path fill="#A6D43C" d="M14 23l0 0c0,0 0,0 0,0 0,0 0,0 0,0 0,0 0,0 0,0 0,0 0,0 0,0l0 0c0,0 0,0 0,0l0 0c0,0 0,0 0,0 0,0 0,0 0,0 0,0 0,0 0,0 0,0 0,0 0,0l0 0c0,0 0,0 0,0l0 0c0,0 0,0 0,0l0 0c0,0 0,0 0,0z"/>
      <path fill="#8EB447" d="M15 22c0,0 0,0 0,0l0 0c0,0 0,0 0,0l0 0c0,0 0,0 0,0 0,0 0,0 0,0 0,0 0,0 0,0z"/>
      <path fill="#B7EA55" d="M18 22c0,0 0,-1 0,-1 0,0 0,0 0,0 0,0 0,0 0,0 0,0 0,0 0,0 0,1 0,1 0,1 0,0 0,0 0,0 0,0 0,0 0,0 0,0 0,0 0,0z"/>
      <path fill="#A6D43C" d="M13 23l0 0c0,0 0,0 0,0 0,0 0,0 0,0 0,0 0,0 0,0l0 0c0,0 0,0 0,0 0,0 0,0 0,0 0,0 0,0 0,0 0,0 0,0 0,0z"/>
     </g>
     <circle fill="#FEFEFE" transform="matrix(0.0964735 -0.0211743 -0.0211743 -0.0964735 16.6189 22.1877)" r="1"/>
     <circle fill="#FEFEFE" transform="matrix(0.0964735 -0.0211743 -0.0211743 -0.0964735 16.0496 22.0253)" r="1"/>
     <circle fill="#FEFEFE" transform="matrix(0.0618348 -0.0135717 -0.0135717 -0.0618348 15.0328 22.729)" r="1"/>
     <circle fill="#FEFEFE" transform="matrix(0.0618348 -0.0135717 -0.0135717 -0.0618348 14.4666 22.256)" r="1"/>
     <circle fill="#FEFEFE" transform="matrix(0.0618348 -0.0135717 -0.0135717 -0.0618348 17.7013 21.6218)" r="1"/>
     <circle fill="#FEFEFE" transform="matrix(0.0618348 -0.0135717 -0.0135717 -0.0618348 16.7651 22.7366)" r="1"/>
     <circle fill="#FEFEFE" transform="matrix(0.0618348 -0.0135717 -0.0135717 -0.0618348 14.0542 22.9823)" r="1"/>
     <circle fill="#FEFEFE" transform="matrix(0.0521188 -0.0114392 -0.0114392 -0.0521188 13.4415 22.4362)" r="1"/>
     <circle fill="#FEFEFE" transform="matrix(0.0521188 -0.0114392 -0.0114392 -0.0521188 13.3091 22.2613)" r="1"/>
     <circle fill="#FEFEFE" transform="matrix(0.0260594 -0.00571961 -0.00571961 -0.0260594 12.6887 22.3822)" r="1"/>
     <circle fill="#FEFEFE" transform="matrix(0.0260594 -0.00571961 -0.00571961 -0.0260594 12.5429 22.8257)" r="1"/>
     <circle fill="#FEFEFE" transform="matrix(0.0260594 -0.00571961 -0.00571961 -0.0260594 14.0947 22.6043)" r="1"/>
     <circle fill="#FEFEFE" transform="matrix(0.0260594 -0.00571961 -0.00571961 -0.0260594 13.341 23.1455)" r="1"/>
     <circle fill="#FEFEFE" transform="matrix(0.0260594 -0.00571961 -0.00571961 -0.0260594 14.8852 21.962)" r="1"/>
     <circle fill="#FEFEFE" transform="matrix(0.0260594 -0.00571961 -0.00571961 -0.0260594 15.7189 22.7592)" r="1"/>
     <circle fill="#FEFEFE" transform="matrix(0.0260594 -0.00571961 -0.00571961 -0.0260594 16.9219 21.8584)" r="1"/>
     <circle fill="#FEFEFE" transform="matrix(0.0260594 -0.00571961 -0.00571961 -0.0260594 16.359 22.8374)" r="1"/>
     <circle fill="#FEFEFE" transform="matrix(0.0260594 -0.00571961 -0.00571961 -0.0260594 17.84 21.9)" r="1"/>
     <circle fill="#FEFEFE" transform="matrix(0.0260594 -0.00571961 -0.00571961 -0.0260594 15.9202 22.5548)" r="1"/>
     <circle fill="#FEFEFE" transform="matrix(0.0260594 -0.00571961 -0.00571961 -0.0260594 14.2992 23.2647)" r="1"/>
     <circle fill="#FEFEFE" transform="matrix(0.0260594 -0.00571961 -0.00571961 -0.0260594 17.3253 22.1015)" r="1"/>
     <circle fill="#FEFEFE" transform="matrix(0.0260594 -0.00571961 -0.00571961 -0.0260594 14.1464 22.0561)" r="1"/>
    </g>
   </g>
  </g>
 </g>
</svg>
