<?xml version="1.0" encoding="UTF-8"?>
<!DOCTYPE svg PUBLIC "-//W3C//DTD SVG 1.1//EN" "http://www.w3.org/Graphics/SVG/1.1/DTD/svg11.dtd">
<!-- Creator: CorelDRAW X7 -->
<svg xmlns="http://www.w3.org/2000/svg" xml:space="preserve" width="113.48mm" height="113.48mm" version="1.1" shape-rendering="geometricPrecision" text-rendering="geometricPrecision" image-rendering="optimizeQuality" fill-rule="evenodd" clip-rule="evenodd"
viewBox="0 0 5568 5568"
 xmlns:xlink="http://www.w3.org/1999/xlink">
 <defs>
    <clipPath id="id0">
     <path d="M0 0l5568 0 0 5568 -5568 0 0 -5568z"/>
    </clipPath>
 </defs>
 <g id="圖層_x0020_1">
  <metadata id="CorelCorpID_0Corel-Layer"/>
  <g id="_487223816">
   <g clip-path="url(#id0)">
    <image x="0" y="0" width="5568" height="5568" xlink:href="1.svg_Images\1.svg_ImgID1.png"/>
   </g>
  </g>
  <g id="_487224128">
   <path fill="#FEFEFE" d="M2629 78c1337,0 2420,1084 2420,2421 0,1337 -1083,2420 -2420,2420 -1337,0 -2421,-1083 -2421,-2420 0,-1337 1084,-2421 2421,-2421z"/>
   <g>
    <path fill="#D4E17F" d="M2365 3189c-117,500 -872,323 -759,-177 113,-497 877,-327 759,177zm1498 -167c-99,506 -856,362 -765,-147 90,-497 865,-358 765,147zm-695 -1126l-48 -21c-313,-79 -730,-58 -1002,109l-373 289 -12 -11 110 -152c-28,-88 -385,-395 -477,-449 -156,-94 -552,-256 -734,-226l48 15c229,74 421,141 585,328 206,237 205,301 303,588l81 213c-23,-52 -58,-117 -81,-168 -28,41 -21,101 8,177 -40,-25 -73,-99 -149,-137 11,55 23,109 34,164 -70,-23 -115,-68 -210,-68 39,55 116,90 173,135 59,113 -2,576 30,759 17,100 162,425 259,447 346,-8 453,-57 681,-311 211,-235 83,-548 37,-813 -188,-1077 573,-1072 575,-367 1,291 -108,612 61,880 167,265 323,389 656,361 309,-26 360,-438 304,-683 -105,-460 -107,-351 66,-791 -29,30 -67,4 -88,90 -19,-22 4,-81 -14,-123 -12,41 -40,63 -52,103 -16,-3 -44,-110 -105,-141l-11 6 87 204c-71,-96 -111,-269 -119,-301 -66,-268 -11,-533 143,-756 51,-74 401,-246 255,-394 -194,190 -274,248 -441,483 -106,149 -282,437 -339,607l174 114 -415 -160z"/>
    <path fill="#020201" d="M3884 3629c-322,548 -1419,534 -1965,428 -136,-27 -228,-116 -239,-127 42,-5 414,54 611,-197 163,-155 252,-230 251,-507 0,-312 -287,-1024 70,-1266 197,-134 349,217 359,373 16,244 -72,510 -14,746 98,401 500,748 927,550zm-2752 -1918c370,326 393,764 395,760l-178 -158 56 200 -16 -3 -88 -65c-128,-82 -231,-305 -252,-453 -35,-245 -153,-293 -235,-474l0 0 318 193zm2887 364c-44,1 -53,59 -80,89 -73,-106 -89,-50 -119,-201 -50,-260 -9,-553 172,-749l155 -137c0,1 -33,229 -23,304 24,190 227,536 -91,767 -5,-25 -9,-49 -14,-73zm-2306 1813c-111,-13 -194,-103 -228,-160 -136,-226 -114,-418 -68,-672 34,-183 25,-194 8,-372 -22,-50 -125,-73 -160,-131 102,2 118,68 205,65 -29,-52 9,-87 -43,-167 83,52 82,111 149,137 4,-57 -34,-113 -6,-164 19,62 25,80 79,155l-81 -213c-98,-287 -97,-351 -303,-588 -164,-187 -356,-254 -585,-328l-44 -15 -2 -11 155 -43c367,-89 489,9 798,128 116,45 504,343 509,461l22 14c272,-167 689,-188 1002,-109l0 0c294,-204 517,-1061 1069,-1023 132,137 -592,405 -398,1150 8,32 17,178 119,301l-76 -210c74,54 75,168 110,168 3,-55 38,-71 47,-130 14,50 -11,97 14,123 14,-51 59,-34 88,-90 -173,440 -171,331 -66,791 56,245 5,657 -304,683 -333,28 -489,-96 -656,-361 -169,-268 -60,-589 -61,-880 -2,-705 -763,-710 -575,367 46,265 174,578 -37,813 -228,254 -335,303 -681,311zm1936 5c354,-209 513,-656 371,-1095 -139,-465 276,-658 220,-1106 -20,-163 -156,-455 -52,-604 188,-269 -10,-331 -245,-218 -299,137 -581,508 -700,726 -100,212 -127,233 -199,216 -239,-36 -423,-10 -649,33 -80,15 -240,75 -270,80 -1,-1 -101,-131 -121,-151 -120,-124 -345,-285 -503,-349 -179,-73 -279,-90 -471,-105 -65,-5 -426,30 -422,111 13,42 97,41 148,77 39,28 71,87 96,129 65,107 116,174 149,298 32,126 33,219 104,337 30,51 231,260 234,269 -45,-17 -88,6 -114,-3 -4,98 225,63 185,391 -239,966 316,1255 1165,1202 351,-22 699,-27 1074,-238z"/>
    <path fill="#FAF1D3" d="M2774 3481c-36,-31 -184,-93 -113,-163 38,-38 206,-42 251,-22 11,56 -64,127 -85,168 127,58 147,-8 201,-19 -5,32 -63,68 -95,73 -63,10 -86,-19 -131,-36 -29,50 -40,73 -103,82 -49,7 -91,4 -141,-31 29,-18 168,41 216,-52zm1110 148c-427,198 -829,-149 -927,-550 -58,-236 30,-502 14,-746 -10,-156 -162,-507 -359,-373 -357,242 -70,954 -70,1266 -1,298 -89,337 -273,530 -202,175 -488,168 -588,174 43,54 114,99 245,133 280,54 741,78 1011,36 321,-50 767,-164 947,-470z"/>
    <path fill="#9DB01C" d="M636 1435c312,-43 1033,402 1207,675l-110 152 12 11 373 -289 -22 -14c-89,39 -64,13 -138,-60 -98,-99 -301,-250 -419,-307 -128,-62 -204,-108 -347,-150 -214,-98 -405,-71 -403,-72l-155 43 2 11 0 0z"/>
    <path fill="#7E8235" d="M3455 2660c370,-40 448,509 79,573 -385,67 -466,-531 -79,-573zm408 362c100,-505 -675,-644 -765,-147 -91,509 666,653 765,147z"/>
    <path fill="#7E8235" d="M1960 2826c376,-60 462,523 80,574 -372,49 -464,-514 -80,-574zm405 363c118,-504 -646,-674 -759,-177 -113,500 642,677 759,177z"/>
    <path fill="#9DB01C" d="M3172 1799c-16,39 -37,56 -66,73l477 184 -174 -114c57,-170 233,-458 339,-607 141,-199 275,-313 441,-483 -35,-13 -65,-10 -97,-5 2,1 -233,178 -265,210 -225,221 -480,518 -551,829 -35,-29 -69,-58 -104,-87z"/>
    <path fill="#020201" d="M3513 2820c25,-44 66,-76 119,-44 57,35 37,80 19,128 2,17 5,14 -11,8l-10 3c-37,40 14,112 39,150l-66 -71 39 84c-29,-17 -5,-32 -59,-18l26 62c-22,-5 -2,-21 -33,-30 -24,-6 -6,9 -33,-18 -12,32 -31,39 -63,35l-7 -53c-18,28 -35,61 -71,60 -27,-39 -8,-35 7,-78 -11,-23 -22,-17 -28,-35 -6,-18 4,-16 -3,-33 -8,-19 -15,-45 2,-63 34,-36 -29,-21 84,-80l17 23 32 -30zm-58 -160c-387,42 -306,640 79,573 369,-64 291,-613 -79,-573z"/>
    <path fill="#020201" d="M1949 3264c5,20 11,18 -8,12l-26 -7 -4 -32c-5,-20 -10,-19 9,-11l7 -36c-18,-1 -14,7 -27,-11 -20,-26 -9,-20 -10,-33 -2,-37 -8,20 -9,-20 -1,-16 6,-19 24,-29l-26 -12c22,-14 11,-3 21,-7 46,-21 -39,8 21,-22l-30 -9c21,-25 60,-67 94,-65l12 37c21,-47 -9,-8 35,-53 -5,-18 -10,-17 6,-12 39,-43 119,-33 141,24 21,54 -8,95 -58,110 -10,20 -3,22 -27,13 16,7 17,33 43,54 36,30 10,9 26,45 10,21 15,12 24,32l-76 -74c45,46 25,30 47,87l-19 -7 9 27c-18,-26 2,-22 -28,-36 -31,40 1,20 -1,58l-23 -29c-35,44 18,23 -5,46l-32 -66 -24 48 -45 -15 -5 -59c-13,24 8,23 -14,33 -10,4 -8,-19 -22,19zm11 -438c-384,60 -292,623 80,574 382,-51 296,-634 -80,-574z"/>
    <path fill="#E6B6AE" d="M3992 1214c-197,630 -46,816 27,861 8,31 -7,52 14,73 318,-231 115,-577 91,-767 -10,-75 23,-302 23,-304l-155 137z"/>
    <path fill="#E6B6AE" d="M1301 2445c84,50 -47,-602 -169,-734l-318 -193c82,181 200,229 235,474 21,148 124,371 252,453z"/>
    <path fill="#D4E17F" d="M789 1381c-2,1 244,1 403,72 143,42 219,88 347,150 118,57 321,208 419,307 74,73 49,99 138,60 -5,-118 -393,-416 -509,-461 -309,-119 -431,-217 -798,-128z"/>
    <path fill="#DA8164" d="M4019 2075c-73,-45 -198,-229 -27,-861 -181,196 -222,489 -172,749 30,151 46,95 119,201 27,-30 39,-81 80,-89z"/>
    <path fill="#D4E17F" d="M3152 1835l124 51c71,-311 331,-612 555,-833 33,-32 263,-205 261,-206 -347,8 -823,683 -940,988z"/>
    <path fill="#DA8164" d="M1301 2445c18,14 85,83 104,68 7,-68 -27,-116 -38,-172 47,52 92,95 160,130 18,-10 40,-310 -317,-684 -24,-26 -48,-51 -78,-76 122,132 253,784 169,734z"/>
    <path fill="#AAB659" d="M1713 3888c-97,-22 -230,-359 -247,-459 -31,-182 18,-632 -41,-745 17,178 26,189 -8,372 -46,254 -68,446 68,672 34,57 114,151 228,160z"/>
    <path fill="#2D320D" d="M1920 3226c-19,-8 -14,-9 -9,11 14,1 11,4 9,-11l25 7 4 31c-11,2 -8,-2 -8,12 19,6 13,8 8,-12 14,-38 12,-15 22,-19 22,-10 1,-9 14,-33l5 59 45 15 24 -48 32 66c23,-23 -30,-2 5,-46l23 29c2,-38 -30,-18 1,-58 30,14 10,10 28,36l-9 -27 19 7c-22,-57 -2,-41 -47,-87l76 74c-9,-20 -14,-11 -24,-32 -16,-36 10,-15 -26,-45 -26,-21 -27,-47 -43,-54 24,9 17,7 27,-13 -99,5 -94,-52 -89,-122l6 -12 7 -8 7 -6 11 -5c-15,-5 -13,-9 -11,5 -12,-4 -9,-6 -7,6l-7 8c-16,-5 -11,-6 -6,12 -44,45 -14,6 -35,53l-12 -37c-34,-2 -73,40 -94,65l30 9c-60,30 25,1 -21,22 -10,4 1,-7 -21,7l26 12c-18,10 -25,13 -24,29 1,40 7,-17 9,20 1,13 -10,7 10,33 13,18 9,10 27,11l-7 36zm126 -76c-28,66 -132,19 -100,-50 29,-63 131,-19 100,50z"/>
    <path fill="#2D320D" d="M3630 2915l10 -3c16,6 13,9 11,-8l-11 8 -10 3c-82,30 -122,-15 -117,-95l-32 30 -17 -23c-113,59 -50,44 -84,80 -17,18 -10,44 -2,63 7,17 -3,15 3,33 6,18 17,12 28,35 -15,43 -34,39 -7,78 36,1 53,-32 71,-60l7 53c32,4 51,-3 63,-35 27,27 9,12 33,18 31,9 11,25 33,30l-26 -62c54,-14 30,1 59,18l-39 -84 66 71c-25,-38 -76,-110 -39,-150zm-203 55c-9,-83 102,-85 110,-20 10,80 -103,90 -110,20z"/>
    <path fill="#020201" d="M2673 3348c40,-37 153,-42 205,-36 -8,35 -53,126 -89,129 -33,3 -44,-24 -64,-45 -18,-18 -39,-28 -52,-48zm101 133c-48,93 -187,34 -216,52 37,43 91,46 140,39 62,-10 80,-38 109,-88 45,17 63,44 126,34 32,-5 90,-41 95,-73 -50,0 -74,77 -201,19 21,-41 94,-105 95,-167 -51,-23 -265,-10 -288,39 -27,61 108,117 140,145z"/>
    <path fill="white" d="M3513 2820c-5,80 35,125 117,95l10 -3 11 -8c18,-48 38,-93 -19,-128 -53,-32 -94,0 -119,44z"/>
    <path fill="#2D320D" d="M2673 3348c13,20 24,34 42,52 20,21 41,44 74,41 36,-3 81,-94 89,-129 -52,-6 -165,-1 -205,36z"/>
    <path fill="#020201" d="M3427 2970c7,70 120,60 110,-20 -8,-65 -119,-63 -110,20z"/>
    <path fill="#020201" d="M2046 3150c31,-69 -71,-113 -100,-50 -32,69 72,116 100,50z"/>
    <path fill="white" d="M1911 3237l4 32 26 7c0,-14 -3,-10 8,-12l-4 -31 -25 -7c2,15 5,12 -9,11z"/>
    <path fill="#FEFEFE" stroke="#332C2B" stroke-width="9.81281" d="M3595 2755c49,3 86,45 84,94 -3,48 -45,86 -93,83 -49,-2 -87,-44 -84,-93 3,-49 44,-86 93,-84z"/>
    <path fill="#FEFEFE" stroke="#332C2B" stroke-width="9.81281" d="M2105 2924c49,2 87,44 84,93 -3,49 -44,86 -93,84 -49,-3 -87,-45 -84,-94 3,-48 44,-86 93,-83z"/>
    <path fill="#FEFEFE" d="M1932 3224c14,1 26,14 25,29 -1,14 -13,26 -28,25 -15,-1 -27,-14 -26,-28 1,-15 14,-27 29,-26z"/>
    <path fill="#FEFEFE" d="M3392 3050c15,1 26,13 26,28 -1,15 -14,27 -29,26 -15,-1 -26,-14 -25,-29 0,-15 13,-26 28,-25z"/>
    <path fill="#FEFEFE" d="M2870 3304c8,1 14,8 13,15 0,8 -7,14 -15,14 -8,-1 -14,-7 -13,-15 0,-8 7,-14 15,-14z"/>
    <g>
     <g>
      <path fill="#5B7827" d="M2295 1517l-6 31 32 -23 37 14c43,19 31,37 68,64l-36 34 -114 -51c6,-2 12,-3 18,-9 15,-15 5,-1 16,-24 -24,2 -85,32 -94,42 76,15 78,20 146,64 1,1 2,2 4,3l39 23c15,11 31,17 43,27 18,13 21,22 35,35 17,16 33,15 39,32 12,29 -6,20 -6,67 -25,0 -20,2 -35,7 1,3 3,5 5,7l11 17c0,1 14,5 -13,34 -49,51 -142,-40 -159,-67 -33,-54 -61,-214 -89,-241 -6,-6 -1,-4 -16,-10 -2,-1 -15,-4 -25,-5 11,38 -1,7 16,33 31,48 10,21 26,62 -15,-23 -80,-62 -104,-71 41,-8 84,-40 107,-72 13,-17 -1,-19 18,-2 14,-13 12,21 11,-21 -34,-76 -161,-95 -205,23l-16 35c-92,-31 -52,-17 -65,-5 27,11 40,6 57,32l8 21c53,14 37,-8 89,25l91 55c19,13 17,25 20,43l24 87c-36,-11 -71,-30 -94,-54 -30,10 6,5 -20,11 -2,0 -4,1 -5,1 -2,0 -5,0 -6,0l-20 -35c2,-31 5,-15 6,-17l-30 -33c-13,9 -1,6 -26,7 15,22 33,46 43,66 -46,-16 -47,-52 -96,-27 1,-39 14,-79 10,-109l-10 -30c-24,-31 -6,-35 -47,-35 12,29 25,24 21,63 -56,-18 -71,-39 -138,-39l-20 40c-45,-25 -190,-154 -197,16 -157,-22 -107,116 -63,153 -17,23 -13,27 -10,59l13 -15c1,-1 2,-3 4,-4 3,-6 8,-13 13,-19 7,11 -2,15 15,21 -53,18 -59,61 -110,93 -7,55 18,-11 -14,70 -10,27 -12,58 -11,94 -24,12 -51,23 -42,52 33,16 39,-9 100,-16 -7,15 -5,36 -11,53 -13,37 -25,14 -24,61 66,64 200,37 280,-22 37,47 2,49 54,94 -3,-21 -23,-26 -23,-63 208,8 134,-2 230,-68l11 -82c41,-9 58,-34 63,-70 -70,7 -5,-5 -48,28 -7,5 -37,17 -41,18 -20,4 -36,1 -57,5 -48,9 -42,26 -90,-4 -20,-13 -151,-60 -162,-54 31,-7 52,12 84,-14 -2,-2 -5,-3 -7,-4 -2,-1 -4,-3 -7,-4l-7 -16c123,-29 38,19 196,9 73,-5 65,-25 69,-34 -23,-16 -39,0 -39,0 -44,21 -60,-5 -114,-7 23,-9 24,-22 27,-49 -67,9 -18,17 -60,27 -25,6 -41,-11 -55,-23l-22 -53c-5,-24 -15,-21 -16,-28 -9,-47 16,-84 -23,-120l61 2 -6 39c15,-32 41,-25 72,-14 45,15 120,30 145,72l8 14c18,28 38,47 71,56l-10 -2c-1,0 -11,3 -13,3 -6,3 -25,10 -25,11 -40,15 -36,20 -43,44 3,-1 6,-2 8,-2 3,-1 5,-2 8,-3 52,-16 70,-26 126,-37 52,-10 75,-32 151,-9 31,10 109,102 194,65 13,-5 28,-16 32,-31 9,-34 7,1 -2,-11 0,38 -4,39 -26,57 -55,44 -132,64 -202,55 -158,-21 -127,-122 -282,-91 30,37 26,15 68,22 10,1 171,158 327,98 27,-11 9,-1 10,-8 -1,21 4,-6 -6,8l-12 18c-47,86 -130,82 -229,98l-53 18c60,15 143,5 201,-9 96,-24 41,-54 150,-1 -4,42 -4,64 29,78 -16,-32 -15,-28 -11,-70 96,40 229,55 290,-47l11 -17c19,10 64,41 68,59 3,13 5,7 -7,26l-10 12c86,-9 72,-38 117,-63 159,84 318,15 259,-55 -7,-8 -14,-12 -20,-16 -54,-35 -111,-29 -142,-46l29 -7c22,8 -10,21 63,32 35,5 70,4 95,-3 63,-17 57,-30 84,-69 16,-23 15,-12 9,-23 2,27 -11,107 -26,127 -13,18 -20,15 -35,26 25,4 101,-25 119,-38 25,-19 60,-54 75,-83 160,19 104,50 146,81 69,50 127,-2 189,-2 53,0 79,36 127,30 33,-103 -5,-174 -82,-207 148,-118 113,-249 47,-220 -15,6 -49,28 -62,35 -39,22 -156,96 -163,132 -27,-12 3,-11 -35,-14 6,-11 20,-25 30,-42 12,-21 18,-66 56,-102 13,-12 12,-8 24,-17 15,-13 14,-8 21,-27 -16,-8 -1,-4 -22,-4l-67 4c4,-58 19,-155 -22,-187 -61,-18 -85,85 -101,143 -21,74 -1,91 -30,129 -1,1 -3,2 -4,3l-19 30c-6,19 0,1 2,0 -19,-8 -29,-33 -37,-55 -17,-18 -9,-20 -35,-41 -59,-49 -87,-30 -141,-52 -1,-1 -4,0 -5,-2 0,-2 -3,-2 -5,-2 -2,49 -12,110 -1,150 13,53 -33,23 -35,114l20 -14c5,-5 8,-8 12,-14l38 -64 49 29c0,0 0,-1 0,-1 -28,18 -13,93 -37,134 -2,2 -13,16 -15,17 -53,48 -36,59 -92,67 -32,4 -78,7 -105,-7 15,-16 59,-25 95,-72 41,-53 -8,-6 49,-54 -9,-76 -13,19 -7,-69 3,-35 -3,-56 -6,-80 -6,-51 10,-135 0,-165 -51,-8 -53,27 -78,35 -17,-21 -12,-44 -1,-64l38 -56c14,-25 19,-65 19,-97 23,31 33,51 35,92 1,21 0,46 0,69l7 61c17,-27 13,-19 14,-54 0,-47 2,-85 -10,-126 -14,-44 -22,-81 -64,-75 -1,2 -3,2 -3,5l-16 51c-5,26 -47,107 -61,132 -24,-29 3,-225 -113,-184 -8,21 -8,50 -10,78l-73 3c-4,-28 -7,-59 -18,-80 -34,5 -25,10 -32,47 -11,60 -52,96 -85,138 0,-20 1,-13 12,-29 16,-23 12,-1 17,-40 -92,24 -162,72 -221,128 -19,-18 -32,-26 -42,-46 -15,-30 -10,-43 -35,-62 -34,6 -53,38 -77,57 -38,-36 -61,-100 -151,-61z"/>
      <path fill="#8F9C40" d="M2044 2201c30,-11 50,-21 74,-3l53 -18c99,-16 182,-12 229,-98l12 -18c10,-14 5,13 6,-8 -1,7 17,-3 -10,8 -156,60 -317,-97 -327,-98 -42,-7 -38,15 -68,-22 155,-31 124,70 282,91 70,9 147,-11 202,-55 22,-18 26,-19 26,-57 9,12 11,-23 2,11 -4,15 -19,26 -32,31 -85,37 -163,-55 -194,-65 -76,-23 -99,-1 -151,9 -56,11 -74,21 -126,37 -3,1 -5,2 -8,3 -2,0 -5,1 -8,2 7,-24 3,-29 43,-44 0,-1 19,-8 25,-11 2,0 12,-3 13,-3l10 2c-33,-9 -53,-28 -71,-56l-8 -14c-25,-42 -100,-57 -145,-72 -31,-11 -57,-18 -72,14l6 -39 -61 -2c39,36 14,73 23,120 1,7 11,4 16,28l22 53c14,12 30,29 55,23 42,-10 -7,-18 60,-27 -3,27 -4,40 -27,49 54,2 70,28 114,7 0,0 16,-16 39,0 -4,9 4,29 -69,34 -158,10 -73,-38 -196,-9l7 16c3,1 5,3 7,4 2,1 5,2 7,4 -32,26 -53,7 -84,14 11,-6 142,41 162,54 48,30 42,13 90,4 21,-4 37,-1 57,-5 4,-1 34,-13 41,-18 43,-33 -22,-21 48,-28 -5,36 -22,61 -63,70l-11 82z"/>
      <path fill="#8EB447" d="M3277 1581c-1,35 3,27 -14,54l-7 -61c0,-23 1,-48 0,-69 -2,-41 -12,-61 -35,-92 0,32 -5,72 -19,97l-38 56c-11,20 -16,43 1,64 25,-8 27,-43 78,-35 10,30 -6,114 0,165 3,24 9,45 6,80 -6,88 -2,-7 7,69 -57,48 -8,1 -49,54 -36,47 -80,56 -95,72 27,14 73,11 105,7 56,-8 39,-19 92,-67 2,-1 13,-15 15,-17 24,-41 9,-116 37,-134 0,0 0,1 0,1l-49 -29 -38 64c-4,6 -7,9 -12,14l-20 14c2,-91 48,-61 35,-114 -11,-40 -1,-101 1,-150 2,0 5,0 5,2 1,2 4,1 5,2 54,22 82,3 141,52 26,21 18,23 35,41 -3,-18 1,-6 16,-29 48,-74 45,-311 -74,-309 -21,41 -18,71 -49,118 -14,23 -60,84 -80,80z"/>
      <path fill="#A6D43C" d="M2991 1918c63,-15 72,4 111,27l-1 39c-10,7 -17,14 -28,9 41,-6 122,-79 133,-109 21,-58 2,-153 2,-177 1,-27 8,-40 8,-75l-63 96c-43,58 -87,131 -155,111 10,-30 3,-18 25,-34 23,-17 57,-23 70,-63 14,-39 21,-102 10,-147 4,14 11,-13 -17,16 -35,36 -19,55 -95,74 1,-2 3,-7 4,-6l16 -22c51,-71 33,-40 72,-88 1,-1 2,-2 3,-3 31,-40 18,-58 1,-99 -14,-38 -59,-123 -57,-12 2,97 -37,190 -39,225 -4,60 11,109 7,188 -1,19 -8,45 -7,50z"/>
      <path fill="#8EB447" d="M2295 1517l-26 0c1,42 3,8 -11,21 -19,-17 -5,-15 -18,2 -23,32 -66,64 -107,72 24,9 89,48 104,71 -16,-41 5,-14 -26,-62 -17,-26 -5,5 -16,-33 10,1 23,4 25,5 15,6 10,4 16,10 28,27 56,187 89,241 17,27 110,118 159,67 27,-29 13,-33 13,-34l-11 -17c-2,-2 -4,-4 -5,-7 15,-5 10,-7 35,-7 0,-47 18,-38 6,-67 -6,-17 -22,-16 -39,-32 -14,-13 -17,-22 -35,-35 -12,-10 -28,-16 -43,-27l-39 -23c-2,-1 -3,-2 -4,-3 -68,-44 -70,-49 -146,-64 9,-10 70,-40 94,-42 -11,23 -1,9 -16,24 -6,6 -12,7 -18,9l114 51 36 -34c-37,-27 -25,-45 -68,-64l-37 -14 -32 23 6 -31z"/>
      <path fill="#8EB447" d="M2551 1846c14,9 31,8 55,20 39,19 39,48 87,3 49,-45 53,-110 53,-183 1,-32 3,-43 8,-71 6,-32 15,-44 27,-74l-93 50c-5,5 -11,12 -14,15l-31 25c-38,31 -26,32 -44,66 -34,63 -32,45 -44,127 -2,14 -3,0 -4,22z"/>
      <path fill="#A6D43C" d="M2732 1888l28 55c96,6 116,-56 149,-60 34,-5 19,7 40,21 34,-132 -14,-148 2,-225 9,-43 -3,-42 -30,-9l-9 12c-16,24 -37,93 -79,119 -41,24 -42,-15 -92,72 -4,6 -5,7 -9,15z"/>
      <path fill="#A6D43C" d="M2024 1613l10 30c4,30 -9,70 -10,109 49,-25 50,11 96,27 -10,-20 -28,-44 -43,-66 25,-1 13,2 26,-7l30 33c-1,2 -4,-14 -6,17l20 35c1,0 4,0 6,0 1,0 3,-1 5,-1 26,-6 -10,-1 20,-11 23,24 58,43 94,54l-24 -87c-3,-18 -1,-30 -20,-43l-91 -55c-52,-33 -36,-11 -89,-25l-8 -21c-2,14 6,7 -16,11z"/>
      <path fill="#8EB447" d="M2753 2056c-31,-22 -37,8 -55,-49l49 17c-10,1 3,1 -9,-3l-96 -84c-39,4 -41,15 -84,0 0,42 -40,132 32,169 84,45 141,-42 163,-50z"/>
      <path fill="#B7EA55" d="M3717 1958c0,44 -5,85 -21,120 13,2 68,-24 105,-23 57,0 72,22 112,26 4,-46 12,-41 -10,-80 -14,-26 -26,-39 -43,-53 -27,-24 -34,-26 -67,-12 -25,10 -11,8 -40,14 -21,4 -18,2 -36,8z"/>
      <path fill="#A6D43C" d="M1564 1714l11 19c1,2 2,3 3,5 61,114 67,101 156,101 14,-105 -15,-97 -56,-136l-6 13c0,1 -1,4 -1,5 -4,11 -1,7 -7,20 -27,-26 -6,-17 -21,-55 -52,-3 -48,-5 -79,28z"/>
     </g>
     <path fill="#FEFEFE" d="M3249 1798c24,0 43,19 43,42 0,24 -19,43 -43,43 -23,0 -42,-19 -42,-43 0,-23 19,-42 42,-42z"/>
     <path fill="#FEFEFE" d="M3032 1915c24,0 43,19 43,42 0,23 -19,42 -43,42 -23,0 -42,-19 -42,-42 0,-23 19,-42 42,-42z"/>
     <path fill="#FEFEFE" d="M2557 1735c15,0 27,12 27,27 0,15 -12,27 -27,27 -15,0 -27,-12 -27,-27 0,-15 12,-27 27,-27z"/>
     <path fill="#FEFEFE" d="M2369 1977c15,0 27,12 27,27 0,15 -12,28 -27,28 -15,0 -27,-13 -27,-28 0,-15 12,-27 27,-27z"/>
     <path fill="#FEFEFE" d="M3739 1947c15,0 27,12 27,27 0,15 -12,27 -27,27 -15,0 -27,-12 -27,-27 0,-15 12,-27 27,-27z"/>
     <path fill="#FEFEFE" d="M3260 1577c15,0 27,12 27,27 0,15 -12,28 -27,28 -15,0 -28,-13 -28,-28 0,-15 13,-27 28,-27z"/>
     <path fill="#FEFEFE" d="M2137 1719c15,0 27,12 27,27 0,15 -12,27 -27,27 -15,0 -28,-12 -28,-27 0,-15 13,-27 28,-27z"/>
     <path fill="#FEFEFE" d="M1936 2000c13,0 23,10 23,23 0,12 -10,23 -23,23 -12,0 -22,-11 -22,-23 0,-13 10,-23 22,-23z"/>
     <path fill="#FEFEFE" d="M1898 2083c13,0 23,10 23,23 0,12 -10,22 -23,22 -12,0 -23,-10 -23,-22 0,-13 11,-23 23,-23z"/>
     <path fill="#FEFEFE" d="M1636 2100c6,0 11,5 11,12 0,6 -5,11 -11,11 -7,0 -12,-5 -12,-11 0,-7 5,-12 12,-12z"/>
     <path fill="#FEFEFE" d="M1537 1933c6,0 11,5 11,12 0,6 -5,11 -11,11 -7,0 -12,-5 -12,-11 0,-7 5,-12 12,-12z"/>
     <path fill="#FEFEFE" d="M2187 1885c6,0 11,5 11,11 0,6 -5,12 -11,12 -7,0 -12,-6 -12,-12 0,-6 5,-11 12,-11z"/>
     <path fill="#FEFEFE" d="M1832 1732c7,0 12,5 12,12 0,6 -5,11 -12,11 -6,0 -11,-5 -11,-11 0,-7 5,-12 11,-12z"/>
     <path fill="#FEFEFE" d="M2565 2075c6,0 12,5 12,12 0,6 -6,11 -12,11 -6,0 -11,-5 -11,-11 0,-7 5,-12 11,-12z"/>
     <path fill="#FEFEFE" d="M2833 1677c6,0 11,5 11,11 0,7 -5,12 -11,12 -7,0 -12,-5 -12,-12 0,-6 5,-11 12,-11z"/>
     <path fill="#FEFEFE" d="M3402 1936c6,0 11,5 11,11 0,6 -5,12 -11,12 -7,0 -12,-6 -12,-12 0,-6 5,-11 12,-11z"/>
     <path fill="#FEFEFE" d="M3086 1588c6,0 11,5 11,12 0,6 -5,11 -11,11 -7,0 -12,-5 -12,-11 0,-7 5,-12 12,-12z"/>
     <path fill="#FEFEFE" d="M3771 1837c6,0 11,5 11,11 0,7 -5,12 -11,12 -7,0 -12,-5 -12,-12 0,-6 5,-11 12,-11z"/>
     <path fill="#FEFEFE" d="M2933 1742c6,0 11,5 11,12 0,6 -5,11 -11,11 -7,0 -12,-5 -12,-11 0,-7 5,-12 12,-12z"/>
     <path fill="#FEFEFE" d="M2211 1598c6,0 11,5 11,12 0,6 -5,11 -11,11 -6,0 -11,-5 -11,-11 0,-7 5,-12 11,-12z"/>
     <path fill="#FEFEFE" d="M3544 1801c6,0 11,5 11,11 0,7 -5,12 -11,12 -7,0 -12,-5 -12,-12 0,-6 5,-11 12,-11z"/>
     <path fill="#FEFEFE" d="M2257 2103c6,0 11,5 11,11 0,7 -5,12 -11,12 -7,0 -12,-5 -12,-12 0,-6 5,-11 12,-11z"/>
    </g>
    <g>
     <g>
      <path fill="#5B7827" d="M2734 4407l-5 -13 16 7 15 -10c18,-12 11,-19 24,-35l-19 -11 -45 33c2,1 5,1 8,3 8,5 3,-1 10,9 -11,1 -41,-6 -46,-10 32,-14 33,-16 58,-42 1,-1 1,-1 2,-2l15 -14c6,-6 12,-11 16,-16 7,-7 7,-12 12,-19 6,-9 13,-10 15,-18 2,-14 -5,-8 -10,-29 -11,3 -9,1 -16,0 1,-1 1,-2 2,-3l3 -9c0,0 6,-3 -9,-14 -27,-17 -59,32 -64,46 -9,27 -6,100 -16,115 -2,3 0,1 -6,6 -1,0 -6,3 -11,4 2,-17 0,-3 4,-16 10,-24 3,-10 6,-30 -4,12 -29,36 -39,42 19,-1 41,9 54,21 8,6 2,9 8,-1 8,5 3,-10 7,8 -7,38 -62,58 -93,10l-10 -14c-38,23 -21,13 -28,9 10,-8 17,-7 22,-20l1 -10c22,-11 18,0 37,-19l35 -34c7,-7 5,-13 5,-21l2 -40c-15,8 -29,20 -36,32 -15,-1 2,-2 -10,-2 -1,0 -2,0 -3,0 -1,0 -2,0 -3,0l-5 18c4,13 4,6 5,6l-10 18c-7,-2 -2,-3 -13,-1 5,-10 11,-23 13,-33 -19,12 -16,28 -40,22 5,17 14,33 15,47l-1 14c-8,16 0,16 -18,20 3,-14 9,-13 3,-30 -23,13 -27,24 -57,30l-13 -15c-17,15 -68,86 -88,12 -67,25 -59,-41 -43,-62 -10,-8 -8,-10 -10,-25l7 6c1,0 2,1 2,1 3,2 5,5 8,7 2,-5 -2,-6 5,-11 -26,-2 -32,-21 -58,-30 -8,-24 9,3 -13,-30 -7,-10 -11,-24 -14,-40 -12,-3 -25,-5 -23,-19 12,-10 17,0 45,-3 -4,-6 -6,-15 -10,-22 -9,-15 -12,-4 -16,-24 23,-35 85,-36 126,-18 11,-24 -4,-22 14,-47 1,10 -7,14 -4,31 91,-24 60,-12 109,7l12 36c19,-1 29,9 35,24 -32,4 -2,3 -24,-8 -3,-1 -18,-3 -20,-4 -9,0 -16,4 -26,4 -22,1 -21,-8 -39,10 -8,8 -61,42 -66,40 14,0 22,-11 38,-2 -1,1 -2,2 -2,2 -1,1 -2,2 -3,3l-2 8c57,0 15,-13 86,-23 33,-5 31,4 34,8 -9,9 -18,4 -18,4 -21,-5 -26,8 -49,14 11,2 12,7 17,19 -31,2 -10,-6 -30,-6 -11,-1 -17,9 -22,15l-4 26c0,11 -5,10 -5,14 1,21 15,35 2,55l27 -7 -7 -17c10,13 21,8 33,0 19,-12 51,-25 57,-46l3 -7c5,-14 12,-25 26,-32l-5 2c0,0 -5,0 -6,0 -3,-1 -12,-2 -12,-2 -19,-3 -18,-6 -23,-16 1,0 3,0 4,1 1,0 2,0 3,0 25,2 34,4 60,4 24,0 36,7 67,-11 13,-7 38,-55 80,-47 6,1 13,4 17,11 7,14 3,-2 0,5 -4,-17 -5,-17 -17,-23 -29,-14 -65,-16 -95,-5 -67,25 -44,66 -115,68 9,-20 10,-9 27,-16 5,-2 61,-87 136,-75 13,2 4,-1 5,2 -3,-9 2,2 -4,-3l-7 -7c-29,-33 -65,-23 -111,-21l-25 -3c25,-12 63,-16 90,-15 45,1 24,20 66,-14 -5,-18 -7,-28 6,-38 -4,16 -4,14 2,32 38,-26 96,-46 132,-7l7 6c7,-6 24,-24 24,-32 0,-6 1,-4 -6,-11l-5 -4c39,-4 35,10 58,16 61,-52 138,-37 119,-1 -2,4 -5,7 -7,9 -21,21 -46,24 -58,35l13 0c9,-6 -6,-9 25,-21 15,-5 30,-8 42,-7 30,1 28,7 44,22 9,9 8,4 6,9 -1,-12 -15,-46 -24,-53 -7,-7 -10,-5 -18,-8 11,-5 48,1 57,5 13,6 31,18 41,29 69,-24 41,-32 57,-50 25,-28 56,-11 83,-17 24,-5 32,-23 53,-25 25,42 15,77 -16,99 77,37 74,99 42,93 -7,-2 -24,-8 -31,-10 -19,-6 -77,-27 -84,-43 -11,8 2,5 -14,10 3,4 11,9 17,16 7,8 14,27 35,39 6,4 6,3 12,6 8,4 7,1 12,9 -6,5 0,2 -10,4l-29 5c7,25 23,67 8,85 -25,14 -46,-30 -59,-54 -16,-30 -9,-40 -26,-54 0,0 -1,0 -1,-1l-12 -11c-4,-8 0,-1 1,0 -8,5 -10,17 -11,28 -6,9 -2,9 -11,21 -22,28 -36,22 -57,37 -1,0 -2,0 -2,1 0,1 -2,1 -2,1 -6,-21 -17,-47 -16,-66 1,-25 -17,-6 -26,-47l10 5c3,1 4,2 7,5l23 24 19 -17c0,0 0,0 0,0 -14,-5 -15,-40 -30,-55 -1,-1 -7,-6 -8,-7 -28,-16 -21,-22 -47,-20 -15,1 -35,4 -46,13 8,6 29,5 49,23 23,19 -3,3 27,19 3,34 -8,-8 4,31 4,15 4,25 5,36 2,23 17,58 16,73 -22,8 -26,-7 -38,-8 -6,11 -1,20 6,28l22 21c8,10 15,27 18,41 7,-16 9,-26 6,-44 -1,-9 -4,-20 -7,-30l-2 -28c10,10 7,7 11,23 5,20 9,37 8,56 -2,21 -2,38 -21,39 -1,0 -2,0 -2,-1l-12 -22c-5,-11 -31,-42 -40,-52 -8,15 24,99 -32,92 -5,-8 -8,-21 -12,-33l-32 6c1,12 2,26 0,37 -16,1 -13,-2 -19,-18 -11,-25 -32,-37 -51,-53 2,9 2,6 8,12 9,9 5,-1 11,16 -43,-2 -78,-16 -110,-35 -6,10 -11,14 -14,24 -3,15 0,20 -9,31 -16,1 -27,-11 -40,-18 -13,20 -17,50 -61,42z"/>
      <path fill="#8F9C40" d="M2558 4129c14,2 24,5 32,-6l25 3c46,-2 82,-12 111,21l7 7c6,5 1,-6 4,3 -1,-3 8,0 -5,-2 -75,-12 -131,73 -136,75 -17,7 -18,-4 -27,16 71,-2 48,-43 115,-68 30,-11 66,-9 95,5 12,6 13,6 17,23 3,-7 7,9 0,-5 -4,-7 -11,-10 -17,-11 -42,-8 -67,40 -80,47 -31,18 -43,11 -67,11 -26,0 -35,-2 -60,-4 -1,0 -2,0 -3,0 -1,-1 -3,-1 -4,-1 5,10 4,13 23,16 0,0 9,1 12,2 1,0 6,0 6,0l5 -2c-14,7 -21,18 -26,32l-3 7c-6,21 -38,34 -57,46 -12,8 -23,13 -33,0l7 17 -27 7c13,-20 -1,-34 -2,-55 0,-4 5,-3 5,-14l4 -26c5,-6 11,-16 22,-15 20,0 -1,8 30,6 -5,-12 -6,-17 -17,-19 23,-6 28,-19 49,-14 0,0 9,5 18,-4 -3,-4 -1,-13 -34,-8 -71,10 -29,23 -86,23l2 -8c1,-1 2,-2 3,-3 0,0 1,-1 2,-2 -16,-9 -24,2 -38,2 5,2 58,-32 66,-40 18,-18 17,-9 39,-10 10,0 17,-4 26,-4 2,1 17,3 20,4 22,11 -8,12 24,8 -6,-15 -16,-25 -35,-24l-12 -36z"/>
      <path fill="#8EB447" d="M3162 4284c-4,-16 -1,-13 -11,-23l2 28c3,10 6,21 7,30 3,18 1,28 -6,44 -3,-14 -10,-31 -18,-41l-22 -21c-7,-8 -12,-17 -6,-28 12,1 16,16 38,8 1,-15 -14,-50 -16,-73 -1,-11 -1,-21 -5,-36 -12,-39 -1,3 -4,-31 -30,-16 -4,0 -27,-19 -20,-18 -41,-17 -49,-23 11,-9 31,-12 46,-13 26,-2 19,4 47,20 1,1 7,6 8,7 15,15 16,50 30,55 0,0 0,0 0,0l-19 17 -23 -24c-3,-3 -4,-4 -7,-5l-10 -5c9,41 27,22 26,47 -1,19 10,45 16,66 0,0 2,0 2,-1 0,-1 1,-1 2,-1 21,-15 35,-9 57,-37 9,-12 5,-12 11,-21 1,8 1,2 10,11 28,28 50,133 -3,143 -13,-16 -15,-29 -33,-47 -8,-9 -34,-31 -43,-27z"/>
      <path fill="#A6D43C" d="M3003 4162c30,1 31,-8 46,-22l-4 -17c-5,-2 -9,-5 -13,-2 19,-1 62,23 70,36 14,23 15,67 18,77 2,12 7,17 10,33l-37 -37c-24,-21 -51,-49 -79,-33 7,12 3,7 14,12 12,6 28,5 37,21 10,16 19,43 19,64 0,-7 6,5 -9,-5 -19,-13 -14,-23 -49,-24 0,1 2,3 2,3l9 8c30,26 19,14 40,31 1,1 2,1 2,2 18,15 14,23 10,43 -2,18 -14,60 -24,11 -8,-43 -35,-80 -39,-95 -7,-27 -5,-50 -15,-84 -2,-9 -8,-19 -8,-22z"/>
      <path fill="#8EB447" d="M2734 4407l-11 2c-4,-18 1,-3 -7,-8 -6,10 0,7 -8,1 -13,-12 -35,-22 -54,-21 10,-6 35,-30 39,-42 -3,20 4,6 -6,30 -4,13 -2,-1 -4,16 5,-1 10,-4 11,-4 6,-5 4,-3 6,-6 10,-15 7,-88 16,-115 5,-14 37,-63 64,-46 15,11 9,14 9,14l-3 9c-1,1 -1,2 -2,3 7,1 5,3 16,0 5,21 12,15 10,29 -2,8 -9,9 -15,18 -5,7 -5,12 -12,19 -4,5 -10,10 -16,16l-15 14c-1,1 -1,1 -2,2 -25,26 -26,28 -58,42 5,4 35,11 46,10 -7,-10 -2,-4 -10,-9 -3,-2 -6,-2 -8,-3l45 -33 19 11c-13,16 -6,23 -24,35l-15 10 -16 -7 5 13z"/>
      <path fill="#8EB447" d="M2816 4237c5,-6 13,-6 22,-14 15,-13 13,-25 38,-10 26,15 34,43 42,76 3,14 5,18 10,30 5,14 11,18 19,30l-46 -13c-3,-1 -6,-4 -8,-5l-16 -8c-20,-10 -14,-12 -26,-25 -21,-25 -18,-17 -31,-52 -3,-6 -2,1 -4,-9z"/>
      <path fill="#A6D43C" d="M2892 4201l7 -27c42,-12 56,13 71,12 16,-1 8,-5 16,-13 28,55 8,66 23,99 8,18 3,18 -13,7l-5 -5c-9,-9 -25,-37 -46,-44 -21,-7 -17,10 -48,-24 -2,-2 -3,-2 -5,-5z"/>
      <path fill="#A6D43C" d="M2606 4391l1 -14c-1,-14 -10,-30 -15,-47 24,6 21,-10 40,-22 -2,10 -8,23 -13,33 11,-2 6,-1 13,1l10 -18c-1,0 -1,7 -5,-6l5 -18c1,0 2,0 3,0 1,0 2,0 3,0 12,0 -5,1 10,2 7,-12 21,-24 36,-32l-2 40c0,8 2,14 -5,21l-35 34c-19,19 -15,8 -37,19l-1 10c-2,-6 2,-3 -8,-3z"/>
      <path fill="#8EB447" d="M2885 4125c-12,12 -17,0 -20,27l20 -13c-4,1 1,0 -4,3l-34 46c-17,2 -19,-3 -37,8 -4,-18 -30,-54 -2,-78 33,-28 66,5 77,7z"/>
      <path fill="#B7EA55" d="M3320 4074c-4,-19 -10,-37 -21,-50 6,-3 32,3 49,0 25,-6 29,-17 46,-23 7,20 10,17 4,36 -4,13 -8,20 -14,28 -9,13 -12,15 -29,12 -12,-2 -5,-3 -18,-2 -10,0 -9,0 -17,-1z"/>
      <path fill="#A6D43C" d="M2393 4391l3 -10c0,0 0,-1 0,-2 16,-57 20,-51 60,-60 16,45 3,44 -12,65l-4 -5c0,0 -1,-1 -1,-2 -3,-4 -1,-3 -5,-8 -9,14 -1,8 -4,27 -23,6 -20,6 -37,-5z"/>
     </g>
     <path fill="#FEFEFE" d="M3129 4190c10,-2 17,-12 14,-22 -2,-11 -12,-17 -22,-15 -11,2 -17,12 -15,23 2,10 12,17 23,14z"/>
     <path fill="#FEFEFE" d="M3022 4160c10,-2 17,-13 14,-23 -2,-10 -12,-17 -22,-15 -11,3 -17,13 -15,23 2,11 12,17 23,15z"/>
     <path fill="#FEFEFE" d="M2829 4285c7,-1 11,-8 9,-14 -1,-7 -8,-11 -14,-10 -7,2 -11,8 -10,15 2,7 8,11 15,9z"/>
     <path fill="#FEFEFE" d="M2723 4197c6,-2 10,-8 9,-15 -1,-7 -8,-11 -15,-9 -6,1 -10,8 -9,14 1,7 8,11 15,10z"/>
     <path fill="#FEFEFE" d="M3331 4077c6,-1 11,-8 9,-14 -1,-7 -8,-11 -14,-10 -7,2 -11,8 -10,15 2,7 8,11 15,9z"/>
     <path fill="#FEFEFE" d="M3155 4287c6,-2 11,-8 9,-15 -1,-6 -8,-11 -14,-9 -7,1 -11,8 -10,15 2,6 8,10 15,9z"/>
     <path fill="#FEFEFE" d="M2645 4333c7,-1 11,-8 9,-15 -1,-6 -8,-10 -14,-9 -7,2 -11,8 -10,15 2,6 8,11 15,9z"/>
     <path fill="#FEFEFE" d="M2529 4229c6,-2 10,-7 8,-13 -1,-5 -6,-9 -12,-8 -6,2 -9,7 -8,13 1,5 7,9 12,8z"/>
     <path fill="#FEFEFE" d="M2505 4196c5,-2 9,-7 7,-13 -1,-5 -6,-9 -12,-8 -5,2 -9,7 -8,13 1,5 7,9 13,8z"/>
     <path fill="#FEFEFE" d="M2387 4213c3,0 4,-3 4,-6 -1,-3 -4,-4 -6,-4 -3,1 -5,4 -4,6 0,3 3,5 6,4z"/>
     <path fill="#FEFEFE" d="M2359 4297c3,-1 5,-4 4,-6 0,-3 -3,-5 -6,-4 -3,0 -4,3 -4,6 1,3 4,4 6,4z"/>
     <path fill="#FEFEFE" d="M2651 4255c3,-1 5,-3 4,-6 0,-3 -3,-5 -6,-4 -3,1 -5,3 -4,6 1,3 3,5 6,4z"/>
     <path fill="#FEFEFE" d="M2509 4357c3,-1 5,-4 4,-6 0,-3 -3,-5 -6,-4 -3,0 -4,3 -4,6 1,3 4,4 6,4z"/>
     <path fill="#FEFEFE" d="M2800 4134c3,0 4,-3 4,-6 -1,-3 -4,-4 -6,-4 -3,1 -5,4 -4,6 0,3 3,5 6,4z"/>
     <path fill="#FEFEFE" d="M2957 4284c2,0 4,-3 3,-6 0,-3 -3,-5 -6,-4 -2,1 -4,3 -4,6 1,3 4,5 7,4z"/>
     <path fill="#FEFEFE" d="M3183 4115c3,-1 4,-4 4,-6 -1,-3 -4,-5 -6,-4 -3,0 -5,3 -4,6 0,3 3,4 6,4z"/>
     <path fill="#FEFEFE" d="M3077 4299c3,-1 4,-3 4,-6 -1,-3 -4,-5 -6,-4 -3,0 -5,3 -4,6 0,3 3,4 6,4z"/>
     <path fill="#FEFEFE" d="M3355 4123c3,-1 5,-4 4,-7 0,-2 -3,-4 -6,-3 -3,0 -4,3 -4,6 1,2 4,4 6,4z"/>
     <path fill="#FEFEFE" d="M2994 4246c3,-1 5,-4 4,-6 0,-3 -3,-5 -6,-4 -3,0 -4,3 -4,6 1,3 4,4 6,4z"/>
     <path fill="#FEFEFE" d="M2690 4379c2,0 4,-3 4,-6 -1,-3 -4,-5 -7,-4 -2,1 -4,3 -4,6 1,3 4,5 7,4z"/>
     <path fill="#FEFEFE" d="M3259 4161c2,-1 4,-4 4,-7 -1,-2 -4,-4 -7,-4 -2,1 -4,4 -4,7 1,2 4,4 7,4z"/>
     <path fill="#FEFEFE" d="M2661 4152c3,-1 4,-3 4,-6 -1,-3 -4,-5 -6,-4 -3,0 -5,3 -4,6 0,3 3,5 6,4z"/>
    </g>
   </g>
  </g>
 </g>
</svg>
