<?xml version="1.0" encoding="UTF-8"?>
<!DOCTYPE svg PUBLIC "-//W3C//DTD SVG 1.1//EN" "http://www.w3.org/Graphics/SVG/1.1/DTD/svg11.dtd">
<!-- Creator: CorelDRAW X7 -->
<svg xmlns="http://www.w3.org/2000/svg" xml:space="preserve" width="12.9008mm" height="12.9008mm" version="1.1" shape-rendering="geometricPrecision" text-rendering="geometricPrecision" image-rendering="optimizeQuality" fill-rule="evenodd" clip-rule="evenodd"
viewBox="0 0 32 32"
 xmlns:xlink="http://www.w3.org/1999/xlink">
 <defs>
    <clipPath id="id0">
     <path d="M0 0l32 0 0 32 -32 0 0 -32z"/>
    </clipPath>
   <clipPath id="id1">
    <path d="M16 2c8,0 14,6 14,14 0,8 -6,14 -14,14 -8,0 -14,-6 -14,-14 0,-8 6,-14 14,-14z"/>
   </clipPath>
 </defs>
 <g id="圖層_x0020_1">
  <metadata id="CorelCorpID_0Corel-Layer"/>
  <g id="_644555952">
   <g clip-path="url(#id0)">
    <image x="0" y="0" width="31.7537" height="31.7537" xlink:href="地圖上的寵物2_Images\地圖上的寵物2_ImgID1.png"/>
   </g>
  </g>
  <path fill="#FEFEFE" d="M16 2c8,0 14,6 14,14 0,8 -6,14 -14,14 -8,0 -14,-6 -14,-14 0,-8 6,-14 14,-14z"/>
  <g clip-path="url(#id1)">
   <g id="_644556048">
    <g>
     <path id="1" fill="#8AB1E5" d="M22 9c0,1 1,1 1,2 1,0 1,0 2,0 1,-1 1,-1 0,-2 0,-1 -1,-1 -1,0 0,0 -2,0 -2,0z"/>
     <path fill="#F7C84E" d="M14 8c0,0 0,0 0,0 1,1 2,1 2,1 0,0 1,0 1,-1 0,0 0,0 0,0 -2,0 0,0 -3,0z"/>
     <path fill="#1E4E96" d="M14 9c0,0 0,1 0,1 0,0 1,0 2,0 0,0 1,0 2,0 0,-1 -1,-1 -1,-2 -1,1 -2,1 -3,1z"/>
     <path fill="#184689" d="M8 12c1,0 1,-1 2,-2 -1,0 -2,0 -2,0 0,1 0,2 0,2z"/>
     <path fill="#8AB1E5" d="M6 10c1,0 2,1 2,2 0,0 0,0 0,-1 0,0 0,0 0,-1 0,0 1,0 2,0 0,0 1,-1 1,-1 0,0 -2,-1 -3,-1 -1,1 -2,2 -2,2z"/>
     <path fill="#8AB1E5" d="M12 13c-5,-3 4,3 0,0zm7 0c3,-6 -2,3 0,0zm-12 4c0,2 0,4 2,5 0,0 1,0 2,1 3,0 4,-2 7,-1 0,0 1,1 1,1 1,0 2,0 3,0 1,-1 2,-2 2,-3 -1,0 -2,-1 0,-1 1,-1 0,-6 -1,-8 0,0 -1,-1 -1,-1 -2,-1 -3,-2 -4,-2 0,0 0,0 0,0 -1,1 0,1 0,2 -1,1 -4,0 -4,0 0,-1 1,-2 0,-2 0,0 0,0 -1,0 0,2 -1,2 -2,1 -1,0 -2,3 -2,3 -1,1 -1,1 -1,2 0,1 -1,3 -1,3z"/>
     <path fill="#5E7DA9" d="M9 12c0,0 -2,8 2,11 -3,0 -4,-2 -4,-6 0,-1 0,-2 1,-2 1,-5 1,-3 1,-3z"/>
     <path fill="#184689" d="M9 11c1,0 2,-1 1,-1 0,0 0,0 0,0 0,0 0,1 -1,1z"/>
     <path fill="#150606" d="M25 38c-1,0 -2,0 -3,-1 0,0 -1,-1 -1,-2 0,0 0,-1 0,-1 0,-1 1,-1 1,-1 0,-1 0,-1 0,-1 0,0 0,0 0,0 1,0 1,0 1,0 1,-1 1,-1 2,-1 0,0 0,1 0,1 1,0 1,0 1,0 1,1 0,1 0,2 0,0 1,1 0,1 0,1 0,1 0,1 0,1 -1,2 -1,2zm-21 -3c0,-1 1,-1 0,-1 0,0 0,0 0,-1 0,-1 1,-1 2,-1 0,0 0,-1 1,-1 0,0 1,0 1,0 0,1 0,1 1,1 0,0 0,0 0,0 1,1 0,1 0,2 0,1 1,2 0,3 0,0 -1,1 -2,1 0,0 -1,-1 -2,-1 0,0 0,0 0,-1 -1,0 -1,-1 -1,-1zm18 -3c0,-2 0,-1 1,-1 0,0 0,0 0,0 0,1 0,0 -1,1 0,0 0,0 0,0zm2 -1c0,-1 0,-1 0,-1 1,0 1,1 1,1l-1 0zm-2 -7c0,0 0,0 0,0 1,1 1,1 1,1 0,0 0,0 0,0 1,1 1,3 2,3 0,1 0,2 0,2 0,0 0,0 0,0 -1,0 -1,0 -1,0 0,0 0,0 0,0 0,0 0,0 -1,0 0,-1 -1,-2 -1,-3 0,0 0,-1 0,-1 0,-1 0,-2 0,-3 0,0 0,0 0,1zm-2 5c0,0 0,0 0,0 0,1 0,2 0,3 0,0 0,1 0,2 0,0 -2,1 -3,1 -1,1 -2,1 -4,0l-1 0c0,-1 -1,-2 -1,-2 0,-1 0,-1 0,-1 0,0 0,0 0,0 0,-1 0,-1 0,-2 0,0 0,0 0,0 0,0 0,0 0,0 0,-1 2,-3 1,-4l0 -2c1,0 3,1 6,1 1,0 1,0 2,-1 -1,2 0,4 0,5zm11 -4c-1,0 -1,-1 0,-1 0,0 1,0 1,0 0,0 -1,1 -1,1zm-25 -3c0,0 0,1 0,1 1,0 4,2 4,1 0,-1 0,-1 0,-1 1,0 0,0 1,0 0,1 1,1 1,4 0,1 -1,1 -1,2 0,0 0,0 0,0 0,0 0,0 0,0 0,1 0,2 0,3 0,0 0,1 0,1 0,1 0,1 0,1 0,0 0,0 0,0l0 0c-1,0 -1,1 -1,1 0,0 -1,-1 0,-2 0,0 0,0 0,0 0,-1 0,-1 0,-1 0,-1 0,-1 0,-2 0,0 0,0 0,0 -1,1 -1,1 -1,2 -1,-1 0,-1 -1,-1 0,0 0,0 0,-1 0,0 0,0 0,-1 0,-1 0,-1 0,-1 0,-1 0,-1 -1,-1 0,-1 0,-1 -1,-1 -1,-1 -2,-1 -2,-1 0,0 0,0 -1,0 0,0 0,-1 1,-1 0,-1 -1,-1 0,-1 0,-1 0,-1 0,-1 0,0 1,0 1,0 0,-1 1,-1 1,0zm17 9c0,0 0,0 0,0 0,0 -1,-1 -1,-1 -1,1 0,2 -1,2 0,1 0,1 0,2 0,0 0,1 0,2 -1,0 -1,-1 -2,-1 0,0 1,-1 2,-3 0,-2 -1,-5 -1,-8 0,0 1,-1 2,-1 -1,1 -1,1 -1,2 1,2 1,2 1,3 1,1 1,2 1,2 0,0 0,0 1,0 0,1 -1,1 -1,1zm-12 -8c1,0 1,0 2,0 0,0 1,0 1,0 0,0 0,0 0,0 1,0 2,0 3,0 1,0 0,0 1,-1 1,1 1,1 3,1 0,0 0,0 0,0 -1,1 -1,1 -1,1 -1,0 -2,1 -3,1 -1,0 -5,0 -6,-2zm3 -1c1,0 3,0 3,0l0 0c0,1 -1,1 -1,1 -1,0 -2,0 -2,-1zm15 0c0,0 1,0 1,0 0,0 0,0 0,0 1,-1 1,-1 1,0 0,0 0,1 -1,1 0,0 -1,-1 -1,-1zm6 0c0,-1 0,-1 0,-2 1,0 1,0 1,0 0,0 0,0 1,0l-1 1c0,0 -1,1 -1,1zm-12 -3c0,-2 0,2 0,0zm-14 0c0,0 0,0 0,0 0,0 0,0 0,0 0,0 0,0 0,0 -1,0 -2,1 -3,0 0,-1 3,-1 3,0l0 0zm25 4c0,0 0,0 0,0l1 0c2,-2 2,-3 3,-6 0,0 0,-1 0,-1 0,0 0,0 1,0 0,1 0,1 0,2 0,0 -1,0 -1,1 0,0 0,1 0,1 0,1 0,1 -1,1 -1,0 0,1 0,2 0,0 -1,0 -1,0 0,0 0,1 0,1 -1,0 -2,0 -2,-1zm2 -6c0,0 0,1 0,1 0,0 0,1 -1,1 0,-1 1,-1 1,-2zm1 -1c0,0 0,0 0,0 0,0 1,0 1,0 0,0 0,0 0,0 -1,0 -1,0 -1,0zm0 0c0,1 0,1 1,1 0,0 -1,2 -1,2 -1,0 -1,0 -1,0 -1,1 -1,2 -1,2 -1,1 -1,1 -2,2 0,0 0,1 -1,1 0,0 -2,-1 -2,1 0,0 0,0 0,1 0,0 -1,1 -1,2 0,0 0,0 0,0 -1,1 -1,1 -1,2 0,0 -1,1 -1,1 0,0 0,0 -1,0 0,0 0,0 0,1 -1,0 -1,-1 -1,-1 0,0 0,0 0,0 1,0 1,0 1,-1 0,0 0,0 -1,0 0,-1 0,-1 0,-2 0,-1 -1,-1 -1,-1 0,-1 0,-1 0,-2 0,0 2,-1 2,-2 1,0 2,-1 3,-1 0,1 0,1 2,1 0,0 0,-1 0,-2 1,0 1,0 2,-1 1,0 3,-1 3,-1 1,-1 1,-1 1,-2 -1,-1 -1,0 0,-1 0,0 0,-2 1,-2 1,3 -1,0 -1,2zm-12 1c0,-1 -1,-2 -1,-2 0,-2 0,-2 1,-4 0,0 0,-1 1,-1 0,1 0,6 -1,7zm-18 -1c0,0 0,-1 0,-1 -1,-2 -1,-3 -1,-5 0,0 2,2 2,3 0,1 -1,2 -1,3zm17 -3c0,0 -1,-1 -1,-2 0,0 1,0 1,0 0,0 0,0 0,0 0,0 0,1 0,1 0,0 0,1 0,1zm-16 -1c0,-1 0,-2 1,-2 0,1 0,2 -1,2zm2 -1c0,-1 0,-1 0,-1 1,0 0,1 0,1zm4 -2c2,0 3,0 3,-1 0,1 1,1 1,2 -1,0 -3,0 -4,0 0,0 0,-1 0,-1zm-8 1c0,0 1,0 1,0 1,0 1,-1 1,-1l0 -1c0,0 0,0 1,1 0,0 0,0 0,0 0,0 0,0 1,0 0,0 0,0 1,0 -1,0 -1,1 -1,1 -1,0 -2,0 -2,0 0,1 0,1 0,1 0,1 0,1 0,0 0,0 -1,-1 -2,-1zm19 -1c0,0 0,1 0,0 0,0 0,0 0,0 0,0 0,0 0,0zm-14 0c1,0 1,-1 2,-1 0,3 -2,2 -2,1zm-5 1c0,-1 0,-1 0,-1 0,-1 1,-1 2,-1 0,1 0,2 -1,2 0,0 -1,0 -1,0zm18 -1c0,0 0,0 0,1 -1,0 -1,0 -1,-1l1 0zm1 0c0,1 1,1 1,1 -1,0 -1,0 -1,1 -1,0 -1,0 -1,0 0,0 -1,0 -1,0 0,-1 -1,-1 -1,-1 0,-1 0,-1 0,-1 1,1 2,1 2,1 0,0 0,-1 0,-1 0,0 1,0 1,0 0,-1 -1,0 0,1 0,0 0,0 0,-1zm-15 0c0,0 -1,0 -1,0 0,0 0,0 0,0 0,0 0,0 1,0zm7 -1c0,1 0,1 -1,1 0,0 -1,0 -2,0 0,-1 0,-1 1,-1 1,0 1,1 2,0 0,0 0,0 0,0zm0 2c1,0 1,0 1,-1 0,0 0,0 0,-1 1,0 2,1 3,1 1,1 1,1 1,1 0,1 1,1 1,1 0,1 0,1 0,1 1,1 1,1 1,3 0,1 1,3 0,4 0,0 -1,0 -1,0 -1,1 1,1 1,1 0,1 0,1 -1,2 0,0 -1,1 -1,1 -1,0 -3,0 -3,0 0,0 -1,-1 -1,-1 -3,-1 -4,1 -7,1 -1,-1 -2,-1 -2,-1 -1,-1 -1,-1 -1,-2 0,0 1,0 1,-1 0,0 0,-1 0,-1 0,0 -1,0 -1,0l-1 0c0,-2 0,-2 1,-4 0,-1 0,-1 1,-2 0,0 0,-1 0,-1 1,0 2,0 2,-1 0,0 0,-1 0,-1 1,1 1,1 2,1 0,0 0,-1 0,-2 2,-1 1,1 1,2 1,1 1,1 3,0zm1 -2c0,1 0,1 0,1l-1 -1 1 0c0,0 0,0 0,0zm-3 0c0,0 0,-2 1,-2 0,0 1,1 1,2 0,0 -1,0 -1,0 -1,0 -1,0 -1,0zm-7 22c-1,0 -1,0 -1,0 0,0 0,0 0,0 0,0 0,1 -1,1 -1,0 0,1 -1,1 -1,-2 -1,-1 -1,0 0,0 0,1 0,1 0,0 0,0 0,1 0,0 0,0 0,0 0,1 0,1 0,2 1,2 3,2 4,2 1,0 1,-1 2,-2 0,0 0,-1 1,-1 1,-1 2,0 4,1 2,0 3,-1 4,-1 0,0 1,1 2,1 0,1 0,1 1,1 1,1 2,1 4,1 0,-1 1,-2 1,-3 0,0 0,-1 0,-1 0,0 0,-1 0,-1 0,0 0,0 0,0 0,-1 0,-1 0,-1l0 -1 0 1c0,-1 0,-1 0,-1l1 -1c0,0 0,0 0,0 1,-2 2,-4 3,-5 1,0 2,-1 2,-1 1,0 1,0 2,0 1,0 1,0 1,0 0,-1 1,0 1,-2 0,0 0,-1 1,-1 0,0 0,0 0,0 1,-1 1,-1 1,-1 -1,-1 -1,-1 -1,-1 1,-1 1,-1 1,-2 0,0 0,-1 0,-1 -1,-1 0,-2 -1,-2 -1,0 -1,2 -2,3 -2,4 -5,4 -8,5 -1,0 -2,1 -2,1 -1,1 -2,1 -3,2 0,0 -1,-2 -1,-2 0,0 1,0 1,-1 1,0 1,-1 2,-2 1,1 1,-1 0,-1 0,0 0,0 0,0 0,-1 0,-1 0,-2 0,0 0,0 0,0 1,-2 2,-6 1,-9 -1,0 -3,1 -4,1 -1,0 -1,0 -1,0 -1,-1 -2,-1 -3,-1 0,0 -1,0 -1,0 0,-1 -1,-2 -1,-2 -1,0 -1,1 -1,2 -1,0 -2,0 -3,0 -1,1 -1,1 -2,1 -1,-1 -3,-1 -4,0 0,0 -1,1 -1,2 1,4 2,4 2,7 -1,0 -2,2 0,2 1,2 2,2 3,3 0,1 -3,0 -3,0 -1,-1 -1,-1 -1,-2 -1,0 -1,0 -1,0 0,0 0,0 0,-1 0,0 0,1 0,1 -1,0 -1,1 -1,1 0,0 0,0 -1,0 0,1 0,0 0,0 -1,0 0,1 0,1 0,1 0,1 0,1 0,0 0,0 0,0 0,0 -1,0 -1,0 0,1 1,1 1,1 0,1 1,1 2,1 0,0 3,1 3,2 0,1 0,2 0,2z"/>
     <path fill="#F3E3D8" d="M12 35l1 0c2,1 3,1 4,0 1,0 2,-1 3,-1 0,-1 0,-2 0,-3 0,-2 0,-4 0,-7 -1,0 -1,1 -2,1 -2,0 -4,0 -6,-1 0,1 0,2 0,3 0,1 -1,2 -1,3 0,2 0,4 1,5z"/>
     <path fill="#8AB1E5" d="M33 21c0,0 0,0 1,0 0,0 0,2 -1,2 0,0 -1,0 -1,-1 0,0 0,-1 1,-1zm5 -7c-1,0 -1,1 -1,1 0,1 0,1 0,1 -1,1 -1,0 0,1 0,1 0,1 -1,2 0,0 -1,0 -1,0 -1,1 -3,2 -4,2 0,1 0,2 -1,2 0,0 -1,-1 -1,-1 -1,0 -2,1 -3,1 0,1 -2,2 -2,2 0,1 0,1 0,2 0,0 1,0 1,1 0,1 0,1 0,2 1,0 1,0 1,0 0,1 0,1 -1,1 0,0 0,0 0,0 0,0 0,1 1,1 0,-1 0,-1 0,-1 1,0 1,0 1,0 0,0 2,-3 2,-3 0,-1 1,-2 1,-2 0,-1 0,-1 0,-1 1,-2 2,-1 3,-1 0,0 0,-1 0,-1 1,0 1,-1 2,-1 0,-1 1,-3 2,-2 0,-1 1,-3 1,-4 -1,1 -1,0 -1,0 0,-1 1,0 1,0 0,0 0,-1 0,-1 0,0 0,-1 0,-1z"/>
     <path fill="#5E7DA9" d="M3 22c0,1 0,1 1,2 0,0 -1,0 -1,0 0,1 1,1 1,1 0,1 0,0 2,1 1,0 2,1 2,2 0,0 0,0 0,1 0,1 0,1 0,1 0,1 0,1 0,1 1,0 0,0 1,1 0,-1 1,-3 1,0 0,0 0,0 0,0 0,1 0,1 0,1 -1,1 0,2 0,3 0,-1 0,-1 1,-1 0,-1 1,0 1,0 0,-1 -1,-1 -1,-2 0,-3 0,-4 1,-6 0,-1 0,-2 0,-3 -1,0 -1,-1 -2,-1 0,0 0,1 0,1 0,0 -1,0 -1,0 -2,0 -2,-1 -3,-1 0,0 0,-1 0,-1 0,-1 -1,-1 -2,0 0,0 0,0 -1,0z"/>
     <path fill="#8AB1E5" d="M21 36c0,-1 0,-1 0,-2 0,-1 0,-1 0,-2 1,0 0,-1 1,-2 0,0 1,1 1,1l0 0c0,0 1,0 1,-1 -1,0 -1,0 -1,0 0,0 0,-1 -1,-2 0,-1 0,-1 -1,-3 0,-1 0,-1 1,-2 -1,0 -1,0 -2,1 0,0 0,0 0,0 0,3 1,6 1,8 -1,1 -1,2 -1,2 0,0 -1,1 -1,1 0,0 1,1 2,1z"/>
     <path fill="#8AB1E5" d="M5 35c0,-3 1,4 0,0zm0 -2c0,-1 1,0 1,0 0,1 -1,1 -1,1 -1,0 -1,-1 0,-1zm4 -1c0,0 1,1 0,1 0,1 -1,0 0,-1zm-2 0c0,-1 1,0 1,0 0,0 0,0 0,1 -1,0 -1,0 -1,-1 -1,0 -1,0 0,0zm-3 3c0,0 0,1 0,1 1,1 2,2 3,2 2,0 2,-1 3,-2 0,-1 -1,-2 -1,-2 0,-1 1,-1 1,-2 -1,0 -1,0 -1,0 -1,0 -1,0 -1,-1 -1,0 -1,0 -1,0 -1,1 -1,1 -1,1 -1,0 -2,0 -2,1 0,1 0,1 0,1 0,1 0,0 0,1z"/>
     <path fill="#8AB1E5" d="M22 35c0,0 0,-1 1,-1 0,0 0,0 0,0 1,0 1,-1 1,-1 1,0 1,1 1,1 0,0 0,0 0,0 1,0 1,0 1,1 0,1 0,1 -1,1 0,1 0,1 -1,1 0,0 -1,0 -1,-1 -1,0 -1,0 -1,-1zm4 -3c0,0 1,1 0,2 -1,0 -1,-1 0,-2zm-4 0c0,0 1,1 1,1 0,0 0,1 -1,1 0,0 -1,-1 0,-2zm2 0c1,-1 1,1 0,1 -1,0 -1,-1 0,-1zm2 4c1,-2 0,-1 0,-2 0,-1 1,-1 0,-2 0,0 0,0 -1,0 0,0 0,-1 0,-1 -1,0 -1,0 -2,1 0,0 -1,-1 -2,1 0,0 0,0 0,1 0,1 0,3 1,3 1,1 2,1 3,1 0,0 1,-1 1,-2z"/>
     <path fill="#8AB1E5" d="M17 25c1,0 2,-1 3,-1 0,0 1,-1 1,-1 -1,0 -2,0 -3,-1 -2,2 -4,1 -4,0 -1,1 -2,1 -3,1 1,2 4,2 6,2z"/>
     <path fill="#8AB1E5" d="M22 26c0,1 1,4 2,4 0,0 0,0 1,0 0,0 0,0 0,0 0,1 0,-1 -1,-3 0,-1 -1,-3 -2,-4 0,0 0,0 0,0 -1,0 -1,1 0,3z"/>
     <path fill="#16468D" d="M33 24c1,0 2,0 3,0 0,0 0,-1 0,-1 0,0 1,0 1,0 0,0 0,-2 1,-2 0,0 0,0 0,-1 0,0 0,-1 0,-1 0,-1 1,0 1,-1 0,-1 0,-2 -1,-2 -1,5 -2,5 -5,8z"/>
     <path fill="black" d="M10 16c0,0 0,0 0,0 0,0 1,0 1,-1l0 0c0,0 0,0 0,-1 0,0 0,0 1,0 0,0 0,1 -1,2l0 0c1,0 1,0 1,0l0 -1c0,1 0,1 0,2 0,0 0,0 0,0 0,0 0,-1 0,-1 0,0 0,0 0,0l0 0c0,0 0,0 0,0l0 0c0,0 0,0 0,1 0,0 0,0 0,0 0,0 -1,1 -1,1 0,0 0,0 0,0 -1,0 -1,-1 -1,-1 -1,0 0,0 -1,0 0,0 0,0 0,0 0,-1 0,-2 1,-3 0,0 0,0 1,0 -1,0 -1,0 -1,0 0,1 0,1 0,1 0,0 0,0 0,0l0 1zm-1 0c-1,2 2,3 3,1 1,0 1,-2 0,-3 -1,-2 -3,0 -3,2z"/>
     <path fill="#F3E3D8" d="M8 13c0,-1 -1,-2 -2,-3 0,2 0,3 1,5 0,0 0,1 0,1 0,-2 1,-2 1,-3z"/>
     <path fill="#F3E3D8" d="M25 17c1,-1 2,-7 1,-7 0,0 -1,1 -1,1 -1,2 -1,2 -1,4 0,0 1,1 1,2z"/>
     <path fill="black" d="M24 34c1,0 0,0 1,0 0,1 0,0 1,1 0,1 -1,1 -1,1 0,0 0,0 -1,0 -1,0 -2,0 -2,-1 1,0 1,0 1,-1 1,0 1,0 1,0zm-2 1c0,1 0,1 1,1 0,1 1,1 1,1 1,0 1,0 1,-1 1,0 1,0 1,-1 0,-1 0,-1 -1,-1 0,0 0,0 0,0 0,0 0,-1 -1,-1 -1,0 0,1 -1,1 0,0 0,0 0,0 -1,0 -1,1 -1,1z"/>
     <path fill="black" d="M19 14c0,0 1,-1 1,-1 1,-1 1,0 1,-1 -1,0 -1,0 -1,0 -1,1 -1,1 -1,2z"/>
     <path fill="#051429" d="M11 17c0,0 0,0 0,0 0,0 0,0 0,0 0,0 0,0 0,0zm-1 -1c0,0 0,0 0,0 0,0 0,0 0,0zm-1 1c1,0 1,-1 1,0 0,0 0,0 0,0l0 0c0,0 0,1 1,1 0,0 0,0 0,0 0,0 1,-1 1,-1 0,0 0,0 0,0 0,0 0,0 -1,0 0,0 0,0 0,-1 0,0 0,0 0,0 0,0 0,0 0,0 0,0 0,0 0,0 0,0 0,0 0,0 0,0 0,0 0,0l0 1c0,0 0,0 0,0 0,0 0,0 0,0 -1,0 0,0 -1,0l0 0c0,-1 0,0 0,-1l0 0c0,0 0,0 0,0l0 0c0,0 0,0 0,-1 0,0 0,0 0,1 0,0 0,0 0,0l0 -1c0,0 0,0 0,0 0,0 0,0 0,-1 0,0 0,0 1,0 -1,0 -1,0 -1,0 -1,1 -1,2 -1,3z"/>
     <path fill="#1E4E96" d="M15 8c0,0 2,0 2,0 0,-1 -1,-2 -1,-2 -1,0 -1,2 -1,2z"/>
     <path fill="#F9BDBB" d="M26 20c0,-1 -3,-1 -3,-1 0,1 3,2 3,1z"/>
     <path fill="#F9BDBB" d="M9 19c0,-1 -3,-1 -3,0 0,1 3,1 3,0z"/>
     <path fill="#F9BDBB" d="M14 22c1,1 3,1 4,0 -2,0 -3,0 -4,0z"/>
     <path fill="black" d="M34 21c0,1 -1,2 -1,1 -1,0 0,-1 1,-1zm-1 0c-1,0 -1,1 -1,1 0,1 1,1 1,1 1,0 1,-2 1,-2 -1,0 -1,0 -1,0z"/>
     <path fill="#16468D" d="M35 22c0,0 2,-2 2,-2 -1,0 -1,0 -2,0 0,1 0,1 0,2z"/>
     <path fill="#16468D" d="M6 10c0,0 1,0 1,0 1,0 1,-1 1,-2 -1,0 -2,0 -2,2z"/>
     <path fill="#16468D" d="M30 26c1,-1 2,-2 2,-2 0,0 -1,0 -1,0 -1,0 -1,1 -1,2z"/>
     <path fill="#16468D" d="M29 22c0,0 0,1 1,1 0,0 0,0 1,0 0,-1 0,-1 0,-1 0,-1 0,-1 -1,0 0,0 -1,0 -1,0z"/>
     <path fill="#16468D" d="M11 9c0,1 2,2 2,-1 -1,0 -1,1 -2,1z"/>
     <path fill="black" d="M19 10c0,0 0,-1 0,-1 0,0 1,0 1,0 0,1 -1,1 -1,1zm0 -1c-1,1 0,2 1,1 0,0 0,-1 0,-1 -1,0 -1,0 -1,0z"/>
     <path fill="black" d="M18 12c0,0 0,0 0,-1 0,0 0,0 0,0 0,0 0,0 0,0 0,0 0,0 0,0 0,0 0,0 1,0 -1,0 -1,0 -1,1zm0 -1c0,0 -1,0 0,1 0,0 0,0 0,0 1,-1 1,-1 0,-2 0,0 0,0 0,1z"/>
     <path fill="#16468D" d="M24 13c0,0 0,-1 0,-1 0,0 0,-1 1,-1 -1,0 -1,0 -1,0 0,0 -1,0 -1,0 0,1 1,2 1,2z"/>
     <path fill="#16468D" d="M34 21c-1,-1 -2,1 -2,1 1,1 1,1 1,1 1,0 1,-1 1,-2z"/>
     <path fill="black" d="M24 32c1,0 1,1 0,1 0,0 0,0 0,-1 0,0 0,0 0,0zm0 0c-1,0 -1,1 0,1 1,0 1,-2 0,-1z"/>
     <path fill="black" d="M5 33c0,0 0,0 0,0 0,0 0,0 0,0l0 0zm0 0c-1,0 -1,1 0,1 0,0 1,0 1,-1 0,0 -1,-1 -1,0z"/>
     <path fill="black" d="M25 33c0,0 0,0 1,0 0,0 0,0 0,0 0,0 0,0 -1,0zm1 -1c-1,1 -1,2 0,2 1,-1 0,-2 0,-2z"/>
     <path fill="#0C3266" d="M11 16c0,0 0,0 0,0 -1,1 -1,0 0,0zm-1 0c0,0 0,0 0,0 0,0 0,0 0,0l0 0c0,0 0,0 0,0l0 0c0,1 0,0 0,1l1 0 0 0c0,0 0,0 0,0 0,0 0,0 0,0l0 -1c0,0 0,0 0,0 0,0 0,0 0,0l0 0 0 0c0,0 0,-1 0,-1l0 0c0,1 -1,1 -1,1 0,0 0,0 0,0z"/>
     <path fill="black" d="M22 33c0,0 0,0 0,0 1,0 1,0 0,0 0,0 0,0 0,0zm0 -1c-1,1 0,2 0,2 1,0 1,-1 1,-1 0,0 -1,-1 -1,-1z"/>
     <path fill="#041224" d="M12 16c0,0 0,0 0,1 0,0 0,0 0,-1zm-1 0l0 0c0,0 0,0 0,0 0,0 0,0 0,0 0,0 0,0 0,0 1,1 1,1 1,1 0,0 0,0 0,0 0,0 0,0 0,0 0,0 0,0 0,0 0,-1 0,-1 0,-1l0 0c0,0 0,0 0,0l0 0c0,0 0,0 0,0 0,0 0,1 0,1 0,0 0,0 0,0 0,-1 0,-1 0,-2l0 1c0,0 0,0 -1,0z"/>
     <path fill="#16468D" d="M19 10c0,0 1,0 1,-1 0,0 -1,0 -1,0 0,0 0,1 0,1z"/>
     <path fill="#250909" d="M22 32c0,0 0,0 0,0 1,-1 1,0 1,-1 0,0 0,0 0,0 -1,0 -1,-1 -1,1z"/>
     <path fill="#15458A" d="M36 17c0,0 -1,2 -1,2 1,0 1,0 1,-1 1,0 1,-1 0,-1z"/>
     <path fill="black" d="M16 19c1,1 2,1 2,0 0,0 -1,0 -2,0z"/>
     <path fill="#250909" d="M24 31l1 0c0,0 0,-1 -1,-1 0,0 0,0 0,1z"/>
     <path fill="#1B4B92" d="M23 9c0,1 1,1 1,0l-1 0 0 0z"/>
     <path fill="#16468D" d="M25 9c0,0 0,0 0,0 0,0 0,0 0,0 0,1 0,0 0,0z"/>
     <path fill="#184689" d="M10 9c-1,0 -1,0 -1,0 0,0 0,0 0,0 0,0 1,0 1,0z"/>
     <path fill="#184689" d="M18 12c0,-1 0,-1 1,-1 -1,0 -1,0 -1,0 0,0 0,0 0,0 0,0 0,0 0,0 0,0 0,0 0,0 0,1 0,1 0,1z"/>
     <path fill="#F1E1D7" d="M25 32c-1,-1 -2,0 -1,1 0,0 0,0 0,0 1,0 1,0 1,-1z"/>
     <path fill="#010202" d="M11 16c-1,0 -1,1 0,0 0,0 0,0 0,0z"/>
     <path fill="#184689" d="M18 9c0,0 0,0 0,-1 0,0 0,0 0,0l-1 0 1 1z"/>
     <path fill="#F1E1D7" d="M26 34c0,0 0,-1 0,-1 0,0 0,-1 0,-1 -1,1 -1,1 -1,1 0,1 1,1 1,1z"/>
     <path fill="#F1E1D7" d="M5 33c0,0 -1,1 0,1 0,0 1,-1 0,-1 0,0 0,0 0,0z"/>
     <path fill="#EFE0D5" d="M22 33c0,0 0,1 0,0 1,0 1,0 0,-1 0,0 0,1 0,1z"/>
     <path fill="#010202" d="M12 17c0,0 0,0 0,0 0,0 0,0 -1,-1 0,1 0,1 0,1 1,0 1,0 1,0z"/>
     <path fill="#1B4B92" d="M7 6c0,0 0,0 0,-1 0,0 0,1 0,0 0,0 0,1 0,1z"/>
     <path fill="#03060A" d="M9 17c0,0 0,0 0,0 1,0 0,0 1,0l0 0c0,0 0,0 0,0 0,-1 0,0 -1,0z"/>
     <path fill="#020205" d="M10 16c0,0 0,0 0,0 0,-1 0,-1 0,-1 0,1 0,1 0,1z"/>
     <path fill="#020205" d="M10 16c0,0 0,0 0,0 0,0 0,0 0,0z"/>
     <path fill="#020205" d="M12 16c0,1 0,1 0,1 0,-1 0,-1 0,-1z"/>
     <path fill="#D6E1F2" d="M10 17l0 0c1,0 0,0 1,0l0 0 -1 0z"/>
     <path fill="#03060A" d="M11 17c0,0 0,0 0,0 0,0 0,0 0,0 0,0 0,0 0,0z"/>
     <path fill="#A49C99" d="M2 41c0,0 0,0 0,0 0,0 0,0 0,0 0,0 0,0 0,0 0,0 0,0 0,0 0,0 0,0 0,0z"/>
     <path fill="#2B2A35" d="M39 26c0,1 -1,1 0,1 0,-1 0,0 0,-1 -1,0 0,0 0,0z"/>
     <path fill="#181718" d="M2 41l0 0c0,0 0,0 0,0 0,0 0,0 0,0z"/>
     <path fill="#46536B" d="M23 31l0 0c0,0 0,0 0,0z"/>
     <path fill="black" d="M13 12c0,-1 0,-1 0,-1 1,0 1,0 1,0 0,0 0,1 -1,1zm0 -2c0,1 0,3 1,2 0,-1 1,-1 0,-1 0,0 0,-1 -1,-1z"/>
     <path fill="#16468D" d="M13 12c1,0 1,-1 1,-1 0,0 0,0 -1,0 0,0 0,0 0,1z"/>
     <path fill="black" d="M14 9c0,0 0,0 0,0 0,0 0,-1 0,-1 0,0 0,0 0,0 0,0 0,0 0,0 0,0 0,0 0,0 0,0 0,1 0,1zm-1 0c0,0 1,0 1,0 0,-1 0,-1 0,-1 -1,0 -1,0 -1,1z"/>
     <path fill="#184689" d="M14 9c0,0 0,0 0,-1 0,0 0,0 0,0 -1,0 -1,1 0,1z"/>
     <path fill="black" d="M13 13c0,1 -1,0 -2,0 0,-1 0,-1 0,-1 0,0 0,-1 1,-1 0,1 1,2 1,2z"/>
     <ellipse fill="#332C2B" stroke="#332C2B" stroke-width="0.492274" cx="11" cy="16"/>
     <circle fill="#ECF6F3" stroke="#332C2B" stroke-width="0.492274" cx="11" cy="15" r="1"/>
     <ellipse fill="#ECF6F3" stroke="#332C2B" stroke-width="0.492274" cx="10" cy="17"/>
     <path fill="black" d="M20 16c0,0 0,0 0,0 0,0 0,0 0,0l0 -1c0,0 0,0 0,-1 1,0 1,0 1,0 1,1 1,2 0,2l0 0c0,0 1,0 1,0l0 -1c0,1 0,1 0,2 0,0 0,0 0,0 0,0 0,0 0,0 0,-1 0,-1 0,-1l-1 0c0,0 1,0 1,0l-1 0c0,1 1,0 1,1 0,0 0,0 -1,0 0,1 0,1 0,1 0,0 0,0 -1,0 0,0 -1,-1 -1,-1 0,0 0,0 0,0 0,0 0,0 0,0 0,-1 0,-2 1,-3 0,0 0,0 0,0 0,0 0,0 0,1 0,0 0,0 0,0 0,1 0,0 0,0l0 1zm-1 0c-1,3 2,3 3,2 1,-1 1,-3 0,-4 -1,-1 -3,0 -3,2z"/>
     <path fill="#051429" d="M21 17c0,0 0,0 0,0 0,0 0,0 0,0 0,0 0,0 0,0zm-1 -1c0,0 0,0 0,0 0,0 0,0 0,0zm-1 1c0,0 0,0 1,0 -1,0 -1,0 -1,0l0 0c0,0 1,1 1,1 1,0 1,0 1,0 0,0 0,0 0,-1 0,0 0,0 0,0 0,0 0,0 0,0 0,0 0,0 0,0 0,0 0,0 0,-1 0,0 0,0 0,0 0,0 0,0 0,0 0,0 0,0 0,1 0,0 0,0 0,0l0 0c0,0 0,0 0,0 -1,0 -1,0 -1,0 0,0 0,0 0,0l0 0c0,-1 0,0 0,-1l0 0c0,0 0,0 0,0l0 0c0,0 0,0 0,0 0,0 0,0 0,0 0,0 0,0 0,0l0 -1c0,0 0,1 0,0 0,0 0,0 0,0 0,-1 0,-1 0,-1 0,0 0,0 0,0 -1,1 -1,2 -1,3z"/>
     <path fill="#0C3266" d="M21 16c0,0 0,0 0,0 -1,1 -1,0 0,0zm-1 0c0,0 0,0 0,0 0,0 0,0 0,0l0 0c0,0 0,0 0,0l0 0c0,1 0,0 0,1l0 0 0 0c0,0 0,0 1,0 0,0 0,0 0,0l0 0c0,0 0,0 0,0 0,-1 0,-1 0,-1l0 0 0 0c0,0 0,0 -1,-1l0 1c0,0 0,0 0,0 0,0 0,0 0,0z"/>
     <path fill="#041224" d="M21 17c0,0 1,0 1,0 -1,0 -1,0 -1,0zm0 -1l0 0c0,0 0,0 0,0 0,0 0,0 0,0 0,1 0,1 0,1 0,0 0,0 1,0 -1,0 0,0 -1,0 0,0 0,0 0,0 1,0 1,0 1,0 0,-1 -1,0 -1,-1l1 0c0,0 -1,0 -1,0l1 0c0,0 0,0 0,1 0,0 0,0 0,0 0,0 0,0 0,0 0,-1 0,-1 0,-2l0 1c0,0 -1,0 -1,0z"/>
     <path fill="#010202" d="M21 16c-1,0 -1,1 0,0 0,0 0,0 0,0z"/>
     <path fill="#010202" d="M21 17c1,0 0,0 1,0 -1,0 -1,0 -1,0 0,0 0,0 0,0 0,0 0,0 0,0z"/>
     <path fill="#03060A" d="M19 17c0,0 0,0 0,0 0,0 0,0 0,0l0 0c0,0 0,0 1,0 -1,0 -1,0 -1,0z"/>
     <path fill="#020205" d="M20 16c0,0 0,0 0,0 0,0 0,0 0,0 0,0 0,0 0,0z"/>
     <path fill="#020205" d="M20 16c0,0 0,0 0,0 0,0 0,0 0,0z"/>
     <path fill="#020205" d="M21 17c0,0 0,0 1,0 0,0 -1,0 -1,0z"/>
     <path fill="#D6E1F2" d="M20 17l0 0c0,0 0,0 0,0l0 0 0 0z"/>
     <path fill="#03060A" d="M21 17c0,0 0,0 0,0 0,0 0,0 0,0 0,0 0,0 0,0z"/>
     <ellipse fill="#332C2B" stroke="#332C2B" stroke-width="0.492274" cx="20" cy="16"/>
     <circle fill="#ECF6F3" stroke="#332C2B" stroke-width="0.492274" cx="21" cy="15" r="1"/>
     <ellipse fill="#ECF6F3" stroke="#332C2B" stroke-width="0.492274" cx="20" cy="17"/>
     <path fill="none" stroke="#332C2B" stroke-width="0.492274" d="M14 19c0,0 2,-2 4,0"/>
     <path fill="black" d="M16 19c-1,1 -2,1 -2,0 0,0 1,0 2,0z"/>
     <ellipse fill="#16468D" cx="38" cy="16"/>
     <path fill="#F3E3D8" d="M24 33c-1,1 0,1 -1,1 0,0 -1,0 -1,1 0,1 1,2 2,2 1,0 2,-1 2,-2 0,-1 -1,-1 -1,-1 0,0 0,-1 -1,-1z"/>
     <path fill="black" d="M8 32c-1,0 -1,0 -1,0 0,0 0,0 0,0l1 0zm0 0c-1,-1 -2,0 -1,0 0,1 0,1 1,1 0,-1 0,-1 0,-1z"/>
     <path fill="#F1E1D7" d="M7 31c0,0 0,1 0,1 0,1 1,1 1,0 0,0 0,-1 -1,-1z"/>
     <path fill="black" d="M9 33c0,0 0,0 0,0 0,0 0,0 0,0 0,0 0,0 0,0zm0 -1c-1,1 -1,2 0,1 1,0 0,-1 0,-1z"/>
     <path fill="#F1E1D7" d="M9 33c0,0 0,0 0,0 0,0 0,-1 0,-1 -1,0 -1,1 -1,1 0,0 1,0 1,0z"/>
     <path fill="black" d="M7 34c1,0 1,0 1,0 0,1 1,0 1,1 0,1 0,1 -1,1 0,0 0,0 -1,0 0,0 -2,0 -1,-1 0,0 0,-1 0,-1 1,0 1,0 1,0zm-2 1c0,1 1,1 1,1 1,1 1,1 2,1 0,0 0,0 1,-1 0,0 0,0 0,-1 0,-1 0,-1 0,-1 -1,0 -1,0 -1,0 0,-1 0,-1 -1,-1 -1,0 0,1 -1,1 0,0 0,0 0,0 -1,0 -1,1 -1,1z"/>
     <path fill="#F3E3D8" d="M7 33c0,1 0,1 -1,1 0,0 -1,0 -1,1 0,1 1,2 2,2 1,0 2,-1 2,-2 0,-1 -1,-1 -1,-1 0,0 0,-1 -1,-1z"/>
     <path fill="black" d="M4 25c0,0 0,0 0,0 0,0 0,0 0,0l0 0zm1 0c-1,-1 -2,0 -1,0 0,0 0,0 0,0 1,0 1,0 1,0z"/>
     <path fill="#F1E1D7" d="M4 24c0,0 0,1 0,1 0,1 1,0 1,0 0,0 -1,-1 -1,-1z"/>
     <path fill="black" d="M4 23c0,0 0,0 0,0 0,0 0,0 0,0l0 0zm0 -1c-1,0 -1,1 0,1 0,0 0,0 0,0 0,0 0,-1 0,-1z"/>
     <path fill="#F1E1D7" d="M4 23c-1,0 -1,0 0,0 0,1 0,0 0,0 0,-1 0,0 0,0z"/>
     <path fill="black" d="M5 22c0,0 0,0 0,0 0,0 0,0 0,0l0 0zm1 0c0,-1 -1,-1 -1,0 0,0 0,0 0,0 0,0 1,0 1,0z"/>
     <path fill="#F1E1D7" d="M5 22c0,0 0,-1 0,0 0,0 0,1 0,0 1,0 1,0 0,0z"/>
     <path fill="black" d="M5 24c0,-1 0,-1 0,-1 0,0 0,0 1,0 0,0 0,0 0,0 0,1 0,1 0,1 0,0 0,1 -1,1 0,-1 0,-1 0,-1 0,0 0,0 0,0zm0 1c1,0 1,0 1,0 0,-1 0,-1 0,-1 0,0 0,-1 0,-1 0,0 0,0 -1,0 0,0 0,0 0,0 0,0 0,0 0,0 0,0 0,0 0,0 -1,1 0,1 0,1 0,0 0,0 0,0 0,1 0,1 0,1z"/>
     <path fill="#F3E3D8" d="M5 24c0,0 0,0 0,0 0,0 0,1 0,1 1,0 1,-1 1,-1 0,0 0,-1 0,-1 -1,0 -1,0 -1,0 0,0 -1,0 0,1z"/>
     <path fill="#E9D0A2" d="M11 29c0,1 -1,5 3,6 0,0 -2,-2 -2,-3 0,-1 -1,-3 -1,-3z"/>
     <path fill="#E9D0A2" d="M19 25c0,0 -2,1 -7,-1 0,0 0,2 0,3 0,1 2,-1 7,-2z"/>
     <path fill="#5E7DA9" d="M27 23c0,0 -3,4 -2,5 1,2 -1,-3 -1,-3 0,0 1,-1 3,-2z"/>
     <path fill="#5E7DA9" d="M13 23c0,0 -1,0 -2,0 0,0 0,1 2,1 1,1 -1,0 0,-1z"/>
     <path fill="#E9D0A2" d="M8 13c0,-1 -1,-2 -2,-3 0,1 0,1 0,1 1,1 2,1 2,2 0,0 0,0 0,0z"/>
     <path fill="#E9D0A2" d="M25 17l0 -1 0 0c0,0 0,0 0,1zm1 -6c0,-1 0,-1 0,-1 0,0 -1,1 -1,1 -1,2 -1,2 -1,4 0,-1 0,-2 1,-3 0,0 1,-1 1,-1 0,0 0,0 0,0zm-1 5l0 0c0,0 0,0 0,0l0 0z"/>
     <path fill="#5E7DA9" d="M21 34c0,0 0,1 -1,1 0,0 1,1 1,1 0,0 0,-1 0,-1 0,-1 0,-1 0,-1z"/>
    </g>
   </g>
  </g>
  <path fill="none" d="M16 2c8,0 14,6 14,14 0,8 -6,14 -14,14 -8,0 -14,-6 -14,-14 0,-8 6,-14 14,-14z"/>
 </g>
</svg>
