<?xml version="1.0" encoding="UTF-8"?>
<!DOCTYPE svg PUBLIC "-//W3C//DTD SVG 1.1//EN" "http://www.w3.org/Graphics/SVG/1.1/DTD/svg11.dtd">
<!-- Creator: CorelDRAW X7 -->
<svg xmlns="http://www.w3.org/2000/svg" xml:space="preserve" width="113.48mm" height="113.48mm" version="1.1" shape-rendering="geometricPrecision" text-rendering="geometricPrecision" image-rendering="optimizeQuality" fill-rule="evenodd" clip-rule="evenodd"
viewBox="0 0 5830 5830"
 xmlns:xlink="http://www.w3.org/1999/xlink">
 <defs>
    <clipPath id="id0">
     <path d="M0 0l5830 0 0 5830 -5830 0 0 -5830z"/>
    </clipPath>
   <clipPath id="id1">
    <path d="M2915 380c1400,0 2534,1135 2534,2535 0,1400 -1134,2534 -2534,2534 -1400,0 -2535,-1134 -2535,-2534 0,-1400 1135,-2535 2535,-2535z"/>
   </clipPath>
 </defs>
 <g id="圖層_x0020_1">
  <metadata id="CorelCorpID_0Corel-Layer"/>
  <g id="_690653528">
   <g clip-path="url(#id0)">
    <image x="0" y="0" width="5830" height="5830" xlink:href="2.svg_Images\2.svg_ImgID1.png"/>
   </g>
  </g>
  <path fill="#FEFEFE" d="M2915 380c1400,0 2534,1135 2534,2535 0,1400 -1134,2534 -2534,2534 -1400,0 -2535,-1134 -2535,-2534 0,-1400 1135,-2535 2535,-2535z"/>
  <g clip-path="url(#id1)">
   <g id="_690653840">
    <g>
     <path id="1" fill="#8AB1E5" d="M3963 1744c17,55 183,145 266,288 112,-35 181,-72 296,-47 251,-217 279,-167 -6,-420 -8,-7 -83,-110 -58,18 -17,-12 -383,86 -498,161z"/>
     <path fill="#F7C84E" d="M2655 1480c2,17 -32,61 -18,76 53,59 217,78 270,69 116,-20 182,-47 260,-105 -11,-42 -12,-65 -26,-63 -365,49 -82,61 -486,23z"/>
     <path fill="#1E4E96" d="M2631 1568c-15,26 -65,211 -66,242 77,89 237,72 365,74 81,1 281,-15 324,-85 0,-58 -47,-203 -75,-239 -199,77 -334,136 -548,8z"/>
     <path fill="#184689" d="M1545 2195c35,-33 192,-256 211,-307 -107,-48 -217,-30 -237,15 -46,83 9,254 26,292z"/>
     <path fill="#8AB1E5" d="M1124 1843c121,45 337,238 396,370 35,-51 14,-17 -26,-121 -14,-52 -18,-125 -3,-178 33,-114 177,-69 269,-39 71,-76 193,-158 185,-205 -4,-22 -383,-174 -486,-117 -120,66 -331,256 -335,290z"/>
     <path fill="#8AB1E5" d="M2171 2420c-903,-543 765,462 0,0zm1331 -111c574,-1083 -293,554 0,0zm-2155 895c-69,244 24,714 249,841 106,59 267,76 385,97 498,86 722,-369 1322,-67 63,31 96,73 177,87 158,28 368,72 567,-1 199,-72 377,-295 430,-423 -294,2 -489,-263 15,-292 114,-228 -118,-1106 -254,-1336 -46,-87 -141,-237 -283,-354 -227,-188 -541,-334 -627,-288 -1,1 -8,-2 -9,-1 -207,114 6,275 -48,337 -167,190 -733,57 -721,11 38,-158 127,-336 74,-383 -32,-27 -132,24 -244,78 66,335 -170,418 -354,197 -175,10 -440,518 -455,550 -27,60 -85,217 -109,283 -62,165 -166,491 -115,664z"/>
     <path fill="#5E7DA9" d="M1624 2166c0,0 -317,1562 422,1984 -516,22 -798,-380 -710,-1001 18,-123 30,-346 79,-475 299,-782 209,-508 209,-508z"/>
     <path fill="#184689" d="M1739 1975c119,52 294,-66 177,-209 -24,7 -73,71 -93,90 -28,24 -76,76 -84,119z"/>
     <path fill="#150606" d="M4504 6977c-183,-2 -295,-16 -414,-116 -96,-81 -181,-163 -188,-358 -4,-90 3,-185 21,-265 20,-89 29,-155 42,-241 5,-37 13,-60 24,-76 21,-29 58,-31 125,-48 128,-35 81,5 181,-77 61,-50 123,-56 220,-43 83,11 114,80 159,111 31,20 132,-1 173,95 41,96 8,157 -2,238 -10,77 21,174 9,274 -8,58 -42,162 -63,217 -53,144 -189,235 -287,289zm-3694 -593c0,-77 18,-55 -12,-124 -17,-42 -22,-78 -17,-133 27,-301 211,-220 280,-267 44,-29 95,-104 155,-118 53,-12 200,-6 245,16 63,55 81,88 167,101 53,7 61,3 94,37 125,129 -35,148 -12,309 32,239 82,356 -64,564 -54,77 -174,117 -273,133 -170,27 -288,-32 -414,-108 -58,-34 -89,-81 -112,-163 -24,-87 -37,-147 -37,-247zm3198 -565c-4,-239 46,-208 149,-126 25,19 49,40 60,69 -42,36 -38,19 -101,32 -40,8 -70,23 -108,25zm369 -141c2,-81 44,-170 111,-170 31,48 38,120 26,181l-137 -11zm-372 -1362c35,33 72,71 102,130 29,58 56,97 91,146 20,26 35,43 51,73 89,164 229,396 284,545 33,89 124,296 36,363 -28,-62 0,-69 -52,-126 -90,-15 -106,20 -152,57 -7,16 2,14 -12,24 -27,-48 -14,-38 -53,-81 -59,-67 -181,-366 -218,-451 -43,-98 -60,-198 -81,-314 -4,-22 -43,-327 -15,-369 4,-6 10,-6 19,3zm-302 1049c1,4 3,38 3,40 17,148 41,230 41,397 0,96 -42,290 -81,358 -78,136 -292,305 -495,343 -246,45 -498,24 -700,-80l-223 -89c-78,-46 -170,-201 -169,-365 -16,-22 -10,-7 -17,-44 -3,-17 -6,-36 -7,-53 7,-151 7,-200 33,-346 1,-15 0,-29 3,-42 7,-35 10,-24 14,-30 1,-74 207,-436 186,-712l-5 -282c34,13 492,174 977,119 171,-32 228,-51 323,-92 -31,302 54,590 117,878zm1915 -689c-54,-76 -29,-229 29,-273 81,-59 208,-51 241,40 -80,46 -265,231 -270,233zm-4564 -664c47,30 45,147 123,205 93,76 665,329 690,106 7,-67 11,-85 7,-149 58,21 49,42 90,81 100,227 325,140 239,701 -34,124 -110,234 -135,349 -2,14 -3,22 -8,36 -11,32 -3,6 -11,20 -25,161 -73,301 -66,481 3,71 22,170 35,242 17,94 32,120 65,189 8,9 9,-4 18,31l-79 4c-104,5 -153,128 -221,145 -1,-96 -78,-258 -48,-322 27,-56 77,-74 69,-160 -7,-85 14,-49 37,-131 20,-69 46,-221 -18,-250 -15,-7 -23,-10 -51,0 -115,75 -149,172 -180,201 -73,-31 -35,-57 -162,-99 -3,-57 -6,-72 -13,-123 -11,-78 97,-140 96,-315 0,-82 -18,-140 -44,-204 -32,-79 -63,-106 -119,-152 -143,-115 -157,-116 -313,-173 -120,-76 -245,-50 -307,-66 -47,-12 -100,-64 -110,-115 -6,-29 1,-53 8,-77 132,-216 -86,-179 0,-317 52,-74 60,-37 141,-44 11,-18 93,-143 108,-156 43,-37 119,-50 159,62zm3215 1710c-2,1 -7,33 -27,-7 -17,-51 -136,-183 -226,-148 -102,39 -55,237 -89,308 -67,143 -14,222 -50,329 -40,122 -42,218 -37,356 -100,-20 -206,-119 -279,-168 -8,-6 186,-234 228,-432 96,-457 -181,-970 -153,-1492 100,-48 262,-196 317,-255 -29,148 -45,264 -17,432 51,299 56,276 152,521 67,170 130,254 186,368 23,46 23,30 42,61 -1,75 -6,94 -47,127zm-2263 -1517c140,-8 221,30 372,-14 33,-10 125,-53 145,-51 38,4 23,35 119,82 149,73 386,79 533,1 51,-28 37,-78 76,-100 170,94 285,128 597,107 -20,39 -46,59 -75,84 -32,27 -35,34 -72,59 -163,109 -381,168 -585,168 -182,0 -925,-24 -1110,-336zm600 -90c92,-87 458,-106 566,-20l-34 23c-69,40 -169,83 -246,88 -96,6 -246,-31 -286,-91zm2782 -89c16,-13 53,-24 72,-33 42,-18 71,-27 114,-45 109,-31 118,-39 120,38 3,114 -56,145 -165,161 -112,16 -114,-34 -141,-121zm1027 9c-8,-171 19,-200 89,-297 33,-45 41,-71 89,-99 43,-24 91,-34 140,-22l-140 229c-35,60 -121,163 -178,189zm-2201 -460c49,-421 -41,362 0,0zm-2554 -61c-9,6 6,1 -21,12 -3,1 -11,3 -14,3 -11,3 -29,6 -40,9 -147,13 -384,102 -469,-35 75,-162 542,-176 571,-6l-27 17zm4547 798c15,-22 18,-20 39,-40l106 -90c368,-265 478,-588 633,-1010 20,-56 27,-178 50,-217 15,21 23,42 36,65 25,41 114,153 79,227 -80,98 -205,24 -174,274 6,50 33,164 27,210 -10,78 -77,65 -134,93 -168,84 -45,272 -119,342 -33,31 -119,20 -157,65 -21,25 -46,115 -67,151 -82,13 -260,-32 -319,-70zm468 -1226c24,90 0,184 -50,262 -31,48 -105,100 -175,109 65,-140 163,-185 225,-371zm152 -105c0,-33 15,-77 31,-98 22,-32 40,-18 71,-4 5,61 -7,83 -29,119 -36,3 -45,2 -73,-17zm-61 -38c-25,128 101,140 183,104 -8,107 -128,435 -174,523 -85,-25 -108,-48 -202,-4 -85,40 -206,236 -220,313 -34,216 -33,204 -203,386 -67,48 -118,90 -191,136 -90,-85 -374,-203 -441,128 -9,117 7,134 46,207 -31,78 -171,243 -233,356 -34,62 -46,59 -82,106 -53,66 -104,163 -152,238 -41,65 -91,193 -133,247 -62,-63 -73,-75 -160,-18 -39,25 -90,97 -108,138 -23,-12 -117,-83 -122,-105 23,-19 30,3 68,14 116,30 139,-54 97,-166 -30,-79 -57,-68 -73,-118 -36,-109 -57,-194 -96,-298 -43,-115 -86,-161 -137,-253 -87,-157 -110,-165 -53,-260 54,-92 345,-291 440,-347 137,-81 362,-184 511,-215 30,81 37,206 277,145 132,-33 151,-160 116,-304 142,-57 211,-94 294,-140 147,-74 539,-223 637,-346 51,-63 105,-186 73,-299 -28,-100 -33,-36 3,-149 40,-94 127,-398 222,-399 163,490 -116,30 -187,380zm-2224 87c-18,-113 -53,-243 -71,-354 -41,-241 -24,-377 79,-605 23,-51 117,-177 154,-214 131,175 2,1019 -162,1173zm-3247 -118c-18,-26 -71,-181 -91,-226 -107,-247 -139,-533 -123,-814 96,7 443,338 380,501 -82,212 -117,310 -166,539zm3095 -562c-24,-28 -116,-195 -107,-245 6,-37 53,-90 79,-102 34,-15 85,14 124,25 -5,50 -34,98 -51,144 -18,46 -30,149 -45,178zm-2844 -169c-85,-248 -34,-366 194,-298 -42,70 -160,265 -194,298zm204 -213c28,-46 125,-156 168,-185 98,118 -63,218 -168,185zm888 -382c219,100 412,72 541,-26 28,36 75,181 75,239 -165,94 -525,105 -689,11 1,-31 58,-199 73,-224zm-1458 274c-146,-69 71,-24 196,-68 48,-17 54,-50 62,-104l14 -132c33,-5 101,-18 111,5 31,76 40,144 93,163 37,13 81,12 163,-96 45,15 86,33 118,47 -37,36 -159,144 -184,192 -92,-30 -229,-67 -262,47 -15,53 -11,126 3,178 40,152 58,153 -42,6 -63,-94 -205,-212 -272,-238zm3471 -172c-25,43 -102,125 -128,31 -25,-88 30,-118 82,-141 22,27 41,67 46,110zm-2576 -30c66,-26 194,-111 263,-130 67,428 -246,226 -263,130zm-999 123c2,-38 22,-115 36,-145 41,-83 221,-96 303,-98 2,76 -4,214 -76,224 -78,12 -186,18 -263,19zm3315 -181c-15,76 -23,143 -47,166 -32,28 -99,-4 -194,-74l241 -92zm279 134c11,20 32,36 39,71 -75,31 -131,115 -184,180 -43,-19 -85,-49 -158,-34 -27,6 -73,32 -138,81 -83,-143 -217,-229 -250,-279 35,-24 74,-41 108,-55 145,108 247,176 299,90 23,-37 36,-101 40,-199 52,-9 80,-21 89,-24 34,-8 -85,82 -4,204 64,62 137,11 159,-35zm-2900 -115c-11,27 -53,91 -100,72 -35,-14 -57,-76 -69,-120 55,7 127,20 169,48zm1389 -101c-79,58 -114,75 -230,94 -49,9 -230,-20 -283,-51 -12,-6 8,-53 16,-67 209,43 272,70 483,-22 5,-2 12,38 14,46zm-81 403c310,-95 244,-93 183,-302 43,-42 74,-55 67,-151 180,37 408,165 549,252 99,61 131,114 197,187 42,47 93,107 121,172 28,65 41,82 66,135 96,206 131,242 177,505 27,149 114,602 54,727 -127,7 -321,-7 -340,120 -24,152 248,170 315,186 -106,134 -108,176 -284,323 -47,29 -141,70 -189,88 -84,31 -414,13 -509,-3 -81,-15 -114,-57 -177,-88 -600,-302 -824,153 -1322,67 -124,-22 -290,-52 -409,-143 -107,-83 -173,-220 -189,-362 72,-21 307,-43 330,-113 24,-69 -26,-131 -66,-153 -53,-29 -118,-33 -178,-39l-123 8c-1,-348 -15,-454 115,-800 25,-66 83,-223 110,-283 51,-112 115,-175 166,-254 133,24 307,-64 190,-229 19,-20 64,-52 94,-64 89,107 171,145 292,129 127,-28 94,-194 67,-329 405,-188 193,68 122,349 296,93 270,92 571,65zm207 -382c-12,30 -15,31 -36,39l-51 -145 95 28c4,36 6,47 -8,78zm-603 -65c9,-49 110,-321 193,-325 129,-7 218,175 254,290 -31,34 -150,47 -205,57 -83,16 -167,-2 -242,-22zm-1280 4021c-25,-41 -77,-65 -122,-48 -28,10 -46,43 -54,77 -21,69 -9,134 -62,162 -163,85 -40,112 -266,127 -119,-218 -238,-180 -221,-1 7,71 55,158 57,198 4,66 -38,123 -12,226 11,42 37,76 41,92 14,54 -43,117 35,346 92,270 452,346 676,280 177,-52 268,-170 315,-363 10,-41 127,-177 160,-194 201,-108 521,104 757,155 440,60 641,-70 778,-150 40,2 183,164 400,242 25,105 54,168 115,221 250,180 462,192 689,71 133,-69 225,-305 231,-495 11,-91 -37,-141 -40,-247 -1,-32 22,-51 27,-95 5,-52 -2,-89 15,-127 22,-54 34,-53 41,-128l-5 -81 33 23c20,-18 29,-64 44,-94l99 -187c16,-27 37,-55 52,-82 120,-229 404,-633 575,-797 110,-105 232,-205 380,-224 44,-6 146,28 195,40 221,51 238,39 295,-122 44,-122 214,35 215,-264 0,-107 -6,-144 79,-171 70,-23 117,-28 134,-98 16,-54 15,-70 12,-128 -10,-81 -44,-174 -22,-262 68,-64 190,-47 170,-219 -12,-103 -88,-177 -133,-252 -95,-160 -6,-418 -166,-415 -88,1 -154,419 -317,658 -427,627 -888,659 -1388,867 -177,73 -359,146 -501,247 -191,134 -256,187 -406,367 -55,-106 -239,-409 -317,-442 70,-36 146,-55 295,-178 69,-58 153,-181 215,-275 319,29 358,-242 60,-304 -9,1 -29,-1 -30,-8 -5,-57 17,-168 7,-277 -6,-67 46,-77 76,-127 190,-325 351,-1081 80,-1480 -120,-178 -551,77 -725,156 -47,-24 -116,-74 -177,-108 -142,-64 -257,-110 -401,-160 -83,-30 -211,-41 -245,-55 -18,-16 -132,-282 -255,-280 -114,10 -156,145 -217,276 -142,40 -317,100 -445,158 -286,159 -163,142 -324,55 -224,-100 -617,-173 -807,-14 -66,55 -89,326 -88,447 3,655 293,737 317,1304 -316,35 -328,300 21,301 117,454 327,464 494,521 54,337 -538,115 -628,42 -112,-89 -70,-232 -149,-298 -69,-63 -95,-41 -116,-59 -58,-50 -45,-78 -95,-111 -22,3 -6,144 -6,144 -87,59 -47,169 -86,174 -29,-4 -99,10 -120,33 -44,51 -81,-4 -145,-16 -77,-14 40,107 67,135 -38,111 16,140 51,190 -66,26 -55,48 -87,53 -67,10 -115,22 -126,43 6,39 131,57 173,63 25,150 93,159 265,159 145,-26 567,177 634,357 83,249 -23,372 -71,426z"/>
     <path fill="#F3E3D8" d="M2248 6334l171 87c265,104 506,127 752,82 203,-38 393,-184 497,-347 79,-130 89,-326 89,-422 1,-441 -144,-782 -154,-1260 -34,6 -133,66 -304,98 -427,53 -771,-48 -1013,-112 -17,202 -3,376 -51,531 -60,193 -140,391 -171,588 -54,334 -11,643 184,755z"/>
     <path fill="#8AB1E5" d="M6017 3870c48,-21 100,-3 142,16 131,60 69,290 -61,333 -112,37 -202,-67 -215,-128 -26,-122 62,-191 134,-221zm936 -1307c-78,-1 -130,147 -165,249 -17,49 -41,100 -57,150 -36,113 -48,53 -20,153 32,113 0,219 -51,283 -80,100 -156,106 -265,70 -113,133 -512,358 -684,434 39,114 4,258 -128,292 -152,49 -221,-72 -251,-152 -122,23 -389,155 -525,236 -92,55 -375,251 -427,339 -57,95 -34,103 53,260 51,92 94,138 137,253 39,104 60,189 96,298 16,50 43,39 73,118 42,112 19,196 -97,166 -38,-11 -45,-33 -68,-14 5,22 99,93 122,105 18,-41 69,-113 108,-138 87,-57 98,-45 160,18 48,-62 327,-518 367,-591 62,-113 202,-278 233,-356 -39,-73 -55,-90 -46,-207 91,-329 333,-205 452,-121 55,-49 113,-95 180,-143 69,-50 173,-136 243,-200 -49,-262 125,-539 372,-469 46,-87 182,-463 190,-571 -78,50 -178,-33 -156,-110 61,-157 160,-39 193,-56 14,-7 19,-28 20,-52 6,-68 -26,-180 -59,-244z"/>
     <path fill="#5E7DA9" d="M634 4128c-20,30 -94,113 24,249 37,43 -48,49 -56,96 -19,127 44,190 72,198 128,43 139,-29 391,61 157,72 356,154 422,318 26,64 38,147 39,229 -27,163 -102,212 -91,290 7,51 10,66 13,123 125,55 86,63 163,108 48,-37 311,-452 226,3 -23,82 -32,69 -24,155 8,85 -36,124 -63,180 -17,48 32,314 34,410 54,-70 56,-154 234,-205 51,-15 146,6 149,-4 9,-28 -121,-172 -140,-278 -85,-471 72,-675 176,-1105 29,-104 45,-397 39,-511 -172,-73 -253,-269 -368,-271 -5,101 20,167 -74,197 -34,7 -67,19 -108,13 -322,-48 -458,-110 -544,-200 -42,-45 -35,-170 -85,-229 -40,-66 -237,-170 -256,56 -10,109 -131,42 -173,117z"/>
     <path fill="#8AB1E5" d="M3880 6613c-43,-123 -29,-259 13,-404 35,-107 -33,-191 34,-334 34,-71 -13,-269 89,-308 90,-35 209,97 226,148l27 7c41,-33 46,-52 47,-127 -19,-31 -19,-15 -42,-61 -56,-114 -119,-198 -186,-368 -96,-245 -101,-222 -152,-521 -28,-168 -12,-284 17,-432 -38,24 -93,94 -217,179 -25,18 -80,58 -100,76 -28,522 224,1034 128,1491 -25,116 -70,212 -131,286 -40,49 -106,98 -94,126 23,55 124,150 341,242z"/>
     <path fill="#8AB1E5" d="M989 6503c-30,-547 38,683 0,0zm-64 -530c64,-13 118,36 115,115 -3,64 -53,119 -105,126 -137,19 -176,-206 -10,-241zm678 -43c114,-63 153,159 65,193 -95,37 -185,-128 -65,-193zm-362 -142c49,-22 137,0 178,27 59,39 30,124 -18,152 -45,26 -147,16 -179,-15 -46,-45 -38,-138 19,-164zm-431 596c0,100 -11,160 13,247 57,201 303,304 487,302 253,-2 401,-146 437,-347 21,-114 -13,-254 -37,-381 -23,-161 164,-178 39,-361 -63,-56 -96,5 -148,-2 -86,-12 -61,-51 -133,-101 -106,-85 -219,-53 -268,-13 -62,56 -95,103 -139,132 -69,47 -274,-44 -301,256 -5,56 5,118 23,160 29,68 27,31 27,108z"/>
     <path fill="#8AB1E5" d="M4026 6502c-27,-89 59,-202 109,-230 52,-28 85,-20 129,-37 60,-23 66,-163 221,-104 44,17 71,24 85,65 30,89 14,41 89,79 37,19 73,48 90,88 70,164 7,249 -102,316 -45,29 -117,66 -176,61 -106,-9 -194,-9 -282,-57 -60,-33 -141,-109 -163,-181zm665 -550c115,-55 188,188 61,239 -111,44 -227,-160 -61,-239zm-613 -23c43,-20 98,56 107,101 15,74 -16,145 -82,139 -90,-7 -207,-154 -25,-240zm314 -118c141,-57 237,217 100,261 -180,58 -242,-204 -100,-261zm452 881c102,-403 -17,-352 1,-495 10,-81 43,-142 2,-238 -41,-96 -142,-75 -173,-95 -45,-31 -76,-100 -159,-111 -97,-13 -159,-7 -220,43 -136,154 -275,-65 -360,196 -13,86 8,157 -12,246 -68,179 -34,488 114,613 121,101 334,158 481,130 124,-24 304,-133 326,-289z"/>
     <path fill="#8AB1E5" d="M3115 4554c204,0 423,-72 586,-181 45,-30 164,-115 188,-161 -271,55 -476,-20 -631,-105 -270,288 -694,54 -718,-20 -159,73 -400,113 -550,103 191,323 806,364 1125,364z"/>
     <path fill="#8AB1E5" d="M3973 4708c26,173 269,820 374,824 39,1 40,-107 170,-85 52,57 24,64 52,126 99,28 34,-254 -120,-578 -120,-254 -306,-540 -428,-691 -14,-18 -27,-27 -40,-21 -41,17 -51,166 -8,425z"/>
     <path fill="#16468D" d="M6095 4345c127,5 368,143 446,75 50,-33 56,-137 77,-162 38,-45 125,-24 158,-55 74,-69 -9,-283 112,-348 57,-28 127,-21 137,-99 6,-46 -11,-188 -17,-238 -31,-250 98,-117 170,-280 49,-112 -106,-246 -145,-300 -259,908 -397,968 -938,1407z"/>
     <path fill="black" d="M1920 2853c2,-1 4,-5 4,-4 1,2 4,-3 5,-4l46 -34c-12,-50 -44,-131 4,-185 29,-34 108,-53 156,-26 103,58 82,229 -59,261l7 46c58,14 109,-17 139,-61l33 -44c28,80 25,162 9,247 -12,-7 -12,-7 -21,-16 -2,-2 -16,-20 -17,-22 -8,-19 4,-37 5,-43l-75 -38c8,-14 16,17 21,35l-55 -14c30,56 46,51 90,89 -23,76 -20,114 -53,136 -13,27 -56,50 -89,64 -65,28 -75,17 -139,9 -128,-16 -143,-92 -181,-150 -21,-23 -2,20 -17,-20 -10,-27 -4,-16 -4,-38 0,-138 -30,-329 95,-417 31,-22 77,-53 114,-55 -19,17 -39,51 -45,90 -9,49 7,66 -8,109 -19,59 3,-24 -12,23l47 62zm-296 49c-103,470 479,561 654,309 87,-148 112,-456 -32,-646 -212,-280 -530,-82 -622,337z"/>
     <path fill="#F3E3D8" d="M1461 2373c63,-163 -161,-420 -380,-501 -16,281 16,567 123,814 20,45 73,200 91,226 76,-259 85,-276 166,-539z"/>
     <path fill="#F3E3D8" d="M4542 3030c204,-166 359,-1151 181,-1201 -37,38 -150,191 -173,242 -137,239 -155,360 -75,628 18,111 49,218 67,331z"/>
     <path fill="black" d="M4387 6185c161,-12 109,76 157,118 46,41 135,21 158,113 29,118 -21,149 -81,192 -82,61 -88,55 -205,53 -112,-2 -349,-92 -309,-223 25,-81 70,-100 154,-118 90,-20 87,-67 126,-135zm-361 317c22,72 103,148 163,181 88,48 176,48 282,57 59,5 135,-29 181,-57 108,-67 167,-156 97,-320 -17,-40 -53,-69 -90,-88 -75,-38 -59,10 -89,-79 -14,-41 -64,-83 -119,-83 -176,-16 -127,99 -187,122 -44,17 -77,9 -129,37 -50,28 -136,141 -109,230z"/>
     <path fill="black" d="M3419 2531c-18,105 253,-121 280,-143 116,-98 142,-91 73,-169 -15,-21 -76,-99 -105,-63 -128,154 -238,320 -248,375z"/>
     <path fill="#051429" d="M2037 3074c21,17 32,22 21,53 -12,-10 -3,12 -13,-13 -7,-17 -6,-23 -8,-40zm-237 -163c33,-19 51,1 60,30 -32,21 -52,0 -60,-30zm-71 130c32,-9 41,-20 70,-1 -12,36 -11,27 -53,25l4 34c38,58 53,134 181,150 64,8 74,19 139,-9 33,-14 76,-37 89,-64 -38,6 -8,1 -21,-16 -12,-53 -23,-8 -52,-54 -16,-26 -15,-53 -3,-81 22,-15 22,-2 22,-54 0,-1 -5,-29 -6,-30 -11,-31 5,-7 -16,-30 3,54 11,63 -11,104 -1,2 -3,4 -4,6l-19 42c-33,4 -16,10 -63,8 -33,-1 -22,-10 -48,7 -23,26 -1,13 -35,14l-6 -39c-10,-60 5,3 12,-76l-19 15c-8,4 -4,4 -17,6l9 -107c-33,-14 -42,-25 -53,-63 51,11 30,9 69,39 7,-19 -9,-14 22,-14l-47 -62c15,-47 -7,36 12,-23 15,-43 -1,-60 8,-109 6,-39 26,-73 45,-90 -37,2 -83,33 -114,55 -125,88 -95,279 -95,417z"/>
     <path fill="#1E4E96" d="M2682 1474c101,51 382,44 454,-32 -36,-116 -132,-300 -261,-293 -83,4 -184,276 -193,325z"/>
     <path fill="#F9BDBB" d="M4736 3607c11,-147 -531,-165 -545,-43 -37,140 496,250 545,43z"/>
     <path fill="#F9BDBB" d="M1687 3497c7,-203 -596,-149 -571,6 11,161 529,89 571,-6z"/>
     <path fill="#F9BDBB" d="M2586 4100c105,160 570,144 654,-8 -225,-129 -530,-75 -654,8z"/>
     <path fill="black" d="M6179 3942c-6,146 -87,294 -209,171 -85,-85 54,-247 209,-171zm-165 -83c-72,31 -157,110 -131,232 13,61 103,165 215,128 130,-43 226,-283 67,-343 -43,-19 -103,-37 -151,-17z"/>
     <path fill="#16468D" d="M6415 4053c97,-45 300,-328 337,-435 -139,-35 -205,41 -264,104 -40,62 -100,196 -73,331z"/>
     <path fill="#16468D" d="M1066 1793c76,-1 195,-19 273,-31 72,-10 78,-148 76,-224 -201,-5 -336,20 -349,255z"/>
     <path fill="#16468D" d="M5591 4706c62,-55 226,-226 334,-286 -63,-58 -202,-98 -283,-39 -58,44 -144,218 -51,325z"/>
     <path fill="#16468D" d="M5361 4030c25,76 53,123 101,137 47,13 122,12 170,-19 56,-35 79,-112 72,-188 -20,-71 -31,-54 -130,-12 -63,26 -160,53 -213,82z"/>
     <path fill="#16468D" d="M2056 1669c34,106 415,304 304,-153 -74,25 -237,120 -304,153z"/>
     <path fill="black" d="M3466 1830c-34,-31 -53,-180 5,-176 32,2 134,42 164,54 -7,68 -103,153 -169,122zm-55 -230c-89,165 14,415 205,244 57,-50 124,-139 29,-185 -67,-32 -142,-77 -234,-59z"/>
     <path fill="black" d="M3296 2135c-7,-12 -5,1 -12,-29 -4,-14 -4,-28 -4,-43 0,-28 4,-49 10,-76 24,4 41,5 67,9 27,4 39,7 57,28 -18,46 -76,86 -118,111zm-37 -203c-44,28 -54,167 -26,230 38,89 109,20 158,-14 124,-86 100,-209 -7,-222 -25,-3 -109,-4 -125,6z"/>
     <path fill="#16468D" d="M4390 2350c15,-29 41,-129 58,-175 17,-45 43,-111 61,-153 -39,-10 -113,-34 -147,-19 -26,12 -73,65 -79,102 -9,50 83,217 107,245z"/>
     <path fill="#16468D" d="M6197 3944c-209,-186 -344,100 -259,186 48,48 108,74 156,55 75,-30 158,-182 103,-241z"/>
     <path fill="black" d="M4494 5910c7,48 15,84 -32,93 -43,7 -67,-3 -77,-39 -32,-114 58,-92 109,-54zm-102 -99c-142,57 -80,319 100,261 137,-44 41,-318 -100,-261z"/>
     <path fill="black" d="M970 6021c3,72 0,129 -75,112 -12,-40 -9,-34 -2,-77l77 -35zm-45 -48c-166,35 -127,260 10,241 52,-7 102,-62 105,-126 3,-79 -51,-128 -115,-115z"/>
     <path fill="black" d="M4677 6100c-5,-51 3,-63 36,-82 24,10 49,40 60,60 -19,64 -60,60 -96,22zm14 -148c-166,79 -50,283 61,239 127,-51 54,-294 -61,-239z"/>
     <path fill="#0C3266" d="M2012 2894c16,24 22,45 17,86 -120,98 -146,-116 -17,-86zm-92 -41c-31,0 -15,-5 -22,14 -9,39 5,13 -16,24l-9 107c13,-2 9,-2 17,-6l19 -15c-7,79 -22,16 -12,76l31 -12 10 37c26,-17 15,-8 48,-7 47,2 30,-4 63,-8l19 -42c1,-2 3,-4 4,-6 22,-41 14,-50 11,-104l0 -4 6 -46c-64,2 -80,-18 -114,-50l-46 34c-1,1 -4,6 -5,4 0,-1 -2,3 -4,4z"/>
     <path fill="black" d="M4049 6048c10,-32 46,-61 77,-64 17,48 16,75 -6,111 -32,-8 -56,-22 -71,-47zm29 -119c-182,86 -65,233 25,240 66,6 97,-65 82,-139 -9,-45 -64,-121 -107,-101z"/>
     <path fill="#041224" d="M2116 3013c40,11 61,15 63,53 -52,5 -46,-26 -63,-53zm-33 -106l0 4c21,23 5,-1 16,30 1,1 6,29 6,30 0,52 0,39 -22,54 39,40 63,67 88,123 -20,25 6,7 -33,12 13,17 -17,22 21,16 33,-22 30,-60 53,-136 -44,-38 -60,-33 -90,-89l55 14c-5,-18 -13,-49 -21,-35l75 38c-1,6 -13,24 -5,43 1,2 15,20 17,22 9,9 9,9 21,16 16,-85 19,-167 -9,-247l-33 44c-30,44 -81,75 -139,61z"/>
     <path fill="#16468D" d="M3466 1830c66,31 162,-54 169,-122 -30,-12 -132,-52 -164,-54 -58,-4 -39,145 -5,176z"/>
     <path fill="#250909" d="M4008 5819c38,-2 68,-17 108,-25 63,-13 59,4 101,-32 -11,-29 -35,-50 -60,-69 -103,-82 -153,-113 -149,126z"/>
     <path fill="#15458A" d="M6679 3075c-52,133 -224,326 -269,374 114,52 214,-33 245,-82 64,-100 51,-208 24,-292z"/>
     <path fill="black" d="M3020 3537c44,55 232,87 246,-3 15,-94 -200,-66 -246,3z"/>
     <path fill="#250909" d="M4377 5678l137 11c12,-61 5,-133 -26,-181 -67,0 -109,89 -111,170z"/>
     <path fill="#1B4B92" d="M4150 1692c135,132 255,143 241,-92l-228 87 -13 5z"/>
     <path fill="#16468D" d="M4651 1688c-5,-43 -24,-83 -46,-110 -52,23 -107,53 -82,141 26,94 103,12 128,-31z"/>
     <path fill="#184689" d="M1770 1619c-42,-28 -114,-41 -169,-48 12,44 34,106 69,120 47,19 89,-45 100,-72z"/>
     <path fill="#184689" d="M3296 2135c42,-25 100,-65 118,-111 -18,-21 -30,-24 -57,-28 -26,-4 -43,-5 -67,-9 -6,27 -10,48 -10,76 0,15 0,29 4,43 7,30 5,17 12,29z"/>
     <path fill="#F1E1D7" d="M4528 5899c-34,-118 -241,-103 -185,92 17,61 58,78 130,65 80,-14 68,-76 55,-157z"/>
     <path fill="#010202" d="M2012 2894c-129,-30 -103,184 17,86 5,-41 -1,-62 -17,-86z"/>
     <path fill="#184689" d="M3249 1578c21,-8 24,-9 36,-39 14,-31 12,-42 8,-78l-95 -28 51 145z"/>
     <path fill="#F1E1D7" d="M4720 6183c37,4 79,-34 85,-72 14,-85 -35,-165 -103,-144 -69,23 -76,93 -71,129 8,58 54,82 89,87z"/>
     <path fill="#F1E1D7" d="M853 6037c-25,46 -32,120 22,146 123,56 200,-124 106,-181 -60,-26 -105,0 -128,35z"/>
     <path fill="#EFE0D5" d="M3999 6068c16,33 52,100 126,81 55,-4 76,-145 -6,-188 -70,-30 -136,43 -120,107z"/>
     <path fill="#010202" d="M2138 3160c39,-5 13,13 33,-12 -25,-56 -49,-83 -88,-123 -12,28 -13,55 3,81 29,46 40,1 52,54z"/>
     <path fill="#1B4B92" d="M1217 1064c34,-6 35,-22 42,-56 -42,-20 -2,7 -36,-39 -14,35 -21,61 -6,95z"/>
     <path fill="#03060A" d="M1729 3041c0,22 -6,11 4,38 15,40 -4,-3 17,20l-4 -34c42,2 41,11 53,-25 -29,-19 -38,-8 -70,1z"/>
     <path fill="#020205" d="M1882 2891c21,-11 7,15 16,-24 -39,-30 -18,-28 -69,-39 11,38 20,49 53,63z"/>
     <path fill="#020205" d="M1800 2911c8,30 28,51 60,30 -9,-29 -27,-49 -60,-30z"/>
     <path fill="#020205" d="M2116 3013c17,27 11,58 63,53 -2,-38 -23,-42 -63,-53z"/>
     <path fill="#D6E1F2" d="M1897 3053l6 39c34,-1 12,12 35,-14l-10 -37 -31 12z"/>
     <path fill="#03060A" d="M2058 3127c11,-31 0,-36 -21,-53 2,17 1,23 8,40 10,25 1,3 13,13z"/>
     <path fill="#A49C99" d="M346 7545c-42,9 -10,5 -22,-7 11,-11 0,-5 22,-7 -12,-11 19,-19 -24,-8 -6,20 -7,10 0,30 42,11 12,4 24,-8z"/>
     <path fill="#2B2A35" d="M7069 4865c18,13 -23,10 23,11 -11,-31 7,-6 -12,-18 -35,-23 2,-3 -11,7z"/>
     <path fill="#181718" d="M346 7545l0 -14c-22,2 -11,-4 -22,7 12,12 -20,16 22,7z"/>
     <path fill="#46536B" d="M4269 5722l-27 -7c20,40 25,8 27,7z"/>
     <path fill="black" d="M2450 2139c-35,-31 -53,-180 5,-176 31,2 134,43 164,54 -7,68 -104,153 -169,122zm-55 -229c-90,164 13,414 205,243 56,-50 123,-138 28,-184 -67,-33 -141,-78 -233,-59z"/>
     <path fill="#16468D" d="M2450 2139c65,31 162,-54 169,-122 -30,-11 -133,-52 -164,-54 -58,-4 -40,145 -5,176z"/>
     <path fill="black" d="M2499 1607c-7,-10 -5,1 -11,-25 -3,-12 -3,-25 -3,-37 0,-25 3,-43 8,-67 21,3 37,5 60,8 23,3 33,5 49,24 -16,40 -66,76 -103,97zm-55 24c33,77 95,17 138,-13 62,-113 62,-203 -6,-194 -105,20 -202,48 -132,207z"/>
     <path fill="#184689" d="M2481 1634c37,-21 72,-25 117,-123 42,-85 -63,-46 -111,-28 -97,57 -15,136 -6,151z"/>
     <path fill="black" d="M2373 2467c18,105 -252,-121 -280,-143 -116,-99 -142,-92 -73,-169 15,-21 76,-99 106,-63 127,154 237,320 247,375z"/>
     <circle fill="#332C2B" stroke="#332C2B" stroke-width="10.2741" cx="1980" cy="2945" r="69"/>
     <circle fill="#ECF6F3" stroke="#332C2B" stroke-width="10.2741" cx="2082" cy="2724" r="138"/>
     <circle fill="#ECF6F3" stroke="#332C2B" stroke-width="10.2741" cx="1918" cy="3068" r="32"/>
     <path fill="black" d="M3702 2880c1,-1 3,-6 4,-4 1,1 3,-3 4,-4l47 -35c-12,-50 -44,-131 3,-185 30,-34 109,-53 156,-26 103,58 83,230 -58,262l6 45c59,14 109,-16 140,-61l33 -44c27,80 24,163 8,247 -11,-7 -11,-6 -21,-16 -2,-2 -15,-19 -16,-22 -9,-19 4,-36 4,-43l-74 -38c8,-13 15,18 21,36l-55 -14c29,56 45,50 90,88 -23,77 -21,115 -53,137 -13,26 -56,49 -90,64 -65,28 -74,16 -138,8 -129,-16 -143,-91 -182,-150 -20,-22 -2,20 -16,-20 -10,-26 -4,-15 -4,-38 0,-138 -30,-328 94,-416 32,-22 77,-53 114,-55 -19,17 -38,51 -45,89 -8,50 7,67 -7,110 -19,58 2,-25 -12,23l47 62zm-296 48c-103,470 479,562 654,309 86,-147 112,-456 -32,-646 -212,-279 -530,-82 -622,337z"/>
     <path fill="#051429" d="M3818 3100c21,17 33,22 21,54 -11,-10 -3,11 -13,-14 -6,-16 -5,-23 -8,-40zm-236 -162c32,-20 50,1 59,29 -31,22 -52,0 -59,-29zm-71 129c32,-9 41,-20 69,-1 -11,36 -10,28 -53,26l4 33c39,59 53,134 182,150 64,8 73,20 138,-8 34,-15 77,-38 90,-64 -39,6 -8,0 -21,-17 -13,-52 -24,-7 -52,-53 -17,-27 -15,-53 -3,-82 22,-14 22,-1 22,-54 0,-1 -6,-28 -6,-30 -11,-31 4,-6 -16,-29 3,53 10,62 -11,104 -1,1 -3,4 -4,5l-20 42c-33,4 -16,11 -62,9 -33,-2 -23,-11 -48,7 -23,25 -1,12 -35,13l-6 -39c-10,-59 5,3 12,-75l-20 14c-7,4 -4,4 -16,6l9 -106c-34,-14 -43,-25 -53,-64 51,11 29,9 68,39 8,-18 -8,-13 23,-13l-47 -62c14,-48 -7,35 12,-23 14,-43 -1,-60 7,-110 7,-38 26,-72 45,-89 -37,2 -82,33 -114,55 -124,88 -94,278 -94,416z"/>
     <path fill="#0C3266" d="M3794 2920c16,24 21,45 16,86 -120,99 -145,-116 -16,-86zm-92 -40c-31,0 -15,-5 -23,13 -8,40 5,13 -15,25l-9 106c12,-2 9,-2 16,-6l20 -14c-7,78 -22,16 -12,75l30 -12 11 38c25,-18 15,-9 48,-7 46,2 29,-5 62,-9l20 -42c1,-1 3,-4 4,-5 21,-42 14,-51 11,-104l-1 -5 7 -45c-64,2 -81,-18 -114,-51l-47 35c-1,1 -3,5 -4,4 -1,-2 -3,3 -4,4z"/>
     <path fill="#041224" d="M3898 3040c39,10 60,14 62,53 -51,4 -45,-27 -62,-53zm-34 -107l1 5c20,23 5,-2 16,29 0,2 6,29 6,30 0,53 0,40 -22,54 39,40 63,67 88,124 -21,24 6,6 -33,11 13,17 -18,23 21,17 32,-22 30,-60 53,-137 -45,-38 -61,-32 -90,-88l55 14c-6,-18 -13,-49 -21,-36l74 38c0,7 -13,24 -4,43 1,3 14,20 16,22 10,10 10,9 21,16 16,-84 19,-167 -8,-247l-33 44c-31,45 -81,75 -140,61z"/>
     <path fill="#010202" d="M3794 2920c-129,-30 -104,185 16,86 5,-41 0,-62 -16,-86z"/>
     <path fill="#010202" d="M3920 3186c39,-5 12,13 33,-11 -25,-57 -49,-84 -88,-124 -12,29 -14,55 3,82 28,46 39,1 52,53z"/>
     <path fill="#03060A" d="M3511 3067c0,23 -6,12 4,38 14,40 -4,-2 16,20l-4 -33c43,2 42,10 53,-26 -28,-19 -37,-8 -69,1z"/>
     <path fill="#020205" d="M3664 2918c20,-12 7,15 15,-25 -39,-30 -17,-28 -68,-39 10,39 19,50 53,64z"/>
     <path fill="#020205" d="M3582 2938c7,29 28,51 59,29 -9,-28 -27,-49 -59,-29z"/>
     <path fill="#020205" d="M3898 3040c17,26 11,57 62,53 -2,-39 -23,-43 -62,-53z"/>
     <path fill="#D6E1F2" d="M3679 3079l6 39c34,-1 12,12 35,-13l-11 -38 -30 12z"/>
     <path fill="#03060A" d="M3839 3154c12,-32 0,-37 -21,-54 3,17 2,24 8,40 10,25 2,4 13,14z"/>
     <circle fill="#332C2B" stroke="#332C2B" stroke-width="10.2741" cx="3762" cy="2971" r="69"/>
     <circle fill="#ECF6F3" stroke="#332C2B" stroke-width="10.2741" cx="3863" cy="2750" r="138"/>
     <circle fill="#ECF6F3" stroke="#332C2B" stroke-width="10.2741" cx="3699" cy="3094" r="32"/>
     <path fill="none" stroke="#332C2B" stroke-width="10.2741" d="M2494 3432c0,0 393,-281 883,2"/>
     <path fill="black" d="M2859 3537c-44,55 -231,87 -246,-3 -15,-94 200,-66 246,3z"/>
     <ellipse fill="#16468D" cx="6890" cy="2933" rx="81" ry="85"/>
     <path fill="#F3E3D8" d="M4388 6137c-102,40 -30,113 -134,136 -98,22 -173,48 -200,166 -47,152 218,270 349,273 154,3 396,-81 342,-299 -26,-107 -109,-88 -162,-135 -56,-50 -57,-187 -195,-141z"/>
     <path fill="black" d="M1417 5884c-68,41 -126,67 -149,-14 33,-34 29,-27 74,-44l75 58zm23 -70c-121,-144 -320,13 -229,137 34,47 113,67 178,36 78,-38 98,-117 51,-173z"/>
     <path fill="#F1E1D7" d="M1340 5778c-59,0 -135,31 -131,98 10,149 226,130 232,8 -5,-72 -54,-102 -101,-106z"/>
     <path fill="black" d="M1579 6059c-5,-51 4,-63 36,-82 25,10 49,40 61,60 -19,64 -61,60 -97,22zm14 -148c-165,79 -49,283 61,239 127,-51 54,-294 -61,-239z"/>
     <path fill="#F1E1D7" d="M1623 6142c36,4 78,-34 84,-72 14,-85 -34,-165 -103,-145 -69,24 -76,94 -71,129 9,59 54,83 90,88z"/>
     <path fill="black" d="M1304 6178c161,-12 109,75 157,118 46,41 135,21 158,112 29,119 -22,149 -81,193 -83,60 -88,55 -205,53 -112,-2 -349,-92 -309,-223 25,-81 70,-100 154,-119 90,-20 87,-66 126,-134zm-361 317c22,71 103,147 163,181 88,48 176,48 282,57 59,5 135,-29 181,-58 108,-67 167,-156 97,-319 -17,-40 -53,-70 -90,-88 -75,-38 -59,10 -89,-79 -14,-41 -64,-83 -119,-83 -176,-16 -128,99 -187,121 -44,17 -77,9 -129,38 -51,27 -136,140 -109,230z"/>
     <path fill="#F3E3D8" d="M1305 6129c-102,41 -30,113 -134,137 -98,21 -173,48 -200,166 -47,152 218,270 349,272 154,3 396,-80 342,-298 -26,-107 -109,-89 -162,-136 -56,-49 -57,-186 -195,-141z"/>
     <path fill="black" d="M825 4564c-57,34 -105,56 -124,-12 27,-28 24,-23 62,-36l62 48zm19 -58c-101,-121 -267,10 -191,114 28,39 95,56 148,30 66,-32 82,-98 43,-144z"/>
     <path fill="#F1E1D7" d="M760 4475c-48,0 -112,27 -109,82 8,125 189,109 194,7 -4,-60 -45,-86 -85,-89z"/>
     <path fill="black" d="M755 4167c-8,53 -20,94 -71,71 -4,-31 -2,-27 9,-57l62 -14zm-26 -41c-126,0 -131,170 -28,176 39,3 83,-29 95,-76 14,-56 -18,-100 -67,-100z"/>
     <path fill="#F1E1D7" d="M667 4161c-25,30 -41,83 -6,110 81,59 164,-61 105,-116 -40,-28 -77,-16 -99,6z"/>
     <path fill="black" d="M994 4063c-53,0 -95,-5 -79,-60 30,-8 26,-5 57,1l22 59zm38 -31c-18,-125 -187,-105 -179,-3 3,39 41,78 89,83 58,6 97,-32 90,-80z"/>
     <path fill="#F1E1D7" d="M988 3976c-34,-21 -88,-29 -109,10 -47,88 83,153 129,86 22,-43 5,-77 -20,-96z"/>
     <path fill="black" d="M859 4342c13,-87 53,-49 82,-69 27,-19 27,-69 78,-70 67,-1 77,29 93,66 22,51 18,53 3,115 -15,59 -91,174 -155,137 -40,-23 -45,-50 -45,-96 1,-50 -24,-54 -56,-83zm125 229c40,-3 90,-36 115,-65 36,-40 47,-87 64,-142 10,-31 1,-75 -8,-102 -23,-66 -63,-108 -158,-91 -23,5 -43,20 -57,38 -29,35 -2,32 -53,37 -23,3 -52,24 -58,53 -30,92 37,80 42,114 3,26 -5,42 4,73 9,30 58,89 109,85z"/>
     <path fill="#F3E3D8" d="M834 4336c9,59 56,29 56,87 0,54 4,97 64,126 75,43 169,-83 186,-152 20,-82 5,-220 -117,-217 -60,1 -60,47 -91,69 -33,24 -106,8 -98,87z"/>
     <path fill="#E9D0A2" d="M2103 5402c-39,177 -267,922 422,1057 0,0 -250,-387 -306,-546 -55,-158 -116,-511 -116,-511z"/>
     <path fill="#E9D0A2" d="M3429 4539c0,0 -330,144 -1143,-79 0,0 -16,360 -41,492 -24,133 388,-202 1184,-413z"/>
     <path fill="#5E7DA9" d="M4943 4203c0,0 -509,687 -352,984 156,298 -275,-508 -275,-508 0,0 247,-316 627,-476z"/>
     <path fill="#5E7DA9" d="M2408 4136c0,0 -141,33 -414,38 -51,1 108,196 308,270 209,78 -72,-115 106,-308z"/>
     <path fill="#E9D0A2" d="M1468 2351c63,-163 -170,-410 -390,-491 -4,70 -3,132 0,201 165,72 331,233 363,376 8,-26 17,-54 27,-86z"/>
     <path fill="#E9D0A2" d="M4542 3030l1 -1 -5 -25c1,9 3,17 4,26zm258 -994c-5,-113 -29,-193 -77,-207 -37,38 -150,191 -173,242 -132,231 -154,352 -83,601 -16,-147 21,-258 119,-430 23,-51 136,-204 173,-242 17,5 30,17 41,36zm-293 820l7 32c-1,-6 -2,-12 -3,-19l-4 -13z"/>
     <path fill="#5E7DA9" d="M3905 6160c-14,-2 -120,226 -272,315 0,0 218,158 247,138 14,-11 -10,-114 -8,-220 2,-116 32,-233 33,-233z"/>
    </g>
   </g>
  </g>
  <path fill="none" d="M2915 380c1400,0 2534,1135 2534,2535 0,1400 -1134,2534 -2534,2534 -1400,0 -2535,-1134 -2535,-2534 0,-1400 1135,-2535 2535,-2535z"/>
 </g>
</svg>
