<?xml version="1.0" encoding="UTF-8"?>
<!DOCTYPE svg PUBLIC "-//W3C//DTD SVG 1.1//EN" "http://www.w3.org/Graphics/SVG/1.1/DTD/svg11.dtd">
<!-- Creator: CorelDRAW X7 -->
<svg xmlns="http://www.w3.org/2000/svg" xml:space="preserve" width="12.9008mm" height="12.9008mm" version="1.1" shape-rendering="geometricPrecision" text-rendering="geometricPrecision" image-rendering="optimizeQuality" fill-rule="evenodd" clip-rule="evenodd"
viewBox="0 0 34 34"
 xmlns:xlink="http://www.w3.org/1999/xlink">
 <defs>
    <clipPath id="id0">
     <path d="M0 0l34 0 0 34 -34 0 0 -34z"/>
    </clipPath>
   <clipPath id="id1">
    <path d="M17 2c8,0 15,7 15,15 0,8 -7,15 -15,15 -8,0 -15,-7 -15,-15 0,-8 7,-15 15,-15z"/>
   </clipPath>
 </defs>
 <g id="圖層_x0020_1">
  <metadata id="CorelCorpID_0Corel-Layer"/>
  <g id="_805868240">
   <g clip-path="url(#id0)">
    <image x="0" y="0" width="33.9003" height="33.9003" xlink:href="地圖上的寵物3_Images\地圖上的寵物3_ImgID1.png"/>
   </g>
  </g>
  <path fill="#FEFEFE" d="M17 2c8,0 15,7 15,15 0,8 -7,15 -15,15 -8,0 -15,-7 -15,-15 0,-8 7,-15 15,-15z"/>
  <g clip-path="url(#id1)">
   <g id="_805868216">
    <g>
     <path id="1" fill="#C7A770" d="M13 28l0 0c-1,0 -1,1 -1,1 0,1 -1,1 -1,1 0,1 0,0 1,1l0 0 0 0 0 0c-1,0 -1,3 0,3 0,0 1,0 1,0 0,0 1,0 1,0 0,-1 0,-4 0,-4 0,0 0,2 0,3 1,1 1,1 0,2 0,0 3,0 3,0 0,-1 0,-3 1,-3l0 1 1 0 0 -1 0 0c0,0 0,2 0,3 1,0 3,0 3,-1 0,-1 0,-1 0,-2 0,0 0,-2 0,-2 0,0 0,2 0,2 0,1 0,1 0,2 0,0 1,0 1,1 0,0 1,-1 2,-1 0,0 0,0 0,-1 1,-2 -1,-2 -2,-2 0,-1 1,-1 1,0 1,0 1,0 1,0l0 -2c1,-1 1,0 1,-1 0,0 -1,0 0,0 0,-1 0,0 0,-1 -1,0 -1,0 -1,0l1 0c0,-1 -1,-1 -1,-1 -1,0 -2,1 -3,1 -1,1 -2,1 -3,1 0,1 0,1 0,1 0,1 0,1 0,1 -1,0 0,-1 0,-1l-1 0 0 1 0 1c0,0 0,-1 0,-1 0,0 0,0 0,-1l-1 0c0,0 0,1 0,1 0,0 0,0 0,0 0,-1 0,0 0,-1 0,0 0,-1 0,-1l-4 0z"/>
     <path fill="#E9D4A3" d="M11 26c0,1 1,1 2,1 1,0 4,0 5,0 2,0 3,-1 4,-1 2,-1 3,-2 3,-4 0,-6 -2,-6 -8,-5 -1,0 -1,0 -2,0 0,0 0,0 -1,1 -5,2 -6,3 -3,8z"/>
     <path fill="#C7A770" d="M10 17c0,0 1,0 0,0 0,0 0,0 0,1 -1,0 -1,0 -1,0 0,0 0,0 0,-1 0,0 0,0 1,0zm13 -2c0,0 1,0 1,0 1,1 0,1 0,1 -1,1 -1,0 -1,0 0,0 -1,0 -1,0 0,-1 1,-1 1,-1zm-15 7c0,1 2,4 3,4l0 1c0,-1 -1,-2 -1,-3 0,0 -1,0 -1,0 0,-1 0,-1 0,-1 1,0 1,0 1,-1 0,0 -1,-1 -1,-1 0,-3 2,-4 4,-4 1,1 1,1 1,0 1,0 1,0 2,0 1,0 2,0 3,0 1,0 1,0 2,0 1,-1 3,-1 4,1 0,0 0,1 0,1 0,1 0,2 0,2 0,0 1,0 1,0 0,1 -1,1 -1,1 0,1 0,1 -1,2 1,0 2,-1 2,-2 1,0 1,0 1,-1 -1,0 -1,0 -1,0 0,0 0,0 0,0 0,0 0,0 -1,-1 0,0 1,-2 0,-4 0,-1 0,-2 0,-2l1 1c0,-1 0,-1 -1,-1 0,0 1,0 1,0 -1,0 -1,0 -1,0 -1,-1 -1,-1 -1,-2 0,0 -1,-1 -1,-1 -2,1 -3,3 -7,3 0,1 0,2 -1,1l0 0c-1,0 -2,0 -3,1 -1,0 -2,0 -2,0 -1,0 -2,0 -3,0 0,0 1,1 0,1l0 0 0 1 0 0c0,0 1,1 1,2 0,0 1,0 1,1 0,0 0,1 -1,1z"/>
     <path fill="#C7A770" d="M33 23c-1,1 -2,2 -2,3 0,0 0,0 0,1 -1,1 -1,2 -2,2 0,1 -2,1 -2,2 -1,0 -1,0 -1,0l0 1c0,0 0,0 0,0 2,-1 5,-2 6,-3 1,0 2,-2 2,-3 0,0 0,-1 0,-2 0,0 1,-1 1,-1 0,-1 0,-3 0,-4 -1,-1 -1,-2 -3,-2 0,1 -1,2 -1,3 0,1 0,2 1,2 0,1 1,1 1,1l0 0z"/>
     <path fill="#EECC49" d="M15 10c0,-1 0,-1 -1,-1 0,-1 0,-1 0,-2 -2,1 -2,4 -1,4 0,0 -1,-1 -2,-1 0,-1 0,-1 0,-1 -1,0 -1,0 -1,1 0,0 0,1 0,2 1,1 2,1 2,2l0 0c1,0 3,-1 3,-1 0,0 1,1 1,1 1,0 1,-1 1,-2 0,0 1,0 1,0 1,-1 1,-3 1,-4 0,-1 -2,-2 -3,-1 -1,1 -1,2 0,3l-1 0z"/>
     <path fill="#C7A770" d="M36 27c0,0 -1,1 -2,1 0,0 -1,1 -1,1 -2,1 -3,1 -4,2 0,0 -1,1 -1,1 0,0 -1,0 0,0 1,0 2,0 3,0 1,0 1,0 2,-1 2,-1 4,-4 4,-6 0,-3 -3,-2 -3,0 0,2 2,1 2,2z"/>
     <path fill="#C7A770" d="M29 23c0,1 0,1 0,1 -1,0 -1,0 -1,1 0,1 0,2 -1,4 0,0 0,1 0,1 0,0 2,-1 2,-1 1,-1 0,-3 1,-4 0,-1 0,-3 0,-4 0,0 -1,-2 -1,-2 -2,0 -3,5 1,4 0,0 -1,0 -1,0z"/>
     <path fill="#050502" d="M23 19c0,1 1,1 0,2 0,0 -1,1 -2,0 -1,-1 0,-2 1,-2l0 0c0,0 1,-1 1,0 0,0 0,0 0,0zm-1 -2c-3,0 -3,5 0,5 3,-1 3,-5 0,-5z"/>
     <path fill="#050502" d="M13 20l0 1c0,1 -1,2 -2,1 -1,-1 0,-3 1,-2l0 0c0,-1 1,-1 1,-1 0,0 0,1 0,1zm-3 0c0,3 4,3 4,0 0,-3 -4,-3 -4,0z"/>
     <path fill="#C7A770" d="M25 11c0,0 0,0 0,-1 -1,1 -1,1 -1,1 0,0 0,0 -1,0 1,0 1,1 1,1 1,1 1,1 1,1 2,0 4,0 4,-3 0,0 -1,0 -2,0 0,1 -1,1 -1,1 0,0 0,0 0,0 -1,0 -1,0 -1,0z"/>
     <path fill="#EECC49" d="M33 17c0,0 1,1 1,1 2,2 1,4 1,5 0,0 1,0 1,0 0,0 1,-1 1,-1 0,-1 0,-2 0,-3 0,-1 0,-1 -1,-2 -1,0 -2,0 -3,0z"/>
     <path fill="#EECC49" d="M32 32c2,0 4,-2 5,-4 0,-1 1,-1 1,-3 1,-1 0,-2 -1,-2 0,1 0,0 0,1 0,2 0,3 -1,4 -1,2 -3,3 -4,4z"/>
     <path fill="#F1E7D1" d="M10 20c0,-3 4,-3 4,0 0,3 -4,3 -4,0zm4 -2c-1,-1 -2,-1 -2,-1 -1,1 -2,1 -2,1 -1,1 -1,2 -1,3 0,0 1,1 1,1 2,3 7,0 4,-4z"/>
     <path fill="#C7A770" d="M3 18c0,-1 1,-2 2,-2 0,0 1,0 1,0 0,-1 0,-2 1,-3 0,0 0,0 0,0l-2 0c1,0 1,1 1,1l-1 0c0,0 1,0 1,0l-5 2c0,1 1,1 2,2z"/>
     <path fill="#F1E7D1" d="M22 17c3,0 3,4 0,5 -3,0 -3,-5 0,-5zm-3 1c-1,2 2,5 5,4 0,-1 1,-1 1,-2 0,-1 0,-2 -1,-2 -1,-2 -4,-2 -5,0z"/>
     <path fill="#EECC49" d="M29 19c0,0 1,0 1,1 0,1 0,2 0,3 -1,2 0,2 0,4 0,0 0,1 0,1 0,0 0,-2 1,-2 0,-1 -1,-1 0,-2 0,0 0,-1 0,-1 0,-2 0,-2 0,-3 0,-1 0,-1 -1,-1 0,0 -1,-1 -1,0z"/>
     <path fill="#765811" d="M7 13c0,0 0,0 0,0 -1,1 -1,2 -1,3 0,0 -1,0 -1,0 -1,0 -2,1 -2,2l1 0c0,0 0,0 1,-1 0,0 0,0 0,0 1,0 1,0 2,0l0 -1 0 0c-1,-1 0,-1 0,-2 1,0 0,0 1,0 0,-1 0,-2 1,-2l-2 1z"/>
     <path fill="#765811" d="M14 34c0,0 -1,0 -1,0 0,0 -1,0 -1,0 -1,0 -1,-3 0,-3 -1,0 -1,0 -2,0 0,1 0,1 0,2 0,0 0,0 1,1 0,0 -1,0 -1,0 0,1 0,0 0,1 0,0 0,0 0,0l1 0c0,0 0,0 1,0 0,0 0,0 1,0 0,0 0,0 0,0 1,0 1,-1 1,-1z"/>
     <path fill="#EECC49" d="M19 27l0 1c1,0 2,-1 3,-1 1,0 2,-1 3,-1 0,-1 0,-1 -1,-1 0,-1 0,0 -1,0 -1,1 -2,2 -4,2z"/>
     <path fill="#C7A770" d="M36 23l2 0c0,-1 0,-2 0,-3 0,0 -1,-2 -1,-2 0,1 0,2 0,4 0,0 -1,1 -1,1z"/>
     <path fill="#EECC49" d="M15 14c0,0 0,-1 0,0 -2,0 -4,1 -6,1 0,0 -1,-1 -2,0 -2,1 7,0 8,-1z"/>
     <path fill="#EECC49" d="M17 27c-1,0 -4,1 -6,0 0,0 0,0 0,0 0,0 -1,0 -1,0 0,1 3,1 4,1 0,0 2,0 3,0 0,0 0,0 0,0 0,0 0,0 0,-1z"/>
     <path fill="#C7A770" d="M34 32c1,0 2,-2 3,-3 0,0 1,-1 1,-1 0,-1 1,-2 1,-3 -1,0 -1,2 -2,4 -1,0 -1,1 -2,1 0,1 -1,1 -1,2z"/>
     <path fill="#EECC49" d="M17 14c0,0 3,-1 3,-2 1,0 3,-1 3,-2 -1,0 -2,1 -2,1 0,0 -2,1 -3,2 0,0 -1,0 -1,1z"/>
     <path fill="#F92F0B" d="M16 14c1,0 4,-1 4,-1 1,0 3,-2 3,-2 0,-1 -1,0 -1,1 -2,0 -2,1 -4,1 0,1 -2,1 -2,1z"/>
     <path fill="#765811" d="M12 31c-1,-1 -1,0 -1,-1 0,0 1,0 1,-1 0,0 0,-1 1,-1l-3 0 0 0c0,0 1,0 0,1 0,0 0,0 0,0l0 0c1,2 1,1 1,1 0,0 0,0 0,1l1 0z"/>
     <path fill="#F92F0B" d="M15 13c0,0 -2,1 -4,1 -1,-1 0,-1 -1,0 -1,0 -3,0 -2,0 0,0 0,0 0,0 2,0 2,0 3,0 1,0 4,0 4,-1z"/>
     <path fill="#765811" d="M11 26c-1,0 -3,-3 -3,-4l0 0c0,0 0,0 0,0l0 1c0,0 0,0 0,0 1,1 0,1 1,2 1,1 1,1 2,1z"/>
     <path fill="#F92F0B" d="M7 15c-1,1 8,0 8,0 1,-1 -1,0 -1,0 -3,0 -2,0 -5,0 -1,0 -2,0 -2,0z"/>
     <polygon fill="#765811" points="18,33 18,35 19,35 19,35 19,33 "/>
     <path fill="#765811" d="M31 27c0,0 0,-1 0,-1 0,-1 1,-3 2,-3l-2 -1c-1,2 0,3 0,5z"/>
     <path fill="#765811" d="M8 14c0,0 2,-1 2,-1 0,-1 0,-1 0,-2 -1,1 -2,2 -2,3z"/>
     <path fill="#604819" d="M23 21l0 -1c0,0 -1,1 -1,0 -1,1 -1,0 0,0 -1,0 0,-1 0,-1l0 0c-1,0 -2,1 -1,2 1,1 2,0 2,0z"/>
     <path fill="#EEAB97" d="M4 18c1,1 2,0 3,0 -1,0 -1,0 0,-1l0 0 0 0c-1,0 -1,0 -1,0 -1,1 -1,0 -2,1z"/>
     <path fill="#765811" d="M23 35c0,0 0,0 0,0 1,1 2,-1 3,0 0,0 0,0 0,0 0,-1 -2,0 -1,-1 -1,0 -2,1 -2,1z"/>
     <path fill="#604819" d="M13 21c0,0 0,0 0,0 -1,0 -1,0 -1,0 0,0 0,0 -1,0l1 0c-1,0 0,-1 0,-1 0,0 0,0 0,0 -1,-1 -2,1 -1,2 1,1 2,0 2,-1z"/>
     <path fill="#F92F0B" d="M17 13c1,0 4,-2 5,-3 -1,0 -1,1 -2,1 -1,1 -1,1 -2,1 -1,0 -1,0 -1,1z"/>
     <path fill="#765811" d="M14 35c-1,0 -1,0 -1,0 1,1 0,0 1,1l1 0c1,0 1,-1 1,-1 1,0 1,1 1,1l0 -1c0,0 -3,0 -3,0z"/>
     <path fill="#B99757" d="M19 12c0,-1 1,-1 2,-2 0,0 1,0 0,0 -1,-1 -1,-1 -2,-1 0,2 0,2 0,3z"/>
     <path fill="#251D0D" d="M22 19l0 0c0,0 -1,1 0,1 0,0 0,0 0,0 0,1 1,0 1,0l0 1c1,-1 0,-1 0,-2 0,0 0,1 0,0 -1,0 -1,0 -1,0l0 0z"/>
     <path fill="#ED927E" d="M25 14c0,0 0,0 1,0l-1 0c1,1 1,1 0,1l0 0c1,0 2,-2 3,-3 -1,1 -1,1 -2,1 0,0 -1,0 -1,1z"/>
     <path fill="#765811" d="M19 35c0,1 0,1 1,1 1,-1 2,-1 2,-1 0,0 0,0 0,0 0,0 1,0 1,0l-1 -1c0,1 -2,1 -3,1z"/>
     <path fill="#F09D25" d="M12 14c-1,-2 -2,-2 -2,-4 0,0 0,1 0,1 0,1 1,2 2,3z"/>
     <path fill="#251D0D" d="M12 21c0,0 0,0 0,0 0,0 0,0 1,0 0,0 0,0 0,0l0 -1c0,0 0,0 0,0 -1,0 -1,0 -1,0l0 0c0,0 0,0 0,0 0,0 -1,1 0,1z"/>
     <path fill="#765811" d="M28 26c0,0 0,-1 1,-2 0,-1 0,0 -1,-1 0,0 -1,1 -1,2l1 1z"/>
     <path fill="#F09D25" d="M11 9c0,0 0,0 0,1 1,0 1,1 2,0 -1,0 -1,0 -1,-1 0,0 0,0 -1,0z"/>
     <path fill="#F09D25" d="M14 7c0,1 0,1 0,2 1,0 1,0 1,1 0,-1 0,-1 0,-2 0,0 0,0 0,-1 0,0 -1,0 -1,0z"/>
     <path fill="#E9D4A3" d="M18 28c0,-1 1,0 0,1 0,0 -1,0 -1,-1 0,0 0,0 1,0zm1 -1c-1,0 -2,0 -2,0 0,1 0,2 0,2 2,0 2,-1 2,-2z"/>
     <path fill="#765811" d="M27 30c0,0 0,-1 0,-1 0,0 0,0 0,0 0,0 -1,1 -1,1 0,0 -1,1 -1,1 1,0 1,0 2,-1z"/>
     <path fill="#765811" d="M33 29c0,0 1,-1 1,-1 1,0 2,-1 2,-1 -1,0 -1,0 -1,0 0,0 -1,0 -1,1 0,0 -1,1 -1,1z"/>
     <path fill="#765811" d="M29 31c-1,0 -2,1 -3,1 0,1 0,1 0,1 0,0 0,0 0,0 0,0 0,0 1,0 0,-1 0,-1 1,-1 0,0 0,0 1,-1z"/>
     <path fill="#F09D25" d="M16 14c0,0 0,-1 -1,-1 1,1 0,1 1,2 0,0 0,0 0,-1z"/>
     <path fill="#F6C1AE" d="M11 23c0,0 -2,0 -1,1 0,0 1,0 1,-1z"/>
     <path fill="#765811" d="M26 32c0,0 0,-1 1,-1 -1,0 -1,0 -1,0 -1,1 -1,1 0,1 0,0 0,0 0,1l0 -1z"/>
     <path fill="#EECC49" d="M33 29c0,0 1,-1 1,-1 0,0 0,-1 0,-2l0 0c0,2 -1,2 -1,3z"/>
     <path fill="#050502" d="M23 16c0,-1 0,-1 0,-1 2,1 1,2 0,1 0,0 0,0 0,0zm0 -1c0,0 -1,0 -1,1 0,0 1,0 1,0 0,0 0,1 1,0 0,0 1,0 0,-1 0,0 -1,0 -1,0z"/>
     <path fill="#F6C1AE" d="M25 21c-1,0 -2,1 0,1 1,0 1,-1 0,-1z"/>
     <path fill="#502F05" d="M23 16c0,0 0,0 0,0 1,1 2,0 0,-1 0,0 0,0 0,1z"/>
     <path fill="#050502" d="M9 18c0,0 0,-1 1,-1 0,0 0,0 0,0 0,0 0,0 0,0 -1,1 -1,1 -1,1zm0 -1c0,1 0,1 0,1 0,0 0,0 1,0 0,-1 0,-1 0,-1 1,0 -1,-1 -1,0z"/>
     <path fill="white" d="M22 19c0,0 0,0 1,0 0,1 0,0 0,0 0,0 0,0 0,0 0,-1 -1,0 -1,0z"/>
     <path fill="white" d="M12 20c0,0 0,0 1,0 0,0 0,0 0,0 0,0 0,-1 0,-1 0,0 -1,0 -1,1z"/>
     <path fill="#050502" d="M18 28c0,1 -1,1 0,0 0,0 0,0 0,0zm0 0c-1,0 -1,0 -1,0 0,1 1,1 1,1 1,-1 0,-2 0,-1z"/>
     <path fill="#502F05" d="M9 18c0,0 0,0 1,-1 0,0 0,0 0,0 0,0 0,0 0,0 -1,0 -1,1 -1,1z"/>
     <path fill="#F1B33B" d="M18 28c0,0 0,0 0,0 -1,1 0,1 0,0z"/>
     <path fill="#332C2B" d="M11 35c0,0 2,0 2,0 0,0 0,0 0,0 0,0 0,0 0,0 0,0 0,0 0,0 0,0 0,0 0,0 -1,0 -1,0 -1,0 -1,0 -1,0 -1,0z"/>
     <path fill="white" d="M22 20c0,0 0,0 0,0 -1,0 -1,1 0,0z"/>
     <path fill="white" d="M12 21c0,0 0,0 0,0l-1 0c1,0 1,0 1,0z"/>
     <path fill="#332C2B" d="M10 35c0,0 0,0 0,0 0,0 0,0 -1,0 1,0 1,0 1,0z"/>
     <path fill="#050502" d="M11 35c0,0 0,0 1,0 0,0 0,0 1,0 0,0 0,0 0,0 0,0 0,0 0,0 0,0 0,0 0,0 0,0 0,0 0,0 0,0 -2,0 -2,0zm-2 0c1,0 1,0 1,0 0,0 0,0 0,0 0,0 0,0 -1,0zm10 -8c0,1 0,2 -2,2 0,0 0,-1 0,-2 0,0 1,0 2,0zm-2 0c0,1 0,1 0,1 0,0 0,0 0,0 -1,0 -3,0 -3,0 -1,0 -4,0 -4,-1 0,0 1,0 1,0 0,0 0,0 0,0 2,1 5,0 6,0zm8 7c-1,1 1,0 1,1 0,0 0,0 0,0 -1,-1 -2,1 -3,0 0,0 0,0 0,0 0,-1 -1,-1 -1,-1 0,-1 0,-1 0,-2 0,0 0,-2 0,-2 0,0 0,2 0,2 0,1 0,1 0,2l1 1c0,0 -1,0 -1,0 0,0 0,0 0,0 0,0 -1,0 -2,1 -1,0 -1,0 -1,-1 0,-1 0,-3 0,-3l0 0 0 1 0 2 0 0 -1 0 0 -2 0 -1c-1,0 -1,2 -1,3l0 1c0,0 0,-1 -1,-1 0,0 0,1 -1,1l-1 0c-1,-1 0,0 -1,-1 0,0 0,0 1,0 1,-1 1,-1 0,-2 0,-1 0,-3 0,-3 0,0 0,3 0,4 0,0 0,1 -1,1 0,0 0,0 0,0 -1,0 -1,0 -1,0 -1,0 -1,0 -1,0l-1 0c0,0 0,0 0,0 0,-1 0,0 0,-1 0,0 1,0 1,0 -1,-1 -1,-1 -1,-1 0,-1 0,-1 0,-2 1,0 1,0 2,0l0 0 0 0 0 0 -1 0c0,-1 0,-1 0,-1 0,0 0,1 -1,-1l0 0c0,0 0,0 0,0 1,-1 0,-1 0,-1 0,0 0,0 0,0 1,0 2,0 3,0 1,0 3,0 4,0 0,0 0,1 0,1 0,1 0,0 0,1 0,0 0,0 0,0 0,0 0,-1 0,-1 0,0 1,0 1,0 0,1 0,1 0,1 0,0 0,1 0,1 1,-1 0,-1 0,-2 0,0 1,0 1,0 0,0 -1,1 0,1 0,0 0,0 0,-1 0,0 0,0 0,-1 1,0 2,0 3,-1 1,0 2,-1 3,-1 0,0 1,0 1,1l-1 0c0,0 0,0 1,0 0,1 0,0 -1,1 0,0 1,0 0,1 0,1 0,1 0,2 0,0 0,0 -1,0 0,-1 -1,-1 -1,0 1,0 3,0 2,2 0,1 0,1 0,1zm8 -5c0,-1 1,-1 1,-3l0 0c0,1 0,2 0,2 0,0 -1,1 -1,1zm1 3c0,-1 1,-1 1,-2 1,0 1,-1 2,-1 1,-2 1,-4 2,-4 0,1 -1,2 -1,3 0,0 -1,1 -1,1 -1,1 -2,3 -3,3zm-15 -5c2,0 3,-1 4,-2 1,0 1,-1 1,0 1,0 1,0 1,1 -1,0 -2,1 -3,1 -1,0 -2,1 -3,1 0,-1 0,-1 0,-1zm-8 -4c0,1 -1,1 -1,1 -1,-1 1,-1 1,-1zm17 9c-1,0 -1,0 -1,1 -1,0 -1,0 -1,0 0,0 0,0 0,0 0,0 0,0 0,-1 1,0 2,-1 3,-1 1,-1 2,-1 4,-2 0,0 1,-1 1,-1 0,-1 1,-1 1,-1 0,0 0,0 1,0 0,-1 -2,0 -2,-2 0,-2 3,-3 3,0 0,2 -2,5 -4,6 -1,1 -1,1 -2,1 -1,0 -2,0 -3,0zm4 0c1,-1 3,-2 4,-4 1,-1 1,-2 1,-4 0,-1 0,0 0,-1 1,0 2,1 1,2 0,2 -1,2 -1,3 -1,2 -3,4 -5,4zm-5 -2c-1,1 -1,1 -2,1 0,0 1,-1 1,-1 0,0 1,-1 1,-1 0,0 0,0 0,0 1,-1 1,-2 1,-3l-1 -1c0,-1 1,-2 1,-2 0,0 0,1 1,0 0,0 1,0 1,0 -4,1 -3,-4 -1,-4 0,0 1,2 1,2 0,1 0,3 0,4 -1,1 0,3 -1,4 0,0 -2,1 -2,1zm-2 -9c1,0 1,1 0,1 -2,0 -1,-1 0,-1zm0 1c0,2 -1,3 -3,4 -1,0 -2,1 -4,1 -1,0 -4,0 -5,0 -1,0 -1,0 -2,-1 0,0 -1,-2 -1,-2 1,0 1,0 1,0 1,-1 -1,-1 -1,-1 0,0 0,-1 0,-1 0,0 -1,-1 -1,-1 0,-1 0,-2 1,-3 0,0 1,0 2,-1 0,0 1,0 2,1 0,0 0,0 0,0 1,-1 1,-1 1,-1 1,0 1,0 2,0 2,0 3,0 3,0 0,0 3,-1 4,1 1,0 1,1 1,2 0,0 0,1 -1,1 0,1 -1,1 1,1zm1 10l0 1c0,-1 0,-1 0,-1 -1,0 -1,0 0,-1 0,0 0,0 1,0 0,-1 2,-1 2,-2 1,0 1,-1 2,-2 0,-2 -1,-3 0,-5l2 1 0 0c0,0 -1,0 -1,-1 -1,0 -1,-1 -1,-2 0,-1 1,-2 1,-3 2,0 2,1 3,2 0,1 0,3 0,4 0,0 -1,1 -1,1 0,1 0,2 0,2 0,1 -1,3 -2,3 -1,1 -4,2 -6,3zm-22 -14c1,-1 1,0 2,-1 0,0 0,0 1,0l0 0 0 0c-1,1 -1,1 0,1 -1,0 -2,1 -3,0zm27 8c-1,0 -1,2 -1,2 0,0 0,-1 0,-1 0,-2 -1,-2 0,-4 0,-1 0,-2 0,-3 0,-1 -1,-1 -1,-1 0,-1 1,0 1,0 1,0 1,0 1,1 0,1 0,1 0,3 0,0 0,1 0,1 -1,1 0,1 0,2zm5 -3c0,0 1,-1 1,-1 0,-2 0,-3 0,-4 0,0 1,2 1,2 0,1 0,2 0,3l-2 0zm-3 -6c1,0 2,0 3,0 1,1 1,1 1,2 0,1 0,2 0,3 0,0 -1,1 -1,1 0,0 -1,0 -1,0 0,-1 1,-3 -1,-5 0,0 -1,-1 -1,-1zm-26 -2c0,0 2,0 2,0 3,0 2,0 5,0 0,0 2,-1 1,0 0,0 -9,1 -8,0zm8 -1c-1,0 -10,2 -8,1 1,-1 2,0 2,0 2,0 4,-1 6,-1 0,-1 0,0 0,0zm0 -1c0,1 -3,1 -4,1 -1,0 -1,0 -3,0 0,0 0,0 0,0 -1,0 1,0 2,0 1,-1 0,-1 1,0 2,0 4,-1 4,-1zm-7 1c0,-1 1,-2 2,-3 0,1 0,1 0,2 0,0 -2,1 -2,1zm3 12c-1,0 -1,0 -2,-1 -1,-1 0,-1 -1,-2 0,0 0,0 0,0 0,0 0,0 0,0 0,0 0,0 0,-1 0,0 0,0 0,0l0 0c1,0 1,-1 1,-1 0,-1 -1,-1 -1,-1 0,-1 -1,-2 -1,-2l0 0 0 -1 0 0c1,0 0,-1 0,-1 1,0 2,0 3,0 0,0 1,0 2,0 1,-1 2,-1 3,-1l0 0c1,1 1,0 1,-1 1,0 3,0 4,-1 1,0 3,-1 3,-2 0,0 1,1 1,1 0,1 0,1 1,2l1 0c-1,0 -1,0 -1,0 0,0 0,0 1,0l-1 0c0,0 0,1 0,2 1,2 0,4 0,4 1,1 1,1 1,1 0,0 0,0 0,0 0,0 0,0 1,0 0,1 -1,2 -1,2 0,0 -1,1 -2,1 1,0 1,-1 1,-2 0,0 1,0 1,-1 0,0 -1,0 -1,0 0,0 0,-1 0,-2 0,0 0,-1 0,-1 -1,-2 -3,-2 -4,-1 -1,0 -1,0 -2,0 -1,0 -2,0 -3,0 -1,0 -1,0 -2,0 0,1 0,1 -1,0 -2,0 -4,1 -4,4 0,0 1,1 1,1 0,1 0,1 -1,1 0,0 0,0 0,1 0,0 1,0 1,0 0,1 1,2 1,3l0 -1zm-8 -8c-1,-1 -2,-1 -2,-2l5 -2c0,0 -1,0 -1,0l1 0c0,0 0,-1 -1,-1l2 0 2 -1c-1,0 -1,1 -1,2 -1,0 0,0 -1,0 0,1 -1,1 0,2l0 0 0 1c-1,0 -1,0 -2,0 0,0 0,0 0,0 -1,1 -1,1 -1,1l-1 0zm22 -4c0,-1 1,-1 1,-1 1,0 1,0 2,-1 -1,1 -2,3 -3,3l0 0c1,0 1,0 1,0 0,-1 0,-1 0,-1l0 0c-1,0 -1,0 -1,0zm-8 0c0,0 1,0 1,-1 2,0 2,-1 4,-1 0,-1 1,-2 1,-1 0,1 -5,3 -6,3zm0 0c0,-1 1,-1 1,-1 1,-1 3,-2 3,-2 0,0 1,-1 2,-1 0,1 -2,2 -3,2 0,1 -3,2 -3,2zm0 -1c0,-1 0,-1 1,-1 1,0 1,0 2,-1 1,0 1,-1 2,-1 -1,1 -4,3 -5,3zm8 -2c0,0 0,0 1,0 0,0 0,0 0,0 0,0 1,0 1,-1 1,0 2,0 2,0 0,3 -2,3 -4,3 0,0 0,0 -1,-1 0,0 0,-1 -1,-1 1,0 1,0 1,0 0,0 0,0 1,-1 0,1 0,1 0,1zm-6 1c0,-1 0,-2 0,-3 1,0 1,0 2,1 0,0 0,0 0,0 0,0 -2,1 -2,2zm-3 -2c-1,-1 -1,-2 0,-3 1,-1 3,0 3,1 0,1 0,3 -1,4 0,0 -1,0 -1,0 0,1 -1,3 -1,3 -1,-1 0,-1 -1,-2 -1,0 -5,2 -5,-2 0,-3 2,-2 2,-2 0,0 0,0 0,1 0,0 1,0 1,0 0,1 0,1 0,0 -2,-1 1,-4 2,-3 0,1 0,2 1,3zm10 5c0,0 0,0 1,0 1,-2 1,-2 1,-3 1,0 1,-1 1,-2 0,-1 -1,0 -1,0 -1,0 -2,0 -2,1l0 -1 -1 1 0 -1c0,0 -1,1 -1,1 -1,0 0,0 -1,0 0,0 0,-1 0,-1 -1,0 -1,0 -2,0 0,0 0,-1 -1,-1 0,0 0,0 0,0 -1,0 -1,-2 -2,-2 -1,-1 -1,-1 -2,0 -1,0 0,0 -1,0 -1,-1 -2,1 -3,1 0,1 -1,0 -2,2 -1,0 0,1 -1,1 0,1 -2,1 -2,2 -1,0 -2,0 -2,0 0,0 0,0 1,1 -1,0 -1,0 -1,0 0,0 0,0 0,0l-4 2c0,1 1,1 1,1 0,1 1,1 2,1 0,0 0,1 2,1 0,0 1,-1 1,-1 0,0 0,1 1,1 0,0 0,0 0,1 0,0 1,1 1,1 -1,1 -1,1 -1,1 0,0 0,0 0,0 0,1 0,1 0,1 0,0 -1,0 0,0 1,1 0,1 1,2 1,1 1,1 1,2 0,0 0,0 0,0 0,1 0,1 0,1 0,1 0,1 0,1 0,1 0,1 0,1 0,0 0,0 1,1 -1,0 -1,0 -1,0 0,1 0,1 0,1 0,1 0,1 0,2 0,0 -1,0 -1,1 0,0 2,0 2,0 1,0 1,0 1,0 1,0 1,1 1,1 1,0 2,0 3,0 0,0 0,0 1,0 1,0 0,0 1,0 0,0 0,0 1,0 0,0 0,0 1,0 0,0 2,0 2,0 1,-1 3,0 4,-1 0,0 1,0 0,-1 0,0 -1,0 -1,0 1,-3 7,-1 10,-3 1,0 3,-2 3,-3 1,-1 1,-4 0,-5 0,-1 1,-2 0,-3 0,-2 -3,-4 -5,-3 -1,0 -2,1 -2,2 -2,-2 -4,0 -4,2 0,1 0,2 1,2 0,0 -1,1 -1,2 1,1 1,3 0,4 0,0 -1,1 -1,1 -1,0 0,-1 0,-1 0,0 0,-1 0,-1 0,-1 0,-1 -1,-1 1,-1 1,-1 0,-1 0,-1 0,-1 0,-1 0,0 -1,0 -1,-1 1,0 3,-1 3,-3 0,0 -1,0 -1,0 0,0 0,0 1,0 -1,0 -1,0 -2,-1 1,-1 1,-2 1,-2 0,-1 0,-2 0,-3z"/>
     <path fill="#332C2B" stroke="#332C2B" stroke-width="0.525554" d="M16 25c1,0 2,0 3,-1 -1,1 -2,1 -3,1z"/>
    </g>
   </g>
  </g>
  <path fill="none" d="M17 2c8,0 15,7 15,15 0,8 -7,15 -15,15 -8,0 -15,-7 -15,-15 0,-8 7,-15 15,-15z"/>
 </g>
</svg>
