<?xml version="1.0" encoding="UTF-8"?>
<!DOCTYPE svg PUBLIC "-//W3C//DTD SVG 1.1//EN" "http://www.w3.org/Graphics/SVG/1.1/DTD/svg11.dtd">
<!-- Creator: CorelDRAW X7 -->
<svg xmlns="http://www.w3.org/2000/svg" xml:space="preserve" width="113.48mm" height="113.48mm" version="1.1" shape-rendering="geometricPrecision" text-rendering="geometricPrecision" image-rendering="optimizeQuality" fill-rule="evenodd" clip-rule="evenodd"
viewBox="0 0 2511 2511"
 xmlns:xlink="http://www.w3.org/1999/xlink">
 <defs>
    <clipPath id="id0">
     <path d="M0 0l2511 0 0 2511 -2511 0 0 -2511z"/>
    </clipPath>
   <clipPath id="id1">
    <path d="M1256 164c602,0 1091,489 1091,1092 0,602 -489,1091 -1091,1091 -603,0 -1092,-489 -1092,-1091 0,-603 489,-1092 1092,-1092z"/>
   </clipPath>
 </defs>
 <g id="圖層_x0020_1">
  <metadata id="CorelCorpID_0Corel-Layer"/>
  <g id="_693594064">
   <g clip-path="url(#id0)">
    <image x="0" y="0" width="2511" height="2511" xlink:href="3.svg_Images\3.svg_ImgID1.png"/>
   </g>
  </g>
  <path fill="#FEFEFE" d="M1256 164c602,0 1091,489 1091,1092 0,602 -489,1091 -1091,1091 -603,0 -1092,-489 -1092,-1091 0,-603 489,-1092 1092,-1092z"/>
  <g clip-path="url(#id1)">
   <g id="_693594256">
    <g>
     <path id="1" fill="#C7A770" d="M982 2093l-56 -4c-14,10 -53,68 -61,86 -12,27 -26,53 -20,80 4,25 -4,1 14,18l59 35 -5 7 -30 -21c-74,15 -35,196 -18,245 19,4 85,-1 106,-5 15,-2 81,-24 85,-27 1,-38 -20,-273 -1,-285 11,13 14,168 15,198 4,96 28,104 -54,151 21,22 238,7 277,-4 -5,-22 0,-202 23,-213l-3 94 87 -15 -18 -92 4 0c39,7 32,209 30,243 34,2 229,-10 234,-40 -17,-63 -6,-100 -11,-164 -2,-30 -28,-144 -25,-148 27,27 40,124 43,162 3,34 -3,67 -1,99 3,53 11,40 33,69 36,-5 108,-21 131,-43 17,-27 36,-31 48,-67 40,-121 -54,-186 -150,-172 22,-26 50,-24 72,-16 38,12 37,25 65,43l25 -177c15,-26 10,4 21,-46 6,-27 -21,-22 -11,-41 6,-13 28,-5 -1,-32 -15,-14 -30,-12 -29,-33l34 -14c-2,-23 -36,-55 -54,-60 -37,41 -128,84 -199,111 -88,35 -151,30 -227,53 -25,87 12,90 15,100 -1,20 -6,50 -29,54 -34,-25 -3,-61 -6,-91l-56 37 13 62 -7 45c-24,-8 -39,-26 -34,-45 7,-24 18,4 20,-61l-60 -15c-2,26 17,67 -12,85 -17,-4 -20,-18 -21,-35 -4,-50 12,-1 19,-42 1,-8 -15,-64 -19,-86l-255 17z"/>
     <path fill="#E9D4A3" d="M815 1923c34,54 70,75 135,85 103,15 289,23 390,-1 124,-29 186,-56 299,-109 109,-51 193,-111 179,-247 47,-437 -105,-455 -581,-396 -41,5 -77,12 -116,24 -19,6 -33,12 -51,19 -417,165 -499,240 -255,625z"/>
     <path fill="#C7A770" d="M707 1236c26,-10 77,37 40,54 -13,6 -27,4 -38,15 -14,12 -6,25 -23,34 -39,19 -37,-34 -24,-61 19,-20 16,-31 45,-42zm976 -112c25,-10 75,3 97,22 39,33 7,68 -10,72 -47,11 -59,-29 -84,-36 -19,-5 -39,4 -31,-25 5,-19 12,-27 28,-33zm-1057 480c-12,68 132,290 174,351l30 10c-24,-47 -77,-113 -96,-178 -18,-4 -34,-9 -48,-24 0,-37 14,-32 17,-55 4,-22 2,-39 7,-68 5,-27 -27,-71 -33,-103 -38,-192 165,-312 295,-251 74,35 33,25 94,-1 34,-14 69,-26 105,-33 75,-15 180,-25 253,-4 85,24 35,25 100,-10 103,-55 237,-26 295,80 18,32 29,71 33,107 6,59 -20,105 -18,122 28,4 56,-10 72,29 3,45 -43,54 -75,69 10,81 -4,83 -28,152 74,-23 131,-91 153,-135 13,-19 15,-47 13,-78 -14,0 -29,0 -43,0 16,-5 24,-18 25,-39 -14,-1 -61,-16 -79,-29 -2,-25 45,-203 9,-363 -4,-18 -36,-91 -35,-94l55 18c-3,-19 -12,-27 -13,-37 0,-6 10,-15 9,-16 -9,-23 -18,-4 -65,-1 -23,-41 -20,-63 -46,-104 -16,-24 -47,-73 -75,-79 -137,33 -193,189 -496,230 -16,24 -50,87 -84,77l4 -47c-97,17 -183,36 -283,50 -50,8 -95,11 -145,20 -45,8 -133,-3 -158,4 -23,45 14,67 2,112l-37 3 -4 41 35 -16c4,7 46,122 65,152 10,17 37,51 43,66 10,26 4,65 -27,72z"/>
     <path fill="#C7A770" d="M2416 1700c-82,45 -96,120 -124,203 -7,20 -10,44 -29,83 -11,55 -70,146 -108,186 -38,38 -137,72 -189,94 -8,20 -16,29 -21,53l-10 48c0,21 -5,10 8,14 140,-100 324,-123 445,-210 43,-32 112,-169 127,-222 9,-31 -16,-72 5,-141 20,-64 58,-73 70,-106 22,-64 29,-234 -5,-296 -34,-62 -96,-175 -179,-115 -70,50 -129,136 -122,226 3,28 36,87 53,112 35,50 100,51 106,69l-27 2z"/>
     <path fill="#EECC49" d="M1138 712c-28,-11 -56,-48 -69,-74 -20,-44 -14,-77 -24,-115 -168,38 -136,275 -97,255 -19,23 -95,-30 -115,-74 -17,-36 -11,-40 -16,-57 -46,6 -76,38 -83,74 -10,53 17,122 37,163 25,53 82,78 118,123l-10 0c74,14 198,-12 241,-29 25,15 67,52 90,79 21,-33 33,-99 40,-131 13,-54 51,-45 95,-70 78,-44 91,-166 66,-243 -26,-81 -116,-151 -197,-105 -119,66 -97,180 -50,217l-26 -13z"/>
     <path fill="#C7A770" d="M2640 1964c-5,11 -79,99 -91,111 -24,25 -79,73 -110,83 -111,71 -194,91 -310,141 -9,13 -62,44 -73,75 -16,12 -38,31 2,15 74,-12 135,-15 209,-20 88,-7 100,-22 167,-74 132,-101 304,-280 306,-459 2,-220 -188,-130 -211,9 -25,149 130,86 111,119z"/>
     <path fill="#C7A770" d="M2154 1739c-22,13 -27,19 -42,39 -20,11 -32,31 -28,53 -36,71 -44,204 -54,285 -10,24 -53,105 -42,124 47,-10 157,-67 181,-112 34,-65 15,-198 16,-272 2,-88 46,-207 34,-272 -10,-59 -36,-171 -95,-200 -148,30 -181,397 72,327 1,23 -23,24 -42,28z"/>
     <path fill="#050502" d="M1720 1427c-1,21 23,73 0,97 -19,67 -115,85 -163,32 -53,-59 -14,-151 58,-154l35 -9c13,-16 26,-29 50,-20 29,12 21,31 20,54zm-107 -159c-230,27 -187,374 42,345 225,-29 184,-372 -42,-345z"/>
     <path fill="#050502" d="M976 1479l7 65c-16,91 -110,124 -169,59 -58,-64 0,-165 90,-150l4 -7c11,-19 27,-31 51,-20 25,12 20,29 17,53zm-256 22c11,220 350,209 341,-18 -8,-223 -353,-213 -341,18z"/>
     <path fill="#C7A770" d="M1868 791c-48,31 -32,1 -40,-18 -16,11 -26,28 -41,39 -24,17 -43,7 -61,14 18,24 44,46 65,76 31,42 28,53 47,94 147,-70 308,-67 306,-284 -33,8 -85,51 -139,62 -26,5 -57,6 -81,17 -12,5 -23,14 -33,19 -28,12 -17,-6 -23,-19z"/>
     <path fill="#EECC49" d="M2472 1259c0,1 71,58 82,72 121,146 44,325 51,372 5,0 71,-20 74,-23 10,-10 28,-64 33,-79 20,-68 27,-125 20,-196 -10,-89 -10,-84 -83,-127 -36,-22 -148,-49 -177,-19z"/>
     <path fill="#EECC49" d="M2363 2360c151,4 279,-155 360,-266 51,-71 84,-131 113,-215 34,-101 -28,-167 -127,-175 18,38 33,27 41,91 14,120 -44,215 -105,308 -72,111 -182,179 -282,257z"/>
     <path fill="#F1E7D1" d="M720 1501c-12,-231 333,-241 341,-18 9,227 -330,238 -341,18zm310 -178c-33,-36 -127,-45 -174,-35 -45,10 -105,41 -131,78 -29,41 -46,125 -35,173 4,18 21,56 32,72 138,211 546,5 308,-288z"/>
     <path fill="#C7A770" d="M221 1302c37,-59 100,-97 160,-125 22,-10 58,-19 70,-25 4,-52 7,-118 38,-168 10,-16 29,-32 20,-42l-112 38c14,17 49,22 44,45l-46 6c6,11 17,23 17,36l-313 126c-3,37 85,100 122,109z"/>
     <path fill="#F1E7D1" d="M1613 1268c226,-27 267,316 42,345 -229,29 -272,-318 -42,-345zm-171 56c-101,185 117,415 316,276 52,-31 78,-75 82,-137 3,-52 -15,-119 -46,-161 -91,-122 -286,-99 -352,22z"/>
     <path fill="#EECC49" d="M2135 1377c1,9 61,49 81,131 20,80 29,101 7,183 -43,168 -15,185 -20,303 -1,20 -12,92 -11,102 38,-13 65,-150 68,-187 3,-40 -3,-77 3,-117 6,-40 20,-69 24,-108 11,-100 -26,-137 -14,-216 7,-45 14,-71 -34,-87 -23,-8 -84,-18 -104,-4z"/>
     <path fill="#765811" d="M509 942c9,10 -10,26 -20,42 -31,50 -34,116 -38,168 -12,6 -48,15 -70,25 -60,28 -123,66 -160,125l73 21c2,-1 17,-24 44,-37 20,-10 39,-15 59,-25 75,-37 48,-27 127,-37l10 -53 -42 -5c-19,-27 -6,-79 21,-97 53,-34 -3,-38 66,-65 2,-55 32,-84 54,-127l-124 65z"/>
     <path fill="#765811" d="M1056 2507c-4,3 -70,25 -85,27 -21,4 -87,9 -106,5 -17,-49 -56,-230 18,-245 -33,-23 -86,-12 -113,13 -33,30 -46,69 -42,114 4,39 42,57 65,84 37,45 -47,20 -74,49 25,11 12,-3 35,21 21,22 4,-5 20,27l44 3c18,-20 16,-31 57,-34 45,-4 46,22 69,26 12,-8 4,-19 28,-27 31,-11 99,-25 84,-63z"/>
     <path fill="#EECC49" d="M1383 2009l27 59c79,-5 182,-42 256,-73 51,-21 118,-49 157,-88 35,-36 13,-34 -12,-43 -2,-66 -51,-21 -89,1 -127,72 -195,101 -339,144z"/>
     <path fill="#C7A770" d="M2692 1685l91 22c49,-67 66,-120 50,-208 -10,-52 -62,-137 -106,-165 22,109 30,162 -4,273 -7,25 -27,60 -31,78z"/>
     <path fill="#EECC49" d="M1128 1052c7,-18 2,-53 -33,-41 -128,43 -264,67 -399,65 -57,-1 -129,-30 -178,8 -129,99 551,2 610,-32z"/>
     <path fill="#EECC49" d="M1243 2032c-34,-14 -263,9 -402,-40 -12,-4 -41,-23 -50,-17 -11,8 -18,34 -17,50 3,43 202,54 238,52 33,-1 163,-4 221,-8 4,0 6,1 8,0 9,-8 2,-26 2,-37z"/>
     <path fill="#C7A770" d="M2486 2344c103,-7 192,-92 253,-169 38,-48 66,-75 90,-133 19,-47 49,-142 27,-186 -11,15 -54,174 -152,284 -32,37 -60,79 -100,112 -36,31 -87,64 -118,92z"/>
     <path fill="#EECC49" d="M1249 1009c29,7 207,-74 244,-90 28,-11 211,-119 181,-151 -27,-27 -87,25 -109,44 -24,20 -184,110 -220,123 -36,13 -100,26 -96,74z"/>
     <path fill="#F92F0B" d="M1221 1061c24,12 260,-69 292,-87 45,-24 206,-128 209,-177 -27,-27 -83,42 -117,63 -105,66 -127,84 -256,130 -30,10 -133,28 -128,71z"/>
     <path fill="#765811" d="M859 2273c-17,-20 -9,3 -14,-18 -6,-27 8,-53 20,-80 8,-18 47,-76 61,-86l-160 -37 -19 29c27,19 38,-7 14,33 -7,12 -17,49 -16,63l29 6c6,85 9,14 21,57 3,11 2,18 8,31l56 2z"/>
     <path fill="#F92F0B" d="M1114 993c-13,-9 -180,69 -282,16 -103,-53 -18,-28 -114,-5 -56,14 -186,2 -162,43 6,10 27,8 39,9 116,9 117,16 247,2 38,-4 260,-39 272,-65z"/>
     <path fill="#765811" d="M800 1955c-42,-61 -186,-283 -174,-351l-50 16c17,28 47,26 8,45l-3 38c15,7 28,19 46,20 16,46 -5,59 55,142 37,52 59,63 118,90z"/>
     <path fill="#F92F0B" d="M502 1128c-26,91 616,-27 628,-45 29,-44 -105,-1 -126,2 -156,28 -125,40 -318,49 -129,4 -162,-10 -184,-6z"/>
     <polygon fill="#765811" points="1313,2448 1300,2612 1401,2619 1402,2613 1400,2433 "/>
     <path fill="#765811" d="M2263 1986c14,-22 22,-63 29,-83 17,-50 86,-177 124,-203l-86 -42c-84,107 -41,205 -67,328z"/>
     <path fill="#765811" d="M591 1002c37,7 147,-14 175,-39 -45,-54 -40,-59 -60,-136 -39,28 -113,123 -115,175z"/>
     <path fill="#604819" d="M1720 1524l3 -24c-19,15 -87,65 -104,14 -29,5 -36,-11 -19,-34 -40,-14 33,-70 39,-79l-24 1c-72,3 -111,95 -58,154 48,53 144,35 163,-32z"/>
     <path fill="#EEAB97" d="M305 1335c36,36 140,15 188,10 -18,-48 -17,-31 -7,-72l52 2 0 -36c-69,-8 -67,1 -127,32 -52,28 -66,17 -106,64z"/>
     <path fill="#765811" d="M1689 2562c10,23 19,40 6,62 106,14 128,-81 203,-7 18,-50 18,-18 36,-36 6,-80 -121,-18 -114,-62 -23,22 -95,38 -131,43z"/>
     <path fill="#604819" d="M983 1544c-16,14 -20,30 -45,36 -20,6 -54,3 -61,-17 -17,4 -23,2 -29,-16l11 -17c-17,-6 -3,-39 7,-52 13,-16 27,-18 38,-25 -90,-15 -148,86 -90,150 59,65 153,32 169,-59z"/>
     <path fill="#F92F0B" d="M1260 960c107,-32 289,-141 376,-211 -48,-40 -109,40 -188,93 -27,19 -76,32 -108,42 -60,19 -76,1 -80,76z"/>
     <path fill="#765811" d="M1016 2571c-26,13 -57,7 -51,40 35,31 35,-50 100,24l75 6c20,-11 30,-38 69,-33 33,5 53,52 68,27l16 -68c-39,11 -256,26 -277,4z"/>
     <path fill="#B99757" d="M1375 853c65,-14 103,-35 153,-77 24,-22 83,-33 5,-58 -30,-15 -63,-29 -95,-32 -18,99 -22,107 -63,167z"/>
     <path fill="#251D0D" d="M1615 1402l24 -1c-6,9 -79,65 -39,79 22,4 38,11 19,34 17,51 85,1 104,-14l-3 24c23,-24 -1,-76 0,-97 -16,10 -24,22 -49,12 -21,-8 -24,-26 -21,-46l-35 9z"/>
     <path fill="#ED927E" d="M1858 1008c21,1 28,-6 50,3l-20 29c33,38 34,49 -16,43l10 24c66,-5 143,-125 167,-182 -33,15 -55,30 -96,42 -35,3 -69,18 -95,41z"/>
     <path fill="#765811" d="M1416 2584c9,56 6,59 70,59 66,-85 112,-19 142,-19 18,-7 7,-10 20,-26 15,-18 19,-1 35,-12l-33 -42c-5,30 -200,42 -234,40z"/>
     <path fill="#F09D25" d="M892 1010c-78,-97 -151,-140 -157,-286 -17,17 -13,78 -12,104 -8,90 74,171 169,182z"/>
     <path fill="#251D0D" d="M859 1530c21,3 38,13 18,33 7,20 41,23 61,17 25,-6 29,-22 45,-36l-7 -65c-16,9 -26,20 -48,11 -20,-8 -23,-25 -20,-44l-4 7c-11,7 -25,9 -38,25 -10,13 -24,46 -7,52z"/>
     <path fill="#765811" d="M2049 1959c20,-52 28,-138 63,-181 62,-71 69,-13 -49,-63 -23,25 -39,78 -35,114l21 130z"/>
     <path fill="#F09D25" d="M817 648c5,28 6,38 16,56 20,44 85,111 122,73 -45,-53 -47,-10 -42,-136 -8,-3 -60,-10 -96,7z"/>
     <path fill="#F09D25" d="M1042 524c9,38 7,70 27,114 13,26 41,63 69,74 -8,-35 -40,-45 -14,-129 5,-13 15,-26 17,-37 -20,-23 -74,-48 -99,-22z"/>
     <path fill="#E9D4A3" d="M1302 2044c63,-17 82,50 39,78 -17,12 -50,9 -57,-16 -6,-19 -5,-56 18,-62zm69 -30c-13,0 -102,12 -108,18 -21,21 -20,95 20,109 96,35 144,-50 88,-127z"/>
     <path fill="#765811" d="M1988 2240c-11,-19 32,-100 42,-124 -16,8 -29,32 -43,45 -16,15 -34,26 -49,40 -37,34 -60,62 -60,117 23,-40 74,-57 110,-78z"/>
     <path fill="#765811" d="M2439 2158c31,-10 86,-58 110,-83 12,-12 86,-100 91,-111 -30,5 -44,3 -73,-1 -7,48 -29,72 -51,111 -19,34 -57,53 -77,84z"/>
     <path fill="#765811" d="M2129 2299c-47,12 -140,68 -184,97 -17,12 -9,13 -23,25 -10,8 -18,10 -26,20 25,-10 48,-22 73,-32 29,-6 52,-4 74,-16 32,-17 59,-53 86,-94z"/>
     <path fill="#F09D25" d="M1208 1055c-22,-27 -37,-60 -83,-83 29,72 23,79 25,156 20,-5 50,-52 58,-73z"/>
     <path fill="#F6C1AE" d="M839 1727c-19,-34 -138,-9 -134,24 5,42 121,10 134,-24z"/>
     <path fill="#765811" d="M1943 2381c-14,-24 13,-90 23,-115 -23,11 -55,34 -71,55 -18,23 -6,16 -3,42 2,20 0,38 0,57l51 -39z"/>
     <path fill="#EECC49" d="M2425 2147c12,-7 71,-64 79,-77 14,-24 48,-87 50,-113l-27 -21c-45,165 -74,142 -102,211z"/>
     <path fill="#050502" d="M1671 1164c7,-36 31,-29 61,-23 88,18 49,87 -1,55 -33,-21 -12,-25 -60,-32zm12 -40c-16,6 -23,14 -28,33 -8,29 12,20 31,25 25,7 37,47 84,36 17,-4 49,-39 10,-72 -22,-19 -72,-32 -97,-22z"/>
     <path fill="#F6C1AE" d="M1848 1562c-36,6 -121,86 -30,68 76,-15 96,-80 30,-68z"/>
     <path fill="#502F05" d="M1671 1164c48,7 27,11 60,32 50,32 89,-37 1,-55 -30,-6 -54,-13 -61,23z"/>
     <path fill="#050502" d="M670 1326c-24,-29 25,-95 66,-76 12,6 15,16 6,25 -4,4 -22,7 -30,11 -31,15 -18,40 -42,40zm-13 -49c-13,27 -10,81 29,62 17,-9 9,-22 23,-34 11,-11 25,-9 38,-15 62,-28 -47,-106 -90,-13z"/>
     <path fill="white" d="M1650 1393c-3,20 0,38 21,46 25,10 33,-2 49,-12 1,-23 9,-42 -20,-54 -24,-9 -37,4 -50,20z"/>
     <path fill="white" d="M908 1446c-3,19 0,36 20,44 22,9 32,-2 48,-11 3,-24 8,-41 -17,-53 -24,-11 -40,1 -51,20z"/>
     <path fill="#050502" d="M1345 2098c-17,31 -67,19 -48,-32 10,-24 70,-8 48,32zm-43 -54c-23,6 -24,43 -18,62 7,25 40,28 57,16 43,-28 24,-95 -39,-78z"/>
     <path fill="#502F05" d="M670 1326c24,0 11,-25 42,-40 8,-4 26,-7 30,-11 9,-9 6,-19 -6,-25 -41,-19 -90,47 -66,76z"/>
     <path fill="#F1B33B" d="M1345 2098c22,-40 -38,-56 -48,-32 -19,51 31,63 48,32z"/>
     <path fill="#332C2B" d="M833 2604c8,5 95,6 106,2 -1,0 -2,-1 -2,-1 0,0 -2,-1 -2,-1 0,0 -1,-1 -2,-1 -3,-2 -3,-2 -6,-4 -27,-17 -41,-24 -72,-7 -20,11 -14,1 -22,12z"/>
     <path fill="white" d="M1619 1514c19,-23 3,-30 -19,-34 -17,23 -10,39 19,34z"/>
     <path fill="white" d="M877 1563c20,-20 3,-30 -18,-33l-11 17c6,18 12,20 29,16z"/>
     <path fill="#332C2B" d="M757 2597c-2,-9 0,-1 -3,-4 -15,-13 -18,-36 -51,-18 12,22 43,27 54,22z"/>
     <path fill="#050502" d="M833 2604c8,-11 2,-1 22,-12 31,-17 45,-10 72,7 3,2 3,2 6,4 1,0 2,1 2,1 0,0 2,1 2,1 0,0 1,1 2,1 -11,4 -98,3 -106,-2zm-130 -29c33,-18 36,5 51,18 3,3 1,-5 3,4 -11,5 -42,0 -54,-22zm668 -561c56,77 8,162 -88,127 -40,-14 -41,-88 -20,-109 6,-6 95,-18 108,-18zm-128 18c1,7 -1,26 -5,35 -2,4 -1,2 -5,2 -66,3 -188,7 -221,8 -36,2 -235,-9 -238,-52 -1,-16 6,-42 17,-50 9,-6 38,13 50,17 139,49 363,35 402,40zm577 487c-7,44 120,-18 114,62 -18,18 -18,-14 -36,36 -75,-74 -97,21 -203,7 13,-22 4,-39 -6,-62 -22,-29 -30,-16 -33,-69 -2,-32 4,-65 1,-99 -3,-38 -16,-135 -43,-162 -3,4 23,118 25,148 5,64 -6,101 11,164l33 42c-16,11 -20,-6 -35,12 -13,16 -2,19 -20,26 -30,0 -76,-66 -142,19 -64,0 -61,-3 -70,-59 2,-34 9,-236 -30,-243l-4 0 18 92 2 180 -1 6 -101 -7 13 -164 3 -94c-23,11 -28,191 -23,213l-16 68c-15,25 -35,-22 -68,-27 -39,-5 -49,22 -69,33l-75 -6c-65,-74 -65,7 -100,-24 -6,-33 25,-27 51,-40 82,-47 58,-55 54,-151 -1,-30 -4,-185 -15,-198 -19,12 2,247 1,285 -6,42 -53,52 -84,63 -24,8 -16,19 -28,27 -23,-4 -24,-30 -69,-26 -41,3 -39,14 -57,34l-44 -3c-16,-32 1,-5 -20,-27 -23,-24 -10,-10 -35,-21 27,-29 111,-4 74,-49 -23,-27 -61,-45 -65,-84 -4,-45 9,-84 42,-114 27,-25 80,-36 113,-13l30 21 5 -7 -59 -35 -56 -2c-6,-13 -5,-20 -8,-31 -12,-43 -15,28 -21,-57l-29 -6c-1,-14 9,-51 16,-63 24,-40 13,-14 -14,-33 6,-10 13,-19 19,-29 68,27 135,38 216,41 85,-5 170,-11 255,-17 4,22 20,78 19,86 -7,41 -23,-8 -19,42 1,17 4,31 21,35 29,-18 10,-59 12,-85 16,12 32,16 60,15 -17,55 -13,37 -20,61 -5,19 13,41 37,49 25,-37 12,-62 -9,-111 26,-5 42,-11 56,-37 3,30 -28,66 6,91 23,-4 28,-34 29,-54 -3,-10 -40,-11 -14,-98 95,-17 137,-20 226,-55 71,-27 146,-55 199,-111 18,5 52,37 54,60l-43 14c9,23 23,19 38,33 29,27 0,20 -6,32 -10,20 41,12 -3,87 -23,57 -32,107 -25,177 -20,-22 -27,-31 -65,-43 -22,-8 -61,-11 -72,16 65,-7 190,51 150,172 -12,36 -31,40 -48,67zm605 -372c28,-69 57,-46 102,-211l27 21c-2,26 -36,89 -50,113 -8,13 -67,70 -79,77zm61 197c31,-28 82,-61 118,-92 40,-33 68,-75 100,-112 98,-110 141,-269 152,-284 22,44 -8,139 -27,186 -24,58 -52,85 -90,133 -61,77 -150,162 -253,169zm-1103 -335c144,-43 212,-72 339,-144 38,-22 87,-67 89,-1 25,9 47,7 12,43 -26,26 -123,74 -157,88 -74,31 -175,57 -254,62 -1,-21 -10,-35 -29,-48zm-544 -282c-13,34 -129,66 -134,24 -4,-33 115,-58 134,-24zm1219 662c-24,9 -62,10 -89,20 -25,10 -48,22 -73,32 8,-10 16,-12 26,-20 14,-12 6,-13 23,-25 44,-29 137,-85 184,-97 116,-50 199,-70 310,-141 20,-31 58,-50 77,-84 22,-39 44,-63 51,-111 29,4 43,6 73,1 19,-33 -136,30 -111,-119 23,-139 213,-229 211,-9 -2,179 -174,358 -306,459 -67,52 -79,67 -167,74 -74,5 -135,8 -209,20zm305 -29c100,-78 210,-146 282,-257 61,-93 119,-188 105,-308 -8,-64 -23,-53 -41,-91 99,8 161,74 127,175 -29,84 -62,144 -113,215 -81,111 -209,270 -360,266zm-375 -120c-36,21 -87,38 -110,78 0,-55 23,-83 60,-117 15,-14 33,-25 49,-40 14,-13 27,-37 43,-45 22,-46 31,-85 32,-154l-34 -133c-4,-36 12,-89 35,-114 39,22 39,30 91,24 19,-4 43,-5 42,-28 -253,70 -220,-297 -72,-327 59,29 85,141 95,200 12,65 -32,184 -34,272 -1,74 18,207 -16,272 -24,45 -134,102 -181,112zm-140 -678c66,-12 46,53 -30,68 -91,18 -6,-62 30,-68zm-30 89c14,136 -70,196 -179,247 -113,53 -175,80 -299,109 -101,24 -287,16 -390,1 -65,-10 -90,-33 -135,-85 -15,-23 -62,-111 -64,-134 32,-5 62,-12 89,-31 75,-83 -68,-65 -120,-53 -3,-30 7,-67 2,-94 -11,-16 -28,-54 -32,-72 -11,-48 6,-132 35,-173 26,-37 86,-68 131,-78 47,-10 131,1 164,38 16,1 22,-17 50,-28 18,-7 32,-13 51,-19 39,-12 75,-19 116,-24 180,-22 208,27 258,28 0,-59 212,-98 299,19 31,42 49,109 46,161 -2,33 -16,59 -26,90 -66,44 -107,104 4,98zm125 730l-51 39c0,-19 2,-37 0,-57 -3,-26 -15,-19 3,-42 16,-21 48,-44 71,-55 52,-22 151,-56 189,-94 38,-40 97,-131 108,-186 26,-123 -17,-221 67,-328l86 42 27 -2c-6,-18 -71,-19 -106,-69 -17,-25 -50,-84 -53,-112 -7,-90 52,-176 122,-226 83,-60 145,53 179,115 34,62 27,232 5,296 -12,33 -50,42 -70,106 -21,69 4,110 -5,141 -15,53 -84,190 -127,222 -121,87 -305,110 -445,210zm-1638 -1046c40,-47 54,-36 106,-64 60,-31 58,-40 127,-32l0 36 -52 -2c-10,41 -11,24 7,72 -48,5 -152,26 -188,-10zm1955 574c-3,37 -30,174 -68,187 -1,-10 10,-82 11,-102 5,-118 -23,-135 20,-303 22,-82 13,-103 -7,-183 -20,-82 -80,-122 -81,-131 20,-14 81,-4 104,4 48,16 41,42 34,87 -12,79 25,116 14,216 -4,39 -18,68 -24,108 -6,40 0,77 -3,117zm432 -224c4,-18 24,-53 31,-78 34,-111 26,-164 4,-273 44,28 96,113 106,165 16,88 -1,141 -50,208l-91 -22zm-220 -426c29,-30 141,-3 177,19 73,43 73,38 83,127 7,71 0,128 -20,196 -5,15 -23,69 -33,79 -3,3 -69,23 -74,23 -7,-47 70,-226 -51,-372 -11,-14 -82,-71 -82,-72zm-1970 -131c22,0 144,12 184,6 193,-9 162,-21 318,-49 21,-3 155,-46 126,-2 -12,18 -654,136 -628,45zm626 -76c-65,19 -739,131 -610,32 49,-38 121,-9 178,-8 135,2 271,-22 399,-65 35,-12 40,23 33,41zm-14 -59c-12,26 -234,61 -272,65 -130,14 -131,7 -247,-2 -12,-1 -33,1 -39,-9 -24,-41 106,-29 162,-43 96,-23 11,-48 114,5 102,53 269,-25 282,-16zm-523 9c2,-52 76,-147 115,-175 16,73 15,82 60,136 -28,25 -138,46 -175,39zm209 953c-59,-27 -81,-38 -118,-90 -60,-83 -39,-96 -55,-142 -18,-4 -33,-10 -45,-23 12,1 21,-1 30,-12 -14,-6 -22,-13 -28,-23 39,-19 12,-17 -6,-45l48 -16c31,-7 37,-46 27,-72 -6,-15 -33,-49 -43,-66 -19,-30 -61,-145 -65,-152l-35 16 4 -41 37 -3c12,-45 -25,-67 -2,-112 25,-7 113,4 158,-4 50,-9 95,-12 145,-20 100,-14 186,-33 283,-50l-4 47c34,10 68,-53 84,-77 73,-2 212,-45 283,-84 71,-30 199,-126 213,-146 28,6 59,55 75,79 26,41 23,63 46,104l59 -4c-5,9 -7,15 -16,22 0,0 10,8 22,33l-51 -15c-1,3 31,76 35,94 36,160 -11,338 -9,363 26,21 63,28 79,29 -6,18 -14,31 -25,39 14,3 28,3 43,0 2,31 -21,90 -37,110 -31,40 -87,86 -129,103 31,-56 38,-71 28,-152 32,-15 78,-24 75,-69 -16,-39 -44,-25 -72,-29 -2,-17 24,-63 18,-122 -4,-36 -15,-75 -33,-107 -58,-106 -192,-135 -295,-80 -65,35 -15,34 -100,10 -73,-21 -178,-11 -253,4 -36,7 -71,19 -105,33 -61,26 -20,36 -94,1 -130,-61 -333,59 -295,251 6,32 38,76 33,103 -5,29 -3,46 -7,68 -3,23 -30,23 -17,55 11,17 29,20 48,24 17,67 67,136 96,178l-30 -10zm-579 -653c-37,-9 -125,-72 -122,-109l313 -126c0,-13 -11,-25 -17,-36l46 -6c5,-23 -30,-28 -44,-45l112 -38 124 -65c-22,43 -52,72 -54,127 -69,27 -13,31 -66,65 -27,18 -40,70 -21,97l42 5 -10 53c-79,10 -52,0 -127,37 -20,10 -39,15 -59,25 -27,13 -42,36 -44,37l-73 -21zm1637 -294c26,-23 60,-38 95,-41 42,-4 63,-27 96,-42 -24,57 -101,177 -167,182l-9 -20c30,-1 42,3 45,-5 3,-9 -6,-23 -27,-44l17 -27c-22,-9 -29,-2 -50,-3zm-630 49c-5,-41 93,-54 121,-67 129,-46 151,-64 256,-130 34,-21 90,-90 117,-63 -24,100 -418,276 -494,260zm21 -48c-4,-48 60,-61 96,-74 36,-13 196,-103 220,-123 22,-19 82,-71 109,-44 30,32 -153,140 -181,151 -37,16 -215,97 -244,90zm11 -49c4,-75 20,-57 80,-76 32,-10 81,-23 108,-42 79,-53 140,-133 188,-93 -87,70 -269,179 -376,211zm608 -169c6,13 -5,31 23,19 10,-5 21,-14 33,-19 24,-11 55,-12 81,-17 54,-11 106,-54 139,-62 2,217 -159,214 -306,284 -19,-41 -16,-52 -47,-94 -21,-30 -47,-52 -65,-76 18,-7 37,3 61,-14 15,-11 25,-28 41,-39 8,19 -8,49 40,18zm-493 62c50,-60 57,-117 63,-167 32,3 65,17 95,32 16,8 31,15 29,20 -12,30 -148,107 -187,115zm-211 -128c-40,-39 -66,-147 50,-217 81,-46 171,24 197,105 25,77 12,199 -66,243 -44,25 -82,16 -95,70 -12,53 -45,176 -100,202 -2,-77 4,-84 -25,-156 -58,13 -352,138 -402,-144 -9,-218 179,-184 190,-187 -9,37 -11,60 -4,89 4,11 20,40 28,47 20,14 21,11 17,-1 -113,-122 96,-333 187,-230 -36,49 -56,154 23,179zm726 400c34,-23 44,-13 80,-51 80,-84 72,-137 109,-166 50,-40 87,-122 81,-193 -4,-42 -54,1 -79,14 -77,41 -127,27 -191,63l0 -30 -43 23 4 -34c-28,-10 -53,43 -94,54 -33,9 -13,2 -28,-18 -5,-7 -33,-20 -47,-32 -48,-41 -80,-22 -118,-38 -16,-6 -33,-19 -54,-28 -15,-6 -51,-13 -60,-19 -25,-16 -15,-146 -127,-180 -37,-11 -86,-17 -120,7 -80,50 -28,36 -93,11 -88,-33 -150,63 -190,115 -14,17 -134,-38 -196,83 -28,54 -3,86 -41,115 -44,32 -138,96 -189,115 -21,8 -105,28 -112,37 -3,21 15,25 30,37 -10,3 -27,6 -34,13 4,12 5,27 13,38l-306 118c-10,44 32,74 61,100 29,26 82,49 120,58 23,5 62,45 144,37 31,-3 108,-18 129,-37 7,15 11,45 21,66 11,21 19,39 28,59 21,43 72,72 45,121 -28,19 -47,19 -71,34 13,23 30,31 1,44 6,15 10,13 13,25 3,17 -37,11 25,44 32,18 -2,41 51,122 61,86 89,94 123,113 -4,19 -26,27 -22,69 3,33 -40,42 -12,64 17,15 -12,45 -10,75 1,25 16,15 27,22 12,9 13,52 29,78 -17,10 -35,28 -48,43 -18,21 -23,46 -26,73 -7,67 9,85 59,124 -21,12 -83,11 -86,67 17,40 108,39 149,43 26,2 58,1 86,1 61,1 21,15 63,19 46,5 132,14 175,11 24,-2 57,-2 81,-2 60,2 32,-1 65,-21 34,-1 47,9 87,5 25,-2 30,20 72,23 8,1 155,-12 160,-13 77,-20 251,6 311,-22 18,-22 28,-54 5,-79 -37,-39 -54,-21 -97,-25 101,-189 562,-95 744,-193 97,-52 194,-153 244,-252 55,-110 80,-285 -40,-362 57,-84 82,-143 48,-248 -45,-136 -244,-286 -382,-220 -56,28 -141,89 -163,150 -157,-106 -290,-3 -303,192 -5,67 42,83 59,120 1,6 -50,60 -35,142 26,76 59,198 -29,292 -9,9 -92,82 -94,82 -4,-24 -2,-69 12,-89 15,-22 21,-62 6,-85 25,-35 -3,-39 -28,-64 58,-29 13,-53 -20,-78 -32,-24 9,-21 -22,-51 -4,-4 -26,-36 -30,-44 37,-21 194,-118 170,-247 -9,6 -18,9 -30,10 6,-9 12,-22 16,-39 -30,-4 -54,-13 -78,-31 9,-68 18,-136 21,-204 3,-71 -11,-112 -19,-176z"/>
     <path fill="#332C2B" stroke="#332C2B" stroke-width="4.42546" d="M1190 1823c83,8 173,1 247,-43 -75,53 -162,58 -247,43z"/>
    </g>
   </g>
  </g>
  <path fill="none" d="M1256 164c602,0 1091,489 1091,1092 0,602 -489,1091 -1091,1091 -603,0 -1092,-489 -1092,-1091 0,-603 489,-1092 1092,-1092z"/>
 </g>
</svg>
