<?xml version="1.0" encoding="UTF-8"?>
<!DOCTYPE svg PUBLIC "-//W3C//DTD SVG 1.1//EN" "http://www.w3.org/Graphics/SVG/1.1/DTD/svg11.dtd">
<!-- Creator: CorelDRAW X7 -->
<svg xmlns="http://www.w3.org/2000/svg" xml:space="preserve" width="72.8mm" height="129.5mm" version="1.1" shape-rendering="geometricPrecision" text-rendering="geometricPrecision" image-rendering="optimizeQuality" fill-rule="evenodd" clip-rule="evenodd"
viewBox="0 0 3973 7067"
 xmlns:xlink="http://www.w3.org/1999/xlink">
 <defs>
   <clipPath id="id0">
    <path d="M0 7067l0 -7067 3973 0 0 7067 -3973 0z"/>
   </clipPath>
    <clipPath id="id1">
     <path d="M0 0l3973 0 0 7067 -3973 0 0 -7067z"/>
    </clipPath>
      <linearGradient id="id2" gradientUnits="userSpaceOnUse" x1="-0" y1="3533.58" x2="11918.7" y2="3533.58">
       <stop offset="0" stop-opacity="0" stop-color="#ddb98b"/>
       <stop offset="0.509804" stop-opacity="0" stop-color="#ddb98b"/>
       <stop offset="1" stop-opacity="0" stop-color="#ddb98b"/>
      </linearGradient>
    <clipPath id="id3">
     <path d="M0 7067l0 -7067 3973 0 0 7067 -3973 0z"/>
    </clipPath>
     <linearGradient id="id4" gradientUnits="userSpaceOnUse" x1="1528.04" y1="565.373" x2="1528.04" y2="6501.79">
      <stop offset="0" stop-opacity="0" stop-color="#ddb98b"/>
      <stop offset="0.65098" stop-opacity="0" stop-color="#ddb98b"/>
      <stop offset="1" stop-opacity="0" stop-color="#ddb98b"/>
     </linearGradient>
    <clipPath id="id5">
     <path d="M0 0l3973 0 0 7067 -3973 0 0 -7067z"/>
    </clipPath>
    <clipPath id="id6">
     <path d="M0 7067l0 -7067 3973 0 0 7067 -3973 0z"/>
    </clipPath>
 </defs>
 <g id="圖層_x0020_1">
  <metadata id="CorelCorpID_0Corel-Layer"/>
  <polygon fill="#ddb98b" fill-opacity="0.0" points="0,7067 0,0 3973,0 3973,7067 "/>
  <g clip-path="url(#id0)">
   <g id="_490444872">
    <g>
    </g>
   </g>
   <g clip-path="url(#id1)">
    <g id="_1033968480">
     <rect fill="url(#id2)" width="11919" height="7067"/>
    </g>
   </g>
   <g clip-path="url(#id3)">
    <polygon fill="none" points="0,0 3973,0 3973,7067 0,7067 "/>
    <polygon fill="url(#id4)" points="-1297,0 4353,0 4353,7067 -1297,7067 "/>
   </g>
   <g clip-path="url(#id5)">
    <g id="_1033968288">
     <path id="1" fill="#FEFEFE" fill-opacity="0.670588" d="M4025 1802l55 -17 58 7c88,14 99,14 140,-42 66,16 304,19 349,-1l51 -24 -3 -58 -54 -26 -24 -9c43,-44 29,-16 56,-40 28,-25 24,-37 24,-79 -83,-50 -89,-68 -208,-37 -45,-43 -53,-89 -152,-78 -81,9 -32,23 -100,15 -61,-8 -81,-48 -273,47l-83 43c-58,33 1,12 -71,19 -263,25 -210,185 -149,222 70,42 98,3 172,27 7,3 23,13 32,17 75,37 95,28 180,14z"/>
    </g>
   </g>
   <g clip-path="url(#id6)">
    <polygon fill="none" points="-1297,0 4353,0 4353,7067 -1297,7067 "/>
    <ellipse fill="#FEFEFE" cx="552" cy="684" rx="10" ry="11"/>
    <ellipse fill="#FEFEFE" cx="886" cy="941" rx="10" ry="11"/>
    <ellipse fill="#FEFEFE" cx="1866" cy="688" rx="10" ry="11"/>
    <ellipse fill="#FEFEFE" cx="3258" cy="1029" rx="10" ry="11"/>
    <ellipse fill="#FEFEFE" cx="474" cy="1469" rx="10" ry="11"/>
    <ellipse fill="#FEFEFE" cx="808" cy="1726" rx="10" ry="11"/>
    <ellipse fill="#FEFEFE" cx="2887" cy="727" rx="10" ry="11"/>
    <ellipse fill="#FEFEFE" cx="2554" cy="470" rx="10" ry="11"/>
    <ellipse fill="#FEFEFE" cx="2347" cy="1455" rx="10" ry="11"/>
    <ellipse fill="#FEFEFE" cx="2014" cy="1712" rx="10" ry="11"/>
    <ellipse fill="#FEFEFE" cx="3284" cy="1665" rx="10" ry="11"/>
    <ellipse fill="#FEFEFE" cx="382" cy="1017" rx="10" ry="11"/>
    <ellipse fill="#FEFEFE" cx="948" cy="415" rx="10" ry="11"/>
    <ellipse fill="#FEFEFE" cx="615" cy="672" rx="10" ry="11"/>
    <ellipse fill="#FEFEFE" cx="258" cy="1906" rx="10" ry="11"/>
    <ellipse fill="#FEFEFE" cx="824" cy="1304" rx="10" ry="11"/>
    <ellipse fill="#FEFEFE" cx="490" cy="1561" rx="10" ry="11"/>
    <ellipse fill="#FEFEFE" cx="1914" cy="1852" rx="10" ry="11"/>
    <ellipse fill="#FEFEFE" cx="1348" cy="1251" rx="10" ry="11"/>
    <ellipse fill="#FEFEFE" cx="1682" cy="1508" rx="10" ry="11"/>
    <ellipse fill="#FEFEFE" cx="1611" cy="1953" rx="10" ry="11"/>
    <ellipse fill="#FEFEFE" cx="1045" cy="1352" rx="10" ry="11"/>
    <ellipse fill="#FEFEFE" cx="1379" cy="1609" rx="10" ry="11"/>
    <ellipse fill="#FEFEFE" cx="3026" cy="1899" rx="10" ry="11"/>
    <ellipse fill="#FEFEFE" cx="2460" cy="1297" rx="10" ry="11"/>
    <ellipse fill="#FEFEFE" cx="2794" cy="1554" rx="10" ry="11"/>
    <ellipse fill="#FEFEFE" cx="1724" cy="850" rx="10" ry="11"/>
    <ellipse fill="#FEFEFE" cx="1158" cy="249" rx="10" ry="11"/>
    <ellipse fill="#FEFEFE" cx="1491" cy="506" rx="10" ry="11"/>
    <ellipse fill="#FEFEFE" cx="2370" cy="559" rx="10" ry="11"/>
    <ellipse fill="#FEFEFE" cx="2037" cy="302" rx="10" ry="11"/>
    <ellipse fill="#FEFEFE" cx="120" cy="308" rx="10" ry="11"/>
    <ellipse fill="#FEFEFE" cx="182" cy="295" rx="10" ry="11"/>
    <ellipse fill="#FEFEFE" cx="174" cy="717" rx="10" ry="11"/>
    <ellipse fill="#FEFEFE" cx="190" cy="808" rx="10" ry="11"/>
    <ellipse fill="#FEFEFE" cx="428" cy="255" rx="10" ry="11"/>
    <ellipse fill="#FEFEFE" cx="444" cy="346" rx="10" ry="11"/>
    <ellipse fill="#FEFEFE" cx="3205" cy="460" rx="10" ry="11"/>
    <ellipse fill="#FEFEFE" cx="2943" cy="301" rx="10" ry="11"/>
    <ellipse fill="#FEFEFE" cx="1085" cy="730" rx="10" ry="11"/>
    <ellipse fill="#FEFEFE" cx="176" cy="1381" rx="10" ry="11"/>
    <path fill="#FEFEFE" fill-opacity="0.670588" d="M315 1191l39 -15 40 6c62,13 70,13 98,-37 46,14 213,17 245,-1l35 -21 -2 -52 -38 -23 -17 -8c30,-39 20,-14 39,-35 20,-23 17,-33 17,-70 -58,-45 -62,-61 -145,-33 -32,-38 -37,-79 -106,-69 -57,7 -23,20 -70,12 -43,-6 -57,-42 -191,43l-58 38c-41,29 0,10 -50,16 -184,23 -146,165 -104,197 48,38 69,4 120,25 5,2 16,11 23,15 52,33 66,24 125,12z"/>
    <path fill="#FEFEFE" fill-opacity="0.670588" d="M3078 2452l38 -15 41 6c62,13 69,13 98,-37 46,14 213,17 244,-1l35 -22 -1 -51 -38 -23 -17 -8c30,-39 20,-14 39,-35 20,-23 17,-33 17,-70 -58,-45 -63,-61 -145,-33 -32,-38 -37,-79 -107,-70 -56,8 -22,21 -70,13 -42,-6 -56,-42 -190,43l-59 38c-40,29 1,10 -49,16 -184,23 -147,164 -105,197 49,38 69,4 121,25 5,2 16,11 22,15 53,33 66,24 126,12z"/>
    <path fill="#FEFEFE" fill-opacity="0.670588" d="M1117 2082l38 -16 40 6c62,13 70,13 98,-37 46,14 213,17 245,-1l35 -21 -2 -52 -37 -23 -17 -8c29,-39 20,-13 39,-35 19,-22 17,-33 17,-70 -58,-45 -63,-60 -146,-33 -31,-38 -37,-79 -106,-69 -57,7 -22,20 -70,13 -43,-7 -57,-43 -191,42l-58 38c-41,29 0,10 -50,16 -184,23 -146,165 -104,197 49,38 69,4 120,25 5,2 16,11 23,15 52,33 66,24 126,13z"/>
    <path fill="#FEFEFE" fill-opacity="0.850980" d="M2132 891l39 -16 40 6c62,13 70,13 98,-37 46,14 213,17 244,-1l36 -21 -2 -51 -38 -24 -17 -7c30,-40 20,-14 39,-36 20,-22 17,-33 17,-70 -58,-45 -62,-60 -145,-33 -32,-38 -37,-79 -106,-69 -57,8 -23,20 -70,13 -43,-7 -57,-42 -191,42l-59 38c-40,29 1,10 -49,17 -184,22 -147,164 -105,197 49,38 69,3 121,24 5,2 16,11 22,15 53,33 66,25 126,13z"/>
    <path fill="#FEFEFE" fill-opacity="0.670588" d="M1650 872l24 -10 25 4c38,8 43,8 61,-23 29,9 132,11 152,0l22 -14 -1 -31 -24 -15 -10 -5c18,-24 12,-8 24,-22 12,-14 11,-20 11,-44 -36,-28 -39,-37 -91,-20 -20,-24 -23,-49 -66,-43 -35,5 -14,13 -43,8 -27,-4 -36,-26 -119,26l-36 24c-26,18 0,6 -31,10 -115,14 -91,102 -65,123 30,23 43,2 75,15 3,1 10,7 14,9 32,21 41,16 78,8z"/>
    <path fill="#FEFEFE" fill-opacity="0.670588" d="M432 2479l26 -11 27 5c41,8 46,8 65,-25 31,9 143,11 164,-1l23 -14 -1 -34 -25 -16 -11 -5c19,-26 13,-9 26,-24 13,-15 11,-22 11,-47 -39,-30 -42,-40 -97,-21 -21,-26 -25,-53 -71,-47 -38,5 -15,14 -47,9 -29,-5 -38,-28 -127,28l-39 26c-28,19 0,6 -34,10 -123,16 -97,110 -69,132 32,26 46,2 80,17 4,1 11,7 15,10 35,22 44,16 84,8z"/>
   </g>
  </g>
  <polygon fill="none" points="0,7067 0,0 3973,0 3973,7067 "/>
 </g>
</svg>
