<?xml version="1.0" encoding="UTF-8"?>
<!DOCTYPE svg PUBLIC "-//W3C//DTD SVG 1.1//EN" "http://www.w3.org/Graphics/SVG/1.1/DTD/svg11.dtd">
<!-- Creator: CorelDRAW 2021 (64-Bit Evaluation Version) -->
<svg xmlns="http://www.w3.org/2000/svg" xml:space="preserve" width="34.846mm" height="5.1434mm" version="1.1" style="shape-rendering:geometricPrecision; text-rendering:geometricPrecision; image-rendering:optimizeQuality; fill-rule:evenodd; clip-rule:evenodd"
viewBox="0 0 184.11 27.18"
 xmlns:xlink="http://www.w3.org/1999/xlink"
 xmlns:xodm="http://www.corel.com/coreldraw/odm/2003">
 <defs>
  <style type="text/css">
   <![CDATA[
    .fil0 {fill:none}
    .fil1 {fill:#56AAB7}
    .fil2 {fill:#FEFEFE;fill-rule:nonzero}
   ]]>
  </style>
 </defs>
 <g id="圖層_x0020_1">
  <metadata id="CorelCorpID_0Corel-Layer"/>
  <rect class="fil0" y="0" width="184.11" height="27.17"/>
  <path class="fil1" d="M10.98 0l162.16 0c6.06,0 10.97,5.63 10.97,12.58 0,6.95 -4.91,12.58 -10.97,12.58l-162.16 0c-6.06,0 -10.97,-5.63 -10.97,-12.58 0,-6.95 4.91,-12.58 10.97,-12.58z"/>
  <path class="fil2" d="M76.59 6.58l5.71 0c0.28,0.48 0.66,0.95 1.12,1.38 0.31,-0.15 0.61,-0.32 0.89,-0.48 0.35,-0.24 0.69,-0.55 1.03,-0.93l1.09 0.67c-0.41,0.52 -0.8,0.9 -1.16,1.15 -0.2,0.19 -0.44,0.35 -0.74,0.5 0.28,0.2 0.57,0.39 0.86,0.57 0.3,-0.14 0.59,-0.34 0.86,-0.58 0.35,-0.27 0.69,-0.63 1.02,-1.08l1.09 0.69c-0.4,0.56 -0.77,1 -1.12,1.31 -0.19,0.14 -0.38,0.29 -0.57,0.42 0.69,0.39 1.45,0.77 2.27,1.14l-0.83 1.18c-0.92,-0.41 -1.73,-0.81 -2.43,-1.22l0 0.44 -7.46 0 0 -0.38c-0.76,0.45 -1.62,0.92 -2.59,1.38l-0.83 -1.35c1.02,-0.42 1.9,-0.83 2.65,-1.22 -0.35,-0.36 -0.77,-0.73 -1.25,-1.12l0.92 -0.89c0.6,0.43 1.12,0.86 1.56,1.28 0.02,-0.01 0.03,-0.02 0.04,-0.03 0.66,-0.44 1.27,-0.97 1.83,-1.59l-3.96 0 0 -1.22zm2.91 3.92l4.95 0c-0.05,-0.04 -0.09,-0.07 -0.13,-0.1 -1.02,-0.69 -1.85,-1.45 -2.49,-2.29 -0.46,0.68 -0.93,1.22 -1.41,1.63 -0.26,0.24 -0.57,0.49 -0.92,0.76zm-2.39 2.2l9.63 0 0 3.73 -9.63 0 0 -3.73zm8.23 2.5l0 -1.28 -6.81 0 0 1.28 6.81 0zm-6.1 1.38c0.48,0.52 0.93,1.13 1.32,1.82l2.77 0c0.43,-0.57 0.8,-1.18 1.12,-1.82l1.53 0.51c-0.29,0.5 -0.61,0.94 -0.96,1.31l3.42 0 0 1.22 -13.01 0 0 -1.22 3.54 0c-0.3,-0.42 -0.69,-0.85 -1.16,-1.31l1.43 -0.51z"/>
  <path id="_1" class="fil2" d="M97.29 8.86c-0.04,-0.18 -0.07,-0.38 -0.09,-0.58l-4.03 0 0 -1.34 5.49 0c0.23,2.88 0.85,5.15 1.85,6.8 0.98,1.68 2.39,3.24 4.22,4.67l-1 1.56c-2.11,-1.87 -3.6,-3.67 -4.47,-5.38 -0.52,-0.97 -0.97,-2.02 -1.32,-3.14 -0.46,1.58 -0.98,2.89 -1.57,3.93 -0.85,1.42 -2.28,2.93 -4.29,4.53l-1.02 -1.41c1.92,-1.44 3.32,-2.9 4.19,-4.4 0.84,-1.41 1.52,-3.15 2.05,-5.24z"/>
 </g>
</svg>
